<?xml version="1.0" encoding="UTF-8"?>
<!DOCTYPE score-partwise PUBLIC "-//Recordare//DTD MusicXML 3.1 Partwise//EN" "http://www.musicxml.org/dtds/partwise.dtd">
<score-partwise version="3.1">
 <identification>
  <encoding>
   <software>MuseScore 3.2.3</software>
   <encoding-date>2020-08-04</encoding-date>
   <supports element="accidental" type="yes"/>
   <supports element="beam" type="yes"/>
   <supports element="print" attribute="new-page" type="yes" value="yes"/>
   <supports element="print" attribute="new-system" type="yes" value="yes"/>
   <supports element="stem" type="yes"/>
  </encoding>
 </identification>
 <defaults>
  <scaling>
   <millimeters>7.05556</millimeters>
   <tenths>40</tenths>
  </scaling>
  <page-layout>
   <page-height>1683.78</page-height>
   <page-width>1190.55</page-width>
   <page-margins type="even">
    <left-margin>56.6929</left-margin>
    <right-margin>56.6929</right-margin>
    <top-margin>56.6929</top-margin>
    <bottom-margin>113.386</bottom-margin>
   </page-margins>
   <page-margins type="odd">
    <left-margin>56.6929</left-margin>
    <right-margin>56.6929</right-margin>
    <top-margin>56.6929</top-margin>
    <bottom-margin>113.386</bottom-margin>
   </page-margins>
  </page-layout>
  <word-font font-family="FreeSerif" font-size="10"/>
  <lyric-font font-family="FreeSerif" font-size="11"/>
 </defaults>
 <part-list>
  <score-part id="P1">
   <part-name>Pf</part-name>
   <score-instrument id="P1-I1">
    <instrument-name></instrument-name>
   </score-instrument>
   <midi-device id="P1-I1" port="1"></midi-device>
   <midi-instrument id="P1-I1">
    <midi-channel>1</midi-channel>
    <midi-program>1</midi-program>
    <volume>78.7402</volume>
    <pan>0</pan>
   </midi-instrument>
  </score-part>
  <score-part id="P3">
   <part-name>Pf</part-name>
   <score-instrument id="P3-I1">
    <instrument-name></instrument-name>
   </score-instrument>
   <midi-device id="P3-I1" port="1"></midi-device>
   <midi-instrument id="P3-I1">
    <midi-channel>5</midi-channel>
    <midi-program>1</midi-program>
    <volume>78.7402</volume>
    <pan>0</pan>
   </midi-instrument>
  </score-part>
 </part-list>
 <part id="P1">
  <measure number="1" width="169.13">
   <attributes>
    <divisions>2</divisions>
    <key>
     <fifths>-3</fifths>
    </key>
    <time>
     <beats>3</beats>
     <beat-type>4</beat-type>
    </time>
    <clef>
     <sign>G</sign>
     <line>2</line>
    </clef>
   </attributes>
   <direction placement="above">
    <direction-type>
     <metronome parentheses="no" default-x="-40.12" default-y="34.71" relative-y="20.00">
      <beat-unit>quarter</beat-unit>
      <per-minute>81</per-minute>
     </metronome>
    </direction-type>
    <sound tempo="81"/>
   </direction>
   <note default-x="125.37" default-y="-75.00" dynamics="88.89">
    <pitch>
     <step>E</step>
     <alter>-1</alter>
     <octave>3</octave>
    </pitch>
    <duration>6</duration>
    <tie type="start"/>
    <voice>1</voice>
    <type>half</type>
    <dot/>
    <notations>
     <tied type="start"/>
    </notations>
   </note>
   <note default-x="125.37" default-y="-65.00" dynamics="88.89">
    <chord/>
    <pitch>
     <step>G</step>
     <octave>3</octave>
    </pitch>
    <duration>6</duration>
    <tie type="start"/>
    <voice>1</voice>
    <type>half</type>
    <dot/>
    <notations>
     <tied type="start"/>
    </notations>
   </note>
   <note default-x="125.37" default-y="-50.00" dynamics="88.89">
    <chord/>
    <pitch>
     <step>C</step>
     <octave>4</octave>
    </pitch>
    <duration>6</duration>
    <tie type="start"/>
    <voice>1</voice>
    <type>half</type>
    <dot/>
    <notations>
     <tied type="start"/>
    </notations>
   </note>
   <note default-x="125.37" default-y="30.00" dynamics="88.89">
    <chord/>
    <pitch>
     <step>E</step>
     <octave>6</octave>
    </pitch>
    <duration>6</duration>
    <tie type="start"/>
    <voice>1</voice>
    <type>half</type>
    <dot/>
    <accidental>natural</accidental>
    <notations>
     <tied type="start"/>
    </notations>
   </note>
   <backup>
    <duration>6</duration>
   </backup>
   <forward>
    <duration>6</duration>
    <voice>2</voice>
   </forward>
  </measure>
  <measure number="2" width="108.33">
   <note default-x="13.80" default-y="-75.00" dynamics="88.89">
    <pitch>
     <step>E</step>
     <alter>-1</alter>
     <octave>3</octave>
    </pitch>
    <duration>4</duration>
    <tie type="stop"/>
    <tie type="start"/>
    <voice>1</voice>
    <type>half</type>
    <notations>
     <tied type="stop"/>
     <tied type="start"/>
    </notations>
   </note>
   <note default-x="13.80" default-y="-65.00" dynamics="88.89">
    <chord/>
    <pitch>
     <step>G</step>
     <octave>3</octave>
    </pitch>
    <duration>4</duration>
    <tie type="stop"/>
    <tie type="start"/>
    <voice>1</voice>
    <type>half</type>
    <notations>
     <tied type="stop"/>
     <tied type="start"/>
    </notations>
   </note>
   <note default-x="13.80" default-y="-50.00" dynamics="88.89">
    <chord/>
    <pitch>
     <step>C</step>
     <octave>4</octave>
    </pitch>
    <duration>4</duration>
    <tie type="stop"/>
    <tie type="start"/>
    <voice>1</voice>
    <type>half</type>
    <notations>
     <tied type="stop"/>
     <tied type="start"/>
    </notations>
   </note>
   <note default-x="13.80" default-y="30.00" dynamics="88.89">
    <chord/>
    <pitch>
     <step>E</step>
     <octave>6</octave>
    </pitch>
    <duration>4</duration>
    <tie type="stop"/>
    <tie type="start"/>
    <voice>1</voice>
    <type>half</type>
    <notations>
     <tied type="stop"/>
     <tied type="start"/>
    </notations>
   </note>
   <note default-x="60.30" default-y="-75.00" dynamics="88.89">
    <pitch>
     <step>E</step>
     <alter>-1</alter>
     <octave>3</octave>
    </pitch>
    <duration>1</duration>
    <tie type="stop"/>
    <voice>1</voice>
    <type>eighth</type>
    <beam number="1">begin</beam>
    <notations>
     <tied type="stop"/>
    </notations>
   </note>
   <note default-x="60.30" default-y="-65.00" dynamics="88.89">
    <chord/>
    <pitch>
     <step>G</step>
     <octave>3</octave>
    </pitch>
    <duration>1</duration>
    <tie type="stop"/>
    <voice>1</voice>
    <type>eighth</type>
    <notations>
     <tied type="stop"/>
    </notations>
   </note>
   <note default-x="60.30" default-y="-50.00" dynamics="88.89">
    <chord/>
    <pitch>
     <step>C</step>
     <octave>4</octave>
    </pitch>
    <duration>1</duration>
    <tie type="stop"/>
    <voice>1</voice>
    <type>eighth</type>
    <notations>
     <tied type="stop"/>
    </notations>
   </note>
   <note default-x="60.30" default-y="30.00" dynamics="88.89">
    <chord/>
    <pitch>
     <step>E</step>
     <octave>6</octave>
    </pitch>
    <duration>1</duration>
    <tie type="stop"/>
    <voice>1</voice>
    <type>eighth</type>
    <notations>
     <tied type="stop"/>
    </notations>
   </note>
   <note default-x="83.56" default-y="-65.00" dynamics="88.89">
    <pitch>
     <step>G</step>
     <octave>3</octave>
    </pitch>
    <duration>1</duration>
    <voice>1</voice>
    <type>eighth</type>
    <beam number="1">end</beam>
   </note>
   <note default-x="83.56" default-y="-50.00" dynamics="88.89">
    <chord/>
    <pitch>
     <step>C</step>
     <octave>4</octave>
    </pitch>
    <duration>1</duration>
    <voice>1</voice>
    <type>eighth</type>
   </note>
   <backup>
    <duration>6</duration>
   </backup>
   <forward>
    <duration>6</duration>
    <voice>2</voice>
   </forward>
  </measure>
  <measure number="3" width="134.39">
   <direction placement="above">
    <direction-type>
     <metronome parentheses="no" relative-y="20.00">
      <beat-unit>quarter</beat-unit>
      <per-minute>78</per-minute>
     </metronome>
    </direction-type>
    <sound tempo="78"/>
   </direction>
   <note default-x="16.36" default-y="-65.00" dynamics="88.89">
    <pitch>
     <step>G</step>
     <octave>3</octave>
    </pitch>
    <duration>3</duration>
    <voice>1</voice>
    <type>quarter</type>
    <dot/>
   </note>
   <note default-x="16.36" default-y="-55.00" dynamics="88.89">
    <chord/>
    <pitch>
     <step>B</step>
     <octave>3</octave>
    </pitch>
    <duration>3</duration>
    <voice>1</voice>
    <type>quarter</type>
    <dot/>
    <accidental>natural</accidental>
   </note>
   <note default-x="16.36" default-y="-45.00" dynamics="88.89">
    <chord/>
    <pitch>
     <step>D</step>
     <octave>4</octave>
    </pitch>
    <duration>3</duration>
    <voice>1</voice>
    <type>quarter</type>
    <dot/>
   </note>
   <note default-x="52.88" default-y="-50.00" dynamics="88.89">
    <pitch>
     <step>C</step>
     <octave>4</octave>
    </pitch>
    <duration>1</duration>
    <voice>1</voice>
    <type>eighth</type>
   </note>
   <note default-x="52.88" default-y="-40.00" dynamics="88.89">
    <chord/>
    <pitch>
     <step>E</step>
     <alter>-1</alter>
     <octave>4</octave>
    </pitch>
    <duration>1</duration>
    <voice>1</voice>
    <type>eighth</type>
   </note>
   <direction placement="above">
    <direction-type>
     <metronome parentheses="no" relative-y="20.00">
      <beat-unit>quarter</beat-unit>
      <per-minute>76</per-minute>
     </metronome>
    </direction-type>
    <sound tempo="76.0002"/>
   </direction>
   <note default-x="102.84" default-y="-50.00" dynamics="88.89">
    <pitch>
     <step>C</step>
     <octave>4</octave>
    </pitch>
    <duration>2</duration>
    <tie type="start"/>
    <voice>1</voice>
    <type>quarter</type>
    <notations>
     <tied type="start"/>
    </notations>
   </note>
   <note default-x="102.84" default-y="-40.00" dynamics="88.89">
    <chord/>
    <pitch>
     <step>E</step>
     <alter>-1</alter>
     <octave>4</octave>
    </pitch>
    <duration>2</duration>
    <tie type="start"/>
    <voice>1</voice>
    <type>quarter</type>
    <notations>
     <tied type="start"/>
    </notations>
   </note>
   <backup>
    <duration>6</duration>
   </backup>
   <forward>
    <duration>6</duration>
    <voice>2</voice>
   </forward>
  </measure>
  <measure number="4" width="66.71">
   <note default-x="22.95" default-y="-50.00" dynamics="88.89">
    <pitch>
     <step>C</step>
     <octave>4</octave>
    </pitch>
    <duration>6</duration>
    <tie type="stop"/>
    <voice>1</voice>
    <type>half</type>
    <dot/>
    <notations>
     <tied type="stop"/>
    </notations>
   </note>
   <note default-x="22.95" default-y="-40.00" dynamics="88.89">
    <chord/>
    <pitch>
     <step>E</step>
     <alter>-1</alter>
     <octave>4</octave>
    </pitch>
    <duration>6</duration>
    <tie type="stop"/>
    <voice>1</voice>
    <type>half</type>
    <dot/>
    <notations>
     <tied type="stop"/>
    </notations>
   </note>
   <backup>
    <duration>6</duration>
   </backup>
   <forward>
    <duration>6</duration>
    <voice>2</voice>
   </forward>
  </measure>
  <measure number="5" width="59.88">
   <direction placement="above">
    <direction-type>
     <metronome parentheses="no" relative-y="20.00">
      <beat-unit>quarter</beat-unit>
      <per-minute>73</per-minute>
     </metronome>
    </direction-type>
    <sound tempo="73.0002"/>
   </direction>
   <note default-x="16.00" default-y="-55.00" dynamics="88.89">
    <pitch>
     <step>B</step>
     <octave>3</octave>
    </pitch>
    <duration>6</duration>
    <tie type="start"/>
    <voice>1</voice>
    <type>half</type>
    <dot/>
    <accidental>natural</accidental>
    <notations>
     <tied type="start"/>
    </notations>
   </note>
   <note default-x="16.00" default-y="-45.00" dynamics="88.89">
    <chord/>
    <pitch>
     <step>D</step>
     <octave>4</octave>
    </pitch>
    <duration>6</duration>
    <tie type="start"/>
    <voice>1</voice>
    <type>half</type>
    <dot/>
    <notations>
     <tied type="start"/>
    </notations>
   </note>
   <backup>
    <duration>6</duration>
   </backup>
   <forward>
    <duration>6</duration>
    <voice>2</voice>
   </forward>
  </measure>
  <measure number="6" width="111.81">
   <note default-x="13.80" default-y="-55.00" dynamics="88.89">
    <pitch>
     <step>B</step>
     <octave>3</octave>
    </pitch>
    <duration>2</duration>
    <tie type="stop"/>
    <voice>1</voice>
    <type>quarter</type>
    <notations>
     <tied type="stop"/>
    </notations>
   </note>
   <note default-x="13.80" default-y="-45.00" dynamics="88.89">
    <chord/>
    <pitch>
     <step>D</step>
     <octave>4</octave>
    </pitch>
    <duration>2</duration>
    <tie type="stop"/>
    <voice>1</voice>
    <type>quarter</type>
    <notations>
     <tied type="stop"/>
    </notations>
   </note>
   <direction placement="above">
    <direction-type>
     <metronome parentheses="no" default-y="21.82" relative-y="20.00">
      <beat-unit>quarter</beat-unit>
      <per-minute>81</per-minute>
     </metronome>
    </direction-type>
    <sound tempo="81"/>
   </direction>
   <note default-x="55.38" default-y="-45.00" dynamics="88.89">
    <pitch>
     <step>D</step>
     <octave>4</octave>
    </pitch>
    <duration>4</duration>
    <tie type="start"/>
    <voice>1</voice>
    <type>half</type>
    <notations>
     <tied type="start"/>
    </notations>
   </note>
   <note default-x="55.38" default-y="-35.00" dynamics="88.89">
    <chord/>
    <pitch>
     <step>F</step>
     <octave>4</octave>
    </pitch>
    <duration>4</duration>
    <tie type="start"/>
    <voice>1</voice>
    <type>half</type>
    <notations>
     <tied type="start"/>
    </notations>
   </note>
   <note default-x="55.38" default-y="-25.00" dynamics="88.89">
    <chord/>
    <pitch>
     <step>A</step>
     <alter>-1</alter>
     <octave>4</octave>
    </pitch>
    <duration>4</duration>
    <tie type="start"/>
    <voice>1</voice>
    <type>half</type>
    <notations>
     <tied type="start"/>
    </notations>
   </note>
   <backup>
    <duration>6</duration>
   </backup>
   <forward>
    <duration>6</duration>
    <voice>2</voice>
   </forward>
   <backup>
    <duration>5</duration>
   </backup>
   <direction placement="above">
    <direction-type>
     <metronome parentheses="no" relative-y="20.00">
      <beat-unit>quarter</beat-unit>
      <per-minute>78</per-minute>
     </metronome>
    </direction-type>
    <sound tempo="78"/>
   </direction>
   <forward>
    <duration>5</duration>
   </forward>
  </measure>
  <measure number="7" width="66.71">
   <note default-x="22.95" default-y="-45.00" dynamics="88.89">
    <pitch>
     <step>D</step>
     <octave>4</octave>
    </pitch>
    <duration>6</duration>
    <tie type="stop"/>
    <tie type="start"/>
    <voice>1</voice>
    <type>half</type>
    <dot/>
    <notations>
     <tied type="stop"/>
     <tied type="start"/>
    </notations>
   </note>
   <note default-x="22.95" default-y="-35.00" dynamics="88.89">
    <chord/>
    <pitch>
     <step>F</step>
     <octave>4</octave>
    </pitch>
    <duration>6</duration>
    <tie type="stop"/>
    <tie type="start"/>
    <voice>1</voice>
    <type>half</type>
    <dot/>
    <notations>
     <tied type="stop"/>
     <tied type="start"/>
    </notations>
   </note>
   <note default-x="22.95" default-y="-25.00" dynamics="88.89">
    <chord/>
    <pitch>
     <step>A</step>
     <alter>-1</alter>
     <octave>4</octave>
    </pitch>
    <duration>6</duration>
    <tie type="stop"/>
    <tie type="start"/>
    <voice>1</voice>
    <type>half</type>
    <dot/>
    <notations>
     <tied type="stop"/>
     <tied type="start"/>
    </notations>
   </note>
   <backup>
    <duration>6</duration>
   </backup>
   <forward>
    <duration>6</duration>
    <voice>2</voice>
   </forward>
  </measure>
  <measure number="8" width="171.60">
   <note default-x="21.87" default-y="-45.00" dynamics="88.89">
    <pitch>
     <step>D</step>
     <octave>4</octave>
    </pitch>
    <duration>1</duration>
    <tie type="stop"/>
    <voice>1</voice>
    <type>eighth</type>
    <beam number="1">begin</beam>
    <notations>
     <tied type="stop"/>
    </notations>
   </note>
   <note default-x="21.87" default-y="-35.00" dynamics="88.89">
    <chord/>
    <pitch>
     <step>F</step>
     <octave>4</octave>
    </pitch>
    <duration>1</duration>
    <tie type="stop"/>
    <voice>1</voice>
    <type>eighth</type>
    <notations>
     <tied type="stop"/>
    </notations>
   </note>
   <note default-x="21.87" default-y="-25.00" dynamics="88.89">
    <chord/>
    <pitch>
     <step>A</step>
     <alter>-1</alter>
     <octave>4</octave>
    </pitch>
    <duration>1</duration>
    <tie type="stop"/>
    <voice>1</voice>
    <type>eighth</type>
    <notations>
     <tied type="stop"/>
    </notations>
   </note>
   <note default-x="60.75" default-y="-35.00" dynamics="88.89">
    <pitch>
     <step>F</step>
     <octave>4</octave>
    </pitch>
    <duration>1</duration>
    <voice>1</voice>
    <type>eighth</type>
    <beam number="1">end</beam>
   </note>
   <direction placement="above">
    <direction-type>
     <metronome parentheses="no" relative-y="20.00">
      <beat-unit>quarter</beat-unit>
      <per-minute>83</per-minute>
     </metronome>
    </direction-type>
    <sound tempo="82.9998"/>
   </direction>
   <note default-x="89.77" default-y="-55.00" dynamics="88.89">
    <pitch>
     <step>B</step>
     <octave>3</octave>
    </pitch>
    <duration>3</duration>
    <voice>1</voice>
    <type>quarter</type>
    <dot/>
    <accidental>natural</accidental>
   </note>
   <note default-x="89.77" default-y="-45.00" dynamics="88.89">
    <chord/>
    <pitch>
     <step>D</step>
     <octave>4</octave>
    </pitch>
    <duration>3</duration>
    <voice>1</voice>
    <type>quarter</type>
    <dot/>
   </note>
   <note default-x="89.77" default-y="-30.00" dynamics="88.89">
    <chord/>
    <pitch>
     <step>G</step>
     <octave>4</octave>
    </pitch>
    <duration>3</duration>
    <voice>1</voice>
    <type>quarter</type>
    <dot/>
   </note>
   <note default-x="137.22" default-y="-55.00" dynamics="88.89">
    <pitch>
     <step>B</step>
     <octave>3</octave>
    </pitch>
    <duration>1</duration>
    <voice>1</voice>
    <type>eighth</type>
   </note>
   <note default-x="137.22" default-y="-45.00" dynamics="88.89">
    <chord/>
    <pitch>
     <step>D</step>
     <octave>4</octave>
    </pitch>
    <duration>1</duration>
    <voice>1</voice>
    <type>eighth</type>
   </note>
   <note default-x="137.22" default-y="-25.00" dynamics="88.89">
    <chord/>
    <pitch>
     <step>A</step>
     <alter>-1</alter>
     <octave>4</octave>
    </pitch>
    <duration>1</duration>
    <voice>1</voice>
    <type>eighth</type>
   </note>
   <backup>
    <duration>6</duration>
   </backup>
   <forward>
    <duration>6</duration>
    <voice>2</voice>
   </forward>
  </measure>
  <measure number="9" width="59.88">
   <direction placement="above">
    <direction-type>
     <metronome parentheses="no" relative-y="20.00">
      <beat-unit>quarter</beat-unit>
      <per-minute>81</per-minute>
     </metronome>
    </direction-type>
    <sound tempo="81"/>
   </direction>
   <note default-x="14.72" default-y="-25.00" dynamics="88.89">
    <pitch>
     <step>A</step>
     <alter>-1</alter>
     <octave>4</octave>
    </pitch>
    <duration>6</duration>
    <tie type="start"/>
    <voice>1</voice>
    <type>half</type>
    <dot/>
    <notations>
     <tied type="start"/>
    </notations>
   </note>
   <backup>
    <duration>6</duration>
   </backup>
   <forward>
    <duration>6</duration>
    <voice>2</voice>
   </forward>
  </measure>
  <measure number="10" width="213.81">
   <note default-x="104.27" default-y="-25.00" dynamics="88.89">
    <pitch>
     <step>A</step>
     <alter>-1</alter>
     <octave>4</octave>
    </pitch>
    <duration>3</duration>
    <tie type="stop"/>
    <voice>1</voice>
    <type>quarter</type>
    <dot/>
    <notations>
     <tied type="stop"/>
    </notations>
   </note>
   <note default-x="158.24" default-y="-30.00" dynamics="88.89">
    <pitch>
     <step>G</step>
     <octave>4</octave>
    </pitch>
    <duration>3</duration>
    <tie type="start"/>
    <voice>1</voice>
    <type>quarter</type>
    <dot/>
    <notations>
     <tied type="start"/>
    </notations>
   </note>
   <backup>
    <duration>6</duration>
   </backup>
   <forward>
    <duration>6</duration>
    <voice>2</voice>
   </forward>
  </measure>
  <measure number="11" width="141.63">
   <note default-x="13.80" default-y="-30.00" dynamics="88.89">
    <pitch>
     <step>G</step>
     <octave>4</octave>
    </pitch>
    <duration>4</duration>
    <tie type="stop"/>
    <voice>1</voice>
    <type>half</type>
    <notations>
     <tied type="stop"/>
    </notations>
   </note>
   <note default-x="79.43" default-y="5.00" dynamics="88.89">
    <pitch>
     <step>G</step>
     <octave>5</octave>
    </pitch>
    <duration>1</duration>
    <voice>1</voice>
    <type>eighth</type>
    <beam number="1">begin</beam>
   </note>
   <direction placement="above">
    <direction-type>
     <metronome parentheses="no" relative-y="20.00">
      <beat-unit>quarter</beat-unit>
      <per-minute>83</per-minute>
     </metronome>
    </direction-type>
    <sound tempo="82.9998"/>
   </direction>
   <note default-x="110.36" default-y="-25.00" dynamics="88.89">
    <pitch>
     <step>A</step>
     <octave>4</octave>
    </pitch>
    <duration>1</duration>
    <tie type="start"/>
    <voice>1</voice>
    <type>eighth</type>
    <accidental>natural</accidental>
    <beam number="1">end</beam>
    <notations>
     <tied type="start"/>
    </notations>
   </note>
   <note default-x="110.36" default-y="-15.00" dynamics="88.89">
    <chord/>
    <pitch>
     <step>C</step>
     <octave>5</octave>
    </pitch>
    <duration>1</duration>
    <tie type="start"/>
    <voice>1</voice>
    <type>eighth</type>
    <notations>
     <tied type="start"/>
    </notations>
   </note>
   <backup>
    <duration>6</duration>
   </backup>
   <forward>
    <duration>6</duration>
    <voice>2</voice>
   </forward>
  </measure>
  <measure number="12" width="99.54">
   <note default-x="13.80" default-y="-25.00" dynamics="88.89">
    <pitch>
     <step>A</step>
     <octave>4</octave>
    </pitch>
    <duration>6</duration>
    <tie type="stop"/>
    <tie type="start"/>
    <voice>1</voice>
    <type>half</type>
    <dot/>
    <notations>
     <tied type="stop"/>
     <tied type="start"/>
    </notations>
   </note>
   <note default-x="13.80" default-y="-15.00" dynamics="88.89">
    <chord/>
    <pitch>
     <step>C</step>
     <octave>5</octave>
    </pitch>
    <duration>6</duration>
    <tie type="stop"/>
    <tie type="start"/>
    <voice>1</voice>
    <type>half</type>
    <dot/>
    <notations>
     <tied type="stop"/>
     <tied type="start"/>
    </notations>
   </note>
   <backup>
    <duration>6</duration>
   </backup>
   <forward>
    <duration>6</duration>
    <voice>2</voice>
   </forward>
  </measure>
  <measure number="13" width="158.15">
   <note default-x="13.80" default-y="-25.00" dynamics="88.89">
    <pitch>
     <step>A</step>
     <octave>4</octave>
    </pitch>
    <duration>4</duration>
    <tie type="stop"/>
    <tie type="start"/>
    <voice>1</voice>
    <type>half</type>
    <notations>
     <tied type="stop"/>
     <tied type="start"/>
    </notations>
   </note>
   <note default-x="13.80" default-y="-15.00" dynamics="88.89">
    <chord/>
    <pitch>
     <step>C</step>
     <octave>5</octave>
    </pitch>
    <duration>4</duration>
    <tie type="stop"/>
    <tie type="start"/>
    <voice>1</voice>
    <type>half</type>
    <notations>
     <tied type="stop"/>
     <tied type="start"/>
    </notations>
   </note>
   <note default-x="88.74" default-y="-25.00" dynamics="88.89">
    <pitch>
     <step>A</step>
     <octave>4</octave>
    </pitch>
    <duration>1</duration>
    <tie type="stop"/>
    <voice>1</voice>
    <type>eighth</type>
    <beam number="1">begin</beam>
    <notations>
     <tied type="stop"/>
    </notations>
   </note>
   <note default-x="88.74" default-y="-15.00" dynamics="88.89">
    <chord/>
    <pitch>
     <step>C</step>
     <octave>5</octave>
    </pitch>
    <duration>1</duration>
    <tie type="stop"/>
    <voice>1</voice>
    <type>eighth</type>
    <notations>
     <tied type="stop"/>
    </notations>
   </note>
   <direction placement="above">
    <direction-type>
     <metronome parentheses="no" relative-y="20.00">
      <beat-unit>quarter</beat-unit>
      <per-minute>86</per-minute>
     </metronome>
    </direction-type>
    <sound tempo="85.9998"/>
   </direction>
   <note default-x="122.64" default-y="-25.00" dynamics="88.89">
    <pitch>
     <step>A</step>
     <octave>4</octave>
    </pitch>
    <duration>1</duration>
    <voice>1</voice>
    <type>eighth</type>
    <accidental>natural</accidental>
    <beam number="1">end</beam>
   </note>
   <note default-x="122.64" default-y="-15.00" dynamics="88.89">
    <chord/>
    <pitch>
     <step>C</step>
     <octave>5</octave>
    </pitch>
    <duration>1</duration>
    <voice>1</voice>
    <type>eighth</type>
   </note>
   <backup>
    <duration>6</duration>
   </backup>
   <forward>
    <duration>6</duration>
    <voice>2</voice>
   </forward>
  </measure>
  <measure number="14" width="147.45">
   <note default-x="37.29" default-y="-10.00" dynamics="88.89">
    <pitch>
     <step>D</step>
     <octave>5</octave>
    </pitch>
    <duration>2</duration>
    <voice>1</voice>
    <type>quarter</type>
   </note>
   <note>
    <rest/>
    <duration>2</duration>
    <voice>1</voice>
    <type>quarter</type>
   </note>
   <note>
    <rest/>
    <duration>2</duration>
    <voice>1</voice>
    <type>quarter</type>
   </note>
   <backup>
    <duration>6</duration>
   </backup>
   <forward>
    <duration>6</duration>
    <voice>2</voice>
   </forward>
  </measure>
 </part>
 <part id="P3">
  <measure number="1" width="169.13">
   <attributes>
    <divisions>2</divisions>
    <key>
     <fifths>-3</fifths>
    </key>
    <time>
     <beats>3</beats>
     <beat-type>4</beat-type>
    </time>
    <clef>
     <sign>F</sign>
     <line>4</line>
    </clef>
   </attributes>
   <note default-x="125.37" default-y="-270.00" dynamics="88.89">
    <pitch>
     <step>C</step>
     <octave>2</octave>
    </pitch>
    <duration>6</duration>
    <tie type="start"/>
    <voice>1</voice>
    <type>half</type>
    <dot/>
    <notations>
     <tied type="start"/>
    </notations>
   </note>
   <note default-x="125.37" default-y="-260.00" dynamics="88.89">
    <chord/>
    <pitch>
     <step>E</step>
     <alter>-1</alter>
     <octave>2</octave>
    </pitch>
    <duration>6</duration>
    <tie type="start"/>
    <voice>1</voice>
    <type>half</type>
    <dot/>
    <notations>
     <tied type="start"/>
    </notations>
   </note>
   <note default-x="125.37" default-y="-250.00" dynamics="88.89">
    <chord/>
    <pitch>
     <step>G</step>
     <octave>2</octave>
    </pitch>
    <duration>6</duration>
    <tie type="start"/>
    <voice>1</voice>
    <type>half</type>
    <dot/>
    <notations>
     <tied type="start"/>
    </notations>
   </note>
   <note default-x="125.37" default-y="-235.00" dynamics="88.89">
    <chord/>
    <pitch>
     <step>C</step>
     <octave>3</octave>
    </pitch>
    <duration>6</duration>
    <tie type="start"/>
    <voice>1</voice>
    <type>half</type>
    <dot/>
    <notations>
     <tied type="start"/>
    </notations>
   </note>
   <backup>
    <duration>6</duration>
   </backup>
   <forward>
    <duration>6</duration>
    <voice>2</voice>
   </forward>
  </measure>
  <measure number="2" width="108.33">
   <note default-x="13.80" default-y="-270.00" dynamics="88.89">
    <pitch>
     <step>C</step>
     <octave>2</octave>
    </pitch>
    <duration>4</duration>
    <tie type="stop"/>
    <tie type="start"/>
    <voice>1</voice>
    <type>half</type>
    <notations>
     <tied type="stop"/>
     <tied type="start"/>
    </notations>
   </note>
   <note default-x="13.80" default-y="-260.00" dynamics="88.89">
    <chord/>
    <pitch>
     <step>E</step>
     <alter>-1</alter>
     <octave>2</octave>
    </pitch>
    <duration>4</duration>
    <tie type="stop"/>
    <tie type="start"/>
    <voice>1</voice>
    <type>half</type>
    <notations>
     <tied type="stop"/>
     <tied type="start"/>
    </notations>
   </note>
   <note default-x="13.80" default-y="-250.00" dynamics="88.89">
    <chord/>
    <pitch>
     <step>G</step>
     <octave>2</octave>
    </pitch>
    <duration>4</duration>
    <tie type="stop"/>
    <tie type="start"/>
    <voice>1</voice>
    <type>half</type>
    <notations>
     <tied type="stop"/>
     <tied type="start"/>
    </notations>
   </note>
   <note default-x="13.80" default-y="-235.00" dynamics="88.89">
    <chord/>
    <pitch>
     <step>C</step>
     <octave>3</octave>
    </pitch>
    <duration>4</duration>
    <tie type="stop"/>
    <tie type="start"/>
    <voice>1</voice>
    <type>half</type>
    <notations>
     <tied type="stop"/>
     <tied type="start"/>
    </notations>
   </note>
   <note default-x="60.30" default-y="-270.00" dynamics="88.89">
    <pitch>
     <step>C</step>
     <octave>2</octave>
    </pitch>
    <duration>1</duration>
    <tie type="stop"/>
    <voice>1</voice>
    <type>eighth</type>
    <beam number="1">begin</beam>
    <notations>
     <tied type="stop"/>
    </notations>
   </note>
   <note default-x="60.30" default-y="-260.00" dynamics="88.89">
    <chord/>
    <pitch>
     <step>E</step>
     <alter>-1</alter>
     <octave>2</octave>
    </pitch>
    <duration>1</duration>
    <tie type="stop"/>
    <voice>1</voice>
    <type>eighth</type>
    <notations>
     <tied type="stop"/>
    </notations>
   </note>
   <note default-x="60.30" default-y="-250.00" dynamics="88.89">
    <chord/>
    <pitch>
     <step>G</step>
     <octave>2</octave>
    </pitch>
    <duration>1</duration>
    <tie type="stop"/>
    <voice>1</voice>
    <type>eighth</type>
    <notations>
     <tied type="stop"/>
    </notations>
   </note>
   <note default-x="60.30" default-y="-235.00" dynamics="88.89">
    <chord/>
    <pitch>
     <step>C</step>
     <octave>3</octave>
    </pitch>
    <duration>1</duration>
    <tie type="stop"/>
    <voice>1</voice>
    <type>eighth</type>
    <notations>
     <tied type="stop"/>
    </notations>
   </note>
   <note default-x="83.56" default-y="-225.00" dynamics="88.89">
    <pitch>
     <step>E</step>
     <alter>-1</alter>
     <octave>3</octave>
    </pitch>
    <duration>1</duration>
    <voice>1</voice>
    <type>eighth</type>
    <beam number="1">end</beam>
   </note>
   <backup>
    <duration>6</duration>
   </backup>
   <forward>
    <duration>6</duration>
    <voice>2</voice>
   </forward>
  </measure>
  <measure number="3" width="134.39">
   <note default-x="16.36" default-y="-230.00" dynamics="88.89">
    <pitch>
     <step>D</step>
     <octave>3</octave>
    </pitch>
    <duration>3</duration>
    <voice>1</voice>
    <type>quarter</type>
    <dot/>
   </note>
   <note default-x="52.88" default-y="-235.00" dynamics="88.89">
    <pitch>
     <step>C</step>
     <octave>3</octave>
    </pitch>
    <duration>1</duration>
    <voice>1</voice>
    <type>eighth</type>
   </note>
   <note default-x="52.88" default-y="-215.00" dynamics="88.89">
    <chord/>
    <pitch>
     <step>G</step>
     <octave>3</octave>
    </pitch>
    <duration>1</duration>
    <voice>1</voice>
    <type>eighth</type>
   </note>
   <note default-x="90.97" default-y="-215.00" dynamics="88.89">
    <pitch>
     <step>G</step>
     <alter>-1</alter>
     <octave>3</octave>
    </pitch>
    <duration>2</duration>
    <tie type="start"/>
    <voice>1</voice>
    <type>quarter</type>
    <accidental>flat</accidental>
    <notations>
     <tied type="start"/>
    </notations>
   </note>
   <note default-x="102.84" default-y="-210.00" dynamics="88.89">
    <chord/>
    <pitch>
     <step>A</step>
     <octave>3</octave>
    </pitch>
    <duration>2</duration>
    <tie type="start"/>
    <voice>1</voice>
    <type>quarter</type>
    <accidental>natural</accidental>
    <notations>
     <tied type="start"/>
    </notations>
   </note>
   <backup>
    <duration>6</duration>
   </backup>
   <forward>
    <duration>6</duration>
    <voice>2</voice>
   </forward>
  </measure>
  <measure number="4" width="66.71">
   <note default-x="10.36" default-y="-215.00" dynamics="88.89">
    <pitch>
     <step>G</step>
     <alter>-1</alter>
     <octave>3</octave>
    </pitch>
    <duration>6</duration>
    <tie type="stop"/>
    <voice>1</voice>
    <type>half</type>
    <dot/>
    <notations>
     <tied type="stop"/>
    </notations>
   </note>
   <note default-x="22.95" default-y="-210.00" dynamics="88.89">
    <chord/>
    <pitch>
     <step>A</step>
     <octave>3</octave>
    </pitch>
    <duration>6</duration>
    <tie type="stop"/>
    <voice>1</voice>
    <type>half</type>
    <dot/>
    <notations>
     <tied type="stop"/>
    </notations>
   </note>
   <backup>
    <duration>6</duration>
   </backup>
   <forward>
    <duration>6</duration>
    <voice>2</voice>
   </forward>
  </measure>
  <measure number="5" width="59.88">
   <note default-x="16.00" default-y="-215.00" dynamics="88.89">
    <pitch>
     <step>G</step>
     <octave>3</octave>
    </pitch>
    <duration>6</duration>
    <tie type="start"/>
    <voice>1</voice>
    <type>half</type>
    <dot/>
    <notations>
     <tied type="start"/>
    </notations>
   </note>
   <backup>
    <duration>6</duration>
   </backup>
   <forward>
    <duration>6</duration>
    <voice>2</voice>
   </forward>
  </measure>
  <measure number="6" width="111.81">
   <note default-x="13.80" default-y="-215.00" dynamics="88.89">
    <pitch>
     <step>G</step>
     <octave>3</octave>
    </pitch>
    <duration>2</duration>
    <tie type="stop"/>
    <voice>1</voice>
    <type>quarter</type>
    <notations>
     <tied type="stop"/>
    </notations>
   </note>
   <note default-x="42.79" default-y="-210.00" dynamics="88.89">
    <pitch>
     <step>A</step>
     <alter>-1</alter>
     <octave>3</octave>
    </pitch>
    <duration>4</duration>
    <tie type="start"/>
    <voice>1</voice>
    <type>half</type>
    <notations>
     <tied type="start"/>
    </notations>
   </note>
   <note default-x="55.38" default-y="-205.00" dynamics="88.89">
    <chord/>
    <pitch>
     <step>B</step>
     <octave>3</octave>
    </pitch>
    <duration>4</duration>
    <tie type="start"/>
    <voice>1</voice>
    <type>half</type>
    <accidental>natural</accidental>
    <notations>
     <tied type="start"/>
    </notations>
   </note>
   <backup>
    <duration>6</duration>
   </backup>
   <forward>
    <duration>1</duration>
    <voice>2</voice>
   </forward>
   <note default-x="30.82" default-y="-350.00" dynamics="88.89">
    <pitch>
     <step>A</step>
     <alter>-1</alter>
     <octave>2</octave>
    </pitch>
    <duration>1</duration>
    <voice>2</voice>
    <type>eighth</type>
   </note>
   <forward>
    <duration>2</duration>
    <voice>2</voice>
   </forward>
   <forward>
    <duration>2</duration>
    <voice>2</voice>
   </forward>
  </measure>
  <measure number="7" width="66.71">
   <note default-x="10.36" default-y="-210.00" dynamics="88.89">
    <pitch>
     <step>A</step>
     <alter>-1</alter>
     <octave>3</octave>
    </pitch>
    <duration>6</duration>
    <tie type="stop"/>
    <tie type="start"/>
    <voice>1</voice>
    <type>half</type>
    <dot/>
    <notations>
     <tied type="stop"/>
     <tied type="start"/>
    </notations>
   </note>
   <note default-x="22.95" default-y="-205.00" dynamics="88.89">
    <chord/>
    <pitch>
     <step>B</step>
     <octave>3</octave>
    </pitch>
    <duration>6</duration>
    <tie type="stop"/>
    <tie type="start"/>
    <voice>1</voice>
    <type>half</type>
    <dot/>
    <notations>
     <tied type="stop"/>
     <tied type="start"/>
    </notations>
   </note>
   <backup>
    <duration>6</duration>
   </backup>
   <forward>
    <duration>6</duration>
    <voice>2</voice>
   </forward>
  </measure>
  <measure number="8" width="171.60">
   <note default-x="10.00" default-y="-210.00" dynamics="88.89">
    <pitch>
     <step>A</step>
     <alter>-1</alter>
     <octave>3</octave>
    </pitch>
    <duration>1</duration>
    <tie type="stop"/>
    <voice>1</voice>
    <type>eighth</type>
    <beam number="1">begin</beam>
    <notations>
     <tied type="stop"/>
    </notations>
   </note>
   <note default-x="21.87" default-y="-205.00" dynamics="88.89">
    <chord/>
    <pitch>
     <step>B</step>
     <octave>3</octave>
    </pitch>
    <duration>1</duration>
    <tie type="stop"/>
    <voice>1</voice>
    <type>eighth</type>
    <notations>
     <tied type="stop"/>
    </notations>
   </note>
   <note default-x="48.89" default-y="-210.00" dynamics="88.89">
    <pitch>
     <step>A</step>
     <alter>-1</alter>
     <octave>3</octave>
    </pitch>
    <duration>1</duration>
    <voice>1</voice>
    <type>eighth</type>
    <beam number="1">end</beam>
   </note>
   <note default-x="60.75" default-y="-205.00" dynamics="88.89">
    <chord/>
    <pitch>
     <step>B</step>
     <octave>3</octave>
    </pitch>
    <duration>1</duration>
    <voice>1</voice>
    <type>eighth</type>
    <accidental>natural</accidental>
   </note>
   <note default-x="60.75" default-y="-195.00" dynamics="88.89">
    <chord/>
    <pitch>
     <step>D</step>
     <octave>4</octave>
    </pitch>
    <duration>1</duration>
    <voice>1</voice>
    <type>eighth</type>
   </note>
   <note default-x="89.77" default-y="-215.00" dynamics="88.89">
    <pitch>
     <step>G</step>
     <octave>3</octave>
    </pitch>
    <duration>3</duration>
    <voice>1</voice>
    <type>quarter</type>
    <dot/>
   </note>
   <note default-x="137.22" default-y="-220.00" dynamics="88.89">
    <pitch>
     <step>F</step>
     <octave>3</octave>
    </pitch>
    <duration>1</duration>
    <voice>1</voice>
    <type>eighth</type>
   </note>
   <backup>
    <duration>6</duration>
   </backup>
   <forward>
    <duration>6</duration>
    <voice>2</voice>
   </forward>
  </measure>
  <measure number="9" width="59.88">
   <note default-x="14.72" default-y="-225.00" dynamics="88.89">
    <pitch>
     <step>E</step>
     <alter>-1</alter>
     <octave>3</octave>
    </pitch>
    <duration>6</duration>
    <tie type="start"/>
    <voice>1</voice>
    <type>half</type>
    <dot/>
    <notations>
     <tied type="start"/>
    </notations>
   </note>
   <note default-x="14.72" default-y="-205.00" dynamics="88.89">
    <chord/>
    <pitch>
     <step>B</step>
     <octave>3</octave>
    </pitch>
    <duration>6</duration>
    <tie type="start"/>
    <voice>1</voice>
    <type>half</type>
    <dot/>
    <accidental>natural</accidental>
    <notations>
     <tied type="start"/>
    </notations>
   </note>
   <note default-x="14.72" default-y="-195.00" dynamics="88.89">
    <chord/>
    <pitch>
     <step>D</step>
     <octave>4</octave>
    </pitch>
    <duration>6</duration>
    <tie type="start"/>
    <voice>1</voice>
    <type>half</type>
    <dot/>
    <notations>
     <tied type="start"/>
    </notations>
   </note>
   <backup>
    <duration>6</duration>
   </backup>
   <forward>
    <duration>6</duration>
    <voice>2</voice>
   </forward>
  </measure>
  <measure number="10" width="213.81">
   <note default-x="104.27" default-y="-225.00" dynamics="88.89">
    <pitch>
     <step>E</step>
     <alter>-1</alter>
     <octave>3</octave>
    </pitch>
    <duration>3</duration>
    <tie type="stop"/>
    <voice>1</voice>
    <type>quarter</type>
    <dot/>
    <notations>
     <tied type="stop"/>
    </notations>
   </note>
   <note default-x="104.27" default-y="-205.00" dynamics="88.89">
    <chord/>
    <pitch>
     <step>B</step>
     <octave>3</octave>
    </pitch>
    <duration>3</duration>
    <tie type="stop"/>
    <voice>1</voice>
    <type>quarter</type>
    <dot/>
    <notations>
     <tied type="stop"/>
    </notations>
   </note>
   <note default-x="104.27" default-y="-195.00" dynamics="88.89">
    <chord/>
    <pitch>
     <step>D</step>
     <octave>4</octave>
    </pitch>
    <duration>3</duration>
    <tie type="stop"/>
    <voice>1</voice>
    <type>quarter</type>
    <dot/>
    <notations>
     <tied type="stop"/>
    </notations>
   </note>
   <note default-x="158.24" default-y="-200.00" dynamics="88.89">
    <pitch>
     <step>C</step>
     <octave>4</octave>
    </pitch>
    <duration>3</duration>
    <tie type="start"/>
    <voice>1</voice>
    <type>quarter</type>
    <dot/>
    <notations>
     <tied type="start"/>
    </notations>
   </note>
   <note default-x="158.24" default-y="-190.00" dynamics="88.89">
    <chord/>
    <pitch>
     <step>E</step>
     <alter>-1</alter>
     <octave>4</octave>
    </pitch>
    <duration>3</duration>
    <tie type="start"/>
    <voice>1</voice>
    <type>quarter</type>
    <dot/>
    <notations>
     <tied type="start"/>
    </notations>
   </note>
   <backup>
    <duration>6</duration>
   </backup>
   <forward>
    <duration>6</duration>
    <voice>2</voice>
   </forward>
  </measure>
  <measure number="11" width="141.63">
   <note default-x="13.80" default-y="-200.00" dynamics="88.89">
    <pitch>
     <step>C</step>
     <octave>4</octave>
    </pitch>
    <duration>4</duration>
    <tie type="stop"/>
    <voice>1</voice>
    <type>half</type>
    <notations>
     <tied type="stop"/>
    </notations>
   </note>
   <note default-x="13.80" default-y="-190.00" dynamics="88.89">
    <chord/>
    <pitch>
     <step>E</step>
     <alter>-1</alter>
     <octave>4</octave>
    </pitch>
    <duration>4</duration>
    <tie type="stop"/>
    <voice>1</voice>
    <type>half</type>
    <notations>
     <tied type="stop"/>
    </notations>
   </note>
   <note default-x="79.43" default-y="-225.00" dynamics="88.89">
    <pitch>
     <step>E</step>
     <alter>-1</alter>
     <octave>3</octave>
    </pitch>
    <duration>1</duration>
    <voice>1</voice>
    <type>eighth</type>
    <beam number="1">begin</beam>
   </note>
   <note default-x="110.36" default-y="-190.00" dynamics="88.89">
    <pitch>
     <step>E</step>
     <alter>-1</alter>
     <octave>4</octave>
    </pitch>
    <duration>1</duration>
    <tie type="start"/>
    <voice>1</voice>
    <type>eighth</type>
    <beam number="1">end</beam>
    <notations>
     <tied type="start"/>
    </notations>
   </note>
   <note default-x="110.36" default-y="-180.00" dynamics="88.89">
    <chord/>
    <pitch>
     <step>G</step>
     <alter>-1</alter>
     <octave>4</octave>
    </pitch>
    <duration>1</duration>
    <tie type="start"/>
    <voice>1</voice>
    <type>eighth</type>
    <accidental>flat</accidental>
    <notations>
     <tied type="start"/>
    </notations>
   </note>
   <backup>
    <duration>6</duration>
   </backup>
   <forward>
    <duration>6</duration>
    <voice>2</voice>
   </forward>
  </measure>
  <measure number="12" width="99.54">
   <note default-x="13.80" default-y="-190.00" dynamics="88.89">
    <pitch>
     <step>E</step>
     <alter>-1</alter>
     <octave>4</octave>
    </pitch>
    <duration>6</duration>
    <tie type="stop"/>
    <tie type="start"/>
    <voice>1</voice>
    <type>half</type>
    <dot/>
    <notations>
     <tied type="stop"/>
     <tied type="start"/>
    </notations>
   </note>
   <note default-x="13.80" default-y="-180.00" dynamics="88.89">
    <chord/>
    <pitch>
     <step>G</step>
     <alter>-1</alter>
     <octave>4</octave>
    </pitch>
    <duration>6</duration>
    <tie type="stop"/>
    <tie type="start"/>
    <voice>1</voice>
    <type>half</type>
    <dot/>
    <notations>
     <tied type="stop"/>
     <tied type="start"/>
    </notations>
   </note>
   <backup>
    <duration>6</duration>
   </backup>
   <forward>
    <duration>6</duration>
    <voice>2</voice>
   </forward>
  </measure>
  <measure number="13" width="158.15">
   <note default-x="13.80" default-y="-190.00" dynamics="88.89">
    <pitch>
     <step>E</step>
     <alter>-1</alter>
     <octave>4</octave>
    </pitch>
    <duration>4</duration>
    <tie type="stop"/>
    <tie type="start"/>
    <voice>1</voice>
    <type>half</type>
    <notations>
     <tied type="stop"/>
     <tied type="start"/>
    </notations>
   </note>
   <note default-x="13.80" default-y="-180.00" dynamics="88.89">
    <chord/>
    <pitch>
     <step>G</step>
     <alter>-1</alter>
     <octave>4</octave>
    </pitch>
    <duration>4</duration>
    <tie type="stop"/>
    <tie type="start"/>
    <voice>1</voice>
    <type>half</type>
    <notations>
     <tied type="stop"/>
     <tied type="start"/>
    </notations>
   </note>
   <note default-x="88.74" default-y="-190.00" dynamics="88.89">
    <pitch>
     <step>E</step>
     <alter>-1</alter>
     <octave>4</octave>
    </pitch>
    <duration>1</duration>
    <tie type="stop"/>
    <voice>1</voice>
    <type>eighth</type>
    <beam number="1">begin</beam>
    <notations>
     <tied type="stop"/>
    </notations>
   </note>
   <note default-x="88.74" default-y="-180.00" dynamics="88.89">
    <chord/>
    <pitch>
     <step>G</step>
     <alter>-1</alter>
     <octave>4</octave>
    </pitch>
    <duration>1</duration>
    <tie type="stop"/>
    <voice>1</voice>
    <type>eighth</type>
    <notations>
     <tied type="stop"/>
    </notations>
   </note>
   <note default-x="122.64" default-y="-190.00" dynamics="88.89">
    <pitch>
     <step>E</step>
     <alter>-1</alter>
     <octave>4</octave>
    </pitch>
    <duration>1</duration>
    <voice>1</voice>
    <type>eighth</type>
    <beam number="1">end</beam>
   </note>
   <note default-x="122.64" default-y="-180.00" dynamics="88.89">
    <chord/>
    <pitch>
     <step>G</step>
     <alter>-1</alter>
     <octave>4</octave>
    </pitch>
    <duration>1</duration>
    <voice>1</voice>
    <type>eighth</type>
    <accidental>flat</accidental>
   </note>
   <backup>
    <duration>6</duration>
   </backup>
   <forward>
    <duration>6</duration>
    <voice>2</voice>
   </forward>
  </measure>
  <measure number="14" width="147.45">
   <note default-x="37.29" default-y="-195.00" dynamics="88.89">
    <pitch>
     <step>D</step>
     <octave>4</octave>
    </pitch>
    <duration>2</duration>
    <voice>1</voice>
    <type>quarter</type>
   </note>
   <note default-x="25.43" default-y="-180.00" dynamics="88.89">
    <chord/>
    <pitch>
     <step>G</step>
     <alter>-1</alter>
     <octave>4</octave>
    </pitch>
    <duration>2</duration>
    <voice>1</voice>
    <type>quarter</type>
    <accidental>flat</accidental>
   </note>
   <note default-x="37.29" default-y="-175.00" dynamics="88.89">
    <chord/>
    <pitch>
     <step>A</step>
     <octave>4</octave>
    </pitch>
    <duration>2</duration>
    <voice>1</voice>
    <type>quarter</type>
    <accidental>natural</accidental>
   </note>
   <note>
    <rest/>
    <duration>2</duration>
    <voice>1</voice>
    <type>quarter</type>
   </note>
   <note>
    <rest/>
    <duration>2</duration>
    <voice>1</voice>
    <type>quarter</type>
   </note>
   <backup>
    <duration>6</duration>
   </backup>
   <forward>
    <duration>6</duration>
    <voice>2</voice>
   </forward>
  </measure>
 </part>
</score-partwise>
