<?xml version="1.0" encoding="UTF-8"?>
<!DOCTYPE score-partwise PUBLIC "-//Recordare//DTD MusicXML 3.1 Partwise//EN" "http://www.musicxml.org/dtds/partwise.dtd">
<score-partwise version="3.1">
 <identification>
  <encoding>
   <software>MuseScore 3.2.3</software>
   <encoding-date>2020-08-04</encoding-date>
   <supports element="accidental" type="yes"/>
   <supports element="beam" type="yes"/>
   <supports element="print" attribute="new-page" type="yes" value="yes"/>
   <supports element="print" attribute="new-system" type="yes" value="yes"/>
   <supports element="stem" type="yes"/>
  </encoding>
 </identification>
 <defaults>
  <scaling>
   <millimeters>7.05556</millimeters>
   <tenths>40</tenths>
  </scaling>
  <page-layout>
   <page-height>1683.78</page-height>
   <page-width>1190.55</page-width>
   <page-margins type="even">
    <left-margin>56.6929</left-margin>
    <right-margin>56.6929</right-margin>
    <top-margin>56.6929</top-margin>
    <bottom-margin>113.386</bottom-margin>
   </page-margins>
   <page-margins type="odd">
    <left-margin>56.6929</left-margin>
    <right-margin>56.6929</right-margin>
    <top-margin>56.6929</top-margin>
    <bottom-margin>113.386</bottom-margin>
   </page-margins>
  </page-layout>
  <word-font font-family="FreeSerif" font-size="10"/>
  <lyric-font font-family="FreeSerif" font-size="11"/>
 </defaults>
 <part-list>
  <score-part id="P1">
   <part-name>Pf</part-name>
   <score-instrument id="P1-I1">
    <instrument-name></instrument-name>
   </score-instrument>
   <midi-device id="P1-I1" port="1"></midi-device>
   <midi-instrument id="P1-I1">
    <midi-channel>1</midi-channel>
    <midi-program>1</midi-program>
    <volume>78.7402</volume>
    <pan>0</pan>
   </midi-instrument>
  </score-part>
  <score-part id="P3">
   <part-name>Pf</part-name>
   <score-instrument id="P3-I1">
    <instrument-name></instrument-name>
   </score-instrument>
   <midi-device id="P3-I1" port="1"></midi-device>
   <midi-instrument id="P3-I1">
    <midi-channel>5</midi-channel>
    <midi-program>1</midi-program>
    <volume>78.7402</volume>
    <pan>0</pan>
   </midi-instrument>
  </score-part>
 </part-list>
 <part id="P1">
  <measure number="1" width="241.72">
   <attributes>
    <divisions>12</divisions>
    <key>
     <fifths>-2</fifths>
    </key>
    <time>
     <beats>4</beats>
     <beat-type>4</beat-type>
    </time>
    <clef>
     <sign>G</sign>
     <line>2</line>
    </clef>
   </attributes>
   <direction placement="above">
    <direction-type>
     <metronome parentheses="no" default-x="-35.96" relative-y="20.00">
      <beat-unit>quarter</beat-unit>
      <per-minute>83</per-minute>
     </metronome>
    </direction-type>
    <sound tempo="82.9998"/>
   </direction>
   <note>
    <rest/>
    <duration>24</duration>
    <voice>1</voice>
    <type>half</type>
   </note>
   <note>
    <rest/>
    <duration>12</duration>
    <voice>1</voice>
    <type>quarter</type>
   </note>
   <note default-x="179.54" default-y="0.00" dynamics="88.89">
    <pitch>
     <step>F</step>
     <octave>5</octave>
    </pitch>
    <duration>9</duration>
    <voice>1</voice>
    <type>eighth</type>
    <dot/>
    <beam number="1">begin</beam>
   </note>
   <note default-x="216.96" default-y="-10.00" dynamics="88.89">
    <pitch>
     <step>D</step>
     <octave>5</octave>
    </pitch>
    <duration>3</duration>
    <voice>1</voice>
    <type>16th</type>
    <beam number="1">end</beam>
    <beam number="2">backward hook</beam>
   </note>
   <backup>
    <duration>48</duration>
   </backup>
   <forward>
    <duration>48</duration>
    <voice>2</voice>
   </forward>
  </measure>
  <measure number="2" width="271.10">
   <note default-x="13.80" default-y="-20.00" dynamics="88.89">
    <pitch>
     <step>B</step>
     <alter>-1</alter>
     <octave>4</octave>
    </pitch>
    <duration>6</duration>
    <voice>1</voice>
    <type>eighth</type>
    <beam number="1">begin</beam>
   </note>
   <note default-x="43.33" default-y="-30.00" dynamics="88.89">
    <pitch>
     <step>G</step>
     <octave>4</octave>
    </pitch>
    <duration>6</duration>
    <voice>1</voice>
    <type>eighth</type>
    <beam number="1">continue</beam>
   </note>
   <note default-x="43.33" default-y="-20.00" dynamics="88.89">
    <chord/>
    <pitch>
     <step>B</step>
     <alter>-1</alter>
     <octave>4</octave>
    </pitch>
    <duration>6</duration>
    <voice>1</voice>
    <type>eighth</type>
   </note>
   <note default-x="72.86" default-y="-5.00" dynamics="88.89">
    <pitch>
     <step>E</step>
     <alter>-1</alter>
     <octave>5</octave>
    </pitch>
    <duration>6</duration>
    <voice>1</voice>
    <type>eighth</type>
    <beam number="1">continue</beam>
   </note>
   <note default-x="102.38" default-y="5.00" dynamics="88.89">
    <pitch>
     <step>G</step>
     <octave>5</octave>
    </pitch>
    <duration>6</duration>
    <voice>1</voice>
    <type>eighth</type>
    <beam number="1">end</beam>
   </note>
   <note default-x="131.91" default-y="-25.00" dynamics="88.89">
    <pitch>
     <step>A</step>
     <octave>4</octave>
    </pitch>
    <duration>12</duration>
    <voice>1</voice>
    <type>quarter</type>
   </note>
   <note default-x="190.97" default-y="-15.00" dynamics="88.89">
    <pitch>
     <step>C</step>
     <octave>5</octave>
    </pitch>
    <duration>3</duration>
    <voice>1</voice>
    <type>16th</type>
    <beam number="1">begin</beam>
    <beam number="2">begin</beam>
   </note>
   <note default-x="209.42" default-y="-20.00" dynamics="88.89">
    <pitch>
     <step>B</step>
     <alter>-1</alter>
     <octave>4</octave>
    </pitch>
    <duration>3</duration>
    <voice>1</voice>
    <type>16th</type>
    <beam number="1">continue</beam>
    <beam number="2">continue</beam>
   </note>
   <note default-x="227.88" default-y="-10.00" dynamics="88.89">
    <pitch>
     <step>D</step>
     <octave>5</octave>
    </pitch>
    <duration>3</duration>
    <voice>1</voice>
    <type>16th</type>
    <beam number="1">continue</beam>
    <beam number="2">continue</beam>
   </note>
   <note default-x="246.33" default-y="-15.00" dynamics="88.89">
    <pitch>
     <step>C</step>
     <octave>5</octave>
    </pitch>
    <duration>3</duration>
    <voice>1</voice>
    <type>16th</type>
    <beam number="1">end</beam>
    <beam number="2">end</beam>
   </note>
   <backup>
    <duration>48</duration>
   </backup>
   <forward>
    <duration>48</duration>
    <voice>2</voice>
   </forward>
  </measure>
  <measure number="3" width="260.24">
   <direction placement="above">
    <direction-type>
     <metronome parentheses="no" relative-y="20.00">
      <beat-unit>quarter</beat-unit>
      <per-minute>86</per-minute>
     </metronome>
    </direction-type>
    <sound tempo="85.9998"/>
   </direction>
   <note default-x="10.00" default-y="-5.00" dynamics="88.89">
    <pitch>
     <step>E</step>
     <alter>-1</alter>
     <octave>5</octave>
    </pitch>
    <duration>3</duration>
    <voice>1</voice>
    <type>16th</type>
    <beam number="1">begin</beam>
    <beam number="2">begin</beam>
   </note>
   <direction placement="above">
    <direction-type>
     <metronome parentheses="no" default-y="21.82" relative-y="20.00">
      <beat-unit>quarter</beat-unit>
      <per-minute>89</per-minute>
     </metronome>
    </direction-type>
    <sound tempo="88.9998"/>
   </direction>
   <note default-x="29.13" default-y="-10.00" dynamics="88.89">
    <pitch>
     <step>D</step>
     <octave>5</octave>
    </pitch>
    <duration>3</duration>
    <voice>1</voice>
    <type>16th</type>
    <beam number="1">continue</beam>
    <beam number="2">continue</beam>
   </note>
   <direction placement="above">
    <direction-type>
     <metronome parentheses="no" default-y="43.64" relative-y="20.00">
      <beat-unit>quarter</beat-unit>
      <per-minute>92</per-minute>
     </metronome>
    </direction-type>
    <sound tempo="91.9998"/>
   </direction>
   <note default-x="48.25" default-y="0.00" dynamics="88.89">
    <pitch>
     <step>F</step>
     <octave>5</octave>
    </pitch>
    <duration>3</duration>
    <voice>1</voice>
    <type>16th</type>
    <beam number="1">continue</beam>
    <beam number="2">continue</beam>
   </note>
   <direction placement="above">
    <direction-type>
     <metronome parentheses="no" default-y="65.46" relative-y="20.00">
      <beat-unit>quarter</beat-unit>
      <per-minute>95</per-minute>
     </metronome>
    </direction-type>
    <sound tempo="94.9998"/>
   </direction>
   <note default-x="67.38" default-y="-5.00" dynamics="88.89">
    <pitch>
     <step>E</step>
     <alter>-1</alter>
     <octave>5</octave>
    </pitch>
    <duration>3</duration>
    <voice>1</voice>
    <type>16th</type>
    <beam number="1">end</beam>
    <beam number="2">end</beam>
   </note>
   <direction placement="above">
    <direction-type>
     <metronome parentheses="no" default-y="87.27" relative-y="20.00">
      <beat-unit>quarter</beat-unit>
      <per-minute>101</per-minute>
     </metronome>
    </direction-type>
    <sound tempo="101"/>
   </direction>
   <note default-x="86.50" default-y="-10.00" dynamics="88.89">
    <pitch>
     <step>D</step>
     <octave>5</octave>
    </pitch>
    <duration>12</duration>
    <voice>1</voice>
    <type>quarter</type>
   </note>
   <direction placement="above">
    <direction-type>
     <metronome parentheses="no" default-y="109.09" relative-y="20.00">
      <beat-unit>quarter</beat-unit>
      <per-minute>108</per-minute>
     </metronome>
    </direction-type>
    <sound tempo="108"/>
   </direction>
   <note default-x="116.72" default-y="-10.00" dynamics="88.89">
    <pitch>
     <step>D</step>
     <octave>5</octave>
    </pitch>
    <duration>3</duration>
    <voice>1</voice>
    <type>16th</type>
    <beam number="1">begin</beam>
    <beam number="2">begin</beam>
   </note>
   <note default-x="128.58" default-y="-5.00" dynamics="88.89">
    <chord/>
    <pitch>
     <step>E</step>
     <alter>-1</alter>
     <octave>5</octave>
    </pitch>
    <duration>3</duration>
    <voice>1</voice>
    <type>16th</type>
   </note>
   <direction placement="above">
    <direction-type>
     <metronome parentheses="no" default-y="130.79" relative-y="20.00">
      <beat-unit>quarter</beat-unit>
      <per-minute>115</per-minute>
     </metronome>
    </direction-type>
    <sound tempo="115"/>
   </direction>
   <note default-x="147.71" default-y="-15.00" dynamics="88.89">
    <pitch>
     <step>C</step>
     <octave>5</octave>
    </pitch>
    <duration>3</duration>
    <voice>1</voice>
    <type>16th</type>
    <beam number="1">continue</beam>
    <beam number="2">end</beam>
   </note>
   <direction placement="above">
    <direction-type>
     <metronome parentheses="no" default-y="152.63" relative-y="20.00">
      <beat-unit>quarter</beat-unit>
      <per-minute>123</per-minute>
     </metronome>
    </direction-type>
    <sound tempo="123"/>
   </direction>
   <note default-x="166.83" default-y="-10.00" dynamics="88.89">
    <pitch>
     <step>D</step>
     <octave>5</octave>
    </pitch>
    <duration>6</duration>
    <voice>1</voice>
    <type>eighth</type>
    <beam number="1">end</beam>
   </note>
   <direction placement="above">
    <direction-type>
     <metronome parentheses="no" default-y="174.47" relative-y="20.00">
      <beat-unit>quarter</beat-unit>
      <per-minute>131</per-minute>
     </metronome>
    </direction-type>
    <sound tempo="131"/>
   </direction>
   <note default-x="197.44" default-y="-5.00" dynamics="88.89">
    <pitch>
     <step>E</step>
     <alter>-1</alter>
     <octave>5</octave>
    </pitch>
    <duration>6</duration>
    <voice>1</voice>
    <type>eighth</type>
    <beam number="1">begin</beam>
   </note>
   <direction placement="above">
    <direction-type>
     <metronome parentheses="no" default-y="196.29" relative-y="20.00">
      <beat-unit>quarter</beat-unit>
      <per-minute>140</per-minute>
     </metronome>
    </direction-type>
    <sound tempo="140"/>
   </direction>
   <note default-x="228.04" default-y="-5.00" dynamics="88.89">
    <pitch>
     <step>E</step>
     <octave>5</octave>
    </pitch>
    <duration>6</duration>
    <voice>1</voice>
    <type>eighth</type>
    <accidental>natural</accidental>
    <beam number="1">end</beam>
   </note>
   <backup>
    <duration>48</duration>
   </backup>
   <forward>
    <duration>48</duration>
    <voice>2</voice>
   </forward>
  </measure>
  <measure number="4" width="175.36">
   <direction placement="above">
    <direction-type>
     <metronome parentheses="no" default-y="218.11" relative-y="20.00">
      <beat-unit>quarter</beat-unit>
      <per-minute>149</per-minute>
     </metronome>
    </direction-type>
    <sound tempo="149"/>
   </direction>
   <note default-x="10.94" default-y="0.00" dynamics="88.89">
    <pitch>
     <step>F</step>
     <octave>5</octave>
    </pitch>
    <duration>18</duration>
    <voice>1</voice>
    <type>quarter</type>
    <dot/>
   </note>
   <direction placement="above">
    <direction-type>
     <metronome parentheses="no" default-y="261.62" relative-y="20.00">
      <beat-unit>quarter</beat-unit>
      <per-minute>159</per-minute>
     </metronome>
    </direction-type>
    <sound tempo="159"/>
   </direction>
   <note default-x="65.23" default-y="-5.00" dynamics="88.89">
    <pitch>
     <step>E</step>
     <alter>-1</alter>
     <octave>5</octave>
    </pitch>
    <duration>2</duration>
    <voice>1</voice>
    <type>16th</type>
    <time-modification>
     <actual-notes>3</actual-notes>
     <normal-notes>2</normal-notes>
    </time-modification>
    <beam number="1">begin</beam>
    <beam number="2">begin</beam>
    <notations>
     <tuplet type="start" bracket="no"/>
    </notations>
   </note>
   <direction placement="above">
    <direction-type>
     <metronome parentheses="no" default-y="283.44" relative-y="20.00">
      <beat-unit>quarter</beat-unit>
      <per-minute>164</per-minute>
     </metronome>
    </direction-type>
    <sound tempo="164"/>
   </direction>
   <note default-x="80.90" default-y="-10.00" dynamics="88.89">
    <pitch>
     <step>D</step>
     <octave>5</octave>
    </pitch>
    <duration>2</duration>
    <voice>1</voice>
    <type>16th</type>
    <time-modification>
     <actual-notes>3</actual-notes>
     <normal-notes>2</normal-notes>
    </time-modification>
    <beam number="1">continue</beam>
    <beam number="2">continue</beam>
   </note>
   <note default-x="96.56" default-y="-15.00" dynamics="88.89">
    <pitch>
     <step>C</step>
     <octave>5</octave>
    </pitch>
    <duration>2</duration>
    <voice>1</voice>
    <type>16th</type>
    <time-modification>
     <actual-notes>3</actual-notes>
     <normal-notes>2</normal-notes>
    </time-modification>
    <beam number="1">end</beam>
    <beam number="2">end</beam>
    <notations>
     <tuplet type="stop"/>
    </notations>
   </note>
   <note default-x="112.23" default-y="-20.00" dynamics="88.89">
    <pitch>
     <step>B</step>
     <alter>-1</alter>
     <octave>4</octave>
    </pitch>
    <duration>12</duration>
    <voice>1</voice>
    <type>quarter</type>
   </note>
   <direction placement="above">
    <direction-type>
     <metronome parentheses="no" default-y="305.26" relative-y="20.00">
      <beat-unit>quarter</beat-unit>
      <per-minute>170</per-minute>
     </metronome>
    </direction-type>
    <sound tempo="170"/>
   </direction>
   <note default-x="143.00" default-y="-30.00" dynamics="88.89">
    <pitch>
     <step>G</step>
     <octave>4</octave>
    </pitch>
    <duration>12</duration>
    <voice>1</voice>
    <type>quarter</type>
   </note>
   <note default-x="143.00" default-y="-20.00" dynamics="88.89">
    <chord/>
    <pitch>
     <step>B</step>
     <alter>-1</alter>
     <octave>4</octave>
    </pitch>
    <duration>12</duration>
    <voice>1</voice>
    <type>quarter</type>
   </note>
   <backup>
    <duration>48</duration>
   </backup>
   <forward>
    <duration>48</duration>
    <voice>2</voice>
   </forward>
   <backup>
    <duration>36</duration>
   </backup>
   <direction placement="above">
    <direction-type>
     <metronome parentheses="no" default-y="239.81" relative-y="20.00">
      <beat-unit>quarter</beat-unit>
      <per-minute>154</per-minute>
     </metronome>
    </direction-type>
    <sound tempo="154"/>
   </direction>
   <forward>
    <duration>36</duration>
   </forward>
  </measure>
  <measure number="5" width="258.88">
   <direction placement="above">
    <direction-type>
     <metronome parentheses="no" relative-y="20.00">
      <beat-unit>quarter</beat-unit>
      <per-minute>164</per-minute>
     </metronome>
    </direction-type>
    <sound tempo="164"/>
   </direction>
   <note default-x="94.27" default-y="-5.00" dynamics="88.89">
    <pitch>
     <step>E</step>
     <alter>-1</alter>
     <octave>5</octave>
    </pitch>
    <duration>12</duration>
    <voice>1</voice>
    <type>quarter</type>
   </note>
   <note default-x="130.20" default-y="5.00" dynamics="88.89">
    <pitch>
     <step>G</step>
     <octave>5</octave>
    </pitch>
    <duration>12</duration>
    <voice>1</voice>
    <type>quarter</type>
   </note>
   <note default-x="166.12" default-y="-25.00" dynamics="88.89">
    <pitch>
     <step>A</step>
     <octave>4</octave>
    </pitch>
    <duration>12</duration>
    <voice>1</voice>
    <type>quarter</type>
   </note>
   <note>
    <rest/>
    <duration>6</duration>
    <voice>1</voice>
    <type>eighth</type>
   </note>
   <note default-x="224.50" default-y="-25.00" dynamics="88.89">
    <pitch>
     <step>A</step>
     <octave>4</octave>
    </pitch>
    <duration>6</duration>
    <voice>1</voice>
    <type>eighth</type>
   </note>
   <backup>
    <duration>48</duration>
   </backup>
   <forward>
    <duration>48</duration>
    <voice>2</voice>
   </forward>
  </measure>
  <measure number="6" width="167.43">
   <note default-x="13.80" default-y="-20.00" dynamics="88.89">
    <pitch>
     <step>B</step>
     <alter>-1</alter>
     <octave>4</octave>
    </pitch>
    <duration>6</duration>
    <voice>1</voice>
    <type>eighth</type>
    <beam number="1">begin</beam>
   </note>
   <note default-x="34.92" default-y="-10.00" dynamics="88.89">
    <pitch>
     <step>D</step>
     <octave>5</octave>
    </pitch>
    <duration>6</duration>
    <voice>1</voice>
    <type>eighth</type>
    <beam number="1">continue</beam>
   </note>
   <note default-x="56.03" default-y="-30.00" dynamics="88.89">
    <pitch>
     <step>G</step>
     <octave>4</octave>
    </pitch>
    <duration>6</duration>
    <voice>1</voice>
    <type>eighth</type>
    <beam number="1">continue</beam>
   </note>
   <note default-x="77.15" default-y="-15.00" dynamics="88.89">
    <pitch>
     <step>C</step>
     <octave>5</octave>
    </pitch>
    <duration>6</duration>
    <voice>1</voice>
    <type>eighth</type>
    <beam number="1">end</beam>
   </note>
   <note default-x="98.26" default-y="-20.00" dynamics="88.89">
    <pitch>
     <step>B</step>
     <alter>-1</alter>
     <octave>4</octave>
    </pitch>
    <duration>12</duration>
    <voice>1</voice>
    <type>quarter</type>
   </note>
   <note default-x="132.04" default-y="-25.00" dynamics="88.89">
    <pitch>
     <step>A</step>
     <octave>4</octave>
    </pitch>
    <duration>12</duration>
    <voice>1</voice>
    <type>quarter</type>
   </note>
   <backup>
    <duration>48</duration>
   </backup>
   <forward>
    <duration>12</duration>
    <voice>2</voice>
   </forward>
   <note default-x="56.03" default-y="-145.00" dynamics="88.89">
    <pitch>
     <step>E</step>
     <alter>-1</alter>
     <octave>4</octave>
    </pitch>
    <duration>12</duration>
    <voice>2</voice>
    <type>quarter</type>
   </note>
   <forward>
    <duration>24</duration>
    <voice>2</voice>
   </forward>
  </measure>
  <measure number="7" width="192.11">
   <note default-x="10.00" default-y="-20.00" dynamics="88.89">
    <pitch>
     <step>B</step>
     <alter>-1</alter>
     <octave>4</octave>
    </pitch>
    <duration>6</duration>
    <voice>1</voice>
    <type>eighth</type>
    <beam number="1">begin</beam>
   </note>
   <note default-x="32.48" default-y="-35.00" dynamics="88.89">
    <pitch>
     <step>F</step>
     <octave>4</octave>
    </pitch>
    <duration>6</duration>
    <voice>1</voice>
    <type>eighth</type>
    <beam number="1">continue</beam>
   </note>
   <note default-x="54.95" default-y="-30.00" dynamics="88.89">
    <pitch>
     <step>G</step>
     <octave>4</octave>
    </pitch>
    <duration>6</duration>
    <voice>1</voice>
    <type>eighth</type>
    <beam number="1">continue</beam>
   </note>
   <note default-x="77.43" default-y="-25.00" dynamics="88.89">
    <pitch>
     <step>A</step>
     <octave>4</octave>
    </pitch>
    <duration>6</duration>
    <voice>1</voice>
    <type>eighth</type>
    <beam number="1">end</beam>
   </note>
   <note default-x="99.91" default-y="-20.00" dynamics="88.89">
    <pitch>
     <step>B</step>
     <alter>-1</alter>
     <octave>4</octave>
    </pitch>
    <duration>6</duration>
    <voice>1</voice>
    <type>eighth</type>
    <beam number="1">begin</beam>
   </note>
   <note default-x="122.39" default-y="-15.00" dynamics="88.89">
    <pitch>
     <step>C</step>
     <octave>5</octave>
    </pitch>
    <duration>6</duration>
    <voice>1</voice>
    <type>eighth</type>
    <beam number="1">continue</beam>
   </note>
   <note default-x="144.86" default-y="-10.00" dynamics="88.89">
    <pitch>
     <step>D</step>
     <octave>5</octave>
    </pitch>
    <duration>6</duration>
    <voice>1</voice>
    <type>eighth</type>
    <beam number="1">continue</beam>
   </note>
   <note default-x="167.34" default-y="-5.00" dynamics="88.89">
    <pitch>
     <step>E</step>
     <alter>-1</alter>
     <octave>5</octave>
    </pitch>
    <duration>6</duration>
    <voice>1</voice>
    <type>eighth</type>
    <beam number="1">end</beam>
   </note>
   <backup>
    <duration>48</duration>
   </backup>
   <forward>
    <duration>48</duration>
    <voice>2</voice>
   </forward>
  </measure>
  <measure number="8" width="224.49">
   <note default-x="10.20" default-y="0.00" dynamics="88.89">
    <pitch>
     <step>F</step>
     <octave>5</octave>
    </pitch>
    <duration>18</duration>
    <voice>1</voice>
    <type>quarter</type>
    <dot/>
   </note>
   <note default-x="89.96" default-y="-35.00" dynamics="88.89">
    <pitch>
     <step>F</step>
     <octave>4</octave>
    </pitch>
    <duration>6</duration>
    <voice>1</voice>
    <type>eighth</type>
   </note>
   <note default-x="89.96" default-y="-10.00" dynamics="88.89">
    <chord/>
    <pitch>
     <step>D</step>
     <octave>5</octave>
    </pitch>
    <duration>6</duration>
    <voice>1</voice>
    <type>eighth</type>
   </note>
   <note default-x="116.54" default-y="-20.00" dynamics="88.89">
    <pitch>
     <step>B</step>
     <alter>-1</alter>
     <octave>4</octave>
    </pitch>
    <duration>12</duration>
    <voice>1</voice>
    <type>quarter</type>
   </note>
   <note default-x="169.72" default-y="-20.00" dynamics="88.89">
    <pitch>
     <step>B</step>
     <alter>-1</alter>
     <octave>4</octave>
    </pitch>
    <duration>12</duration>
    <voice>1</voice>
    <type>quarter</type>
   </note>
   <backup>
    <duration>48</duration>
   </backup>
   <forward>
    <duration>6</duration>
    <voice>2</voice>
   </forward>
   <note default-x="36.79" default-y="-140.00" dynamics="88.89">
    <pitch>
     <step>F</step>
     <octave>4</octave>
    </pitch>
    <duration>6</duration>
    <voice>2</voice>
    <type>eighth</type>
   </note>
   <note default-x="63.37" default-y="-150.00" dynamics="88.89">
    <pitch>
     <step>D</step>
     <octave>4</octave>
    </pitch>
    <duration>12</duration>
    <voice>2</voice>
    <type>quarter</type>
   </note>
   <forward>
    <duration>24</duration>
    <voice>2</voice>
   </forward>
  </measure>
  <measure number="9" width="234.26">
   <note default-x="10.00" default-y="-5.00" dynamics="88.89">
    <pitch>
     <step>E</step>
     <alter>-1</alter>
     <octave>5</octave>
    </pitch>
    <duration>6</duration>
    <voice>1</voice>
    <type>eighth</type>
    <beam number="1">begin</beam>
   </note>
   <note default-x="10.00" default-y="5.00" dynamics="88.89">
    <chord/>
    <pitch>
     <step>G</step>
     <octave>5</octave>
    </pitch>
    <duration>6</duration>
    <voice>1</voice>
    <type>eighth</type>
   </note>
   <note default-x="25.67" default-y="-5.00" dynamics="88.89">
    <pitch>
     <step>E</step>
     <alter>-1</alter>
     <octave>5</octave>
    </pitch>
    <duration>3</duration>
    <voice>1</voice>
    <type>16th</type>
    <beam number="1">continue</beam>
    <beam number="2">begin</beam>
   </note>
   <note default-x="37.53" default-y="0.00" dynamics="88.89">
    <chord/>
    <pitch>
     <step>F</step>
     <octave>5</octave>
    </pitch>
    <duration>3</duration>
    <voice>1</voice>
    <type>16th</type>
   </note>
   <note default-x="54.35" default-y="-10.00" dynamics="88.89">
    <pitch>
     <step>D</step>
     <octave>5</octave>
    </pitch>
    <duration>3</duration>
    <voice>1</voice>
    <type>16th</type>
    <beam number="1">end</beam>
    <beam number="2">end</beam>
   </note>
   <note default-x="71.17" default-y="5.00" dynamics="88.89">
    <pitch>
     <step>G</step>
     <octave>5</octave>
    </pitch>
    <duration>12</duration>
    <voice>1</voice>
    <type>quarter</type>
   </note>
   <note default-x="125.00" default-y="-25.00" dynamics="88.89">
    <pitch>
     <step>A</step>
     <octave>4</octave>
    </pitch>
    <duration>6</duration>
    <voice>1</voice>
    <type>eighth</type>
    <beam number="1">begin</beam>
   </note>
   <note default-x="151.92" default-y="-40.00" dynamics="88.89">
    <pitch>
     <step>E</step>
     <alter>-1</alter>
     <octave>4</octave>
    </pitch>
    <duration>6</duration>
    <voice>1</voice>
    <type>eighth</type>
    <beam number="1">continue</beam>
   </note>
   <note default-x="178.83" default-y="-50.00" dynamics="88.89">
    <pitch>
     <step>C</step>
     <octave>4</octave>
    </pitch>
    <duration>6</duration>
    <voice>1</voice>
    <type>eighth</type>
    <beam number="1">continue</beam>
   </note>
   <note default-x="205.75" default-y="-40.00" dynamics="88.89">
    <pitch>
     <step>E</step>
     <alter>-1</alter>
     <octave>4</octave>
    </pitch>
    <duration>6</duration>
    <voice>1</voice>
    <type>eighth</type>
    <beam number="1">end</beam>
   </note>
   <backup>
    <duration>48</duration>
   </backup>
   <forward>
    <duration>48</duration>
    <voice>2</voice>
   </forward>
  </measure>
  <measure number="10" width="295.41">
   <note default-x="91.41" default-y="-45.00" dynamics="88.89">
    <pitch>
     <step>D</step>
     <octave>4</octave>
    </pitch>
    <duration>6</duration>
    <voice>1</voice>
    <type>eighth</type>
    <beam number="1">begin</beam>
   </note>
   <note default-x="91.41" default-y="-15.00" dynamics="88.89">
    <chord/>
    <pitch>
     <step>C</step>
     <octave>5</octave>
    </pitch>
    <duration>6</duration>
    <voice>1</voice>
    <type>eighth</type>
   </note>
   <note default-x="116.71" default-y="-20.00" dynamics="88.89">
    <pitch>
     <step>B</step>
     <alter>-1</alter>
     <octave>4</octave>
    </pitch>
    <duration>6</duration>
    <voice>1</voice>
    <type>eighth</type>
    <beam number="1">continue</beam>
   </note>
   <note default-x="142.01" default-y="-10.00" dynamics="88.89">
    <pitch>
     <step>D</step>
     <octave>5</octave>
    </pitch>
    <duration>6</duration>
    <voice>1</voice>
    <type>eighth</type>
    <beam number="1">continue</beam>
   </note>
   <note default-x="167.31" default-y="-15.00" dynamics="88.89">
    <pitch>
     <step>C</step>
     <octave>5</octave>
    </pitch>
    <duration>6</duration>
    <voice>1</voice>
    <type>eighth</type>
    <beam number="1">end</beam>
   </note>
   <note default-x="192.61" default-y="-5.00" dynamics="88.89">
    <pitch>
     <step>E</step>
     <alter>-1</alter>
     <octave>5</octave>
    </pitch>
    <duration>6</duration>
    <voice>1</voice>
    <type>eighth</type>
    <beam number="1">begin</beam>
   </note>
   <note default-x="217.91" default-y="-10.00" dynamics="88.89">
    <pitch>
     <step>D</step>
     <octave>5</octave>
    </pitch>
    <duration>6</duration>
    <voice>1</voice>
    <type>eighth</type>
    <beam number="1">continue</beam>
   </note>
   <note default-x="243.21" default-y="0.00" dynamics="88.89">
    <pitch>
     <step>F</step>
     <octave>5</octave>
    </pitch>
    <duration>6</duration>
    <voice>1</voice>
    <type>eighth</type>
    <beam number="1">continue</beam>
   </note>
   <note default-x="268.51" default-y="-5.00" dynamics="88.89">
    <pitch>
     <step>E</step>
     <alter>-1</alter>
     <octave>5</octave>
    </pitch>
    <duration>6</duration>
    <voice>1</voice>
    <type>eighth</type>
    <beam number="1">end</beam>
   </note>
   <backup>
    <duration>48</duration>
   </backup>
   <forward>
    <duration>48</duration>
    <voice>2</voice>
   </forward>
  </measure>
  <measure number="11" width="219.18">
   <note default-x="10.72" default-y="-10.00" dynamics="88.89">
    <pitch>
     <step>D</step>
     <octave>5</octave>
    </pitch>
    <duration>18</duration>
    <voice>1</voice>
    <type>quarter</type>
    <dot/>
   </note>
   <note default-x="58.91" default-y="-5.00" dynamics="88.89">
    <pitch>
     <step>E</step>
     <alter>-1</alter>
     <octave>5</octave>
    </pitch>
    <duration>3</duration>
    <voice>1</voice>
    <type>16th</type>
    <beam number="1">begin</beam>
    <beam number="2">begin</beam>
   </note>
   <note default-x="77.80" default-y="-10.00" dynamics="88.89">
    <pitch>
     <step>D</step>
     <octave>5</octave>
    </pitch>
    <duration>3</duration>
    <voice>1</voice>
    <type>16th</type>
    <beam number="1">end</beam>
    <beam number="2">end</beam>
   </note>
   <note default-x="96.69" default-y="-15.00" dynamics="88.89">
    <pitch>
     <step>C</step>
     <octave>5</octave>
    </pitch>
    <duration>6</duration>
    <voice>1</voice>
    <type>eighth</type>
    <beam number="1">begin</beam>
   </note>
   <note default-x="126.91" default-y="-10.00" dynamics="88.89">
    <pitch>
     <step>D</step>
     <octave>5</octave>
    </pitch>
    <duration>6</duration>
    <voice>1</voice>
    <type>eighth</type>
    <beam number="1">continue</beam>
   </note>
   <note default-x="157.14" default-y="-5.00" dynamics="88.89">
    <pitch>
     <step>E</step>
     <alter>-1</alter>
     <octave>5</octave>
    </pitch>
    <duration>6</duration>
    <voice>1</voice>
    <type>eighth</type>
    <beam number="1">continue</beam>
   </note>
   <note default-x="187.36" default-y="-5.00" dynamics="88.89">
    <pitch>
     <step>E</step>
     <octave>5</octave>
    </pitch>
    <duration>6</duration>
    <voice>1</voice>
    <type>eighth</type>
    <accidental>natural</accidental>
    <beam number="1">end</beam>
   </note>
   <backup>
    <duration>48</duration>
   </backup>
   <forward>
    <duration>48</duration>
    <voice>2</voice>
   </forward>
  </measure>
  <measure number="12" width="283.51">
   <note default-x="10.00" default-y="0.00" dynamics="88.89">
    <pitch>
     <step>F</step>
     <octave>5</octave>
    </pitch>
    <duration>18</duration>
    <voice>1</voice>
    <type>quarter</type>
    <dot/>
   </note>
   <note default-x="105.55" default-y="-5.00" dynamics="88.89">
    <pitch>
     <step>E</step>
     <alter>-1</alter>
     <octave>5</octave>
    </pitch>
    <duration>2</duration>
    <voice>1</voice>
    <type>16th</type>
    <time-modification>
     <actual-notes>3</actual-notes>
     <normal-notes>2</normal-notes>
    </time-modification>
    <beam number="1">begin</beam>
    <beam number="2">begin</beam>
    <notations>
     <tuplet type="start" bracket="no"/>
    </notations>
   </note>
   <note default-x="121.87" default-y="-10.00" dynamics="88.89">
    <pitch>
     <step>D</step>
     <octave>5</octave>
    </pitch>
    <duration>2</duration>
    <voice>1</voice>
    <type>16th</type>
    <time-modification>
     <actual-notes>3</actual-notes>
     <normal-notes>2</normal-notes>
    </time-modification>
    <beam number="1">continue</beam>
    <beam number="2">continue</beam>
   </note>
   <note default-x="138.19" default-y="-15.00" dynamics="88.89">
    <pitch>
     <step>C</step>
     <octave>5</octave>
    </pitch>
    <duration>2</duration>
    <voice>1</voice>
    <type>16th</type>
    <time-modification>
     <actual-notes>3</actual-notes>
     <normal-notes>2</normal-notes>
    </time-modification>
    <beam number="1">end</beam>
    <beam number="2">end</beam>
    <notations>
     <tuplet type="stop"/>
    </notations>
   </note>
   <note default-x="154.52" default-y="-20.00" dynamics="88.89">
    <pitch>
     <step>B</step>
     <alter>-1</alter>
     <octave>4</octave>
    </pitch>
    <duration>6</duration>
    <voice>1</voice>
    <type>eighth</type>
    <beam number="1">begin</beam>
   </note>
   <note default-x="186.37" default-y="-20.00" dynamics="88.89">
    <pitch>
     <step>B</step>
     <alter>-1</alter>
     <octave>4</octave>
    </pitch>
    <duration>6</duration>
    <voice>1</voice>
    <type>eighth</type>
    <beam number="1">continue</beam>
   </note>
   <note default-x="218.22" default-y="-20.00" dynamics="88.89">
    <pitch>
     <step>B</step>
     <alter>-1</alter>
     <octave>4</octave>
    </pitch>
    <duration>6</duration>
    <voice>1</voice>
    <type>eighth</type>
    <beam number="1">continue</beam>
   </note>
   <note default-x="250.06" default-y="-20.00" dynamics="88.89">
    <pitch>
     <step>B</step>
     <alter>-1</alter>
     <octave>4</octave>
    </pitch>
    <duration>6</duration>
    <voice>1</voice>
    <type>eighth</type>
    <beam number="1">end</beam>
   </note>
   <backup>
    <duration>48</duration>
   </backup>
   <forward>
    <duration>48</duration>
    <voice>2</voice>
   </forward>
  </measure>
  <measure number="13" width="279.06">
   <note default-x="13.80" default-y="-5.00" dynamics="88.89">
    <pitch>
     <step>E</step>
     <alter>-1</alter>
     <octave>5</octave>
    </pitch>
    <duration>6</duration>
    <voice>1</voice>
    <type>eighth</type>
    <beam number="1">begin</beam>
   </note>
   <note default-x="13.80" default-y="5.00" dynamics="88.89">
    <chord/>
    <pitch>
     <step>G</step>
     <octave>5</octave>
    </pitch>
    <duration>6</duration>
    <voice>1</voice>
    <type>eighth</type>
   </note>
   <note default-x="33.89" default-y="-5.00" dynamics="88.89">
    <pitch>
     <step>E</step>
     <alter>-1</alter>
     <octave>5</octave>
    </pitch>
    <duration>3</duration>
    <voice>1</voice>
    <type>16th</type>
    <beam number="1">continue</beam>
    <beam number="2">begin</beam>
   </note>
   <note default-x="45.76" default-y="0.00" dynamics="88.89">
    <chord/>
    <pitch>
     <step>F</step>
     <octave>5</octave>
    </pitch>
    <duration>3</duration>
    <voice>1</voice>
    <type>16th</type>
   </note>
   <note default-x="65.73" default-y="-10.00" dynamics="88.89">
    <pitch>
     <step>D</step>
     <octave>5</octave>
    </pitch>
    <duration>3</duration>
    <voice>1</voice>
    <type>16th</type>
    <beam number="1">end</beam>
    <beam number="2">end</beam>
   </note>
   <note default-x="85.35" default-y="5.00" dynamics="88.89">
    <pitch>
     <step>G</step>
     <octave>5</octave>
    </pitch>
    <duration>24</duration>
    <tie type="start"/>
    <voice>1</voice>
    <type>half</type>
    <notations>
     <tied type="start"/>
    </notations>
   </note>
   <note default-x="213.54" default-y="5.00" dynamics="88.89">
    <pitch>
     <step>G</step>
     <octave>5</octave>
    </pitch>
    <duration>6</duration>
    <tie type="stop"/>
    <voice>1</voice>
    <type>eighth</type>
    <beam number="1">begin</beam>
    <notations>
     <tied type="stop"/>
    </notations>
   </note>
   <note default-x="245.50" default-y="10.00" dynamics="88.89">
    <pitch>
     <step>A</step>
     <octave>5</octave>
    </pitch>
    <duration>6</duration>
    <voice>1</voice>
    <type>eighth</type>
    <beam number="1">end</beam>
   </note>
   <backup>
    <duration>48</duration>
   </backup>
   <forward>
    <duration>24</duration>
    <voice>2</voice>
   </forward>
   <note default-x="149.62" default-y="-130.00" dynamics="88.89">
    <pitch>
     <step>A</step>
     <octave>4</octave>
    </pitch>
    <duration>12</duration>
    <voice>2</voice>
    <type>quarter</type>
   </note>
   <forward>
    <duration>12</duration>
    <voice>2</voice>
   </forward>
  </measure>
  <measure number="14" width="331.67">
   <note default-x="94.27" default-y="15.00" dynamics="88.89">
    <pitch>
     <step>B</step>
     <alter>-1</alter>
     <octave>5</octave>
    </pitch>
    <duration>4</duration>
    <voice>1</voice>
    <type>eighth</type>
    <time-modification>
     <actual-notes>3</actual-notes>
     <normal-notes>2</normal-notes>
    </time-modification>
    <beam number="1">begin</beam>
    <notations>
     <tuplet type="start" bracket="no"/>
    </notations>
   </note>
   <note default-x="113.60" default-y="0.00" dynamics="88.89">
    <pitch>
     <step>F</step>
     <octave>5</octave>
    </pitch>
    <duration>4</duration>
    <voice>1</voice>
    <type>eighth</type>
    <time-modification>
     <actual-notes>3</actual-notes>
     <normal-notes>2</normal-notes>
    </time-modification>
    <beam number="1">continue</beam>
   </note>
   <note default-x="132.93" default-y="-10.00" dynamics="88.89">
    <pitch>
     <step>D</step>
     <octave>5</octave>
    </pitch>
    <duration>4</duration>
    <voice>1</voice>
    <type>eighth</type>
    <time-modification>
     <actual-notes>3</actual-notes>
     <normal-notes>2</normal-notes>
    </time-modification>
    <beam number="1">end</beam>
    <notations>
     <tuplet type="stop"/>
    </notations>
   </note>
   <note default-x="152.26" default-y="5.00" dynamics="88.89">
    <pitch>
     <step>G</step>
     <octave>5</octave>
    </pitch>
    <duration>4</duration>
    <voice>1</voice>
    <type>eighth</type>
    <time-modification>
     <actual-notes>3</actual-notes>
     <normal-notes>2</normal-notes>
    </time-modification>
    <beam number="1">begin</beam>
    <notations>
     <tuplet type="start" bracket="no"/>
    </notations>
   </note>
   <note default-x="171.59" default-y="-5.00" dynamics="88.89">
    <pitch>
     <step>E</step>
     <alter>-1</alter>
     <octave>5</octave>
    </pitch>
    <duration>4</duration>
    <voice>1</voice>
    <type>eighth</type>
    <time-modification>
     <actual-notes>3</actual-notes>
     <normal-notes>2</normal-notes>
    </time-modification>
    <beam number="1">continue</beam>
   </note>
   <note default-x="190.92" default-y="-15.00" dynamics="88.89">
    <pitch>
     <step>C</step>
     <octave>5</octave>
    </pitch>
    <duration>4</duration>
    <voice>1</voice>
    <type>eighth</type>
    <time-modification>
     <actual-notes>3</actual-notes>
     <normal-notes>2</normal-notes>
    </time-modification>
    <beam number="1">end</beam>
    <notations>
     <tuplet type="stop"/>
    </notations>
   </note>
   <note default-x="210.25" default-y="0.00" dynamics="88.89">
    <pitch>
     <step>F</step>
     <octave>5</octave>
    </pitch>
    <duration>4</duration>
    <voice>1</voice>
    <type>eighth</type>
    <time-modification>
     <actual-notes>3</actual-notes>
     <normal-notes>2</normal-notes>
    </time-modification>
    <beam number="1">begin</beam>
    <notations>
     <tuplet type="start" bracket="no"/>
    </notations>
   </note>
   <note default-x="229.58" default-y="-10.00" dynamics="88.89">
    <pitch>
     <step>D</step>
     <octave>5</octave>
    </pitch>
    <duration>4</duration>
    <voice>1</voice>
    <type>eighth</type>
    <time-modification>
     <actual-notes>3</actual-notes>
     <normal-notes>2</normal-notes>
    </time-modification>
    <beam number="1">continue</beam>
   </note>
   <note default-x="248.91" default-y="-20.00" dynamics="88.89">
    <pitch>
     <step>B</step>
     <alter>-1</alter>
     <octave>4</octave>
    </pitch>
    <duration>4</duration>
    <voice>1</voice>
    <type>eighth</type>
    <time-modification>
     <actual-notes>3</actual-notes>
     <normal-notes>2</normal-notes>
    </time-modification>
    <beam number="1">end</beam>
    <notations>
     <tuplet type="stop"/>
    </notations>
   </note>
   <note default-x="268.24" default-y="-5.00" dynamics="88.89">
    <pitch>
     <step>E</step>
     <alter>-1</alter>
     <octave>5</octave>
    </pitch>
    <duration>4</duration>
    <voice>1</voice>
    <type>eighth</type>
    <time-modification>
     <actual-notes>3</actual-notes>
     <normal-notes>2</normal-notes>
    </time-modification>
    <beam number="1">begin</beam>
    <notations>
     <tuplet type="start" bracket="no"/>
    </notations>
   </note>
   <note default-x="287.57" default-y="-15.00" dynamics="88.89">
    <pitch>
     <step>C</step>
     <octave>5</octave>
    </pitch>
    <duration>4</duration>
    <voice>1</voice>
    <type>eighth</type>
    <time-modification>
     <actual-notes>3</actual-notes>
     <normal-notes>2</normal-notes>
    </time-modification>
    <beam number="1">continue</beam>
   </note>
   <direction placement="above">
    <direction-type>
     <metronome parentheses="no" relative-y="20.00">
      <beat-unit>quarter</beat-unit>
      <per-minute>159</per-minute>
     </metronome>
    </direction-type>
    <sound tempo="159"/>
   </direction>
   <note default-x="306.90" default-y="-25.00" dynamics="88.89">
    <pitch>
     <step>A</step>
     <octave>4</octave>
    </pitch>
    <duration>4</duration>
    <voice>1</voice>
    <type>eighth</type>
    <time-modification>
     <actual-notes>3</actual-notes>
     <normal-notes>2</normal-notes>
    </time-modification>
    <beam number="1">end</beam>
    <notations>
     <tuplet type="stop"/>
    </notations>
   </note>
   <backup>
    <duration>48</duration>
   </backup>
   <forward>
    <duration>48</duration>
    <voice>2</voice>
   </forward>
  </measure>
  <measure number="15" width="164.93">
   <note default-x="10.00" default-y="-45.00" dynamics="88.89">
    <pitch>
     <step>D</step>
     <octave>4</octave>
    </pitch>
    <duration>18</duration>
    <voice>1</voice>
    <type>quarter</type>
    <dot/>
   </note>
   <note default-x="10.00" default-y="-20.00" dynamics="88.89">
    <chord/>
    <pitch>
     <step>B</step>
     <alter>-1</alter>
     <octave>4</octave>
    </pitch>
    <duration>18</duration>
    <voice>1</voice>
    <type>quarter</type>
    <dot/>
   </note>
   <note default-x="58.70" default-y="-35.00" dynamics="88.89">
    <pitch>
     <step>F</step>
     <octave>4</octave>
    </pitch>
    <duration>6</duration>
    <voice>1</voice>
    <type>eighth</type>
   </note>
   <note default-x="83.97" default-y="-20.00" dynamics="88.89">
    <pitch>
     <step>B</step>
     <alter>-1</alter>
     <octave>4</octave>
    </pitch>
    <duration>6</duration>
    <voice>1</voice>
    <type>eighth</type>
    <beam number="1">begin</beam>
   </note>
   <note default-x="102.71" default-y="-25.00" dynamics="88.89">
    <pitch>
     <step>A</step>
     <octave>4</octave>
    </pitch>
    <duration>6</duration>
    <voice>1</voice>
    <type>eighth</type>
    <beam number="1">continue</beam>
   </note>
   <note default-x="121.44" default-y="-20.00" dynamics="88.89">
    <pitch>
     <step>B</step>
     <alter>-1</alter>
     <octave>4</octave>
    </pitch>
    <duration>6</duration>
    <voice>1</voice>
    <type>eighth</type>
    <beam number="1">continue</beam>
   </note>
   <note default-x="140.17" default-y="-15.00" dynamics="88.89">
    <pitch>
     <step>C</step>
     <octave>5</octave>
    </pitch>
    <duration>6</duration>
    <voice>1</voice>
    <type>eighth</type>
    <beam number="1">end</beam>
   </note>
   <backup>
    <duration>48</duration>
   </backup>
   <forward>
    <duration>48</duration>
    <voice>2</voice>
   </forward>
  </measure>
  <measure number="16" width="97.94">
   <note default-x="10.94" default-y="-10.00" dynamics="88.89">
    <pitch>
     <step>D</step>
     <octave>5</octave>
    </pitch>
    <duration>12</duration>
    <voice>1</voice>
    <type>quarter</type>
   </note>
   <note default-x="31.68" default-y="-20.00" dynamics="88.89">
    <pitch>
     <step>B</step>
     <alter>-1</alter>
     <octave>4</octave>
    </pitch>
    <duration>12</duration>
    <voice>1</voice>
    <type>quarter</type>
   </note>
   <note default-x="31.68" default-y="-10.00" dynamics="88.89">
    <chord/>
    <pitch>
     <step>D</step>
     <octave>5</octave>
    </pitch>
    <duration>12</duration>
    <voice>1</voice>
    <type>quarter</type>
   </note>
   <note default-x="52.43" default-y="-20.00" dynamics="88.89">
    <pitch>
     <step>B</step>
     <alter>-1</alter>
     <octave>4</octave>
    </pitch>
    <duration>12</duration>
    <voice>1</voice>
    <type>quarter</type>
   </note>
   <note default-x="52.43" default-y="-10.00" dynamics="88.89">
    <chord/>
    <pitch>
     <step>D</step>
     <octave>5</octave>
    </pitch>
    <duration>12</duration>
    <voice>1</voice>
    <type>quarter</type>
   </note>
   <note default-x="73.18" default-y="-15.00" dynamics="88.89">
    <pitch>
     <step>C</step>
     <octave>5</octave>
    </pitch>
    <duration>12</duration>
    <voice>1</voice>
    <type>quarter</type>
   </note>
   <note default-x="73.18" default-y="-5.00" dynamics="88.89">
    <chord/>
    <pitch>
     <step>E</step>
     <alter>-1</alter>
     <octave>5</octave>
    </pitch>
    <duration>12</duration>
    <voice>1</voice>
    <type>quarter</type>
   </note>
   <backup>
    <duration>48</duration>
   </backup>
   <forward>
    <duration>48</duration>
    <voice>2</voice>
   </forward>
  </measure>
  <measure number="17" width="164.93">
   <note default-x="10.00" default-y="-25.00" dynamics="88.89">
    <pitch>
     <step>A</step>
     <octave>4</octave>
    </pitch>
    <duration>18</duration>
    <voice>1</voice>
    <type>quarter</type>
    <dot/>
   </note>
   <note default-x="10.00" default-y="-15.00" dynamics="88.89">
    <chord/>
    <pitch>
     <step>C</step>
     <octave>5</octave>
    </pitch>
    <duration>18</duration>
    <voice>1</voice>
    <type>quarter</type>
    <dot/>
   </note>
   <direction placement="above">
    <direction-type>
     <metronome parentheses="no" relative-y="20.00">
      <beat-unit>quarter</beat-unit>
      <per-minute>154</per-minute>
     </metronome>
    </direction-type>
    <sound tempo="154"/>
   </direction>
   <note default-x="58.70" default-y="-35.00" dynamics="88.89">
    <pitch>
     <step>F</step>
     <octave>4</octave>
    </pitch>
    <duration>6</duration>
    <voice>1</voice>
    <type>eighth</type>
   </note>
   <note default-x="83.97" default-y="-15.00" dynamics="88.89">
    <pitch>
     <step>C</step>
     <octave>5</octave>
    </pitch>
    <duration>6</duration>
    <voice>1</voice>
    <type>eighth</type>
    <beam number="1">begin</beam>
   </note>
   <note default-x="102.71" default-y="-20.00" dynamics="88.89">
    <pitch>
     <step>B</step>
     <alter>-1</alter>
     <octave>4</octave>
    </pitch>
    <duration>6</duration>
    <voice>1</voice>
    <type>eighth</type>
    <beam number="1">continue</beam>
   </note>
   <note default-x="121.44" default-y="-15.00" dynamics="88.89">
    <pitch>
     <step>C</step>
     <octave>5</octave>
    </pitch>
    <duration>6</duration>
    <voice>1</voice>
    <type>eighth</type>
    <beam number="1">continue</beam>
   </note>
   <note default-x="140.17" default-y="-10.00" dynamics="88.89">
    <pitch>
     <step>D</step>
     <octave>5</octave>
    </pitch>
    <duration>6</duration>
    <voice>1</voice>
    <type>eighth</type>
    <beam number="1">end</beam>
   </note>
   <backup>
    <duration>48</duration>
   </backup>
   <forward>
    <duration>48</duration>
    <voice>2</voice>
   </forward>
  </measure>
  <measure number="18" width="97.94">
   <note default-x="10.94" default-y="-5.00" dynamics="88.89">
    <pitch>
     <step>E</step>
     <alter>-1</alter>
     <octave>5</octave>
    </pitch>
    <duration>12</duration>
    <voice>1</voice>
    <type>quarter</type>
   </note>
   <note default-x="31.68" default-y="-30.00" dynamics="88.89">
    <pitch>
     <step>G</step>
     <octave>4</octave>
    </pitch>
    <duration>12</duration>
    <voice>1</voice>
    <type>quarter</type>
   </note>
   <note default-x="31.68" default-y="-5.00" dynamics="88.89">
    <chord/>
    <pitch>
     <step>E</step>
     <alter>-1</alter>
     <octave>5</octave>
    </pitch>
    <duration>12</duration>
    <voice>1</voice>
    <type>quarter</type>
   </note>
   <note default-x="52.43" default-y="-15.00" dynamics="88.89">
    <pitch>
     <step>C</step>
     <octave>5</octave>
    </pitch>
    <duration>12</duration>
    <voice>1</voice>
    <type>quarter</type>
   </note>
   <note default-x="52.43" default-y="-5.00" dynamics="88.89">
    <chord/>
    <pitch>
     <step>E</step>
     <alter>-1</alter>
     <octave>5</octave>
    </pitch>
    <duration>12</duration>
    <voice>1</voice>
    <type>quarter</type>
   </note>
   <note default-x="73.18" default-y="-25.00" dynamics="88.89">
    <pitch>
     <step>A</step>
     <octave>4</octave>
    </pitch>
    <duration>12</duration>
    <voice>1</voice>
    <type>quarter</type>
   </note>
   <note default-x="73.18" default-y="0.00" dynamics="88.89">
    <chord/>
    <pitch>
     <step>F</step>
     <octave>5</octave>
    </pitch>
    <duration>12</duration>
    <voice>1</voice>
    <type>quarter</type>
   </note>
   <backup>
    <duration>48</duration>
   </backup>
   <forward>
    <duration>48</duration>
    <voice>2</voice>
   </forward>
  </measure>
  <measure number="19" width="135.54">
   <note default-x="10.94" default-y="-20.00" dynamics="88.89">
    <pitch>
     <step>B</step>
     <alter>-1</alter>
     <octave>4</octave>
    </pitch>
    <duration>18</duration>
    <voice>1</voice>
    <type>quarter</type>
    <dot/>
   </note>
   <note default-x="10.94" default-y="-10.00" dynamics="88.89">
    <chord/>
    <pitch>
     <step>D</step>
     <octave>5</octave>
    </pitch>
    <duration>18</duration>
    <voice>1</voice>
    <type>quarter</type>
    <dot/>
   </note>
   <note default-x="55.35" default-y="-20.00" dynamics="88.89">
    <pitch>
     <step>B</step>
     <alter>-1</alter>
     <octave>4</octave>
    </pitch>
    <duration>6</duration>
    <voice>1</voice>
    <type>eighth</type>
   </note>
   <note default-x="72.44" default-y="-10.00" dynamics="88.89">
    <pitch>
     <step>D</step>
     <octave>5</octave>
    </pitch>
    <duration>6</duration>
    <voice>1</voice>
    <type>eighth</type>
    <beam number="1">begin</beam>
   </note>
   <note default-x="89.52" default-y="-15.00" dynamics="88.89">
    <pitch>
     <step>C</step>
     <octave>5</octave>
    </pitch>
    <duration>6</duration>
    <voice>1</voice>
    <type>eighth</type>
    <beam number="1">end</beam>
   </note>
   <note default-x="106.61" default-y="-10.00" dynamics="88.89">
    <pitch>
     <step>D</step>
     <octave>5</octave>
    </pitch>
    <duration>12</duration>
    <voice>1</voice>
    <type>quarter</type>
   </note>
   <backup>
    <duration>48</duration>
   </backup>
   <forward>
    <duration>48</duration>
    <voice>2</voice>
   </forward>
  </measure>
 </part>
 <part id="P3">
  <measure number="1" width="241.72">
   <attributes>
    <divisions>12</divisions>
    <key>
     <fifths>-2</fifths>
    </key>
    <time>
     <beats>4</beats>
     <beat-type>4</beat-type>
    </time>
    <clef>
     <sign>F</sign>
     <line>4</line>
    </clef>
   </attributes>
   <note>
    <rest/>
    <duration>24</duration>
    <voice>1</voice>
    <type>half</type>
   </note>
   <note>
    <rest/>
    <duration>12</duration>
    <voice>1</voice>
    <type>quarter</type>
   </note>
   <note>
    <rest/>
    <duration>6</duration>
    <voice>1</voice>
    <type>eighth</type>
   </note>
   <note default-x="201.29" default-y="-205.00" dynamics="88.89">
    <pitch>
     <step>B</step>
     <alter>-1</alter>
     <octave>3</octave>
    </pitch>
    <duration>6</duration>
    <voice>1</voice>
    <type>eighth</type>
   </note>
   <backup>
    <duration>48</duration>
   </backup>
   <forward>
    <duration>48</duration>
    <voice>2</voice>
   </forward>
  </measure>
  <measure number="2" width="271.10">
   <note default-x="13.80" default-y="-195.00" dynamics="88.89">
    <pitch>
     <step>D</step>
     <octave>4</octave>
    </pitch>
    <duration>12</duration>
    <voice>1</voice>
    <type>quarter</type>
   </note>
   <note default-x="72.86" default-y="-200.00" dynamics="88.89">
    <pitch>
     <step>C</step>
     <octave>4</octave>
    </pitch>
    <duration>6</duration>
    <voice>1</voice>
    <type>eighth</type>
    <beam number="1">begin</beam>
   </note>
   <note default-x="102.38" default-y="-190.00" dynamics="88.89">
    <pitch>
     <step>E</step>
     <alter>-1</alter>
     <octave>4</octave>
    </pitch>
    <duration>6</duration>
    <voice>1</voice>
    <type>eighth</type>
    <beam number="1">end</beam>
   </note>
   <note default-x="131.91" default-y="-185.00" dynamics="88.89">
    <pitch>
     <step>F</step>
     <octave>4</octave>
    </pitch>
    <duration>6</duration>
    <voice>1</voice>
    <type>eighth</type>
    <beam number="1">begin</beam>
   </note>
   <note default-x="161.44" default-y="-190.00" dynamics="88.89">
    <pitch>
     <step>E</step>
     <alter>-1</alter>
     <octave>4</octave>
    </pitch>
    <duration>6</duration>
    <voice>1</voice>
    <type>eighth</type>
    <beam number="1">continue</beam>
   </note>
   <note default-x="190.97" default-y="-195.00" dynamics="88.89">
    <pitch>
     <step>D</step>
     <octave>4</octave>
    </pitch>
    <duration>6</duration>
    <voice>1</voice>
    <type>eighth</type>
    <beam number="1">continue</beam>
   </note>
   <note default-x="227.88" default-y="-210.00" dynamics="88.89">
    <pitch>
     <step>A</step>
     <octave>3</octave>
    </pitch>
    <duration>6</duration>
    <voice>1</voice>
    <type>eighth</type>
    <beam number="1">end</beam>
   </note>
   <backup>
    <duration>48</duration>
   </backup>
   <forward>
    <duration>48</duration>
    <voice>2</voice>
   </forward>
  </measure>
  <measure number="3" width="260.24">
   <note default-x="10.00" default-y="-205.00" dynamics="88.89">
    <pitch>
     <step>B</step>
     <alter>-1</alter>
     <octave>3</octave>
    </pitch>
    <duration>6</duration>
    <voice>1</voice>
    <type>eighth</type>
    <beam number="1">begin</beam>
   </note>
   <note default-x="48.25" default-y="-225.00" dynamics="88.89">
    <pitch>
     <step>E</step>
     <alter>-1</alter>
     <octave>3</octave>
    </pitch>
    <duration>6</duration>
    <voice>1</voice>
    <type>eighth</type>
    <beam number="1">end</beam>
   </note>
   <note default-x="48.25" default-y="-200.00" dynamics="88.89">
    <chord/>
    <pitch>
     <step>C</step>
     <octave>4</octave>
    </pitch>
    <duration>6</duration>
    <voice>1</voice>
    <type>eighth</type>
   </note>
   <note default-x="86.50" default-y="-220.00" dynamics="88.89">
    <pitch>
     <step>F</step>
     <octave>3</octave>
    </pitch>
    <duration>12</duration>
    <tie type="start"/>
    <voice>1</voice>
    <type>quarter</type>
    <notations>
     <tied type="start"/>
    </notations>
   </note>
   <note default-x="86.50" default-y="-205.00" dynamics="88.89">
    <chord/>
    <pitch>
     <step>B</step>
     <alter>-1</alter>
     <octave>3</octave>
    </pitch>
    <duration>12</duration>
    <tie type="start"/>
    <voice>1</voice>
    <type>quarter</type>
    <notations>
     <tied type="start"/>
    </notations>
   </note>
   <note default-x="128.58" default-y="-220.00" dynamics="88.89">
    <pitch>
     <step>F</step>
     <octave>3</octave>
    </pitch>
    <duration>3</duration>
    <tie type="stop"/>
    <voice>1</voice>
    <type>16th</type>
    <beam number="1">begin</beam>
    <beam number="2">forward hook</beam>
    <notations>
     <tied type="stop"/>
    </notations>
   </note>
   <note default-x="128.58" default-y="-205.00" dynamics="88.89">
    <chord/>
    <pitch>
     <step>B</step>
     <alter>-1</alter>
     <octave>3</octave>
    </pitch>
    <duration>3</duration>
    <tie type="stop"/>
    <voice>1</voice>
    <type>16th</type>
    <notations>
     <tied type="stop"/>
    </notations>
   </note>
   <note default-x="147.71" default-y="-210.00" dynamics="88.89">
    <pitch>
     <step>A</step>
     <octave>3</octave>
    </pitch>
    <duration>9</duration>
    <voice>1</voice>
    <type>eighth</type>
    <dot/>
    <beam number="1">end</beam>
   </note>
   <note>
    <rest/>
    <duration>12</duration>
    <voice>1</voice>
    <type>quarter</type>
   </note>
   <backup>
    <duration>48</duration>
   </backup>
   <forward>
    <duration>48</duration>
    <voice>2</voice>
   </forward>
  </measure>
  <measure number="4" width="175.36">
   <note>
    <rest/>
    <duration>12</duration>
    <voice>1</voice>
    <type>quarter</type>
   </note>
   <note default-x="41.70" default-y="-205.00" dynamics="88.89">
    <pitch>
     <step>B</step>
     <alter>-1</alter>
     <octave>3</octave>
    </pitch>
    <duration>12</duration>
    <voice>1</voice>
    <type>quarter</type>
   </note>
   <note default-x="112.23" default-y="-195.00" dynamics="88.89">
    <pitch>
     <step>D</step>
     <octave>4</octave>
    </pitch>
    <duration>12</duration>
    <voice>1</voice>
    <type>quarter</type>
   </note>
   <note>
    <rest/>
    <duration>12</duration>
    <voice>1</voice>
    <type>quarter</type>
   </note>
   <backup>
    <duration>48</duration>
   </backup>
   <forward>
    <duration>48</duration>
    <voice>2</voice>
   </forward>
  </measure>
  <measure number="5" width="258.88">
   <note default-x="94.27" default-y="-200.00" dynamics="88.89">
    <pitch>
     <step>C</step>
     <octave>4</octave>
    </pitch>
    <duration>12</duration>
    <voice>1</voice>
    <type>quarter</type>
   </note>
   <note default-x="130.20" default-y="-190.00" dynamics="88.89">
    <pitch>
     <step>E</step>
     <alter>-1</alter>
     <octave>4</octave>
    </pitch>
    <duration>12</duration>
    <voice>1</voice>
    <type>quarter</type>
   </note>
   <note default-x="166.12" default-y="-185.00" dynamics="88.89">
    <pitch>
     <step>F</step>
     <octave>4</octave>
    </pitch>
    <duration>12</duration>
    <voice>1</voice>
    <type>quarter</type>
   </note>
   <note default-x="202.05" default-y="-190.00" dynamics="88.89">
    <pitch>
     <step>E</step>
     <alter>-1</alter>
     <octave>4</octave>
    </pitch>
    <duration>12</duration>
    <voice>1</voice>
    <type>quarter</type>
   </note>
   <backup>
    <duration>48</duration>
   </backup>
   <forward>
    <duration>48</duration>
    <voice>2</voice>
   </forward>
  </measure>
  <measure number="6" width="167.43">
   <note default-x="13.80" default-y="-195.00" dynamics="88.89">
    <pitch>
     <step>D</step>
     <octave>4</octave>
    </pitch>
    <duration>12</duration>
    <voice>1</voice>
    <type>quarter</type>
   </note>
   <note default-x="56.03" default-y="-225.00" dynamics="88.89">
    <pitch>
     <step>E</step>
     <alter>-1</alter>
     <octave>3</octave>
    </pitch>
    <duration>12</duration>
    <voice>1</voice>
    <type>quarter</type>
   </note>
   <note default-x="98.26" default-y="-220.00" dynamics="88.89">
    <pitch>
     <step>F</step>
     <octave>3</octave>
    </pitch>
    <duration>12</duration>
    <voice>1</voice>
    <type>quarter</type>
   </note>
   <note default-x="98.26" default-y="-195.00" dynamics="88.89">
    <chord/>
    <pitch>
     <step>D</step>
     <octave>4</octave>
    </pitch>
    <duration>12</duration>
    <voice>1</voice>
    <type>quarter</type>
   </note>
   <note default-x="132.04" default-y="-200.00" dynamics="88.89">
    <pitch>
     <step>C</step>
     <octave>4</octave>
    </pitch>
    <duration>12</duration>
    <voice>1</voice>
    <type>quarter</type>
   </note>
   <backup>
    <duration>48</duration>
   </backup>
   <forward>
    <duration>48</duration>
    <voice>2</voice>
   </forward>
  </measure>
  <measure number="7" width="192.11">
   <note default-x="10.00" default-y="-205.00" dynamics="88.89">
    <pitch>
     <step>B</step>
     <alter>-1</alter>
     <octave>3</octave>
    </pitch>
    <duration>12</duration>
    <voice>1</voice>
    <type>quarter</type>
   </note>
   <note>
    <rest/>
    <duration>12</duration>
    <voice>1</voice>
    <type>quarter</type>
   </note>
   <note>
    <rest/>
    <duration>24</duration>
    <voice>1</voice>
    <type>half</type>
   </note>
   <backup>
    <duration>48</duration>
   </backup>
   <forward>
    <duration>48</duration>
    <voice>2</voice>
   </forward>
  </measure>
  <measure number="8" width="224.49">
   <note default-x="10.20" default-y="-205.00" dynamics="88.89">
    <pitch>
     <step>B</step>
     <alter>-1</alter>
     <octave>3</octave>
    </pitch>
    <duration>12</duration>
    <voice>1</voice>
    <type>quarter</type>
   </note>
   <note>
    <rest/>
    <duration>12</duration>
    <voice>1</voice>
    <type>quarter</type>
   </note>
   <note default-x="116.54" default-y="-215.00" dynamics="88.89">
    <pitch>
     <step>G</step>
     <octave>3</octave>
    </pitch>
    <duration>6</duration>
    <voice>1</voice>
    <type>eighth</type>
    <beam number="1">begin</beam>
   </note>
   <note default-x="143.13" default-y="-195.00" dynamics="88.89">
    <pitch>
     <step>D</step>
     <octave>4</octave>
    </pitch>
    <duration>6</duration>
    <voice>1</voice>
    <type>eighth</type>
    <beam number="1">continue</beam>
   </note>
   <note default-x="169.72" default-y="-205.00" dynamics="88.89">
    <pitch>
     <step>B</step>
     <alter>-1</alter>
     <octave>3</octave>
    </pitch>
    <duration>6</duration>
    <voice>1</voice>
    <type>eighth</type>
    <beam number="1">continue</beam>
   </note>
   <note default-x="196.30" default-y="-195.00" dynamics="88.89">
    <pitch>
     <step>D</step>
     <octave>4</octave>
    </pitch>
    <duration>6</duration>
    <voice>1</voice>
    <type>eighth</type>
    <beam number="1">end</beam>
   </note>
   <backup>
    <duration>48</duration>
   </backup>
   <forward>
    <duration>48</duration>
    <voice>2</voice>
   </forward>
  </measure>
  <measure number="9" width="234.26">
   <note default-x="10.00" default-y="-225.00" dynamics="88.89">
    <pitch>
     <step>E</step>
     <alter>-1</alter>
     <octave>3</octave>
    </pitch>
    <duration>6</duration>
    <voice>1</voice>
    <type>eighth</type>
    <beam number="1">begin</beam>
   </note>
   <note default-x="37.53" default-y="-200.00" dynamics="88.89">
    <pitch>
     <step>C</step>
     <octave>4</octave>
    </pitch>
    <duration>6</duration>
    <voice>1</voice>
    <type>eighth</type>
    <beam number="1">continue</beam>
   </note>
   <note default-x="71.17" default-y="-215.00" dynamics="88.89">
    <pitch>
     <step>G</step>
     <octave>3</octave>
    </pitch>
    <duration>6</duration>
    <voice>1</voice>
    <type>eighth</type>
    <beam number="1">continue</beam>
   </note>
   <note default-x="71.17" default-y="-180.00" dynamics="88.89">
    <chord/>
    <pitch>
     <step>G</step>
     <octave>4</octave>
    </pitch>
    <duration>6</duration>
    <voice>1</voice>
    <type>eighth</type>
   </note>
   <note default-x="98.09" default-y="-200.00" dynamics="88.89">
    <pitch>
     <step>C</step>
     <octave>4</octave>
    </pitch>
    <duration>6</duration>
    <voice>1</voice>
    <type>eighth</type>
    <beam number="1">end</beam>
   </note>
   <note default-x="125.00" default-y="-220.00" dynamics="88.89">
    <pitch>
     <step>F</step>
     <octave>3</octave>
    </pitch>
    <duration>12</duration>
    <voice>1</voice>
    <type>quarter</type>
   </note>
   <note>
    <rest/>
    <duration>12</duration>
    <voice>1</voice>
    <type>quarter</type>
   </note>
   <backup>
    <duration>48</duration>
   </backup>
   <forward>
    <duration>48</duration>
    <voice>2</voice>
   </forward>
  </measure>
  <measure number="10" width="295.41">
   <note>
    <rest/>
    <duration>12</duration>
    <voice>1</voice>
    <type>quarter</type>
   </note>
   <note default-x="142.01" default-y="-210.00" dynamics="88.89">
    <pitch>
     <step>A</step>
     <octave>3</octave>
    </pitch>
    <duration>12</duration>
    <voice>1</voice>
    <type>quarter</type>
   </note>
   <note default-x="142.01" default-y="-195.00" dynamics="88.89">
    <chord/>
    <pitch>
     <step>D</step>
     <octave>4</octave>
    </pitch>
    <duration>12</duration>
    <voice>1</voice>
    <type>quarter</type>
   </note>
   <note default-x="192.61" default-y="-205.00" dynamics="88.89">
    <pitch>
     <step>B</step>
     <alter>-1</alter>
     <octave>3</octave>
    </pitch>
    <duration>12</duration>
    <voice>1</voice>
    <type>quarter</type>
   </note>
   <note default-x="243.21" default-y="-225.00" dynamics="88.89">
    <pitch>
     <step>E</step>
     <alter>-1</alter>
     <octave>3</octave>
    </pitch>
    <duration>12</duration>
    <voice>1</voice>
    <type>quarter</type>
   </note>
   <note default-x="243.21" default-y="-200.00" dynamics="88.89">
    <chord/>
    <pitch>
     <step>C</step>
     <octave>4</octave>
    </pitch>
    <duration>12</duration>
    <voice>1</voice>
    <type>quarter</type>
   </note>
   <backup>
    <duration>48</duration>
   </backup>
   <forward>
    <duration>48</duration>
    <voice>2</voice>
   </forward>
  </measure>
  <measure number="11" width="219.18">
   <note default-x="10.36" default-y="-220.00" dynamics="88.89">
    <pitch>
     <step>F</step>
     <octave>3</octave>
    </pitch>
    <duration>24</duration>
    <voice>1</voice>
    <type>half</type>
   </note>
   <note default-x="10.36" default-y="-205.00" dynamics="88.89">
    <chord/>
    <pitch>
     <step>B</step>
     <alter>-1</alter>
     <octave>3</octave>
    </pitch>
    <duration>24</duration>
    <voice>1</voice>
    <type>half</type>
   </note>
   <note default-x="96.33" default-y="-210.00" dynamics="88.89">
    <pitch>
     <step>A</step>
     <octave>3</octave>
    </pitch>
    <duration>24</duration>
    <voice>1</voice>
    <type>half</type>
   </note>
   <backup>
    <duration>48</duration>
   </backup>
   <forward>
    <duration>48</duration>
    <voice>2</voice>
   </forward>
  </measure>
  <measure number="12" width="283.51">
   <note default-x="10.00" default-y="-205.00" dynamics="88.89">
    <pitch>
     <step>B</step>
     <alter>-1</alter>
     <octave>3</octave>
    </pitch>
    <duration>6</duration>
    <voice>1</voice>
    <type>eighth</type>
    <beam number="1">begin</beam>
   </note>
   <note default-x="41.85" default-y="-185.00" dynamics="88.89">
    <pitch>
     <step>F</step>
     <octave>4</octave>
    </pitch>
    <duration>6</duration>
    <voice>1</voice>
    <type>eighth</type>
    <beam number="1">continue</beam>
   </note>
   <note default-x="73.70" default-y="-195.00" dynamics="88.89">
    <pitch>
     <step>D</step>
     <octave>4</octave>
    </pitch>
    <duration>6</duration>
    <voice>1</voice>
    <type>eighth</type>
    <beam number="1">continue</beam>
   </note>
   <note default-x="105.55" default-y="-185.00" dynamics="88.89">
    <pitch>
     <step>F</step>
     <octave>4</octave>
    </pitch>
    <duration>6</duration>
    <voice>1</voice>
    <type>eighth</type>
    <beam number="1">end</beam>
   </note>
   <note default-x="154.52" default-y="-215.00" dynamics="88.89">
    <pitch>
     <step>G</step>
     <octave>3</octave>
    </pitch>
    <duration>6</duration>
    <voice>1</voice>
    <type>eighth</type>
    <beam number="1">begin</beam>
   </note>
   <note default-x="186.37" default-y="-195.00" dynamics="88.89">
    <pitch>
     <step>D</step>
     <octave>4</octave>
    </pitch>
    <duration>6</duration>
    <voice>1</voice>
    <type>eighth</type>
    <beam number="1">continue</beam>
   </note>
   <note default-x="218.22" default-y="-205.00" dynamics="88.89">
    <pitch>
     <step>B</step>
     <alter>-1</alter>
     <octave>3</octave>
    </pitch>
    <duration>6</duration>
    <voice>1</voice>
    <type>eighth</type>
    <beam number="1">continue</beam>
   </note>
   <note default-x="250.06" default-y="-195.00" dynamics="88.89">
    <pitch>
     <step>D</step>
     <octave>4</octave>
    </pitch>
    <duration>6</duration>
    <voice>1</voice>
    <type>eighth</type>
    <beam number="1">end</beam>
   </note>
   <backup>
    <duration>48</duration>
   </backup>
   <forward>
    <duration>48</duration>
    <voice>2</voice>
   </forward>
  </measure>
  <measure number="13" width="279.06">
   <note default-x="13.80" default-y="-225.00" dynamics="88.89">
    <pitch>
     <step>E</step>
     <alter>-1</alter>
     <octave>3</octave>
    </pitch>
    <duration>6</duration>
    <voice>1</voice>
    <type>eighth</type>
    <beam number="1">begin</beam>
   </note>
   <note default-x="13.80" default-y="-190.00" dynamics="88.89">
    <chord/>
    <pitch>
     <step>E</step>
     <alter>-1</alter>
     <octave>4</octave>
    </pitch>
    <duration>6</duration>
    <voice>1</voice>
    <type>eighth</type>
   </note>
   <note default-x="45.76" default-y="-200.00" dynamics="88.89">
    <pitch>
     <step>C</step>
     <octave>4</octave>
    </pitch>
    <duration>6</duration>
    <voice>1</voice>
    <type>eighth</type>
    <beam number="1">continue</beam>
   </note>
   <note default-x="85.71" default-y="-215.00" dynamics="88.89">
    <pitch>
     <step>G</step>
     <octave>3</octave>
    </pitch>
    <duration>6</duration>
    <voice>1</voice>
    <type>eighth</type>
    <beam number="1">continue</beam>
   </note>
   <note default-x="85.71" default-y="-180.00" dynamics="88.89">
    <chord/>
    <pitch>
     <step>G</step>
     <octave>4</octave>
    </pitch>
    <duration>6</duration>
    <voice>1</voice>
    <type>eighth</type>
   </note>
   <note default-x="117.67" default-y="-200.00" dynamics="88.89">
    <pitch>
     <step>C</step>
     <octave>4</octave>
    </pitch>
    <duration>6</duration>
    <voice>1</voice>
    <type>eighth</type>
    <beam number="1">end</beam>
   </note>
   <note default-x="149.62" default-y="-220.00" dynamics="88.89">
    <pitch>
     <step>F</step>
     <octave>3</octave>
    </pitch>
    <duration>6</duration>
    <voice>1</voice>
    <type>eighth</type>
    <beam number="1">begin</beam>
   </note>
   <note default-x="181.58" default-y="-190.00" dynamics="88.89">
    <pitch>
     <step>E</step>
     <alter>-1</alter>
     <octave>4</octave>
    </pitch>
    <duration>6</duration>
    <voice>1</voice>
    <type>eighth</type>
    <beam number="1">continue</beam>
   </note>
   <note default-x="213.54" default-y="-200.00" dynamics="88.89">
    <pitch>
     <step>C</step>
     <octave>4</octave>
    </pitch>
    <duration>6</duration>
    <voice>1</voice>
    <type>eighth</type>
    <beam number="1">continue</beam>
   </note>
   <note default-x="245.50" default-y="-190.00" dynamics="88.89">
    <pitch>
     <step>E</step>
     <alter>-1</alter>
     <octave>4</octave>
    </pitch>
    <duration>6</duration>
    <voice>1</voice>
    <type>eighth</type>
    <beam number="1">end</beam>
   </note>
   <backup>
    <duration>48</duration>
   </backup>
   <forward>
    <duration>48</duration>
    <voice>2</voice>
   </forward>
  </measure>
  <measure number="14" width="331.67">
   <note default-x="93.91" default-y="-230.00" dynamics="88.89">
    <pitch>
     <step>D</step>
     <octave>3</octave>
    </pitch>
    <duration>24</duration>
    <voice>1</voice>
    <type>half</type>
   </note>
   <note default-x="93.91" default-y="-205.00" dynamics="88.89">
    <chord/>
    <pitch>
     <step>B</step>
     <alter>-1</alter>
     <octave>3</octave>
    </pitch>
    <duration>24</duration>
    <voice>1</voice>
    <type>half</type>
   </note>
   <note default-x="210.25" default-y="-195.00" dynamics="88.89">
    <pitch>
     <step>D</step>
     <octave>4</octave>
    </pitch>
    <duration>12</duration>
    <voice>1</voice>
    <type>quarter</type>
   </note>
   <note default-x="268.24" default-y="-190.00" dynamics="88.89">
    <pitch>
     <step>E</step>
     <alter>-1</alter>
     <octave>4</octave>
    </pitch>
    <duration>12</duration>
    <voice>1</voice>
    <type>quarter</type>
   </note>
   <backup>
    <duration>48</duration>
   </backup>
   <forward>
    <duration>12</duration>
    <voice>2</voice>
   </forward>
   <note default-x="152.26" default-y="-330.00" dynamics="88.89">
    <pitch>
     <step>E</step>
     <alter>-1</alter>
     <octave>3</octave>
    </pitch>
    <duration>12</duration>
    <voice>2</voice>
    <type>quarter</type>
   </note>
   <note default-x="209.89" default-y="-325.00" dynamics="88.89">
    <pitch>
     <step>F</step>
     <octave>3</octave>
    </pitch>
    <duration>24</duration>
    <voice>2</voice>
    <type>half</type>
   </note>
  </measure>
  <measure number="15" width="164.93">
   <note default-x="10.00" default-y="-205.00" dynamics="88.89">
    <pitch>
     <step>B</step>
     <alter>-1</alter>
     <octave>3</octave>
    </pitch>
    <duration>12</duration>
    <voice>1</voice>
    <type>quarter</type>
   </note>
   <note default-x="39.97" default-y="-240.00" dynamics="88.89">
    <pitch>
     <step>B</step>
     <alter>-1</alter>
     <octave>2</octave>
    </pitch>
    <duration>12</duration>
    <voice>1</voice>
    <type>quarter</type>
   </note>
   <note>
    <rest/>
    <duration>24</duration>
    <voice>1</voice>
    <type>half</type>
   </note>
   <backup>
    <duration>48</duration>
   </backup>
   <forward>
    <duration>48</duration>
    <voice>2</voice>
   </forward>
  </measure>
  <measure number="16" width="97.94">
   <note>
    <rest/>
    <duration>12</duration>
    <voice>1</voice>
    <type>quarter</type>
   </note>
   <note default-x="31.68" default-y="-205.00" dynamics="88.89">
    <pitch>
     <step>B</step>
     <alter>-1</alter>
     <octave>3</octave>
    </pitch>
    <duration>12</duration>
    <voice>1</voice>
    <type>quarter</type>
   </note>
   <note default-x="52.43" default-y="-215.00" dynamics="88.89">
    <pitch>
     <step>G</step>
     <octave>3</octave>
    </pitch>
    <duration>12</duration>
    <voice>1</voice>
    <type>quarter</type>
   </note>
   <note default-x="73.18" default-y="-225.00" dynamics="88.89">
    <pitch>
     <step>E</step>
     <alter>-1</alter>
     <octave>3</octave>
    </pitch>
    <duration>12</duration>
    <voice>1</voice>
    <type>quarter</type>
   </note>
   <backup>
    <duration>48</duration>
   </backup>
   <forward>
    <duration>48</duration>
    <voice>2</voice>
   </forward>
  </measure>
  <measure number="17" width="164.93">
   <note default-x="10.00" default-y="-220.00" dynamics="88.89">
    <pitch>
     <step>F</step>
     <octave>3</octave>
    </pitch>
    <duration>12</duration>
    <voice>1</voice>
    <type>quarter</type>
   </note>
   <note default-x="39.97" default-y="-255.00" dynamics="88.89">
    <pitch>
     <step>F</step>
     <octave>2</octave>
    </pitch>
    <duration>12</duration>
    <voice>1</voice>
    <type>quarter</type>
   </note>
   <note>
    <rest/>
    <duration>24</duration>
    <voice>1</voice>
    <type>half</type>
   </note>
   <backup>
    <duration>48</duration>
   </backup>
   <forward>
    <duration>48</duration>
    <voice>2</voice>
   </forward>
  </measure>
  <measure number="18" width="97.94">
   <note>
    <rest/>
    <duration>12</duration>
    <voice>1</voice>
    <type>quarter</type>
   </note>
   <note default-x="31.68" default-y="-200.00" dynamics="88.89">
    <pitch>
     <step>C</step>
     <octave>4</octave>
    </pitch>
    <duration>12</duration>
    <voice>1</voice>
    <type>quarter</type>
   </note>
   <note default-x="52.43" default-y="-210.00" dynamics="88.89">
    <pitch>
     <step>A</step>
     <octave>3</octave>
    </pitch>
    <duration>12</duration>
    <voice>1</voice>
    <type>quarter</type>
   </note>
   <note default-x="73.18" default-y="-220.00" dynamics="88.89">
    <pitch>
     <step>F</step>
     <octave>3</octave>
    </pitch>
    <duration>12</duration>
    <voice>1</voice>
    <type>quarter</type>
   </note>
   <backup>
    <duration>48</duration>
   </backup>
   <forward>
    <duration>48</duration>
    <voice>2</voice>
   </forward>
  </measure>
  <measure number="19" width="135.54">
   <note default-x="10.58" default-y="-205.00" dynamics="88.89">
    <pitch>
     <step>B</step>
     <alter>-1</alter>
     <octave>3</octave>
    </pitch>
    <duration>24</duration>
    <voice>1</voice>
    <type>half</type>
   </note>
   <note>
    <rest/>
    <duration>24</duration>
    <voice>1</voice>
    <type>half</type>
   </note>
   <backup>
    <duration>48</duration>
   </backup>
   <forward>
    <duration>12</duration>
    <voice>2</voice>
   </forward>
   <note default-x="37.91" default-y="-345.00" dynamics="88.89">
    <pitch>
     <step>B</step>
     <alter>-1</alter>
     <octave>2</octave>
    </pitch>
    <duration>24</duration>
    <voice>2</voice>
    <type>half</type>
   </note>
   <forward>
    <duration>12</duration>
    <voice>2</voice>
   </forward>
  </measure>
 </part>
</score-partwise>
