<?xml version="1.0" encoding="UTF-8"?>
<!DOCTYPE score-partwise PUBLIC "-//Recordare//DTD MusicXML 3.1 Partwise//EN" "http://www.musicxml.org/dtds/partwise.dtd">
<score-partwise version="3.1">
 <identification>
  <encoding>
   <software>MuseScore 3.2.3</software>
   <encoding-date>2020-08-04</encoding-date>
   <supports element="accidental" type="yes"/>
   <supports element="beam" type="yes"/>
   <supports element="print" attribute="new-page" type="yes" value="yes"/>
   <supports element="print" attribute="new-system" type="yes" value="yes"/>
   <supports element="stem" type="yes"/>
  </encoding>
 </identification>
 <defaults>
  <scaling>
   <millimeters>7.05556</millimeters>
   <tenths>40</tenths>
  </scaling>
  <page-layout>
   <page-height>1683.78</page-height>
   <page-width>1190.55</page-width>
   <page-margins type="even">
    <left-margin>56.6929</left-margin>
    <right-margin>56.6929</right-margin>
    <top-margin>56.6929</top-margin>
    <bottom-margin>113.386</bottom-margin>
   </page-margins>
   <page-margins type="odd">
    <left-margin>56.6929</left-margin>
    <right-margin>56.6929</right-margin>
    <top-margin>56.6929</top-margin>
    <bottom-margin>113.386</bottom-margin>
   </page-margins>
  </page-layout>
  <word-font font-family="FreeSerif" font-size="10"/>
  <lyric-font font-family="FreeSerif" font-size="11"/>
 </defaults>
 <part-list>
  <score-part id="P1">
   <part-name>Pf</part-name>
   <score-instrument id="P1-I1">
    <instrument-name></instrument-name>
   </score-instrument>
   <midi-device id="P1-I1" port="1"></midi-device>
   <midi-instrument id="P1-I1">
    <midi-channel>1</midi-channel>
    <midi-program>1</midi-program>
    <volume>78.7402</volume>
    <pan>0</pan>
   </midi-instrument>
  </score-part>
  <score-part id="P3">
   <part-name>Pf</part-name>
   <score-instrument id="P3-I1">
    <instrument-name></instrument-name>
   </score-instrument>
   <midi-device id="P3-I1" port="1"></midi-device>
   <midi-instrument id="P3-I1">
    <midi-channel>5</midi-channel>
    <midi-program>1</midi-program>
    <volume>78.7402</volume>
    <pan>0</pan>
   </midi-instrument>
  </score-part>
 </part-list>
 <part id="P1">
  <measure number="1" width="271.93">
   <attributes>
    <divisions>12</divisions>
    <key>
     <fifths>4</fifths>
    </key>
    <time>
     <beats>4</beats>
     <beat-type>4</beat-type>
    </time>
    <clef>
     <sign>G</sign>
     <line>2</line>
    </clef>
   </attributes>
   <direction placement="above">
    <direction-type>
     <metronome parentheses="no" default-x="-36.90" relative-y="20.00">
      <beat-unit>quarter</beat-unit>
      <per-minute>115</per-minute>
     </metronome>
    </direction-type>
    <sound tempo="115"/>
   </direction>
   <note>
    <rest/>
    <duration>12</duration>
    <voice>1</voice>
    <type>quarter</type>
   </note>
   <note>
    <rest/>
    <duration>6</duration>
    <voice>1</voice>
    <type>eighth</type>
   </note>
   <note>
    <rest/>
    <duration>4</duration>
    <voice>1</voice>
    <type>eighth</type>
    <time-modification>
     <actual-notes>3</actual-notes>
     <normal-notes>2</normal-notes>
     <normal-type>16th</normal-type>
    </time-modification>
    <notations>
     <tuplet type="start" bracket="yes"/>
    </notations>
   </note>
   <direction placement="above">
    <direction-type>
     <metronome parentheses="no" default-y="1.71" relative-y="20.00">
      <beat-unit>quarter</beat-unit>
      <per-minute>119</per-minute>
     </metronome>
    </direction-type>
    <sound tempo="119"/>
   </direction>
   <note default-x="212.39" default-y="-40.00" dynamics="88.89">
    <pitch>
     <step>E</step>
     <octave>4</octave>
    </pitch>
    <duration>2</duration>
    <voice>1</voice>
    <type>16th</type>
    <time-modification>
     <actual-notes>3</actual-notes>
     <normal-notes>2</normal-notes>
     <normal-type>16th</normal-type>
    </time-modification>
    <notations>
     <tuplet type="stop"/>
    </notations>
   </note>
   <direction placement="above">
    <direction-type>
     <metronome parentheses="no" default-y="23.55" relative-y="20.00">
      <beat-unit>quarter</beat-unit>
      <per-minute>123</per-minute>
     </metronome>
    </direction-type>
    <sound tempo="123"/>
   </direction>
   <note default-x="237.33" default-y="-25.00" dynamics="88.89">
    <pitch>
     <step>A</step>
     <octave>4</octave>
    </pitch>
    <duration>24</duration>
    <voice>1</voice>
    <type>half</type>
   </note>
   <backup>
    <duration>48</duration>
   </backup>
   <forward>
    <duration>12</duration>
    <voice>2</voice>
   </forward>
   <forward>
    <duration>8</duration>
    <voice>2</voice>
   </forward>
   <note default-x="196.72" default-y="-155.00" dynamics="88.89">
    <pitch>
     <step>C</step>
     <alter>1</alter>
     <octave>4</octave>
    </pitch>
    <duration>4</duration>
    <voice>2</voice>
    <type>eighth</type>
    <time-modification>
     <actual-notes>3</actual-notes>
     <normal-notes>2</normal-notes>
     <normal-type>eighth</normal-type>
    </time-modification>
    <notations>
     <tuplet type="stop"/>
    </notations>
   </note>
   <note default-x="237.33" default-y="-165.00" dynamics="88.89">
    <pitch>
     <step>A</step>
     <octave>3</octave>
    </pitch>
    <duration>24</duration>
    <voice>2</voice>
    <type>half</type>
   </note>
  </measure>
  <measure number="2" width="135.01">
   <direction placement="above">
    <direction-type>
     <metronome parentheses="no" default-y="45.06" relative-y="20.00">
      <beat-unit>quarter</beat-unit>
      <per-minute>127</per-minute>
     </metronome>
    </direction-type>
    <sound tempo="127"/>
   </direction>
   <note default-x="13.80" default-y="-40.00" dynamics="88.89">
    <pitch>
     <step>E</step>
     <octave>4</octave>
    </pitch>
    <duration>12</duration>
    <voice>1</voice>
    <type>quarter</type>
   </note>
   <note default-x="40.60" default-y="-50.00" dynamics="88.89">
    <pitch>
     <step>C</step>
     <alter>1</alter>
     <octave>4</octave>
    </pitch>
    <duration>6</duration>
    <voice>1</voice>
    <type>eighth</type>
    <beam number="1">begin</beam>
   </note>
   <note default-x="40.60" default-y="-15.00" dynamics="88.89">
    <chord/>
    <pitch>
     <step>C</step>
     <alter>1</alter>
     <octave>5</octave>
    </pitch>
    <duration>6</duration>
    <voice>1</voice>
    <type>eighth</type>
   </note>
   <note default-x="67.62" default-y="-10.00" dynamics="88.89">
    <pitch>
     <step>D</step>
     <octave>5</octave>
    </pitch>
    <duration>3</duration>
    <voice>1</voice>
    <type>16th</type>
    <accidental>natural</accidental>
    <beam number="1">continue</beam>
    <beam number="2">begin</beam>
   </note>
   <note default-x="83.28" default-y="-20.00" dynamics="88.89">
    <pitch>
     <step>B</step>
     <octave>4</octave>
    </pitch>
    <duration>3</duration>
    <voice>1</voice>
    <type>16th</type>
    <beam number="1">end</beam>
    <beam number="2">end</beam>
   </note>
   <note default-x="98.95" default-y="-25.00" dynamics="88.89">
    <pitch>
     <step>A</step>
     <octave>4</octave>
    </pitch>
    <duration>24</duration>
    <voice>1</voice>
    <type>half</type>
   </note>
   <backup>
    <duration>48</duration>
   </backup>
   <forward>
    <duration>48</duration>
    <voice>2</voice>
   </forward>
  </measure>
  <measure number="3" width="178.39">
   <note default-x="10.94" default-y="-15.00" dynamics="88.89">
    <pitch>
     <step>C</step>
     <alter>1</alter>
     <octave>5</octave>
    </pitch>
    <duration>6</duration>
    <voice>1</voice>
    <type>eighth</type>
    <beam number="1">begin</beam>
   </note>
   <note default-x="37.96" default-y="-10.00" dynamics="88.89">
    <pitch>
     <step>D</step>
     <octave>5</octave>
    </pitch>
    <duration>3</duration>
    <voice>1</voice>
    <type>16th</type>
    <accidental>natural</accidental>
    <beam number="1">continue</beam>
    <beam number="2">begin</beam>
   </note>
   <note default-x="54.04" default-y="-20.00" dynamics="88.89">
    <pitch>
     <step>B</step>
     <octave>4</octave>
    </pitch>
    <duration>3</duration>
    <voice>1</voice>
    <type>16th</type>
    <beam number="1">end</beam>
    <beam number="2">end</beam>
   </note>
   <note>
    <rest/>
    <duration>12</duration>
    <voice>1</voice>
    <type>quarter</type>
   </note>
   <direction placement="above">
    <direction-type>
     <metronome parentheses="no" default-y="10.75" relative-y="20.00">
      <beat-unit>quarter</beat-unit>
      <per-minute>131</per-minute>
     </metronome>
    </direction-type>
    <sound tempo="131"/>
   </direction>
   <note default-x="106.03" default-y="20.00" dynamics="88.89">
    <pitch>
     <step>C</step>
     <alter>1</alter>
     <octave>6</octave>
    </pitch>
    <duration>12</duration>
    <voice>1</voice>
    <type>quarter</type>
   </note>
   <note default-x="141.41" default-y="-10.00" dynamics="88.89">
    <pitch>
     <step>D</step>
     <alter>1</alter>
     <octave>5</octave>
    </pitch>
    <duration>12</duration>
    <voice>1</voice>
    <type>quarter</type>
    <accidental>sharp</accidental>
   </note>
   <backup>
    <duration>48</duration>
   </backup>
   <forward>
    <duration>48</duration>
    <voice>2</voice>
   </forward>
  </measure>
  <measure number="4" width="194.64">
   <note default-x="14.16" default-y="-30.00" dynamics="88.89">
    <pitch>
     <step>G</step>
     <alter>1</alter>
     <octave>4</octave>
    </pitch>
    <duration>18</duration>
    <voice>1</voice>
    <type>quarter</type>
    <dot/>
   </note>
   <note default-x="14.16" default-y="-5.00" dynamics="88.89">
    <chord/>
    <pitch>
     <step>E</step>
     <octave>5</octave>
    </pitch>
    <duration>18</duration>
    <voice>1</voice>
    <type>quarter</type>
    <dot/>
   </note>
   <note default-x="63.35" default-y="-5.00" dynamics="88.89">
    <pitch>
     <step>E</step>
     <alter>1</alter>
     <octave>5</octave>
    </pitch>
    <duration>6</duration>
    <voice>1</voice>
    <type>eighth</type>
    <accidental>sharp</accidental>
   </note>
   <direction placement="above">
    <direction-type>
     <metronome parentheses="no" relative-y="20.00">
      <beat-unit>quarter</beat-unit>
      <per-minute>127</per-minute>
     </metronome>
    </direction-type>
    <sound tempo="127"/>
   </direction>
   <note default-x="88.57" default-y="5.00" dynamics="88.89">
    <pitch>
     <step>G</step>
     <alter>1</alter>
     <octave>5</octave>
    </pitch>
    <duration>6</duration>
    <voice>1</voice>
    <type>eighth</type>
    <beam number="1">begin</beam>
   </note>
   <note default-x="113.78" default-y="0.00" dynamics="88.89">
    <pitch>
     <step>F</step>
     <alter>1</alter>
     <octave>5</octave>
    </pitch>
    <duration>6</duration>
    <voice>1</voice>
    <type>eighth</type>
    <beam number="1">continue</beam>
   </note>
   <note default-x="140.80" default-y="-5.00" dynamics="88.89">
    <pitch>
     <step>E</step>
     <octave>5</octave>
    </pitch>
    <duration>6</duration>
    <voice>1</voice>
    <type>eighth</type>
    <accidental>natural</accidental>
    <beam number="1">continue</beam>
   </note>
   <note default-x="167.82" default-y="-10.00" dynamics="88.89">
    <pitch>
     <step>D</step>
     <octave>5</octave>
    </pitch>
    <duration>6</duration>
    <voice>1</voice>
    <type>eighth</type>
    <accidental>natural</accidental>
    <beam number="1">end</beam>
   </note>
   <backup>
    <duration>48</duration>
   </backup>
   <forward>
    <duration>48</duration>
    <voice>2</voice>
   </forward>
  </measure>
  <measure number="5" width="168.45">
   <note default-x="10.94" default-y="-15.00" dynamics="88.89">
    <pitch>
     <step>C</step>
     <alter>1</alter>
     <octave>5</octave>
    </pitch>
    <duration>6</duration>
    <voice>1</voice>
    <type>eighth</type>
    <beam number="1">begin</beam>
   </note>
   <note default-x="30.47" default-y="-20.00" dynamics="88.89">
    <pitch>
     <step>B</step>
     <octave>4</octave>
    </pitch>
    <duration>6</duration>
    <voice>1</voice>
    <type>eighth</type>
    <beam number="1">continue</beam>
   </note>
   <note default-x="49.99" default-y="-25.00" dynamics="88.89">
    <pitch>
     <step>A</step>
     <octave>4</octave>
    </pitch>
    <duration>6</duration>
    <voice>1</voice>
    <type>eighth</type>
    <beam number="1">continue</beam>
   </note>
   <note default-x="69.52" default-y="-30.00" dynamics="88.89">
    <pitch>
     <step>G</step>
     <alter>1</alter>
     <octave>4</octave>
    </pitch>
    <duration>6</duration>
    <voice>1</voice>
    <type>eighth</type>
    <beam number="1">end</beam>
   </note>
   <direction placement="above">
    <direction-type>
     <metronome parentheses="no" relative-y="20.00">
      <beat-unit>quarter</beat-unit>
      <per-minute>131</per-minute>
     </metronome>
    </direction-type>
    <sound tempo="131"/>
   </direction>
   <note default-x="89.05" default-y="-5.00" dynamics="88.89">
    <pitch>
     <step>E</step>
     <octave>5</octave>
    </pitch>
    <duration>6</duration>
    <voice>1</voice>
    <type>eighth</type>
   </note>
   <note default-x="116.07" default-y="-10.00" dynamics="88.89">
    <pitch>
     <step>D</step>
     <octave>5</octave>
    </pitch>
    <duration>18</duration>
    <voice>1</voice>
    <type>quarter</type>
    <dot/>
    <accidental>natural</accidental>
   </note>
   <backup>
    <duration>48</duration>
   </backup>
   <forward>
    <duration>48</duration>
    <voice>2</voice>
   </forward>
  </measure>
  <measure number="6" width="372.53">
   <direction placement="above">
    <direction-type>
     <metronome parentheses="no" relative-y="20.00">
      <beat-unit>quarter</beat-unit>
      <per-minute>127</per-minute>
     </metronome>
    </direction-type>
    <sound tempo="127"/>
   </direction>
   <note default-x="112.39" default-y="-20.00" dynamics="88.89">
    <pitch>
     <step>B</step>
     <octave>4</octave>
    </pitch>
    <duration>6</duration>
    <voice>1</voice>
    <type>eighth</type>
    <beam number="1">begin</beam>
   </note>
   <note default-x="141.99" default-y="-25.00" dynamics="88.89">
    <pitch>
     <step>A</step>
     <octave>4</octave>
    </pitch>
    <duration>6</duration>
    <voice>1</voice>
    <type>eighth</type>
    <beam number="1">continue</beam>
   </note>
   <note default-x="171.59" default-y="0.00" dynamics="88.89">
    <pitch>
     <step>F</step>
     <alter>1</alter>
     <octave>5</octave>
    </pitch>
    <duration>6</duration>
    <voice>1</voice>
    <type>eighth</type>
    <beam number="1">continue</beam>
   </note>
   <note default-x="211.53" default-y="-5.00" dynamics="88.89">
    <pitch>
     <step>E</step>
     <octave>5</octave>
    </pitch>
    <duration>6</duration>
    <tie type="start"/>
    <voice>1</voice>
    <type>eighth</type>
    <beam number="1">end</beam>
    <notations>
     <tied type="start"/>
    </notations>
   </note>
   <note default-x="241.13" default-y="-5.00" dynamics="88.89">
    <pitch>
     <step>E</step>
     <octave>5</octave>
    </pitch>
    <duration>12</duration>
    <tie type="stop"/>
    <voice>1</voice>
    <type>quarter</type>
    <notations>
     <tied type="stop"/>
    </notations>
   </note>
   <direction placement="above">
    <direction-type>
     <metronome parentheses="no" default-y="5.35" relative-y="20.00">
      <beat-unit>quarter</beat-unit>
      <per-minute>127</per-minute>
     </metronome>
    </direction-type>
    <sound tempo="127"/>
   </direction>
   <note default-x="311.73" default-y="-5.00" dynamics="88.89">
    <pitch>
     <step>E</step>
     <octave>5</octave>
    </pitch>
    <duration>6</duration>
    <voice>1</voice>
    <type>eighth</type>
    <beam number="1">begin</beam>
   </note>
   <note default-x="341.33" default-y="-10.00" dynamics="88.89">
    <pitch>
     <step>D</step>
     <octave>5</octave>
    </pitch>
    <duration>6</duration>
    <voice>1</voice>
    <type>eighth</type>
    <accidental>natural</accidental>
    <beam number="1">end</beam>
   </note>
   <backup>
    <duration>48</duration>
   </backup>
   <forward>
    <duration>48</duration>
    <voice>2</voice>
   </forward>
   <backup>
    <duration>32</duration>
   </backup>
   <direction placement="above">
    <direction-type>
     <metronome parentheses="no" relative-y="20.00">
      <beat-unit>quarter</beat-unit>
      <per-minute>131</per-minute>
     </metronome>
    </direction-type>
    <sound tempo="131"/>
   </direction>
   <forward>
    <duration>32</duration>
   </forward>
  </measure>
  <measure number="7" width="237.08">
   <note default-x="14.36" default-y="5.00" dynamics="88.89">
    <pitch>
     <step>G</step>
     <octave>5</octave>
    </pitch>
    <duration>6</duration>
    <voice>1</voice>
    <type>eighth</type>
    <accidental>natural</accidental>
   </note>
   <note default-x="53.84" default-y="0.00" dynamics="88.89">
    <pitch>
     <step>F</step>
     <alter>1</alter>
     <octave>5</octave>
    </pitch>
    <duration>18</duration>
    <voice>1</voice>
    <type>quarter</type>
    <dot/>
   </note>
   <note default-x="139.44" default-y="-35.00" dynamics="88.89">
    <pitch>
     <step>F</step>
     <alter>1</alter>
     <octave>4</octave>
    </pitch>
    <duration>12</duration>
    <voice>1</voice>
    <type>quarter</type>
   </note>
   <note default-x="177.41" default-y="-5.00" dynamics="88.89">
    <pitch>
     <step>E</step>
     <octave>5</octave>
    </pitch>
    <duration>6</duration>
    <voice>1</voice>
    <type>eighth</type>
    <beam number="1">begin</beam>
   </note>
   <note default-x="206.45" default-y="-10.00" dynamics="88.89">
    <pitch>
     <step>D</step>
     <octave>5</octave>
    </pitch>
    <duration>6</duration>
    <voice>1</voice>
    <type>eighth</type>
    <accidental>natural</accidental>
    <beam number="1">end</beam>
   </note>
   <backup>
    <duration>48</duration>
   </backup>
   <forward>
    <duration>48</duration>
    <voice>2</voice>
   </forward>
  </measure>
  <measure number="8" width="205.29">
   <note default-x="10.94" default-y="-15.00" dynamics="88.89">
    <pitch>
     <step>C</step>
     <alter>1</alter>
     <octave>5</octave>
    </pitch>
    <duration>6</duration>
    <voice>1</voice>
    <type>eighth</type>
    <beam number="1">begin</beam>
   </note>
   <note default-x="35.08" default-y="-20.00" dynamics="88.89">
    <pitch>
     <step>B</step>
     <octave>4</octave>
    </pitch>
    <duration>6</duration>
    <voice>1</voice>
    <type>eighth</type>
    <beam number="1">continue</beam>
   </note>
   <note default-x="59.23" default-y="-25.00" dynamics="88.89">
    <pitch>
     <step>A</step>
     <octave>4</octave>
    </pitch>
    <duration>6</duration>
    <voice>1</voice>
    <type>eighth</type>
    <beam number="1">continue</beam>
   </note>
   <note default-x="83.37" default-y="-30.00" dynamics="88.89">
    <pitch>
     <step>G</step>
     <alter>1</alter>
     <octave>4</octave>
    </pitch>
    <duration>6</duration>
    <voice>1</voice>
    <type>eighth</type>
    <beam number="1">end</beam>
   </note>
   <note default-x="107.51" default-y="-25.00" dynamics="88.89">
    <pitch>
     <step>A</step>
     <octave>4</octave>
    </pitch>
    <duration>18</duration>
    <voice>1</voice>
    <type>quarter</type>
    <dot/>
   </note>
   <direction placement="above">
    <direction-type>
     <metronome parentheses="no" default-y="5.78" relative-y="20.00">
      <beat-unit>quarter</beat-unit>
      <per-minute>123</per-minute>
     </metronome>
    </direction-type>
    <sound tempo="123"/>
   </direction>
   <note default-x="164.85" default-y="-20.00" dynamics="88.89">
    <pitch>
     <step>B</step>
     <octave>4</octave>
    </pitch>
    <duration>3</duration>
    <voice>1</voice>
    <type>16th</type>
    <beam number="1">begin</beam>
    <beam number="2">begin</beam>
   </note>
   <direction placement="above">
    <direction-type>
     <metronome parentheses="no" default-y="27.29" relative-y="20.00">
      <beat-unit>quarter</beat-unit>
      <per-minute>127</per-minute>
     </metronome>
    </direction-type>
    <sound tempo="127"/>
   </direction>
   <note default-x="180.52" default-y="5.00" dynamics="88.89">
    <pitch>
     <step>G</step>
     <alter>1</alter>
     <octave>5</octave>
    </pitch>
    <duration>3</duration>
    <voice>1</voice>
    <type>16th</type>
    <beam number="1">end</beam>
    <beam number="2">end</beam>
   </note>
   <backup>
    <duration>48</duration>
   </backup>
   <forward>
    <duration>24</duration>
    <voice>2</voice>
   </forward>
   <forward>
    <duration>12</duration>
    <voice>2</voice>
   </forward>
   <forward>
    <duration>6</duration>
    <voice>2</voice>
   </forward>
   <forward>
    <duration>3</duration>
    <voice>2</voice>
   </forward>
   <note default-x="180.52" default-y="-110.00" dynamics="88.89">
    <pitch>
     <step>E</step>
     <octave>5</octave>
    </pitch>
    <duration>3</duration>
    <tie type="start"/>
    <voice>2</voice>
    <type>16th</type>
    <notations>
     <tied type="start"/>
    </notations>
   </note>
  </measure>
  <measure number="9" width="262.27">
   <direction placement="above">
    <direction-type>
     <metronome parentheses="no" default-y="49.13" relative-y="20.00">
      <beat-unit>quarter</beat-unit>
      <per-minute>131</per-minute>
     </metronome>
    </direction-type>
    <sound tempo="131"/>
   </direction>
   <note default-x="16.28" default-y="15.00" dynamics="88.89">
    <pitch>
     <step>B</step>
     <octave>5</octave>
    </pitch>
    <duration>36</duration>
    <voice>1</voice>
    <type>half</type>
    <dot/>
   </note>
   <note default-x="177.96" default-y="15.00" dynamics="88.89">
    <pitch>
     <step>B</step>
     <octave>5</octave>
    </pitch>
    <duration>3</duration>
    <voice>1</voice>
    <type>16th</type>
    <beam number="1">begin</beam>
    <beam number="2">begin</beam>
   </note>
   <note default-x="201.23" default-y="10.00" dynamics="88.89">
    <pitch>
     <step>A</step>
     <octave>5</octave>
    </pitch>
    <duration>3</duration>
    <voice>1</voice>
    <type>16th</type>
    <beam number="1">continue</beam>
    <beam number="2">continue</beam>
   </note>
   <note default-x="220.70" default-y="5.00" dynamics="88.89">
    <pitch>
     <step>G</step>
     <alter>1</alter>
     <octave>5</octave>
    </pitch>
    <duration>3</duration>
    <voice>1</voice>
    <type>16th</type>
    <beam number="1">continue</beam>
    <beam number="2">continue</beam>
   </note>
   <note default-x="237.50" default-y="0.00" dynamics="88.89">
    <pitch>
     <step>F</step>
     <alter>1</alter>
     <octave>5</octave>
    </pitch>
    <duration>3</duration>
    <tie type="start"/>
    <voice>1</voice>
    <type>16th</type>
    <beam number="1">end</beam>
    <beam number="2">end</beam>
    <notations>
     <tied type="start"/>
    </notations>
   </note>
   <backup>
    <duration>48</duration>
   </backup>
   <note default-x="13.32" default-y="-110.00" dynamics="88.89">
    <pitch>
     <step>E</step>
     <octave>5</octave>
    </pitch>
    <duration>48</duration>
    <tie type="stop"/>
    <voice>2</voice>
    <type>whole</type>
    <notations>
     <tied type="stop"/>
    </notations>
   </note>
  </measure>
  <measure number="10" width="398.00">
   <note default-x="112.39" default-y="0.00" dynamics="88.89">
    <pitch>
     <step>F</step>
     <alter>1</alter>
     <octave>5</octave>
    </pitch>
    <duration>3</duration>
    <tie type="stop"/>
    <voice>1</voice>
    <type>16th</type>
    <beam number="1">begin</beam>
    <beam number="2">begin</beam>
    <notations>
     <tied type="stop"/>
    </notations>
   </note>
   <note default-x="131.02" default-y="-5.00" dynamics="88.89">
    <pitch>
     <step>E</step>
     <octave>5</octave>
    </pitch>
    <duration>3</duration>
    <voice>1</voice>
    <type>16th</type>
    <beam number="1">continue</beam>
    <beam number="2">continue</beam>
   </note>
   <note default-x="149.65" default-y="-10.00" dynamics="88.89">
    <pitch>
     <step>D</step>
     <alter>1</alter>
     <octave>5</octave>
    </pitch>
    <duration>3</duration>
    <voice>1</voice>
    <type>16th</type>
    <beam number="1">continue</beam>
    <beam number="2">continue</beam>
   </note>
   <note default-x="168.28" default-y="-15.00" dynamics="88.89">
    <pitch>
     <step>C</step>
     <alter>1</alter>
     <octave>5</octave>
    </pitch>
    <duration>3</duration>
    <voice>1</voice>
    <type>16th</type>
    <beam number="1">end</beam>
    <beam number="2">end</beam>
   </note>
   <note default-x="186.91" default-y="-20.00" dynamics="88.89">
    <pitch>
     <step>B</step>
     <octave>4</octave>
    </pitch>
    <duration>3</duration>
    <voice>1</voice>
    <type>16th</type>
    <beam number="1">begin</beam>
    <beam number="2">begin</beam>
   </note>
   <note default-x="205.54" default-y="-25.00" dynamics="88.89">
    <pitch>
     <step>A</step>
     <octave>4</octave>
    </pitch>
    <duration>3</duration>
    <voice>1</voice>
    <type>16th</type>
    <beam number="1">continue</beam>
    <beam number="2">continue</beam>
   </note>
   <note default-x="224.17" default-y="-30.00" dynamics="88.89">
    <pitch>
     <step>G</step>
     <alter>1</alter>
     <octave>4</octave>
    </pitch>
    <duration>3</duration>
    <voice>1</voice>
    <type>16th</type>
    <beam number="1">continue</beam>
    <beam number="2">continue</beam>
   </note>
   <note default-x="242.80" default-y="-25.00" dynamics="88.89">
    <pitch>
     <step>A</step>
     <octave>4</octave>
    </pitch>
    <duration>3</duration>
    <voice>1</voice>
    <type>16th</type>
    <beam number="1">end</beam>
    <beam number="2">end</beam>
   </note>
   <note default-x="261.43" default-y="-30.00" dynamics="88.89">
    <pitch>
     <step>G</step>
     <alter>1</alter>
     <octave>4</octave>
    </pitch>
    <duration>3</duration>
    <voice>1</voice>
    <type>16th</type>
    <beam number="1">begin</beam>
    <beam number="2">begin</beam>
   </note>
   <note default-x="280.06" default-y="-20.00" dynamics="88.89">
    <pitch>
     <step>B</step>
     <octave>4</octave>
    </pitch>
    <duration>3</duration>
    <voice>1</voice>
    <type>16th</type>
    <beam number="1">continue</beam>
    <beam number="2">continue</beam>
   </note>
   <note default-x="298.69" default-y="-5.00" dynamics="88.89">
    <pitch>
     <step>E</step>
     <octave>5</octave>
    </pitch>
    <duration>3</duration>
    <voice>1</voice>
    <type>16th</type>
    <beam number="1">continue</beam>
    <beam number="2">continue</beam>
   </note>
   <note default-x="317.32" default-y="5.00" dynamics="88.89">
    <pitch>
     <step>G</step>
     <alter>1</alter>
     <octave>5</octave>
    </pitch>
    <duration>3</duration>
    <voice>1</voice>
    <type>16th</type>
    <beam number="1">end</beam>
    <beam number="2">end</beam>
   </note>
   <note default-x="336.78" default-y="15.00" dynamics="88.89">
    <pitch>
     <step>B</step>
     <octave>5</octave>
    </pitch>
    <duration>12</duration>
    <tie type="start"/>
    <voice>1</voice>
    <type>quarter</type>
    <notations>
     <tied type="start"/>
    </notations>
   </note>
   <backup>
    <duration>48</duration>
   </backup>
   <forward>
    <duration>48</duration>
    <voice>2</voice>
   </forward>
  </measure>
  <measure number="11" width="309.47">
   <note default-x="13.80" default-y="15.00" dynamics="88.89">
    <pitch>
     <step>B</step>
     <octave>5</octave>
    </pitch>
    <duration>12</duration>
    <tie type="stop"/>
    <voice>1</voice>
    <type>quarter</type>
    <notations>
     <tied type="stop"/>
    </notations>
   </note>
   <note default-x="73.65" default-y="15.00" dynamics="88.89">
    <pitch>
     <step>B</step>
     <octave>5</octave>
    </pitch>
    <duration>3</duration>
    <voice>1</voice>
    <type>16th</type>
    <beam number="1">begin</beam>
    <beam number="2">begin</beam>
   </note>
   <note default-x="96.92" default-y="10.00" dynamics="88.89">
    <pitch>
     <step>A</step>
     <octave>5</octave>
    </pitch>
    <duration>3</duration>
    <voice>1</voice>
    <type>16th</type>
    <beam number="1">continue</beam>
    <beam number="2">continue</beam>
   </note>
   <note default-x="116.38" default-y="5.00" dynamics="88.89">
    <pitch>
     <step>G</step>
     <alter>1</alter>
     <octave>5</octave>
    </pitch>
    <duration>3</duration>
    <voice>1</voice>
    <type>16th</type>
    <beam number="1">continue</beam>
    <beam number="2">continue</beam>
   </note>
   <note default-x="135.08" default-y="0.00" dynamics="88.89">
    <pitch>
     <step>F</step>
     <alter>1</alter>
     <octave>5</octave>
    </pitch>
    <duration>3</duration>
    <tie type="start"/>
    <voice>1</voice>
    <type>16th</type>
    <beam number="1">end</beam>
    <beam number="2">end</beam>
    <notations>
     <tied type="start"/>
    </notations>
   </note>
   <note default-x="153.79" default-y="0.00" dynamics="88.89">
    <pitch>
     <step>F</step>
     <alter>1</alter>
     <octave>5</octave>
    </pitch>
    <duration>3</duration>
    <tie type="stop"/>
    <voice>1</voice>
    <type>16th</type>
    <beam number="1">begin</beam>
    <beam number="2">begin</beam>
    <notations>
     <tied type="stop"/>
    </notations>
   </note>
   <note default-x="172.49" default-y="-5.00" dynamics="88.89">
    <pitch>
     <step>E</step>
     <octave>5</octave>
    </pitch>
    <duration>3</duration>
    <voice>1</voice>
    <type>16th</type>
    <beam number="1">continue</beam>
    <beam number="2">continue</beam>
   </note>
   <note default-x="191.19" default-y="-10.00" dynamics="88.89">
    <pitch>
     <step>D</step>
     <alter>1</alter>
     <octave>5</octave>
    </pitch>
    <duration>3</duration>
    <voice>1</voice>
    <type>16th</type>
    <beam number="1">continue</beam>
    <beam number="2">continue</beam>
   </note>
   <note default-x="209.90" default-y="-15.00" dynamics="88.89">
    <pitch>
     <step>C</step>
     <alter>1</alter>
     <octave>5</octave>
    </pitch>
    <duration>3</duration>
    <voice>1</voice>
    <type>16th</type>
    <beam number="1">end</beam>
    <beam number="2">end</beam>
   </note>
   <note default-x="228.60" default-y="-20.00" dynamics="88.89">
    <pitch>
     <step>B</step>
     <octave>4</octave>
    </pitch>
    <duration>3</duration>
    <voice>1</voice>
    <type>16th</type>
    <beam number="1">begin</beam>
    <beam number="2">begin</beam>
   </note>
   <note default-x="247.30" default-y="-25.00" dynamics="88.89">
    <pitch>
     <step>A</step>
     <octave>4</octave>
    </pitch>
    <duration>3</duration>
    <voice>1</voice>
    <type>16th</type>
    <beam number="1">continue</beam>
    <beam number="2">continue</beam>
   </note>
   <note default-x="266.01" default-y="-30.00" dynamics="88.89">
    <pitch>
     <step>G</step>
     <alter>1</alter>
     <octave>4</octave>
    </pitch>
    <duration>3</duration>
    <voice>1</voice>
    <type>16th</type>
    <beam number="1">continue</beam>
    <beam number="2">continue</beam>
   </note>
   <note default-x="284.71" default-y="-25.00" dynamics="88.89">
    <pitch>
     <step>A</step>
     <octave>4</octave>
    </pitch>
    <duration>3</duration>
    <voice>1</voice>
    <type>16th</type>
    <beam number="1">end</beam>
    <beam number="2">end</beam>
   </note>
   <backup>
    <duration>48</duration>
   </backup>
   <forward>
    <duration>48</duration>
    <voice>2</voice>
   </forward>
  </measure>
  <measure number="12" width="369.69">
   <note default-x="10.00" default-y="-30.00" dynamics="88.89">
    <pitch>
     <step>G</step>
     <alter>1</alter>
     <octave>4</octave>
    </pitch>
    <duration>3</duration>
    <voice>1</voice>
    <type>16th</type>
    <beam number="1">begin</beam>
    <beam number="2">begin</beam>
   </note>
   <note default-x="31.99" default-y="-20.00" dynamics="88.89">
    <pitch>
     <step>B</step>
     <octave>4</octave>
    </pitch>
    <duration>3</duration>
    <voice>1</voice>
    <type>16th</type>
    <beam number="1">continue</beam>
    <beam number="2">continue</beam>
   </note>
   <note default-x="53.97" default-y="-25.00" dynamics="88.89">
    <pitch>
     <step>A</step>
     <octave>4</octave>
    </pitch>
    <duration>3</duration>
    <voice>1</voice>
    <type>16th</type>
    <beam number="1">continue</beam>
    <beam number="2">continue</beam>
   </note>
   <note default-x="75.96" default-y="-30.00" dynamics="88.89">
    <pitch>
     <step>G</step>
     <alter>1</alter>
     <octave>4</octave>
    </pitch>
    <duration>3</duration>
    <voice>1</voice>
    <type>16th</type>
    <beam number="1">end</beam>
    <beam number="2">end</beam>
   </note>
   <note default-x="97.95" default-y="-25.00" dynamics="88.89">
    <pitch>
     <step>A</step>
     <octave>4</octave>
    </pitch>
    <duration>3</duration>
    <voice>1</voice>
    <type>16th</type>
    <beam number="1">begin</beam>
    <beam number="2">begin</beam>
   </note>
   <note default-x="119.94" default-y="-20.00" dynamics="88.89">
    <pitch>
     <step>B</step>
     <octave>4</octave>
    </pitch>
    <duration>3</duration>
    <voice>1</voice>
    <type>16th</type>
    <beam number="1">continue</beam>
    <beam number="2">continue</beam>
   </note>
   <note default-x="141.92" default-y="-15.00" dynamics="88.89">
    <pitch>
     <step>C</step>
     <alter>1</alter>
     <octave>5</octave>
    </pitch>
    <duration>3</duration>
    <voice>1</voice>
    <type>16th</type>
    <beam number="1">continue</beam>
    <beam number="2">continue</beam>
   </note>
   <note default-x="163.91" default-y="-10.00" dynamics="88.89">
    <pitch>
     <step>D</step>
     <alter>1</alter>
     <octave>5</octave>
    </pitch>
    <duration>3</duration>
    <voice>1</voice>
    <type>16th</type>
    <beam number="1">end</beam>
    <beam number="2">end</beam>
   </note>
   <note default-x="185.90" default-y="-5.00" dynamics="88.89">
    <pitch>
     <step>E</step>
     <octave>5</octave>
    </pitch>
    <duration>3</duration>
    <voice>1</voice>
    <type>16th</type>
    <beam number="1">begin</beam>
    <beam number="2">begin</beam>
   </note>
   <note default-x="207.89" default-y="0.00" dynamics="88.89">
    <pitch>
     <step>F</step>
     <alter>1</alter>
     <octave>5</octave>
    </pitch>
    <duration>3</duration>
    <voice>1</voice>
    <type>16th</type>
    <beam number="1">continue</beam>
    <beam number="2">continue</beam>
   </note>
   <note default-x="229.87" default-y="5.00" dynamics="88.89">
    <pitch>
     <step>G</step>
     <alter>1</alter>
     <octave>5</octave>
    </pitch>
    <duration>3</duration>
    <voice>1</voice>
    <type>16th</type>
    <beam number="1">continue</beam>
    <beam number="2">continue</beam>
   </note>
   <note default-x="251.86" default-y="10.00" dynamics="88.89">
    <pitch>
     <step>A</step>
     <octave>5</octave>
    </pitch>
    <duration>3</duration>
    <voice>1</voice>
    <type>16th</type>
    <beam number="1">end</beam>
    <beam number="2">end</beam>
   </note>
   <note default-x="275.13" default-y="15.00" dynamics="88.89">
    <pitch>
     <step>B</step>
     <octave>5</octave>
    </pitch>
    <duration>3</duration>
    <voice>1</voice>
    <type>16th</type>
    <beam number="1">begin</beam>
    <beam number="2">begin</beam>
   </note>
   <note default-x="298.39" default-y="20.00" dynamics="88.89">
    <pitch>
     <step>C</step>
     <alter>1</alter>
     <octave>6</octave>
    </pitch>
    <duration>3</duration>
    <voice>1</voice>
    <type>16th</type>
    <beam number="1">continue</beam>
    <beam number="2">continue</beam>
   </note>
   <note default-x="321.66" default-y="25.00" dynamics="88.89">
    <pitch>
     <step>D</step>
     <alter>1</alter>
     <octave>6</octave>
    </pitch>
    <duration>3</duration>
    <voice>1</voice>
    <type>16th</type>
    <beam number="1">continue</beam>
    <beam number="2">continue</beam>
   </note>
   <note default-x="344.92" default-y="30.00" dynamics="88.89">
    <pitch>
     <step>E</step>
     <octave>6</octave>
    </pitch>
    <duration>3</duration>
    <voice>1</voice>
    <type>16th</type>
    <beam number="1">end</beam>
    <beam number="2">end</beam>
   </note>
   <backup>
    <duration>48</duration>
   </backup>
   <forward>
    <duration>48</duration>
    <voice>2</voice>
   </forward>
  </measure>
  <measure number="13" width="370.52">
   <note default-x="116.19" default-y="25.00" dynamics="88.89">
    <pitch>
     <step>D</step>
     <alter>1</alter>
     <octave>6</octave>
    </pitch>
    <duration>3</duration>
    <voice>1</voice>
    <type>16th</type>
    <beam number="1">begin</beam>
    <beam number="2">begin</beam>
   </note>
   <note default-x="139.45" default-y="20.00" dynamics="88.89">
    <pitch>
     <step>C</step>
     <alter>1</alter>
     <octave>6</octave>
    </pitch>
    <duration>3</duration>
    <voice>1</voice>
    <type>16th</type>
    <beam number="1">continue</beam>
    <beam number="2">continue</beam>
   </note>
   <note default-x="162.72" default-y="15.00" dynamics="88.89">
    <pitch>
     <step>B</step>
     <octave>5</octave>
    </pitch>
    <duration>3</duration>
    <voice>1</voice>
    <type>16th</type>
    <beam number="1">continue</beam>
    <beam number="2">continue</beam>
   </note>
   <note default-x="185.98" default-y="10.00" dynamics="88.89">
    <pitch>
     <step>A</step>
     <octave>5</octave>
    </pitch>
    <duration>3</duration>
    <voice>1</voice>
    <type>16th</type>
    <beam number="1">end</beam>
    <beam number="2">end</beam>
   </note>
   <note default-x="205.45" default-y="5.00" dynamics="88.89">
    <pitch>
     <step>G</step>
     <alter>1</alter>
     <octave>5</octave>
    </pitch>
    <duration>3</duration>
    <voice>1</voice>
    <type>16th</type>
    <beam number="1">begin</beam>
    <beam number="2">begin</beam>
   </note>
   <note default-x="223.03" default-y="0.00" dynamics="88.89">
    <pitch>
     <step>F</step>
     <alter>1</alter>
     <octave>5</octave>
    </pitch>
    <duration>3</duration>
    <voice>1</voice>
    <type>16th</type>
    <beam number="1">continue</beam>
    <beam number="2">continue</beam>
   </note>
   <note default-x="240.61" default-y="-5.00" dynamics="88.89">
    <pitch>
     <step>E</step>
     <octave>5</octave>
    </pitch>
    <duration>3</duration>
    <voice>1</voice>
    <type>16th</type>
    <beam number="1">continue</beam>
    <beam number="2">continue</beam>
   </note>
   <note default-x="258.19" default-y="-10.00" dynamics="88.89">
    <pitch>
     <step>D</step>
     <alter>1</alter>
     <octave>5</octave>
    </pitch>
    <duration>3</duration>
    <voice>1</voice>
    <type>16th</type>
    <beam number="1">end</beam>
    <beam number="2">end</beam>
   </note>
   <note default-x="275.78" default-y="-15.00" dynamics="88.89">
    <pitch>
     <step>C</step>
     <alter>1</alter>
     <octave>5</octave>
    </pitch>
    <duration>8</duration>
    <voice>1</voice>
    <type>quarter</type>
    <time-modification>
     <actual-notes>3</actual-notes>
     <normal-notes>2</normal-notes>
     <normal-type>eighth</normal-type>
    </time-modification>
    <notations>
     <tuplet type="start" bracket="yes"/>
    </notations>
   </note>
   <note default-x="308.28" default-y="20.00" dynamics="88.89">
    <pitch>
     <step>C</step>
     <alter>1</alter>
     <octave>6</octave>
    </pitch>
    <duration>4</duration>
    <voice>1</voice>
    <type>eighth</type>
    <time-modification>
     <actual-notes>3</actual-notes>
     <normal-notes>2</normal-notes>
     <normal-type>eighth</normal-type>
    </time-modification>
    <notations>
     <tuplet type="stop"/>
    </notations>
   </note>
   <direction placement="above">
    <direction-type>
     <metronome parentheses="no" relative-y="20.00">
      <beat-unit>quarter</beat-unit>
      <per-minute>135</per-minute>
     </metronome>
    </direction-type>
    <sound tempo="135"/>
   </direction>
   <note default-x="330.24" default-y="-5.00" dynamics="88.89">
    <pitch>
     <step>E</step>
     <octave>5</octave>
    </pitch>
    <duration>12</duration>
    <voice>1</voice>
    <type>quarter</type>
   </note>
   <backup>
    <duration>48</duration>
   </backup>
   <forward>
    <duration>48</duration>
    <voice>2</voice>
   </forward>
  </measure>
  <measure number="14" width="105.21">
   <note default-x="21.87" default-y="-10.00" dynamics="88.89">
    <pitch>
     <step>D</step>
     <alter>1</alter>
     <octave>5</octave>
    </pitch>
    <duration>12</duration>
    <voice>1</voice>
    <type>quarter</type>
   </note>
   <note default-x="10.00" default-y="0.00" dynamics="88.89">
    <chord/>
    <pitch>
     <step>F</step>
     <alter>1</alter>
     <octave>5</octave>
    </pitch>
    <duration>12</duration>
    <voice>1</voice>
    <type>quarter</type>
   </note>
   <note default-x="21.87" default-y="5.00" dynamics="88.89">
    <chord/>
    <pitch>
     <step>G</step>
     <alter>1</alter>
     <octave>5</octave>
    </pitch>
    <duration>12</duration>
    <voice>1</voice>
    <type>quarter</type>
   </note>
   <direction placement="above">
    <direction-type>
     <metronome parentheses="no" relative-y="20.00">
      <beat-unit>quarter</beat-unit>
      <per-minute>131</per-minute>
     </metronome>
    </direction-type>
    <sound tempo="131"/>
   </direction>
   <note default-x="44.77" default-y="-5.00" dynamics="88.89">
    <pitch>
     <step>E</step>
     <octave>5</octave>
    </pitch>
    <duration>36</duration>
    <tie type="start"/>
    <voice>1</voice>
    <type>half</type>
    <dot/>
    <notations>
     <tied type="start"/>
    </notations>
   </note>
   <backup>
    <duration>48</duration>
   </backup>
   <forward>
    <duration>48</duration>
    <voice>2</voice>
   </forward>
  </measure>
  <measure number="15" width="140.03">
   <note default-x="10.94" default-y="-5.00" dynamics="88.89">
    <pitch>
     <step>E</step>
     <octave>5</octave>
    </pitch>
    <duration>9</duration>
    <tie type="stop"/>
    <voice>1</voice>
    <type>eighth</type>
    <dot/>
    <beam number="1">begin</beam>
    <notations>
     <tied type="stop"/>
    </notations>
   </note>
   <note default-x="45.30" default-y="-40.00" dynamics="88.89">
    <pitch>
     <step>E</step>
     <octave>4</octave>
    </pitch>
    <duration>3</duration>
    <voice>1</voice>
    <type>16th</type>
    <beam number="1">end</beam>
    <beam number="2">backward hook</beam>
   </note>
   <direction placement="above">
    <direction-type>
     <metronome parentheses="no" default-y="37.52" relative-y="20.00">
      <beat-unit>quarter</beat-unit>
      <per-minute>131</per-minute>
     </metronome>
    </direction-type>
    <sound tempo="131"/>
   </direction>
   <note default-x="60.96" default-y="-25.00" dynamics="88.89">
    <pitch>
     <step>A</step>
     <octave>4</octave>
    </pitch>
    <duration>36</duration>
    <voice>1</voice>
    <type>half</type>
    <dot/>
   </note>
   <backup>
    <duration>48</duration>
   </backup>
   <forward>
    <duration>6</duration>
    <voice>2</voice>
   </forward>
   <note default-x="29.63" default-y="-155.00" dynamics="88.89">
    <pitch>
     <step>C</step>
     <alter>1</alter>
     <octave>4</octave>
    </pitch>
    <duration>6</duration>
    <voice>2</voice>
    <type>eighth</type>
   </note>
   <note default-x="60.96" default-y="-165.00" dynamics="88.89">
    <pitch>
     <step>A</step>
     <octave>3</octave>
    </pitch>
    <duration>24</duration>
    <voice>2</voice>
    <type>half</type>
   </note>
   <forward>
    <duration>12</duration>
    <voice>2</voice>
   </forward>
   <backup>
    <duration>42</duration>
   </backup>
   <direction placement="above">
    <direction-type>
     <metronome parentheses="no" default-y="15.67" relative-y="20.00">
      <beat-unit>quarter</beat-unit>
      <per-minute>135</per-minute>
     </metronome>
    </direction-type>
    <sound tempo="135"/>
   </direction>
   <forward>
    <duration>30</duration>
   </forward>
   <direction placement="above">
    <direction-type>
     <metronome parentheses="no" default-y="59.03" relative-y="20.00">
      <beat-unit>quarter</beat-unit>
      <per-minute>127</per-minute>
     </metronome>
    </direction-type>
    <sound tempo="127"/>
   </direction>
   <forward>
    <duration>12</duration>
   </forward>
  </measure>
  <measure number="16" width="176.64">
   <note default-x="13.80" default-y="-50.00" dynamics="88.89">
    <pitch>
     <step>C</step>
     <alter>1</alter>
     <octave>4</octave>
    </pitch>
    <duration>6</duration>
    <voice>1</voice>
    <type>eighth</type>
    <beam number="1">begin</beam>
   </note>
   <note default-x="13.80" default-y="-15.00" dynamics="88.89">
    <chord/>
    <pitch>
     <step>C</step>
     <alter>1</alter>
     <octave>5</octave>
    </pitch>
    <duration>6</duration>
    <voice>1</voice>
    <type>eighth</type>
   </note>
   <note default-x="40.82" default-y="-10.00" dynamics="88.89">
    <pitch>
     <step>D</step>
     <octave>5</octave>
    </pitch>
    <duration>3</duration>
    <voice>1</voice>
    <type>16th</type>
    <accidental>natural</accidental>
    <beam number="1">continue</beam>
    <beam number="2">begin</beam>
   </note>
   <direction placement="above">
    <direction-type>
     <metronome parentheses="no" default-y="7.83" relative-y="20.00">
      <beat-unit>quarter</beat-unit>
      <per-minute>123</per-minute>
     </metronome>
    </direction-type>
    <sound tempo="123"/>
   </direction>
   <note default-x="56.49" default-y="-20.00" dynamics="88.89">
    <pitch>
     <step>B</step>
     <octave>4</octave>
    </pitch>
    <duration>3</duration>
    <voice>1</voice>
    <type>16th</type>
    <beam number="1">end</beam>
    <beam number="2">end</beam>
   </note>
   <note default-x="72.15" default-y="-25.00" dynamics="88.89">
    <pitch>
     <step>A</step>
     <octave>4</octave>
    </pitch>
    <duration>24</duration>
    <voice>1</voice>
    <type>half</type>
   </note>
   <note default-x="113.05" default-y="-15.00" dynamics="88.89">
    <pitch>
     <step>C</step>
     <alter>1</alter>
     <octave>5</octave>
    </pitch>
    <duration>6</duration>
    <voice>1</voice>
    <type>eighth</type>
    <beam number="1">begin</beam>
   </note>
   <note default-x="136.21" default-y="-10.00" dynamics="88.89">
    <pitch>
     <step>D</step>
     <octave>5</octave>
    </pitch>
    <duration>3</duration>
    <voice>1</voice>
    <type>16th</type>
    <beam number="1">continue</beam>
    <beam number="2">begin</beam>
   </note>
   <direction placement="above">
    <direction-type>
     <metronome parentheses="no" relative-y="20.00">
      <beat-unit>quarter</beat-unit>
      <per-minute>119</per-minute>
     </metronome>
    </direction-type>
    <sound tempo="119"/>
   </direction>
   <note default-x="151.87" default-y="-20.00" dynamics="88.89">
    <pitch>
     <step>B</step>
     <octave>4</octave>
    </pitch>
    <duration>3</duration>
    <voice>1</voice>
    <type>16th</type>
    <beam number="1">end</beam>
    <beam number="2">end</beam>
   </note>
   <backup>
    <duration>48</duration>
   </backup>
   <forward>
    <duration>48</duration>
    <voice>2</voice>
   </forward>
  </measure>
  <measure number="17" width="85.35">
   <direction placement="above">
    <direction-type>
     <metronome parentheses="no" default-y="21.70" relative-y="20.00">
      <beat-unit>quarter</beat-unit>
      <per-minute>115</per-minute>
     </metronome>
    </direction-type>
    <sound tempo="115"/>
   </direction>
   <note default-x="10.00" default-y="-25.00" dynamics="88.89">
    <pitch>
     <step>A</step>
     <octave>4</octave>
    </pitch>
    <duration>12</duration>
    <voice>1</voice>
    <type>quarter</type>
   </note>
   <note>
    <rest/>
    <duration>12</duration>
    <voice>1</voice>
    <type>quarter</type>
   </note>
   <note>
    <rest/>
    <duration>24</duration>
    <voice>1</voice>
    <type>half</type>
   </note>
   <backup>
    <duration>48</duration>
   </backup>
   <forward>
    <duration>48</duration>
    <voice>2</voice>
   </forward>
  </measure>
 </part>
 <part id="P3">
  <measure number="1" width="271.93">
   <attributes>
    <divisions>12</divisions>
    <key>
     <fifths>4</fifths>
    </key>
    <time>
     <beats>4</beats>
     <beat-type>4</beat-type>
    </time>
    <clef>
     <sign>F</sign>
     <line>4</line>
    </clef>
   </attributes>
   <note>
    <rest/>
    <duration>24</duration>
    <voice>1</voice>
    <type>half</type>
   </note>
   <note default-x="237.33" default-y="-245.00" dynamics="88.89">
    <pitch>
     <step>A</step>
     <octave>2</octave>
    </pitch>
    <duration>24</duration>
    <voice>1</voice>
    <type>half</type>
   </note>
   <backup>
    <duration>48</duration>
   </backup>
   <forward>
    <duration>48</duration>
    <voice>2</voice>
   </forward>
  </measure>
  <measure number="2" width="135.01">
   <note default-x="13.80" default-y="-260.00" dynamics="88.89">
    <pitch>
     <step>E</step>
     <octave>2</octave>
    </pitch>
    <duration>12</duration>
    <voice>1</voice>
    <type>quarter</type>
   </note>
   <note default-x="13.80" default-y="-225.00" dynamics="88.89">
    <chord/>
    <pitch>
     <step>E</step>
     <octave>3</octave>
    </pitch>
    <duration>12</duration>
    <voice>1</voice>
    <type>quarter</type>
   </note>
   <note default-x="40.60" default-y="-235.00" dynamics="88.89">
    <pitch>
     <step>C</step>
     <alter>1</alter>
     <octave>3</octave>
    </pitch>
    <duration>12</duration>
    <voice>1</voice>
    <type>quarter</type>
   </note>
   <note default-x="98.95" default-y="-245.00" dynamics="88.89">
    <pitch>
     <step>A</step>
     <octave>2</octave>
    </pitch>
    <duration>24</duration>
    <voice>1</voice>
    <type>half</type>
   </note>
   <note default-x="98.95" default-y="-210.00" dynamics="88.89">
    <chord/>
    <pitch>
     <step>A</step>
     <octave>3</octave>
    </pitch>
    <duration>24</duration>
    <voice>1</voice>
    <type>half</type>
   </note>
   <backup>
    <duration>48</duration>
   </backup>
   <forward>
    <duration>48</duration>
    <voice>2</voice>
   </forward>
  </measure>
  <measure number="3" width="178.39">
   <note>
    <rest/>
    <duration>12</duration>
    <voice>1</voice>
    <type>quarter</type>
   </note>
   <note default-x="70.65" default-y="-175.00" dynamics="88.89">
    <pitch>
     <step>A</step>
     <octave>4</octave>
    </pitch>
    <duration>12</duration>
    <voice>1</voice>
    <type>quarter</type>
   </note>
   <note default-x="106.03" default-y="-210.00" dynamics="88.89">
    <pitch>
     <step>A</step>
     <octave>3</octave>
    </pitch>
    <duration>12</duration>
    <voice>1</voice>
    <type>quarter</type>
   </note>
   <note default-x="106.03" default-y="-185.00" dynamics="88.89">
    <chord/>
    <pitch>
     <step>F</step>
     <alter>1</alter>
     <octave>4</octave>
    </pitch>
    <duration>12</duration>
    <voice>1</voice>
    <type>quarter</type>
   </note>
   <note default-x="141.41" default-y="-205.00" dynamics="88.89">
    <pitch>
     <step>B</step>
     <octave>3</octave>
    </pitch>
    <duration>12</duration>
    <voice>1</voice>
    <type>quarter</type>
   </note>
   <note default-x="141.41" default-y="-175.00" dynamics="88.89">
    <chord/>
    <pitch>
     <step>A</step>
     <octave>4</octave>
    </pitch>
    <duration>12</duration>
    <voice>1</voice>
    <type>quarter</type>
   </note>
   <backup>
    <duration>48</duration>
   </backup>
   <forward>
    <duration>48</duration>
    <voice>2</voice>
   </forward>
  </measure>
  <measure number="4" width="194.64">
   <note default-x="13.80" default-y="-190.00" dynamics="88.89">
    <pitch>
     <step>E</step>
     <octave>4</octave>
    </pitch>
    <duration>24</duration>
    <voice>1</voice>
    <type>half</type>
   </note>
   <note>
    <rest/>
    <duration>24</duration>
    <voice>1</voice>
    <type>half</type>
   </note>
   <backup>
    <duration>48</duration>
   </backup>
   <forward>
    <duration>48</duration>
    <voice>2</voice>
   </forward>
  </measure>
  <measure number="5" width="168.45">
   <note>
    <rest/>
    <duration>24</duration>
    <voice>1</voice>
    <type>half</type>
   </note>
   <note default-x="89.05" default-y="-205.00" dynamics="88.89">
    <pitch>
     <step>B</step>
     <octave>3</octave>
    </pitch>
    <duration>12</duration>
    <voice>1</voice>
    <type>quarter</type>
   </note>
   <note default-x="135.60" default-y="-205.00" dynamics="88.89">
    <pitch>
     <step>B</step>
     <octave>3</octave>
    </pitch>
    <duration>12</duration>
    <voice>1</voice>
    <type>quarter</type>
   </note>
   <backup>
    <duration>48</duration>
   </backup>
   <forward>
    <duration>12</duration>
    <voice>2</voice>
   </forward>
   <note default-x="49.63" default-y="-330.00" dynamics="88.89">
    <pitch>
     <step>E</step>
     <octave>3</octave>
    </pitch>
    <duration>36</duration>
    <voice>2</voice>
    <type>half</type>
    <dot/>
   </note>
  </measure>
  <measure number="6" width="372.53">
   <note default-x="112.39" default-y="-225.00" dynamics="88.89">
    <pitch>
     <step>E</step>
     <octave>3</octave>
    </pitch>
    <duration>6</duration>
    <voice>1</voice>
    <type>eighth</type>
    <beam number="1">begin</beam>
   </note>
   <note default-x="141.99" default-y="-200.00" dynamics="88.89">
    <pitch>
     <step>C</step>
     <alter>1</alter>
     <octave>4</octave>
    </pitch>
    <duration>6</duration>
    <voice>1</voice>
    <type>eighth</type>
    <beam number="1">end</beam>
   </note>
   <note default-x="171.59" default-y="-210.00" dynamics="88.89">
    <pitch>
     <step>A</step>
     <octave>3</octave>
    </pitch>
    <duration>4</duration>
    <voice>1</voice>
    <type>eighth</type>
    <time-modification>
     <actual-notes>3</actual-notes>
     <normal-notes>2</normal-notes>
     <normal-type>eighth</normal-type>
    </time-modification>
    <notations>
     <tuplet type="start" bracket="yes"/>
    </notations>
   </note>
   <note default-x="195.86" default-y="-200.00" dynamics="88.89">
    <pitch>
     <step>C</step>
     <alter>1</alter>
     <octave>4</octave>
    </pitch>
    <duration>8</duration>
    <tie type="start"/>
    <voice>1</voice>
    <type>quarter</type>
    <time-modification>
     <actual-notes>3</actual-notes>
     <normal-notes>2</normal-notes>
     <normal-type>eighth</normal-type>
    </time-modification>
    <notations>
     <tied type="start"/>
     <tuplet type="stop"/>
    </notations>
   </note>
   <note default-x="241.13" default-y="-200.00" dynamics="88.89">
    <pitch>
     <step>C</step>
     <alter>1</alter>
     <octave>4</octave>
    </pitch>
    <duration>3</duration>
    <tie type="stop"/>
    <voice>1</voice>
    <type>16th</type>
    <beam number="1">begin</beam>
    <beam number="2">begin</beam>
    <notations>
     <tied type="stop"/>
    </notations>
   </note>
   <note default-x="261.63" default-y="-210.00" dynamics="88.89">
    <pitch>
     <step>A</step>
     <octave>3</octave>
    </pitch>
    <duration>3</duration>
    <voice>1</voice>
    <type>16th</type>
    <beam number="1">continue</beam>
    <beam number="2">end</beam>
   </note>
   <note default-x="282.13" default-y="-200.00" dynamics="88.89">
    <pitch>
     <step>C</step>
     <alter>1</alter>
     <octave>4</octave>
    </pitch>
    <duration>6</duration>
    <voice>1</voice>
    <type>eighth</type>
    <beam number="1">end</beam>
   </note>
   <note default-x="311.73" default-y="-230.00" dynamics="88.89">
    <pitch>
     <step>D</step>
     <octave>3</octave>
    </pitch>
    <duration>6</duration>
    <voice>1</voice>
    <type>eighth</type>
    <accidental>natural</accidental>
    <beam number="1">begin</beam>
   </note>
   <note default-x="341.33" default-y="-205.00" dynamics="88.89">
    <pitch>
     <step>B</step>
     <octave>3</octave>
    </pitch>
    <duration>6</duration>
    <tie type="start"/>
    <voice>1</voice>
    <type>eighth</type>
    <beam number="1">end</beam>
    <notations>
     <tied type="start"/>
    </notations>
   </note>
   <backup>
    <duration>48</duration>
   </backup>
   <forward>
    <duration>48</duration>
    <voice>2</voice>
   </forward>
  </measure>
  <measure number="7" width="237.08">
   <note default-x="14.36" default-y="-205.00" dynamics="88.89">
    <pitch>
     <step>B</step>
     <octave>3</octave>
    </pitch>
    <duration>4</duration>
    <tie type="stop"/>
    <voice>1</voice>
    <type>eighth</type>
    <time-modification>
     <actual-notes>3</actual-notes>
     <normal-notes>2</normal-notes>
     <normal-type>eighth</normal-type>
    </time-modification>
    <notations>
     <tied type="stop"/>
     <tuplet type="start" bracket="yes"/>
    </notations>
   </note>
   <note default-x="38.17" default-y="-205.00" dynamics="88.89">
    <pitch>
     <step>B</step>
     <octave>3</octave>
    </pitch>
    <duration>8</duration>
    <voice>1</voice>
    <type>quarter</type>
    <time-modification>
     <actual-notes>3</actual-notes>
     <normal-notes>2</normal-notes>
     <normal-type>eighth</normal-type>
    </time-modification>
    <notations>
     <tuplet type="stop"/>
    </notations>
   </note>
   <note default-x="82.88" default-y="-220.00" dynamics="88.89">
    <pitch>
     <step>F</step>
     <alter>1</alter>
     <octave>3</octave>
    </pitch>
    <duration>4</duration>
    <voice>1</voice>
    <type>eighth</type>
    <time-modification>
     <actual-notes>3</actual-notes>
     <normal-notes>2</normal-notes>
     <normal-type>eighth</normal-type>
    </time-modification>
    <notations>
     <tuplet type="start" bracket="yes"/>
    </notations>
   </note>
   <note default-x="106.69" default-y="-205.00" dynamics="88.89">
    <pitch>
     <step>B</step>
     <octave>3</octave>
    </pitch>
    <duration>8</duration>
    <voice>1</voice>
    <type>quarter</type>
    <time-modification>
     <actual-notes>3</actual-notes>
     <normal-notes>2</normal-notes>
     <normal-type>eighth</normal-type>
    </time-modification>
    <notations>
     <tuplet type="stop"/>
    </notations>
   </note>
   <note default-x="139.44" default-y="-230.00" dynamics="88.89">
    <pitch>
     <step>D</step>
     <octave>3</octave>
    </pitch>
    <duration>12</duration>
    <voice>1</voice>
    <type>quarter</type>
    <accidental>natural</accidental>
   </note>
   <note>
    <rest/>
    <duration>12</duration>
    <voice>1</voice>
    <type>quarter</type>
   </note>
   <backup>
    <duration>48</duration>
   </backup>
   <forward>
    <duration>48</duration>
    <voice>2</voice>
   </forward>
  </measure>
  <measure number="8" width="205.29">
   <note>
    <rest/>
    <duration>12</duration>
    <voice>1</voice>
    <type>quarter</type>
   </note>
   <note default-x="59.23" default-y="-195.00" dynamics="88.89">
    <pitch>
     <step>D</step>
     <octave>4</octave>
    </pitch>
    <duration>12</duration>
    <voice>1</voice>
    <type>quarter</type>
    <accidental>natural</accidental>
   </note>
   <note default-x="107.15" default-y="-200.00" dynamics="88.89">
    <pitch>
     <step>C</step>
     <alter>1</alter>
     <octave>4</octave>
    </pitch>
    <duration>24</duration>
    <voice>1</voice>
    <type>half</type>
   </note>
   <backup>
    <duration>48</duration>
   </backup>
   <forward>
    <duration>12</duration>
    <voice>2</voice>
   </forward>
   <note default-x="58.86" default-y="-330.00" dynamics="88.89">
    <pitch>
     <step>E</step>
     <octave>3</octave>
    </pitch>
    <duration>36</duration>
    <voice>2</voice>
    <type>half</type>
    <dot/>
   </note>
  </measure>
  <measure number="9" width="262.27">
   <note default-x="16.64" default-y="-225.00" dynamics="88.89">
    <pitch>
     <step>E</step>
     <octave>3</octave>
    </pitch>
    <duration>6</duration>
    <voice>1</voice>
    <type>eighth</type>
    <beam number="1">begin</beam>
   </note>
   <note default-x="43.53" default-y="-215.00" dynamics="88.89">
    <pitch>
     <step>G</step>
     <alter>1</alter>
     <octave>3</octave>
    </pitch>
    <duration>6</duration>
    <voice>1</voice>
    <type>eighth</type>
    <beam number="1">continue</beam>
   </note>
   <note default-x="70.42" default-y="-205.00" dynamics="88.89">
    <pitch>
     <step>B</step>
     <octave>3</octave>
    </pitch>
    <duration>6</duration>
    <voice>1</voice>
    <type>eighth</type>
    <beam number="1">continue</beam>
   </note>
   <note default-x="97.30" default-y="-215.00" dynamics="88.89">
    <pitch>
     <step>G</step>
     <alter>1</alter>
     <octave>3</octave>
    </pitch>
    <duration>6</duration>
    <voice>1</voice>
    <type>eighth</type>
    <beam number="1">end</beam>
   </note>
   <note default-x="124.19" default-y="-220.00" dynamics="88.89">
    <pitch>
     <step>F</step>
     <alter>1</alter>
     <octave>3</octave>
    </pitch>
    <duration>6</duration>
    <voice>1</voice>
    <type>eighth</type>
    <beam number="1">begin</beam>
   </note>
   <note default-x="151.08" default-y="-225.00" dynamics="88.89">
    <pitch>
     <step>E</step>
     <octave>3</octave>
    </pitch>
    <duration>6</duration>
    <voice>1</voice>
    <type>eighth</type>
    <beam number="1">end</beam>
   </note>
   <note default-x="177.96" default-y="-230.00" dynamics="88.89">
    <pitch>
     <step>D</step>
     <alter>1</alter>
     <octave>3</octave>
    </pitch>
    <duration>12</duration>
    <voice>1</voice>
    <type>quarter</type>
   </note>
   <backup>
    <duration>48</duration>
   </backup>
   <forward>
    <duration>48</duration>
    <voice>2</voice>
   </forward>
  </measure>
  <measure number="10" width="398.00">
   <note default-x="112.39" default-y="-220.00" dynamics="88.89">
    <pitch>
     <step>F</step>
     <alter>1</alter>
     <octave>3</octave>
    </pitch>
    <duration>6</duration>
    <voice>1</voice>
    <type>eighth</type>
    <beam number="1">begin</beam>
   </note>
   <note default-x="149.65" default-y="-240.00" dynamics="88.89">
    <pitch>
     <step>B</step>
     <octave>2</octave>
    </pitch>
    <duration>6</duration>
    <voice>1</voice>
    <type>eighth</type>
    <beam number="1">continue</beam>
   </note>
   <note default-x="186.91" default-y="-235.00" dynamics="88.89">
    <pitch>
     <step>C</step>
     <alter>1</alter>
     <octave>3</octave>
    </pitch>
    <duration>6</duration>
    <voice>1</voice>
    <type>eighth</type>
    <beam number="1">continue</beam>
   </note>
   <note default-x="224.17" default-y="-230.00" dynamics="88.89">
    <pitch>
     <step>D</step>
     <alter>1</alter>
     <octave>3</octave>
    </pitch>
    <duration>6</duration>
    <voice>1</voice>
    <type>eighth</type>
    <beam number="1">end</beam>
   </note>
   <note default-x="261.43" default-y="-225.00" dynamics="88.89">
    <pitch>
     <step>E</step>
     <octave>3</octave>
    </pitch>
    <duration>6</duration>
    <voice>1</voice>
    <type>eighth</type>
    <beam number="1">begin</beam>
   </note>
   <note default-x="298.69" default-y="-215.00" dynamics="88.89">
    <pitch>
     <step>G</step>
     <alter>1</alter>
     <octave>3</octave>
    </pitch>
    <duration>6</duration>
    <voice>1</voice>
    <type>eighth</type>
    <beam number="1">continue</beam>
   </note>
   <note default-x="336.78" default-y="-205.00" dynamics="88.89">
    <pitch>
     <step>B</step>
     <octave>3</octave>
    </pitch>
    <duration>6</duration>
    <voice>1</voice>
    <type>eighth</type>
    <beam number="1">continue</beam>
   </note>
   <note default-x="366.59" default-y="-215.00" dynamics="88.89">
    <pitch>
     <step>G</step>
     <alter>1</alter>
     <octave>3</octave>
    </pitch>
    <duration>6</duration>
    <voice>1</voice>
    <type>eighth</type>
    <beam number="1">end</beam>
   </note>
   <backup>
    <duration>48</duration>
   </backup>
   <forward>
    <duration>48</duration>
    <voice>2</voice>
   </forward>
  </measure>
  <measure number="11" width="309.47">
   <note default-x="13.80" default-y="-220.00" dynamics="88.89">
    <pitch>
     <step>F</step>
     <alter>1</alter>
     <octave>3</octave>
    </pitch>
    <duration>6</duration>
    <voice>1</voice>
    <type>eighth</type>
    <beam number="1">begin</beam>
   </note>
   <note default-x="43.72" default-y="-225.00" dynamics="88.89">
    <pitch>
     <step>E</step>
     <octave>3</octave>
    </pitch>
    <duration>6</duration>
    <voice>1</voice>
    <type>eighth</type>
    <beam number="1">continue</beam>
   </note>
   <note default-x="73.65" default-y="-230.00" dynamics="88.89">
    <pitch>
     <step>D</step>
     <alter>1</alter>
     <octave>3</octave>
    </pitch>
    <duration>6</duration>
    <voice>1</voice>
    <type>eighth</type>
    <beam number="1">continue</beam>
   </note>
   <note default-x="116.38" default-y="-225.00" dynamics="88.89">
    <pitch>
     <step>E</step>
     <octave>3</octave>
    </pitch>
    <duration>6</duration>
    <voice>1</voice>
    <type>eighth</type>
    <beam number="1">end</beam>
   </note>
   <note default-x="153.79" default-y="-220.00" dynamics="88.89">
    <pitch>
     <step>F</step>
     <alter>1</alter>
     <octave>3</octave>
    </pitch>
    <duration>6</duration>
    <voice>1</voice>
    <type>eighth</type>
    <beam number="1">begin</beam>
   </note>
   <note default-x="191.19" default-y="-240.00" dynamics="88.89">
    <pitch>
     <step>B</step>
     <octave>2</octave>
    </pitch>
    <duration>6</duration>
    <voice>1</voice>
    <type>eighth</type>
    <beam number="1">continue</beam>
   </note>
   <note default-x="228.60" default-y="-235.00" dynamics="88.89">
    <pitch>
     <step>C</step>
     <alter>1</alter>
     <octave>3</octave>
    </pitch>
    <duration>6</duration>
    <voice>1</voice>
    <type>eighth</type>
    <beam number="1">continue</beam>
   </note>
   <note default-x="266.01" default-y="-230.00" dynamics="88.89">
    <pitch>
     <step>D</step>
     <alter>1</alter>
     <octave>3</octave>
    </pitch>
    <duration>6</duration>
    <voice>1</voice>
    <type>eighth</type>
    <beam number="1">end</beam>
   </note>
   <backup>
    <duration>48</duration>
   </backup>
   <forward>
    <duration>48</duration>
    <voice>2</voice>
   </forward>
  </measure>
  <measure number="12" width="369.69">
   <note default-x="10.00" default-y="-225.00" dynamics="88.89">
    <pitch>
     <step>E</step>
     <octave>3</octave>
    </pitch>
    <duration>12</duration>
    <voice>1</voice>
    <type>quarter</type>
   </note>
   <note>
    <rest/>
    <duration>12</duration>
    <voice>1</voice>
    <type>quarter</type>
   </note>
   <note>
    <rest/>
    <duration>24</duration>
    <voice>1</voice>
    <type>half</type>
   </note>
   <backup>
    <duration>48</duration>
   </backup>
   <forward>
    <duration>48</duration>
    <voice>2</voice>
   </forward>
  </measure>
  <measure number="13" width="370.52">
   <note>
    <rest/>
    <duration>24</duration>
    <voice>1</voice>
    <type>half</type>
   </note>
   <note default-x="275.78" default-y="-210.00" dynamics="88.89">
    <pitch>
     <step>A</step>
     <octave>3</octave>
    </pitch>
    <duration>12</duration>
    <voice>1</voice>
    <type>quarter</type>
   </note>
   <note default-x="275.78" default-y="-185.00" dynamics="88.89">
    <chord/>
    <pitch>
     <step>F</step>
     <alter>1</alter>
     <octave>4</octave>
    </pitch>
    <duration>12</duration>
    <voice>1</voice>
    <type>quarter</type>
   </note>
   <note default-x="330.24" default-y="-180.00" dynamics="88.89">
    <pitch>
     <step>G</step>
     <alter>1</alter>
     <octave>4</octave>
    </pitch>
    <duration>12</duration>
    <voice>1</voice>
    <type>quarter</type>
   </note>
   <backup>
    <duration>48</duration>
   </backup>
   <forward>
    <duration>24</duration>
    <voice>2</voice>
   </forward>
   <forward>
    <duration>12</duration>
    <voice>2</voice>
   </forward>
   <note default-x="330.24" default-y="-310.00" dynamics="88.89">
    <pitch>
     <step>B</step>
     <octave>3</octave>
    </pitch>
    <duration>12</duration>
    <tie type="start"/>
    <voice>2</voice>
    <type>quarter</type>
    <notations>
     <tied type="start"/>
    </notations>
   </note>
  </measure>
  <measure number="14" width="105.21">
   <note default-x="21.87" default-y="-175.00" dynamics="88.89">
    <pitch>
     <step>A</step>
     <octave>4</octave>
    </pitch>
    <duration>12</duration>
    <voice>1</voice>
    <type>quarter</type>
   </note>
   <note default-x="45.13" default-y="-180.00" dynamics="88.89">
    <pitch>
     <step>G</step>
     <alter>1</alter>
     <octave>4</octave>
    </pitch>
    <duration>12</duration>
    <voice>1</voice>
    <type>quarter</type>
   </note>
   <note>
    <rest/>
    <duration>24</duration>
    <voice>1</voice>
    <type>half</type>
   </note>
   <backup>
    <duration>48</duration>
   </backup>
   <note default-x="21.50" default-y="-310.00" dynamics="88.89">
    <pitch>
     <step>B</step>
     <octave>3</octave>
    </pitch>
    <duration>24</duration>
    <tie type="stop"/>
    <voice>2</voice>
    <type>half</type>
    <notations>
     <tied type="stop"/>
    </notations>
   </note>
   <note default-x="67.26" default-y="-330.00" dynamics="88.89">
    <pitch>
     <step>E</step>
     <octave>3</octave>
    </pitch>
    <duration>24</duration>
    <tie type="start"/>
    <voice>2</voice>
    <type>half</type>
    <notations>
     <tied type="start"/>
    </notations>
   </note>
  </measure>
  <measure number="15" width="140.03">
   <note>
    <rest/>
    <duration>12</duration>
    <voice>1</voice>
    <type>quarter</type>
   </note>
   <note default-x="60.96" default-y="-245.00" dynamics="88.89">
    <pitch>
     <step>A</step>
     <octave>2</octave>
    </pitch>
    <duration>24</duration>
    <voice>1</voice>
    <type>half</type>
   </note>
   <note default-x="112.73" default-y="-260.00" dynamics="88.89">
    <pitch>
     <step>E</step>
     <octave>2</octave>
    </pitch>
    <duration>12</duration>
    <voice>1</voice>
    <type>quarter</type>
   </note>
   <note default-x="112.73" default-y="-225.00" dynamics="88.89">
    <chord/>
    <pitch>
     <step>E</step>
     <octave>3</octave>
    </pitch>
    <duration>12</duration>
    <voice>1</voice>
    <type>quarter</type>
   </note>
   <backup>
    <duration>48</duration>
   </backup>
   <note default-x="10.94" default-y="-330.00" dynamics="88.89">
    <pitch>
     <step>E</step>
     <octave>3</octave>
    </pitch>
    <duration>6</duration>
    <tie type="stop"/>
    <voice>2</voice>
    <type>eighth</type>
    <notations>
     <tied type="stop"/>
    </notations>
   </note>
   <forward>
    <duration>6</duration>
    <voice>2</voice>
   </forward>
   <forward>
    <duration>12</duration>
    <voice>2</voice>
   </forward>
   <forward>
    <duration>24</duration>
    <voice>2</voice>
   </forward>
  </measure>
  <measure number="16" width="176.64">
   <note default-x="13.80" default-y="-235.00" dynamics="88.89">
    <pitch>
     <step>C</step>
     <alter>1</alter>
     <octave>3</octave>
    </pitch>
    <duration>12</duration>
    <voice>1</voice>
    <type>quarter</type>
   </note>
   <note default-x="72.15" default-y="-245.00" dynamics="88.89">
    <pitch>
     <step>A</step>
     <octave>2</octave>
    </pitch>
    <duration>24</duration>
    <voice>1</voice>
    <type>half</type>
   </note>
   <note default-x="72.15" default-y="-210.00" dynamics="88.89">
    <chord/>
    <pitch>
     <step>A</step>
     <octave>3</octave>
    </pitch>
    <duration>24</duration>
    <voice>1</voice>
    <type>half</type>
   </note>
   <note>
    <rest/>
    <duration>12</duration>
    <voice>1</voice>
    <type>quarter</type>
   </note>
   <backup>
    <duration>48</duration>
   </backup>
   <forward>
    <duration>48</duration>
    <voice>2</voice>
   </forward>
  </measure>
  <measure number="17" width="85.35">
   <note>
    <rest/>
    <duration>48</duration>
    <voice>1</voice>
   </note>
   <backup>
    <duration>48</duration>
   </backup>
   <forward>
    <duration>48</duration>
    <voice>2</voice>
   </forward>
  </measure>
 </part>
</score-partwise>
