<?xml version="1.0" encoding="UTF-8"?>
<!DOCTYPE score-partwise PUBLIC "-//Recordare//DTD MusicXML 3.1 Partwise//EN" "http://www.musicxml.org/dtds/partwise.dtd">
<score-partwise version="3.1">
 <identification>
  <encoding>
   <software>MuseScore 3.2.3</software>
   <encoding-date>2020-08-04</encoding-date>
   <supports element="accidental" type="yes"/>
   <supports element="beam" type="yes"/>
   <supports element="print" attribute="new-page" type="yes" value="yes"/>
   <supports element="print" attribute="new-system" type="yes" value="yes"/>
   <supports element="stem" type="yes"/>
  </encoding>
 </identification>
 <defaults>
  <scaling>
   <millimeters>7.05556</millimeters>
   <tenths>40</tenths>
  </scaling>
  <page-layout>
   <page-height>1683.78</page-height>
   <page-width>1190.55</page-width>
   <page-margins type="even">
    <left-margin>56.6929</left-margin>
    <right-margin>56.6929</right-margin>
    <top-margin>56.6929</top-margin>
    <bottom-margin>113.386</bottom-margin>
   </page-margins>
   <page-margins type="odd">
    <left-margin>56.6929</left-margin>
    <right-margin>56.6929</right-margin>
    <top-margin>56.6929</top-margin>
    <bottom-margin>113.386</bottom-margin>
   </page-margins>
  </page-layout>
  <word-font font-family="FreeSerif" font-size="10"/>
  <lyric-font font-family="FreeSerif" font-size="11"/>
 </defaults>
 <part-list>
  <score-part id="P1">
   <part-name>Pf</part-name>
   <score-instrument id="P1-I1">
    <instrument-name></instrument-name>
   </score-instrument>
   <midi-device id="P1-I1" port="1"></midi-device>
   <midi-instrument id="P1-I1">
    <midi-channel>1</midi-channel>
    <midi-program>1</midi-program>
    <volume>78.7402</volume>
    <pan>0</pan>
   </midi-instrument>
  </score-part>
  <score-part id="P3">
   <part-name>Pf</part-name>
   <score-instrument id="P3-I1">
    <instrument-name></instrument-name>
   </score-instrument>
   <midi-device id="P3-I1" port="1"></midi-device>
   <midi-instrument id="P3-I1">
    <midi-channel>5</midi-channel>
    <midi-program>1</midi-program>
    <volume>78.7402</volume>
    <pan>0</pan>
   </midi-instrument>
  </score-part>
 </part-list>
 <part id="P1">
  <measure number="1" width="253.70">
   <attributes>
    <divisions>12</divisions>
    <key>
     <fifths>-3</fifths>
    </key>
    <time>
     <beats>3</beats>
     <beat-type>4</beat-type>
    </time>
    <clef>
     <sign>G</sign>
     <line>2</line>
    </clef>
   </attributes>
   <direction placement="above">
    <direction-type>
     <metronome parentheses="no" default-x="-36.90" relative-y="20.00">
      <beat-unit>quarter</beat-unit>
      <per-minute>78</per-minute>
     </metronome>
    </direction-type>
    <sound tempo="78"/>
   </direction>
   <note default-x="122.15" default-y="-20.00" dynamics="88.89">
    <pitch>
     <step>B</step>
     <alter>-1</alter>
     <octave>4</octave>
    </pitch>
    <duration>24</duration>
    <voice>1</voice>
    <type>half</type>
   </note>
   <direction placement="above">
    <direction-type>
     <metronome parentheses="no" relative-y="20.00">
      <beat-unit>quarter</beat-unit>
      <per-minute>76</per-minute>
     </metronome>
    </direction-type>
    <sound tempo="76.0002"/>
   </direction>
   <note default-x="176.83" default-y="-10.00" dynamics="88.89">
    <pitch>
     <step>D</step>
     <octave>5</octave>
    </pitch>
    <duration>6</duration>
    <voice>1</voice>
    <type>eighth</type>
    <beam number="1">begin</beam>
   </note>
   <note default-x="197.60" default-y="-5.00" dynamics="88.89">
    <pitch>
     <step>E</step>
     <alter>-1</alter>
     <octave>5</octave>
    </pitch>
    <duration>2</duration>
    <voice>1</voice>
    <type>16th</type>
    <time-modification>
     <actual-notes>3</actual-notes>
     <normal-notes>2</normal-notes>
    </time-modification>
    <beam number="1">continue</beam>
    <beam number="2">begin</beam>
    <notations>
     <tuplet type="start" bracket="no"/>
    </notations>
   </note>
   <note default-x="213.27" default-y="-10.00" dynamics="88.89">
    <pitch>
     <step>D</step>
     <octave>5</octave>
    </pitch>
    <duration>2</duration>
    <voice>1</voice>
    <type>16th</type>
    <time-modification>
     <actual-notes>3</actual-notes>
     <normal-notes>2</normal-notes>
    </time-modification>
    <beam number="1">continue</beam>
    <beam number="2">continue</beam>
   </note>
   <note default-x="228.93" default-y="-15.00" dynamics="88.89">
    <pitch>
     <step>C</step>
     <octave>5</octave>
    </pitch>
    <duration>2</duration>
    <voice>1</voice>
    <type>16th</type>
    <time-modification>
     <actual-notes>3</actual-notes>
     <normal-notes>2</normal-notes>
    </time-modification>
    <beam number="1">end</beam>
    <beam number="2">end</beam>
    <notations>
     <tuplet type="stop"/>
    </notations>
   </note>
   <backup>
    <duration>36</duration>
   </backup>
   <forward>
    <duration>36</duration>
    <voice>2</voice>
   </forward>
  </measure>
  <measure number="2" width="158.05">
   <note default-x="13.80" default-y="-10.00" dynamics="88.89">
    <pitch>
     <step>D</step>
     <octave>5</octave>
    </pitch>
    <duration>6</duration>
    <voice>1</voice>
    <type>eighth</type>
    <beam number="1">begin</beam>
   </note>
   <direction placement="above">
    <direction-type>
     <metronome parentheses="no" relative-y="20.00">
      <beat-unit>quarter</beat-unit>
      <per-minute>73</per-minute>
     </metronome>
    </direction-type>
    <sound tempo="73.0002"/>
   </direction>
   <note default-x="37.02" default-y="-5.00" dynamics="88.89">
    <pitch>
     <step>E</step>
     <alter>-1</alter>
     <octave>5</octave>
    </pitch>
    <duration>6</duration>
    <voice>1</voice>
    <type>eighth</type>
    <beam number="1">end</beam>
   </note>
   <note default-x="64.04" default-y="-5.00" dynamics="88.89">
    <pitch>
     <step>E</step>
     <octave>5</octave>
    </pitch>
    <duration>18</duration>
    <voice>1</voice>
    <type>quarter</type>
    <dot/>
    <accidental>natural</accidental>
   </note>
   <direction placement="above">
    <direction-type>
     <metronome parentheses="no" relative-y="20.00">
      <beat-unit>quarter</beat-unit>
      <per-minute>76</per-minute>
     </metronome>
    </direction-type>
    <sound tempo="76.0002"/>
   </direction>
   <note default-x="117.62" default-y="0.00" dynamics="88.89">
    <pitch>
     <step>F</step>
     <octave>5</octave>
    </pitch>
    <duration>6</duration>
    <voice>1</voice>
    <type>eighth</type>
   </note>
   <backup>
    <duration>36</duration>
   </backup>
   <forward>
    <duration>36</duration>
    <voice>2</voice>
   </forward>
   <backup>
    <duration>4</duration>
   </backup>
   <direction placement="above">
    <direction-type>
     <metronome parentheses="no" default-y="21.82" relative-y="20.00">
      <beat-unit>quarter</beat-unit>
      <per-minute>78</per-minute>
     </metronome>
    </direction-type>
    <sound tempo="78"/>
   </direction>
   <forward>
    <duration>4</duration>
   </forward>
  </measure>
  <measure number="3" width="135.72">
   <direction placement="above">
    <direction-type>
     <metronome parentheses="no" default-y="43.66" relative-y="20.00">
      <beat-unit>quarter</beat-unit>
      <per-minute>83</per-minute>
     </metronome>
    </direction-type>
    <sound tempo="82.9998"/>
   </direction>
   <note>
    <rest/>
    <duration>12</duration>
    <voice>1</voice>
    <type>quarter</type>
   </note>
   <note>
    <rest/>
    <duration>12</duration>
    <voice>1</voice>
    <type>quarter</type>
   </note>
   <note>
    <rest/>
    <duration>6</duration>
    <voice>1</voice>
    <type>eighth</type>
   </note>
   <note default-x="110.95" default-y="-5.00" dynamics="88.89">
    <pitch>
     <step>E</step>
     <alter>-1</alter>
     <octave>5</octave>
    </pitch>
    <duration>6</duration>
    <voice>1</voice>
    <type>eighth</type>
   </note>
   <backup>
    <duration>36</duration>
   </backup>
   <forward>
    <duration>36</duration>
    <voice>2</voice>
   </forward>
   <backup>
    <duration>18</duration>
   </backup>
   <direction placement="above">
    <direction-type>
     <metronome parentheses="no" default-y="65.48" relative-y="20.00">
      <beat-unit>quarter</beat-unit>
      <per-minute>89</per-minute>
     </metronome>
    </direction-type>
    <sound tempo="88.9998"/>
   </direction>
   <forward>
    <duration>18</duration>
   </forward>
  </measure>
  <measure number="4" width="244.66">
   <direction placement="above">
    <direction-type>
     <metronome parentheses="no" relative-y="20.00">
      <beat-unit>quarter</beat-unit>
      <per-minute>83</per-minute>
     </metronome>
    </direction-type>
    <sound tempo="82.9998"/>
   </direction>
   <note default-x="13.80" default-y="0.00" dynamics="88.89">
    <pitch>
     <step>F</step>
     <octave>5</octave>
    </pitch>
    <duration>2</duration>
    <voice>1</voice>
    <type>16th</type>
    <time-modification>
     <actual-notes>3</actual-notes>
     <normal-notes>2</normal-notes>
    </time-modification>
    <beam number="1">begin</beam>
    <beam number="2">begin</beam>
    <notations>
     <tuplet type="start" bracket="no"/>
    </notations>
   </note>
   <direction placement="above">
    <direction-type>
     <metronome parentheses="no" default-y="21.82" relative-y="20.00">
      <beat-unit>quarter</beat-unit>
      <per-minute>81</per-minute>
     </metronome>
    </direction-type>
    <sound tempo="81"/>
   </direction>
   <note default-x="29.83" default-y="-5.00" dynamics="88.89">
    <pitch>
     <step>E</step>
     <alter>-1</alter>
     <octave>5</octave>
    </pitch>
    <duration>2</duration>
    <voice>1</voice>
    <type>16th</type>
    <time-modification>
     <actual-notes>3</actual-notes>
     <normal-notes>2</normal-notes>
    </time-modification>
    <beam number="1">continue</beam>
    <beam number="2">continue</beam>
   </note>
   <direction placement="above">
    <direction-type>
     <metronome parentheses="no" default-y="43.64" relative-y="20.00">
      <beat-unit>quarter</beat-unit>
      <per-minute>78</per-minute>
     </metronome>
    </direction-type>
    <sound tempo="78"/>
   </direction>
   <note default-x="45.85" default-y="-10.00" dynamics="88.89">
    <pitch>
     <step>D</step>
     <octave>5</octave>
    </pitch>
    <duration>2</duration>
    <voice>1</voice>
    <type>16th</type>
    <time-modification>
     <actual-notes>3</actual-notes>
     <normal-notes>2</normal-notes>
    </time-modification>
    <beam number="1">continue</beam>
    <beam number="2">end</beam>
    <notations>
     <tuplet type="stop"/>
    </notations>
   </note>
   <note default-x="61.88" default-y="-5.00" dynamics="88.89">
    <pitch>
     <step>E</step>
     <alter>-1</alter>
     <octave>5</octave>
    </pitch>
    <duration>6</duration>
    <voice>1</voice>
    <type>eighth</type>
    <beam number="1">end</beam>
   </note>
   <direction placement="above">
    <direction-type>
     <metronome parentheses="no" default-y="65.46" relative-y="20.00">
      <beat-unit>quarter</beat-unit>
      <per-minute>76</per-minute>
     </metronome>
    </direction-type>
    <sound tempo="76.0002"/>
   </direction>
   <note default-x="93.14" default-y="0.00" dynamics="88.89">
    <pitch>
     <step>F</step>
     <octave>5</octave>
    </pitch>
    <duration>6</duration>
    <voice>1</voice>
    <type>eighth</type>
    <beam number="1">begin</beam>
   </note>
   <note default-x="124.41" default-y="5.00" dynamics="88.89">
    <pitch>
     <step>G</step>
     <octave>5</octave>
    </pitch>
    <duration>6</duration>
    <voice>1</voice>
    <type>eighth</type>
    <beam number="1">end</beam>
   </note>
   <direction placement="above">
    <direction-type>
     <metronome parentheses="no" default-y="1.99" relative-y="20.00">
      <beat-unit>quarter</beat-unit>
      <per-minute>78</per-minute>
     </metronome>
    </direction-type>
    <sound tempo="78"/>
   </direction>
   <note default-x="151.43" default-y="5.00" dynamics="88.89">
    <pitch>
     <step>G</step>
     <octave>5</octave>
    </pitch>
    <duration>2</duration>
    <voice>1</voice>
    <type>16th</type>
    <time-modification>
     <actual-notes>3</actual-notes>
     <normal-notes>2</normal-notes>
    </time-modification>
    <beam number="1">begin</beam>
    <beam number="2">begin</beam>
    <notations>
     <tuplet type="start" bracket="no"/>
    </notations>
   </note>
   <note default-x="163.30" default-y="10.00" dynamics="88.89">
    <chord/>
    <pitch>
     <step>A</step>
     <octave>5</octave>
    </pitch>
    <duration>2</duration>
    <voice>1</voice>
    <type>16th</type>
    <accidental>natural</accidental>
    <time-modification>
     <actual-notes>3</actual-notes>
     <normal-notes>2</normal-notes>
    </time-modification>
   </note>
   <note default-x="179.32" default-y="0.00" dynamics="88.89">
    <pitch>
     <step>F</step>
     <octave>5</octave>
    </pitch>
    <duration>2</duration>
    <voice>1</voice>
    <type>16th</type>
    <time-modification>
     <actual-notes>3</actual-notes>
     <normal-notes>2</normal-notes>
    </time-modification>
    <beam number="1">continue</beam>
    <beam number="2">continue</beam>
   </note>
   <direction placement="above">
    <direction-type>
     <metronome parentheses="no" default-y="23.81" relative-y="20.00">
      <beat-unit>quarter</beat-unit>
      <per-minute>81</per-minute>
     </metronome>
    </direction-type>
    <sound tempo="81"/>
   </direction>
   <note default-x="195.35" default-y="5.00" dynamics="88.89">
    <pitch>
     <step>G</step>
     <octave>5</octave>
    </pitch>
    <duration>2</duration>
    <tie type="start"/>
    <voice>1</voice>
    <type>16th</type>
    <time-modification>
     <actual-notes>3</actual-notes>
     <normal-notes>2</normal-notes>
    </time-modification>
    <beam number="1">continue</beam>
    <beam number="2">end</beam>
    <notations>
     <tied type="start"/>
     <tuplet type="stop"/>
    </notations>
   </note>
   <direction placement="above">
    <direction-type>
     <metronome parentheses="no" default-y="45.66" relative-y="20.00">
      <beat-unit>quarter</beat-unit>
      <per-minute>83</per-minute>
     </metronome>
    </direction-type>
    <sound tempo="82.9998"/>
   </direction>
   <note default-x="211.80" default-y="5.00" dynamics="88.89">
    <pitch>
     <step>G</step>
     <octave>5</octave>
    </pitch>
    <duration>6</duration>
    <tie type="stop"/>
    <voice>1</voice>
    <type>eighth</type>
    <beam number="1">end</beam>
    <notations>
     <tied type="stop"/>
    </notations>
   </note>
   <backup>
    <duration>36</duration>
   </backup>
   <forward>
    <duration>36</duration>
    <voice>2</voice>
   </forward>
  </measure>
  <measure number="5" width="156.29">
   <note default-x="16.36" default-y="10.00" dynamics="88.89">
    <pitch>
     <step>A</step>
     <octave>5</octave>
    </pitch>
    <duration>6</duration>
    <voice>1</voice>
    <type>eighth</type>
    <accidental>natural</accidental>
   </note>
   <direction placement="above">
    <direction-type>
     <metronome parentheses="no" default-y="2.64" relative-y="20.00">
      <beat-unit>quarter</beat-unit>
      <per-minute>81</per-minute>
     </metronome>
    </direction-type>
    <sound tempo="81"/>
   </direction>
   <note default-x="39.62" default-y="10.00" dynamics="88.89">
    <pitch>
     <step>A</step>
     <octave>5</octave>
    </pitch>
    <duration>18</duration>
    <voice>1</voice>
    <type>quarter</type>
    <dot/>
   </note>
   <direction placement="above">
    <direction-type>
     <metronome parentheses="no" default-y="46.27" relative-y="20.00">
      <beat-unit>quarter</beat-unit>
      <per-minute>76</per-minute>
     </metronome>
    </direction-type>
    <sound tempo="76.0002"/>
   </direction>
   <note default-x="108.55" default-y="15.00" dynamics="88.89">
    <pitch>
     <step>B</step>
     <alter>-1</alter>
     <octave>5</octave>
    </pitch>
    <duration>6</duration>
    <voice>1</voice>
    <type>eighth</type>
    <beam number="1">begin</beam>
   </note>
   <direction placement="above">
    <direction-type>
     <metronome parentheses="no" default-y="68.12" relative-y="20.00">
      <beat-unit>quarter</beat-unit>
      <per-minute>73</per-minute>
     </metronome>
    </direction-type>
    <sound tempo="73.0002"/>
   </direction>
   <note default-x="131.52" default-y="0.00" dynamics="88.89">
    <pitch>
     <step>F</step>
     <octave>5</octave>
    </pitch>
    <duration>6</duration>
    <tie type="start"/>
    <voice>1</voice>
    <type>eighth</type>
    <beam number="1">end</beam>
    <notations>
     <tied type="start"/>
    </notations>
   </note>
   <backup>
    <duration>36</duration>
   </backup>
   <forward>
    <duration>36</duration>
    <voice>2</voice>
   </forward>
   <backup>
    <duration>24</duration>
   </backup>
   <direction placement="above">
    <direction-type>
     <metronome parentheses="no" default-y="24.46" relative-y="20.00">
      <beat-unit>quarter</beat-unit>
      <per-minute>78</per-minute>
     </metronome>
    </direction-type>
    <sound tempo="78"/>
   </direction>
   <forward>
    <duration>24</duration>
   </forward>
  </measure>
  <measure number="6" width="283.60">
   <note default-x="100.47" default-y="0.00" dynamics="88.89">
    <pitch>
     <step>F</step>
     <octave>5</octave>
    </pitch>
    <duration>18</duration>
    <tie type="stop"/>
    <voice>1</voice>
    <type>quarter</type>
    <dot/>
    <notations>
     <tied type="stop"/>
    </notations>
   </note>
   <direction placement="above">
    <direction-type>
     <metronome parentheses="no" default-y="26.29" relative-y="20.00">
      <beat-unit>quarter</beat-unit>
      <per-minute>69</per-minute>
     </metronome>
    </direction-type>
    <sound tempo="69"/>
   </direction>
   <note default-x="165.05" default-y="5.00" dynamics="88.89">
    <pitch>
     <step>G</step>
     <octave>5</octave>
    </pitch>
    <duration>12</duration>
    <tie type="start"/>
    <voice>1</voice>
    <type>quarter</type>
    <notations>
     <tied type="start"/>
    </notations>
   </note>
   <note default-x="219.90" default-y="5.00" dynamics="88.89">
    <pitch>
     <step>G</step>
     <octave>5</octave>
    </pitch>
    <duration>2</duration>
    <tie type="stop"/>
    <voice>1</voice>
    <type>16th</type>
    <time-modification>
     <actual-notes>3</actual-notes>
     <normal-notes>2</normal-notes>
    </time-modification>
    <beam number="1">begin</beam>
    <beam number="2">begin</beam>
    <notations>
     <tied type="stop"/>
     <tuplet type="start" bracket="no"/>
    </notations>
   </note>
   <note default-x="239.37" default-y="10.00" dynamics="88.89">
    <pitch>
     <step>A</step>
     <alter>-1</alter>
     <octave>5</octave>
    </pitch>
    <duration>2</duration>
    <voice>1</voice>
    <type>16th</type>
    <time-modification>
     <actual-notes>3</actual-notes>
     <normal-notes>2</normal-notes>
    </time-modification>
    <beam number="1">continue</beam>
    <beam number="2">continue</beam>
   </note>
   <direction placement="above">
    <direction-type>
     <metronome parentheses="no" default-y="91.75" relative-y="20.00">
      <beat-unit>quarter</beat-unit>
      <per-minute>64</per-minute>
     </metronome>
    </direction-type>
    <sound tempo="64.0002"/>
   </direction>
   <note default-x="258.83" default-y="5.00" dynamics="88.89">
    <pitch>
     <step>G</step>
     <octave>5</octave>
    </pitch>
    <duration>2</duration>
    <voice>1</voice>
    <type>16th</type>
    <time-modification>
     <actual-notes>3</actual-notes>
     <normal-notes>2</normal-notes>
    </time-modification>
    <beam number="1">end</beam>
    <beam number="2">end</beam>
    <notations>
     <tuplet type="stop"/>
    </notations>
   </note>
   <backup>
    <duration>36</duration>
   </backup>
   <forward>
    <duration>36</duration>
    <voice>2</voice>
   </forward>
   <backup>
    <duration>24</duration>
   </backup>
   <direction placement="above">
    <direction-type>
     <metronome parentheses="no" default-y="4.48" relative-y="20.00">
      <beat-unit>quarter</beat-unit>
      <per-minute>71</per-minute>
     </metronome>
    </direction-type>
    <sound tempo="70.9998"/>
   </direction>
   <forward>
    <duration>12</duration>
   </forward>
   <direction placement="above">
    <direction-type>
     <metronome parentheses="no" default-y="48.11" relative-y="20.00">
      <beat-unit>quarter</beat-unit>
      <per-minute>64</per-minute>
     </metronome>
    </direction-type>
    <sound tempo="64.0002"/>
   </direction>
   <forward>
    <duration>4</duration>
   </forward>
   <direction placement="above">
    <direction-type>
     <metronome parentheses="no" default-y="69.93" relative-y="20.00">
      <beat-unit>quarter</beat-unit>
      <per-minute>62</per-minute>
     </metronome>
    </direction-type>
    <sound tempo="61.9998"/>
   </direction>
   <forward>
    <duration>8</duration>
   </forward>
  </measure>
  <measure number="7" width="161.41">
   <note default-x="10.00" default-y="0.00" dynamics="88.89">
    <pitch>
     <step>F</step>
     <octave>5</octave>
    </pitch>
    <duration>6</duration>
    <voice>1</voice>
    <type>eighth</type>
    <beam number="1">begin</beam>
   </note>
   <direction placement="above">
    <direction-type>
     <metronome parentheses="no" default-y="113.56" relative-y="20.00">
      <beat-unit>quarter</beat-unit>
      <per-minute>66</per-minute>
     </metronome>
    </direction-type>
    <sound tempo="66"/>
   </direction>
   <note default-x="31.98" default-y="-5.00" dynamics="88.89">
    <pitch>
     <step>E</step>
     <alter>-1</alter>
     <octave>5</octave>
    </pitch>
    <duration>6</duration>
    <voice>1</voice>
    <type>eighth</type>
    <beam number="1">end</beam>
   </note>
   <direction placement="above">
    <direction-type>
     <metronome parentheses="no" default-y="156.90" relative-y="20.00">
      <beat-unit>quarter</beat-unit>
      <per-minute>71</per-minute>
     </metronome>
    </direction-type>
    <sound tempo="70.9998"/>
   </direction>
   <note default-x="65.67" default-y="-10.00" dynamics="88.89">
    <pitch>
     <step>D</step>
     <octave>5</octave>
    </pitch>
    <duration>6</duration>
    <voice>1</voice>
    <type>eighth</type>
    <beam number="1">begin</beam>
   </note>
   <note default-x="87.65" default-y="-40.00" dynamics="88.89">
    <pitch>
     <step>E</step>
     <alter>-1</alter>
     <octave>4</octave>
    </pitch>
    <duration>6</duration>
    <voice>1</voice>
    <type>eighth</type>
    <beam number="1">end</beam>
   </note>
   <note default-x="87.65" default-y="-15.00" dynamics="88.89">
    <chord/>
    <pitch>
     <step>C</step>
     <octave>5</octave>
    </pitch>
    <duration>6</duration>
    <voice>1</voice>
    <type>eighth</type>
   </note>
   <note default-x="114.67" default-y="-5.00" dynamics="88.89">
    <pitch>
     <step>E</step>
     <octave>5</octave>
    </pitch>
    <duration>6</duration>
    <voice>1</voice>
    <type>eighth</type>
    <accidental>natural</accidental>
    <beam number="1">begin</beam>
   </note>
   <direction placement="above">
    <direction-type>
     <metronome parentheses="no" relative-y="20.00">
      <beat-unit>quarter</beat-unit>
      <per-minute>73</per-minute>
     </metronome>
    </direction-type>
    <sound tempo="73.0002"/>
   </direction>
   <note default-x="136.65" default-y="0.00" dynamics="88.89">
    <pitch>
     <step>F</step>
     <octave>5</octave>
    </pitch>
    <duration>6</duration>
    <tie type="start"/>
    <voice>1</voice>
    <type>eighth</type>
    <beam number="1">end</beam>
    <notations>
     <tied type="start"/>
    </notations>
   </note>
   <backup>
    <duration>36</duration>
   </backup>
   <forward>
    <duration>36</duration>
    <voice>2</voice>
   </forward>
   <backup>
    <duration>26</duration>
   </backup>
   <direction placement="above">
    <direction-type>
     <metronome parentheses="no" default-y="135.38" relative-y="20.00">
      <beat-unit>quarter</beat-unit>
      <per-minute>69</per-minute>
     </metronome>
    </direction-type>
    <sound tempo="69"/>
   </direction>
   <forward>
    <duration>26</duration>
   </forward>
  </measure>
  <measure number="8" width="149.29">
   <note default-x="10.94" default-y="0.00" dynamics="88.89">
    <pitch>
     <step>F</step>
     <octave>5</octave>
    </pitch>
    <duration>6</duration>
    <tie type="stop"/>
    <voice>1</voice>
    <type>eighth</type>
    <beam number="1">begin</beam>
    <notations>
     <tied type="stop"/>
    </notations>
   </note>
   <note default-x="31.50" default-y="5.00" dynamics="88.89">
    <pitch>
     <step>G</step>
     <octave>5</octave>
    </pitch>
    <duration>3</duration>
    <voice>1</voice>
    <type>16th</type>
    <beam number="1">continue</beam>
    <beam number="2">begin</beam>
   </note>
   <note default-x="47.17" default-y="0.00" dynamics="88.89">
    <pitch>
     <step>F</step>
     <octave>5</octave>
    </pitch>
    <duration>3</duration>
    <voice>1</voice>
    <type>16th</type>
    <beam number="1">end</beam>
    <beam number="2">end</beam>
   </note>
   <note default-x="62.83" default-y="-5.00" dynamics="88.89">
    <pitch>
     <step>E</step>
     <alter>-1</alter>
     <octave>5</octave>
    </pitch>
    <duration>6</duration>
    <voice>1</voice>
    <type>eighth</type>
    <beam number="1">begin</beam>
   </note>
   <note default-x="83.40" default-y="-10.00" dynamics="88.89">
    <pitch>
     <step>D</step>
     <octave>5</octave>
    </pitch>
    <duration>6</duration>
    <voice>1</voice>
    <type>eighth</type>
    <beam number="1">end</beam>
   </note>
   <note default-x="103.96" default-y="-15.00" dynamics="88.89">
    <pitch>
     <step>C</step>
     <octave>5</octave>
    </pitch>
    <duration>6</duration>
    <voice>1</voice>
    <type>eighth</type>
    <beam number="1">begin</beam>
   </note>
   <direction placement="above">
    <direction-type>
     <metronome parentheses="no" relative-y="20.00">
      <beat-unit>quarter</beat-unit>
      <per-minute>71</per-minute>
     </metronome>
    </direction-type>
    <sound tempo="70.9998"/>
   </direction>
   <note default-x="124.52" default-y="-20.00" dynamics="88.89">
    <pitch>
     <step>B</step>
     <alter>-1</alter>
     <octave>4</octave>
    </pitch>
    <duration>6</duration>
    <voice>1</voice>
    <type>eighth</type>
    <beam number="1">end</beam>
   </note>
   <backup>
    <duration>36</duration>
   </backup>
   <forward>
    <duration>36</duration>
    <voice>2</voice>
   </forward>
  </measure>
  <measure number="9" width="152.91">
   <note default-x="10.72" default-y="0.00" dynamics="88.89">
    <pitch>
     <step>F</step>
     <octave>5</octave>
    </pitch>
    <duration>6</duration>
    <voice>1</voice>
    <type>eighth</type>
   </note>
   <note default-x="34.15" default-y="-5.00" dynamics="88.89">
    <pitch>
     <step>E</step>
     <alter>-1</alter>
     <octave>5</octave>
    </pitch>
    <duration>12</duration>
    <voice>1</voice>
    <type>quarter</type>
   </note>
   <note default-x="81.01" default-y="-15.00" dynamics="88.89">
    <pitch>
     <step>C</step>
     <octave>5</octave>
    </pitch>
    <duration>6</duration>
    <voice>1</voice>
    <type>eighth</type>
   </note>
   <note default-x="104.45" default-y="-5.00" dynamics="88.89">
    <pitch>
     <step>E</step>
     <alter>-1</alter>
     <octave>5</octave>
    </pitch>
    <duration>6</duration>
    <voice>1</voice>
    <type>eighth</type>
    <beam number="1">begin</beam>
   </note>
   <note default-x="127.88" default-y="-10.00" dynamics="88.89">
    <pitch>
     <step>D</step>
     <octave>5</octave>
    </pitch>
    <duration>6</duration>
    <tie type="start"/>
    <voice>1</voice>
    <type>eighth</type>
    <beam number="1">end</beam>
    <notations>
     <tied type="start"/>
    </notations>
   </note>
   <backup>
    <duration>36</duration>
   </backup>
   <forward>
    <duration>36</duration>
    <voice>2</voice>
   </forward>
   <backup>
    <duration>24</duration>
   </backup>
   <direction placement="above">
    <direction-type>
     <metronome parentheses="no" relative-y="20.00">
      <beat-unit>quarter</beat-unit>
      <per-minute>73</per-minute>
     </metronome>
    </direction-type>
    <sound tempo="73.0002"/>
   </direction>
   <forward>
    <duration>24</duration>
   </forward>
  </measure>
  <measure number="10" width="134.71">
   <note default-x="10.00" default-y="-10.00" dynamics="88.89">
    <pitch>
     <step>D</step>
     <octave>5</octave>
    </pitch>
    <duration>6</duration>
    <tie type="stop"/>
    <voice>1</voice>
    <type>eighth</type>
    <beam number="1">begin</beam>
    <notations>
     <tied type="stop"/>
    </notations>
   </note>
   <note default-x="29.47" default-y="-20.00" dynamics="88.89">
    <pitch>
     <step>B</step>
     <alter>-1</alter>
     <octave>4</octave>
    </pitch>
    <duration>6</duration>
    <voice>1</voice>
    <type>eighth</type>
    <beam number="1">end</beam>
   </note>
   <note default-x="48.67" default-y="-10.00" dynamics="88.89">
    <pitch>
     <step>D</step>
     <octave>5</octave>
    </pitch>
    <duration>18</duration>
    <voice>1</voice>
    <type>quarter</type>
    <dot/>
   </note>
   <note default-x="94.27" default-y="-5.00" dynamics="88.89">
    <pitch>
     <step>E</step>
     <alter>-1</alter>
     <octave>5</octave>
    </pitch>
    <duration>3</duration>
    <voice>1</voice>
    <type>16th</type>
    <beam number="1">begin</beam>
    <beam number="2">begin</beam>
   </note>
   <note default-x="109.94" default-y="-10.00" dynamics="88.89">
    <pitch>
     <step>D</step>
     <octave>5</octave>
    </pitch>
    <duration>3</duration>
    <voice>1</voice>
    <type>16th</type>
    <beam number="1">end</beam>
    <beam number="2">end</beam>
   </note>
   <backup>
    <duration>36</duration>
   </backup>
   <forward>
    <duration>36</duration>
    <voice>2</voice>
   </forward>
  </measure>
  <measure number="11" width="195.25">
   <note default-x="14.16" default-y="-15.00" dynamics="88.89">
    <pitch>
     <step>C</step>
     <octave>5</octave>
    </pitch>
    <duration>6</duration>
    <voice>1</voice>
    <type>eighth</type>
    <beam number="1">begin</beam>
   </note>
   <note default-x="34.86" default-y="0.00" dynamics="88.89">
    <pitch>
     <step>F</step>
     <octave>5</octave>
    </pitch>
    <duration>6</duration>
    <voice>1</voice>
    <type>eighth</type>
    <beam number="1">end</beam>
   </note>
   <note default-x="55.56" default-y="-5.00" dynamics="88.89">
    <pitch>
     <step>E</step>
     <alter>-1</alter>
     <octave>5</octave>
    </pitch>
    <duration>6</duration>
    <voice>1</voice>
    <type>eighth</type>
    <beam number="1">begin</beam>
   </note>
   <note default-x="76.26" default-y="-15.00" dynamics="88.89">
    <pitch>
     <step>C</step>
     <octave>5</octave>
    </pitch>
    <duration>6</duration>
    <voice>1</voice>
    <type>eighth</type>
    <beam number="1">end</beam>
   </note>
   <note default-x="96.96" default-y="-20.00" dynamics="88.89">
    <pitch>
     <step>B</step>
     <alter>-1</alter>
     <octave>4</octave>
    </pitch>
    <duration>6</duration>
    <voice>1</voice>
    <type>eighth</type>
    <beam number="1">begin</beam>
   </note>
   <direction placement="above">
    <direction-type>
     <metronome parentheses="no" default-y="5.31" relative-y="20.00">
      <beat-unit>quarter</beat-unit>
      <per-minute>76</per-minute>
     </metronome>
    </direction-type>
    <sound tempo="76.0002"/>
   </direction>
   <note default-x="117.66" default-y="-35.00" dynamics="88.89">
    <pitch>
     <step>F</step>
     <octave>4</octave>
    </pitch>
    <duration>3</duration>
    <voice>1</voice>
    <type>16th</type>
    <beam number="1">continue</beam>
    <beam number="2">begin</beam>
   </note>
   <note default-x="117.66" default-y="-20.00" dynamics="88.89">
    <chord/>
    <pitch>
     <step>B</step>
     <alter>-1</alter>
     <octave>4</octave>
    </pitch>
    <duration>3</duration>
    <voice>1</voice>
    <type>16th</type>
   </note>
   <note default-x="129.52" default-y="-15.00" dynamics="88.89">
    <chord/>
    <pitch>
     <step>C</step>
     <octave>5</octave>
    </pitch>
    <duration>3</duration>
    <voice>1</voice>
    <type>16th</type>
   </note>
   <note default-x="145.19" default-y="-20.00" dynamics="88.89">
    <pitch>
     <step>B</step>
     <alter>-1</alter>
     <octave>4</octave>
    </pitch>
    <duration>3</duration>
    <tie type="start"/>
    <voice>1</voice>
    <type>16th</type>
    <beam number="1">end</beam>
    <beam number="2">end</beam>
    <notations>
     <tied type="start"/>
    </notations>
   </note>
   <backup>
    <duration>36</duration>
   </backup>
   <forward>
    <duration>12</duration>
    <voice>2</voice>
   </forward>
   <forward>
    <duration>12</duration>
    <voice>2</voice>
   </forward>
   <forward>
    <duration>6</duration>
    <voice>2</voice>
   </forward>
   <forward>
    <duration>4</duration>
    <voice>2</voice>
   </forward>
   <note default-x="160.85" default-y="-130.00" dynamics="88.89">
    <pitch>
     <step>A</step>
     <octave>4</octave>
    </pitch>
    <duration>2</duration>
    <voice>2</voice>
    <type>16th</type>
    <accidental>natural</accidental>
    <time-modification>
     <actual-notes>3</actual-notes>
     <normal-notes>2</normal-notes>
     <normal-type>16th</normal-type>
    </time-modification>
    <notations>
     <tuplet type="stop"/>
    </notations>
   </note>
   <backup>
    <duration>2</duration>
   </backup>
   <direction placement="above">
    <direction-type>
     <metronome parentheses="no" default-y="27.12" relative-y="20.00">
      <beat-unit>quarter</beat-unit>
      <per-minute>78</per-minute>
     </metronome>
    </direction-type>
    <sound tempo="78"/>
   </direction>
   <forward>
    <duration>2</duration>
   </forward>
  </measure>
  <measure number="12" width="407.90">
   <direction placement="above">
    <direction-type>
     <metronome parentheses="no" relative-y="20.00">
      <beat-unit>quarter</beat-unit>
      <per-minute>81</per-minute>
     </metronome>
    </direction-type>
    <sound tempo="81"/>
   </direction>
   <note default-x="113.78" default-y="-20.00" dynamics="88.89">
    <pitch>
     <step>B</step>
     <alter>-1</alter>
     <octave>4</octave>
    </pitch>
    <duration>6</duration>
    <tie type="stop"/>
    <voice>1</voice>
    <type>eighth</type>
    <beam number="1">begin</beam>
    <notations>
     <tied type="stop"/>
    </notations>
   </note>
   <note default-x="158.52" default-y="-15.00" dynamics="88.89">
    <pitch>
     <step>C</step>
     <octave>5</octave>
    </pitch>
    <duration>6</duration>
    <voice>1</voice>
    <type>eighth</type>
    <beam number="1">end</beam>
   </note>
   <direction placement="above">
    <direction-type>
     <metronome parentheses="no" relative-y="20.00">
      <beat-unit>quarter</beat-unit>
      <per-minute>78</per-minute>
     </metronome>
    </direction-type>
    <sound tempo="78"/>
   </direction>
   <note default-x="203.27" default-y="-10.00" dynamics="88.89">
    <pitch>
     <step>D</step>
     <alter>-1</alter>
     <octave>5</octave>
    </pitch>
    <duration>6</duration>
    <voice>1</voice>
    <type>eighth</type>
    <accidental>flat</accidental>
    <beam number="1">begin</beam>
   </note>
   <note default-x="248.01" default-y="-5.00" dynamics="88.89">
    <pitch>
     <step>E</step>
     <alter>-1</alter>
     <octave>5</octave>
    </pitch>
    <duration>2</duration>
    <voice>1</voice>
    <type>16th</type>
    <time-modification>
     <actual-notes>3</actual-notes>
     <normal-notes>2</normal-notes>
    </time-modification>
    <beam number="1">continue</beam>
    <beam number="2">begin</beam>
    <notations>
     <tuplet type="start" bracket="no"/>
    </notations>
   </note>
   <note default-x="270.95" default-y="-10.00" dynamics="88.89">
    <pitch>
     <step>D</step>
     <alter>-1</alter>
     <octave>5</octave>
    </pitch>
    <duration>2</duration>
    <voice>1</voice>
    <type>16th</type>
    <time-modification>
     <actual-notes>3</actual-notes>
     <normal-notes>2</normal-notes>
    </time-modification>
    <beam number="1">continue</beam>
    <beam number="2">continue</beam>
   </note>
   <direction placement="above">
    <direction-type>
     <metronome parentheses="no" relative-y="20.00">
      <beat-unit>quarter</beat-unit>
      <per-minute>76</per-minute>
     </metronome>
    </direction-type>
    <sound tempo="76.0002"/>
   </direction>
   <note default-x="293.88" default-y="-15.00" dynamics="88.89">
    <pitch>
     <step>C</step>
     <octave>5</octave>
    </pitch>
    <duration>2</duration>
    <voice>1</voice>
    <type>16th</type>
    <time-modification>
     <actual-notes>3</actual-notes>
     <normal-notes>2</normal-notes>
    </time-modification>
    <beam number="1">end</beam>
    <beam number="2">end</beam>
    <notations>
     <tuplet type="stop"/>
    </notations>
   </note>
   <note default-x="316.81" default-y="-10.00" dynamics="88.89">
    <pitch>
     <step>D</step>
     <alter>-1</alter>
     <octave>5</octave>
    </pitch>
    <duration>6</duration>
    <voice>1</voice>
    <type>eighth</type>
    <beam number="1">begin</beam>
   </note>
   <note default-x="361.56" default-y="-5.00" dynamics="88.89">
    <pitch>
     <step>E</step>
     <alter>-1</alter>
     <octave>5</octave>
    </pitch>
    <duration>6</duration>
    <voice>1</voice>
    <type>eighth</type>
    <beam number="1">end</beam>
   </note>
   <backup>
    <duration>36</duration>
   </backup>
   <forward>
    <duration>36</duration>
    <voice>2</voice>
   </forward>
  </measure>
  <measure number="13" width="186.74">
   <direction placement="above">
    <direction-type>
     <metronome parentheses="no" relative-y="20.00">
      <beat-unit>quarter</beat-unit>
      <per-minute>73</per-minute>
     </metronome>
    </direction-type>
    <sound tempo="73.0002"/>
   </direction>
   <note default-x="14.36" default-y="-5.00" dynamics="88.89">
    <pitch>
     <step>E</step>
     <octave>5</octave>
    </pitch>
    <duration>12</duration>
    <voice>1</voice>
    <type>quarter</type>
    <accidental>natural</accidental>
   </note>
   <note>
    <rest/>
    <duration>12</duration>
    <voice>1</voice>
    <type>quarter</type>
   </note>
   <note>
    <rest/>
    <duration>12</duration>
    <voice>1</voice>
    <type>quarter</type>
   </note>
   <backup>
    <duration>36</duration>
   </backup>
   <forward>
    <duration>36</duration>
    <voice>2</voice>
   </forward>
  </measure>
 </part>
 <part id="P3">
  <measure number="1" width="253.70">
   <attributes>
    <divisions>12</divisions>
    <key>
     <fifths>-3</fifths>
    </key>
    <time>
     <beats>3</beats>
     <beat-type>4</beat-type>
    </time>
    <clef>
     <sign>F</sign>
     <line>4</line>
    </clef>
   </attributes>
   <note default-x="122.15" default-y="-205.00" dynamics="88.89">
    <pitch>
     <step>B</step>
     <alter>-1</alter>
     <octave>3</octave>
    </pitch>
    <duration>24</duration>
    <voice>1</voice>
    <type>half</type>
   </note>
   <note>
    <rest/>
    <duration>8</duration>
    <voice>1</voice>
    <type>quarter</type>
    <time-modification>
     <actual-notes>3</actual-notes>
     <normal-notes>2</normal-notes>
     <normal-type>eighth</normal-type>
    </time-modification>
    <notations>
     <tuplet type="start" bracket="yes"/>
    </notations>
   </note>
   <note default-x="213.27" default-y="-185.00" dynamics="88.89">
    <pitch>
     <step>F</step>
     <octave>4</octave>
    </pitch>
    <duration>4</duration>
    <tie type="start"/>
    <voice>1</voice>
    <type>eighth</type>
    <time-modification>
     <actual-notes>3</actual-notes>
     <normal-notes>2</normal-notes>
     <normal-type>eighth</normal-type>
    </time-modification>
    <notations>
     <tied type="start"/>
     <tuplet type="stop"/>
    </notations>
   </note>
   <backup>
    <duration>36</duration>
   </backup>
   <forward>
    <duration>12</duration>
    <voice>2</voice>
   </forward>
   <forward>
    <duration>12</duration>
    <voice>2</voice>
   </forward>
   <note default-x="176.83" default-y="-310.00" dynamics="88.89">
    <pitch>
     <step>B</step>
     <alter>-1</alter>
     <octave>3</octave>
    </pitch>
    <duration>12</duration>
    <tie type="start"/>
    <voice>2</voice>
    <type>quarter</type>
    <notations>
     <tied type="start"/>
    </notations>
   </note>
  </measure>
  <measure number="2" width="158.05">
   <note default-x="13.80" default-y="-185.00" dynamics="88.89">
    <pitch>
     <step>F</step>
     <octave>4</octave>
    </pitch>
    <duration>6</duration>
    <tie type="stop"/>
    <voice>1</voice>
    <type>eighth</type>
    <notations>
     <tied type="stop"/>
    </notations>
   </note>
   <note>
    <rest/>
    <duration>6</duration>
    <voice>1</voice>
    <type>eighth</type>
   </note>
   <note>
    <rest/>
    <duration>12</duration>
    <voice>1</voice>
    <type>quarter</type>
   </note>
   <note>
    <rest/>
    <duration>8</duration>
    <voice>1</voice>
    <type>quarter</type>
    <time-modification>
     <actual-notes>3</actual-notes>
     <normal-notes>2</normal-notes>
     <normal-type>eighth</normal-type>
    </time-modification>
    <notations>
     <tuplet type="start" bracket="yes"/>
    </notations>
   </note>
   <note default-x="133.29" default-y="-185.00" dynamics="88.89">
    <pitch>
     <step>F</step>
     <octave>4</octave>
    </pitch>
    <duration>4</duration>
    <voice>1</voice>
    <type>eighth</type>
    <time-modification>
     <actual-notes>3</actual-notes>
     <normal-notes>2</normal-notes>
     <normal-type>eighth</normal-type>
    </time-modification>
    <notations>
     <tuplet type="stop"/>
    </notations>
   </note>
   <backup>
    <duration>36</duration>
   </backup>
   <note default-x="13.44" default-y="-310.00" dynamics="88.89">
    <pitch>
     <step>B</step>
     <alter>-1</alter>
     <octave>3</octave>
    </pitch>
    <duration>36</duration>
    <tie type="stop"/>
    <tie type="start"/>
    <voice>2</voice>
    <type>half</type>
    <dot/>
    <notations>
     <tied type="stop"/>
     <tied type="start"/>
    </notations>
   </note>
  </measure>
  <measure number="3" width="135.72">
   <note default-x="13.80" default-y="-165.00" dynamics="88.89">
    <pitch>
     <step>C</step>
     <octave>5</octave>
    </pitch>
    <duration>18</duration>
    <voice>1</voice>
    <type>quarter</type>
    <dot/>
   </note>
   <note default-x="67.16" default-y="-200.00" dynamics="88.89">
    <pitch>
     <step>C</step>
     <octave>4</octave>
    </pitch>
    <duration>6</duration>
    <voice>1</voice>
    <type>eighth</type>
   </note>
   <note default-x="90.43" default-y="-185.00" dynamics="88.89">
    <pitch>
     <step>F</step>
     <octave>4</octave>
    </pitch>
    <duration>12</duration>
    <voice>1</voice>
    <type>quarter</type>
   </note>
   <backup>
    <duration>36</duration>
   </backup>
   <note default-x="13.44" default-y="-310.00" dynamics="88.89">
    <pitch>
     <step>B</step>
     <alter>-1</alter>
     <octave>3</octave>
    </pitch>
    <duration>24</duration>
    <tie type="stop"/>
    <voice>2</voice>
    <type>half</type>
    <notations>
     <tied type="stop"/>
    </notations>
   </note>
   <forward>
    <duration>6</duration>
    <voice>2</voice>
   </forward>
   <note default-x="110.95" default-y="-320.00" dynamics="88.89">
    <pitch>
     <step>G</step>
     <octave>3</octave>
    </pitch>
    <duration>6</duration>
    <tie type="start"/>
    <voice>2</voice>
    <type>eighth</type>
    <notations>
     <tied type="start"/>
    </notations>
   </note>
  </measure>
  <measure number="4" width="244.66">
   <note default-x="13.80" default-y="-190.00" dynamics="88.89">
    <pitch>
     <step>E</step>
     <alter>-1</alter>
     <octave>4</octave>
    </pitch>
    <duration>12</duration>
    <voice>1</voice>
    <type>quarter</type>
   </note>
   <note default-x="93.14" default-y="-190.00" dynamics="88.89">
    <pitch>
     <step>E</step>
     <alter>-1</alter>
     <octave>4</octave>
    </pitch>
    <duration>6</duration>
    <voice>1</voice>
    <type>eighth</type>
    <beam number="1">begin</beam>
   </note>
   <note default-x="124.41" default-y="-225.00" dynamics="88.89">
    <pitch>
     <step>E</step>
     <alter>-1</alter>
     <octave>3</octave>
    </pitch>
    <duration>6</duration>
    <voice>1</voice>
    <type>eighth</type>
    <beam number="1">end</beam>
   </note>
   <note default-x="163.30" default-y="-205.00" dynamics="88.89">
    <pitch>
     <step>B</step>
     <alter>-1</alter>
     <octave>3</octave>
    </pitch>
    <duration>6</duration>
    <voice>1</voice>
    <type>eighth</type>
    <beam number="1">begin</beam>
   </note>
   <note default-x="211.80" default-y="-215.00" dynamics="88.89">
    <pitch>
     <step>G</step>
     <octave>3</octave>
    </pitch>
    <duration>6</duration>
    <voice>1</voice>
    <type>eighth</type>
    <beam number="1">end</beam>
   </note>
   <backup>
    <duration>36</duration>
   </backup>
   <note default-x="13.80" default-y="-320.00" dynamics="88.89">
    <pitch>
     <step>G</step>
     <octave>3</octave>
    </pitch>
    <duration>6</duration>
    <tie type="stop"/>
    <voice>2</voice>
    <type>eighth</type>
    <beam number="1">begin</beam>
    <notations>
     <tied type="stop"/>
    </notations>
   </note>
   <note default-x="61.88" default-y="-310.00" dynamics="88.89">
    <pitch>
     <step>B</step>
     <alter>-1</alter>
     <octave>3</octave>
    </pitch>
    <duration>6</duration>
    <voice>2</voice>
    <type>eighth</type>
    <beam number="1">end</beam>
   </note>
   <forward>
    <duration>12</duration>
    <voice>2</voice>
   </forward>
   <forward>
    <duration>12</duration>
    <voice>2</voice>
   </forward>
  </measure>
  <measure number="5" width="156.29">
   <note default-x="16.36" default-y="-205.00" dynamics="88.89">
    <pitch>
     <step>B</step>
     <alter>-1</alter>
     <octave>3</octave>
    </pitch>
    <duration>6</duration>
    <voice>1</voice>
    <type>eighth</type>
    <beam number="1">begin</beam>
   </note>
   <note default-x="39.62" default-y="-230.00" dynamics="88.89">
    <pitch>
     <step>D</step>
     <octave>3</octave>
    </pitch>
    <duration>6</duration>
    <voice>1</voice>
    <type>eighth</type>
    <beam number="1">end</beam>
   </note>
   <note default-x="62.60" default-y="-205.00" dynamics="88.89">
    <pitch>
     <step>B</step>
     <alter>-1</alter>
     <octave>3</octave>
    </pitch>
    <duration>6</duration>
    <voice>1</voice>
    <type>eighth</type>
    <beam number="1">begin</beam>
   </note>
   <note default-x="85.57" default-y="-220.00" dynamics="88.89">
    <pitch>
     <step>F</step>
     <octave>3</octave>
    </pitch>
    <duration>6</duration>
    <voice>1</voice>
    <type>eighth</type>
    <beam number="1">end</beam>
   </note>
   <note default-x="108.55" default-y="-205.00" dynamics="88.89">
    <pitch>
     <step>B</step>
     <alter>-1</alter>
     <octave>3</octave>
    </pitch>
    <duration>6</duration>
    <voice>1</voice>
    <type>eighth</type>
    <beam number="1">begin</beam>
   </note>
   <note default-x="131.52" default-y="-230.00" dynamics="88.89">
    <pitch>
     <step>D</step>
     <octave>3</octave>
    </pitch>
    <duration>6</duration>
    <voice>1</voice>
    <type>eighth</type>
    <beam number="1">end</beam>
   </note>
   <backup>
    <duration>36</duration>
   </backup>
   <forward>
    <duration>36</duration>
    <voice>2</voice>
   </forward>
  </measure>
  <measure number="6" width="283.60">
   <note default-x="100.47" default-y="-205.00" dynamics="88.89">
    <pitch>
     <step>B</step>
     <alter>-1</alter>
     <octave>3</octave>
    </pitch>
    <duration>6</duration>
    <voice>1</voice>
    <type>eighth</type>
    <beam number="1">begin</beam>
   </note>
   <note default-x="122.00" default-y="-220.00" dynamics="88.89">
    <pitch>
     <step>F</step>
     <octave>3</octave>
    </pitch>
    <duration>6</duration>
    <voice>1</voice>
    <type>eighth</type>
    <beam number="1">end</beam>
   </note>
   <note default-x="143.53" default-y="-205.00" dynamics="88.89">
    <pitch>
     <step>B</step>
     <alter>-1</alter>
     <octave>3</octave>
    </pitch>
    <duration>6</duration>
    <voice>1</voice>
    <type>eighth</type>
    <beam number="1">begin</beam>
   </note>
   <note default-x="165.05" default-y="-225.00" dynamics="88.89">
    <pitch>
     <step>E</step>
     <alter>-1</alter>
     <octave>3</octave>
    </pitch>
    <duration>6</duration>
    <voice>1</voice>
    <type>eighth</type>
    <beam number="1">end</beam>
   </note>
   <note default-x="186.58" default-y="-215.00" dynamics="88.89">
    <pitch>
     <step>G</step>
     <octave>3</octave>
    </pitch>
    <duration>4</duration>
    <voice>1</voice>
    <type>eighth</type>
    <time-modification>
     <actual-notes>3</actual-notes>
     <normal-notes>2</normal-notes>
    </time-modification>
    <beam number="1">begin</beam>
    <notations>
     <tuplet type="start" bracket="no"/>
    </notations>
   </note>
   <note default-x="204.23" default-y="-225.00" dynamics="88.89">
    <pitch>
     <step>E</step>
     <alter>-1</alter>
     <octave>3</octave>
    </pitch>
    <duration>4</duration>
    <voice>1</voice>
    <type>eighth</type>
    <time-modification>
     <actual-notes>3</actual-notes>
     <normal-notes>2</normal-notes>
    </time-modification>
    <beam number="1">continue</beam>
   </note>
   <note default-x="239.37" default-y="-205.00" dynamics="88.89">
    <pitch>
     <step>B</step>
     <octave>3</octave>
    </pitch>
    <duration>4</duration>
    <voice>1</voice>
    <type>eighth</type>
    <accidental>natural</accidental>
    <time-modification>
     <actual-notes>3</actual-notes>
     <normal-notes>2</normal-notes>
    </time-modification>
    <beam number="1">end</beam>
    <notations>
     <tuplet type="stop"/>
    </notations>
   </note>
   <backup>
    <duration>36</duration>
   </backup>
   <forward>
    <duration>36</duration>
    <voice>2</voice>
   </forward>
  </measure>
  <measure number="7" width="161.41">
   <note default-x="10.00" default-y="-225.00" dynamics="88.89">
    <pitch>
     <step>E</step>
     <alter>-1</alter>
     <octave>3</octave>
    </pitch>
    <duration>12</duration>
    <voice>1</voice>
    <type>quarter</type>
   </note>
   <note default-x="65.67" default-y="-225.00" dynamics="88.89">
    <pitch>
     <step>E</step>
     <alter>-1</alter>
     <octave>3</octave>
    </pitch>
    <duration>12</duration>
    <voice>1</voice>
    <type>quarter</type>
   </note>
   <note default-x="114.67" default-y="-230.00" dynamics="88.89">
    <pitch>
     <step>D</step>
     <octave>3</octave>
    </pitch>
    <duration>6</duration>
    <voice>1</voice>
    <type>eighth</type>
    <beam number="1">begin</beam>
   </note>
   <note default-x="136.65" default-y="-220.00" dynamics="88.89">
    <pitch>
     <step>F</step>
     <octave>3</octave>
    </pitch>
    <duration>6</duration>
    <voice>1</voice>
    <type>eighth</type>
    <beam number="1">end</beam>
   </note>
   <backup>
    <duration>36</duration>
   </backup>
   <forward>
    <duration>36</duration>
    <voice>2</voice>
   </forward>
  </measure>
  <measure number="8" width="149.29">
   <note default-x="10.94" default-y="-230.00" dynamics="88.89">
    <pitch>
     <step>D</step>
     <octave>3</octave>
    </pitch>
    <duration>12</duration>
    <voice>1</voice>
    <type>quarter</type>
   </note>
   <note default-x="62.83" default-y="-230.00" dynamics="88.89">
    <pitch>
     <step>D</step>
     <octave>3</octave>
    </pitch>
    <duration>6</duration>
    <voice>1</voice>
    <type>eighth</type>
   </note>
   <note default-x="83.40" default-y="-205.00" dynamics="88.89">
    <pitch>
     <step>B</step>
     <alter>-1</alter>
     <octave>3</octave>
    </pitch>
    <duration>18</duration>
    <voice>1</voice>
    <type>quarter</type>
    <dot/>
   </note>
   <backup>
    <duration>36</duration>
   </backup>
   <forward>
    <duration>12</duration>
    <voice>2</voice>
   </forward>
   <forward>
    <duration>12</duration>
    <voice>2</voice>
   </forward>
   <note default-x="103.96" default-y="-335.00" dynamics="88.89">
    <pitch>
     <step>D</step>
     <octave>3</octave>
    </pitch>
    <duration>12</duration>
    <voice>2</voice>
    <type>quarter</type>
   </note>
  </measure>
  <measure number="9" width="152.91">
   <note>
    <rest/>
    <duration>6</duration>
    <voice>1</voice>
    <type>eighth</type>
   </note>
   <note default-x="34.15" default-y="-185.00" dynamics="88.89">
    <pitch>
     <step>F</step>
     <octave>4</octave>
    </pitch>
    <duration>6</duration>
    <voice>1</voice>
    <type>eighth</type>
   </note>
   <note default-x="57.58" default-y="-200.00" dynamics="88.89">
    <pitch>
     <step>C</step>
     <octave>4</octave>
    </pitch>
    <duration>6</duration>
    <voice>1</voice>
    <type>eighth</type>
    <beam number="1">begin</beam>
   </note>
   <note default-x="81.01" default-y="-185.00" dynamics="88.89">
    <pitch>
     <step>F</step>
     <octave>4</octave>
    </pitch>
    <duration>6</duration>
    <voice>1</voice>
    <type>eighth</type>
    <beam number="1">end</beam>
   </note>
   <note default-x="104.45" default-y="-205.00" dynamics="88.89">
    <pitch>
     <step>B</step>
     <alter>-1</alter>
     <octave>3</octave>
    </pitch>
    <duration>12</duration>
    <tie type="start"/>
    <voice>1</voice>
    <type>quarter</type>
    <notations>
     <tied type="start"/>
    </notations>
   </note>
   <backup>
    <duration>36</duration>
   </backup>
   <note default-x="10.36" default-y="-325.00" dynamics="88.89">
    <pitch>
     <step>F</step>
     <octave>3</octave>
    </pitch>
    <duration>24</duration>
    <voice>2</voice>
    <type>half</type>
   </note>
   <forward>
    <duration>12</duration>
    <voice>2</voice>
   </forward>
  </measure>
  <measure number="10" width="134.71">
   <note default-x="10.00" default-y="-205.00" dynamics="88.89">
    <pitch>
     <step>B</step>
     <alter>-1</alter>
     <octave>3</octave>
    </pitch>
    <duration>6</duration>
    <tie type="stop"/>
    <voice>1</voice>
    <type>eighth</type>
    <beam number="1">begin</beam>
    <notations>
     <tied type="stop"/>
    </notations>
   </note>
   <note default-x="29.47" default-y="-185.00" dynamics="88.89">
    <pitch>
     <step>F</step>
     <octave>4</octave>
    </pitch>
    <duration>6</duration>
    <voice>1</voice>
    <type>eighth</type>
    <beam number="1">end</beam>
   </note>
   <note default-x="48.67" default-y="-220.00" dynamics="88.89">
    <pitch>
     <step>F</step>
     <octave>3</octave>
    </pitch>
    <duration>12</duration>
    <voice>1</voice>
    <type>quarter</type>
   </note>
   <note default-x="75.07" default-y="-205.00" dynamics="88.89">
    <pitch>
     <step>B</step>
     <alter>-1</alter>
     <octave>3</octave>
    </pitch>
    <duration>12</duration>
    <voice>1</voice>
    <type>quarter</type>
   </note>
   <backup>
    <duration>36</duration>
   </backup>
   <forward>
    <duration>36</duration>
    <voice>2</voice>
   </forward>
  </measure>
  <measure number="11" width="195.25">
   <note default-x="13.80" default-y="-220.00" dynamics="88.89">
    <pitch>
     <step>F</step>
     <octave>3</octave>
    </pitch>
    <duration>24</duration>
    <voice>1</voice>
    <type>half</type>
   </note>
   <note default-x="13.80" default-y="-200.00" dynamics="88.89">
    <chord/>
    <pitch>
     <step>C</step>
     <octave>4</octave>
    </pitch>
    <duration>24</duration>
    <voice>1</voice>
    <type>half</type>
   </note>
   <note default-x="96.96" default-y="-205.00" dynamics="88.89">
    <pitch>
     <step>B</step>
     <alter>-1</alter>
     <octave>3</octave>
    </pitch>
    <duration>12</duration>
    <voice>1</voice>
    <type>quarter</type>
   </note>
   <backup>
    <duration>36</duration>
   </backup>
   <forward>
    <duration>36</duration>
    <voice>2</voice>
   </forward>
  </measure>
  <measure number="12" width="407.90">
   <note default-x="113.78" default-y="-195.00" dynamics="88.89">
    <pitch>
     <step>D</step>
     <alter>-1</alter>
     <octave>4</octave>
    </pitch>
    <duration>6</duration>
    <voice>1</voice>
    <type>eighth</type>
    <accidental>flat</accidental>
    <beam number="1">begin</beam>
   </note>
   <note default-x="158.52" default-y="-185.00" dynamics="88.89">
    <pitch>
     <step>F</step>
     <octave>4</octave>
    </pitch>
    <duration>6</duration>
    <voice>1</voice>
    <type>eighth</type>
    <beam number="1">end</beam>
   </note>
   <note>
    <rest/>
    <duration>6</duration>
    <voice>1</voice>
    <type>eighth</type>
   </note>
   <note default-x="248.01" default-y="-185.00" dynamics="88.89">
    <pitch>
     <step>F</step>
     <octave>4</octave>
    </pitch>
    <duration>6</duration>
    <voice>1</voice>
    <type>eighth</type>
   </note>
   <note default-x="316.81" default-y="-195.00" dynamics="88.89">
    <pitch>
     <step>D</step>
     <alter>-1</alter>
     <octave>4</octave>
    </pitch>
    <duration>6</duration>
    <voice>1</voice>
    <type>eighth</type>
    <beam number="1">begin</beam>
   </note>
   <note default-x="361.56" default-y="-185.00" dynamics="88.89">
    <pitch>
     <step>F</step>
     <octave>4</octave>
    </pitch>
    <duration>6</duration>
    <voice>1</voice>
    <type>eighth</type>
    <beam number="1">end</beam>
   </note>
   <backup>
    <duration>36</duration>
   </backup>
   <forward>
    <duration>12</duration>
    <voice>2</voice>
   </forward>
   <note default-x="203.27" default-y="-310.00" dynamics="88.89">
    <pitch>
     <step>B</step>
     <alter>-1</alter>
     <octave>3</octave>
    </pitch>
    <duration>12</duration>
    <voice>2</voice>
    <type>quarter</type>
   </note>
   <forward>
    <duration>12</duration>
    <voice>2</voice>
   </forward>
  </measure>
  <measure number="13" width="186.74">
   <note>
    <rest/>
    <duration>36</duration>
    <voice>1</voice>
   </note>
   <backup>
    <duration>36</duration>
   </backup>
   <forward>
    <duration>36</duration>
    <voice>2</voice>
   </forward>
  </measure>
 </part>
</score-partwise>
