<?xml version="1.0" encoding="UTF-8"?>
<!DOCTYPE score-partwise PUBLIC "-//Recordare//DTD MusicXML 3.1 Partwise//EN" "http://www.musicxml.org/dtds/partwise.dtd">
<score-partwise version="3.1">
 <identification>
  <encoding>
   <software>MuseScore 3.2.3</software>
   <encoding-date>2020-08-04</encoding-date>
   <supports element="accidental" type="yes"/>
   <supports element="beam" type="yes"/>
   <supports element="print" attribute="new-page" type="yes" value="yes"/>
   <supports element="print" attribute="new-system" type="yes" value="yes"/>
   <supports element="stem" type="yes"/>
  </encoding>
 </identification>
 <defaults>
  <scaling>
   <millimeters>7.05556</millimeters>
   <tenths>40</tenths>
  </scaling>
  <page-layout>
   <page-height>1683.78</page-height>
   <page-width>1190.55</page-width>
   <page-margins type="even">
    <left-margin>56.6929</left-margin>
    <right-margin>56.6929</right-margin>
    <top-margin>56.6929</top-margin>
    <bottom-margin>113.386</bottom-margin>
   </page-margins>
   <page-margins type="odd">
    <left-margin>56.6929</left-margin>
    <right-margin>56.6929</right-margin>
    <top-margin>56.6929</top-margin>
    <bottom-margin>113.386</bottom-margin>
   </page-margins>
  </page-layout>
  <word-font font-family="FreeSerif" font-size="10"/>
  <lyric-font font-family="FreeSerif" font-size="11"/>
 </defaults>
 <part-list>
  <score-part id="P1">
   <part-name>Pf</part-name>
   <score-instrument id="P1-I1">
    <instrument-name></instrument-name>
   </score-instrument>
   <midi-device id="P1-I1" port="1"></midi-device>
   <midi-instrument id="P1-I1">
    <midi-channel>1</midi-channel>
    <midi-program>1</midi-program>
    <volume>78.7402</volume>
    <pan>0</pan>
   </midi-instrument>
  </score-part>
  <score-part id="P3">
   <part-name>Pf</part-name>
   <score-instrument id="P3-I1">
    <instrument-name></instrument-name>
   </score-instrument>
   <midi-device id="P3-I1" port="1"></midi-device>
   <midi-instrument id="P3-I1">
    <midi-channel>5</midi-channel>
    <midi-program>1</midi-program>
    <volume>78.7402</volume>
    <pan>0</pan>
   </midi-instrument>
  </score-part>
 </part-list>
 <part id="P1">
  <measure number="1" width="382.95">
   <attributes>
    <divisions>12</divisions>
    <key>
     <fifths>-3</fifths>
    </key>
    <time>
     <beats>4</beats>
     <beat-type>4</beat-type>
    </time>
    <clef>
     <sign>G</sign>
     <line>2</line>
    </clef>
   </attributes>
   <direction placement="above">
    <direction-type>
     <metronome parentheses="no" default-x="-49.63" relative-y="20.00">
      <beat-unit>quarter</beat-unit>
      <per-minute>101</per-minute>
     </metronome>
    </direction-type>
    <sound tempo="101"/>
   </direction>
   <note default-x="135.23" default-y="-70.00" dynamics="88.89">
    <pitch>
     <step>F</step>
     <octave>3</octave>
    </pitch>
    <duration>18</duration>
    <voice>1</voice>
    <type>quarter</type>
    <dot/>
   </note>
   <note default-x="135.23" default-y="-60.00" dynamics="88.89">
    <chord/>
    <pitch>
     <step>A</step>
     <alter>-1</alter>
     <octave>3</octave>
    </pitch>
    <duration>18</duration>
    <voice>1</voice>
    <type>quarter</type>
    <dot/>
   </note>
   <note default-x="193.85" default-y="-65.00" dynamics="88.89">
    <pitch>
     <step>G</step>
     <alter>-1</alter>
     <octave>3</octave>
    </pitch>
    <duration>6</duration>
    <voice>1</voice>
    <type>eighth</type>
    <accidental>flat</accidental>
   </note>
   <note default-x="193.85" default-y="-55.00" dynamics="88.89">
    <chord/>
    <pitch>
     <step>B</step>
     <alter>-1</alter>
     <octave>3</octave>
    </pitch>
    <duration>6</duration>
    <voice>1</voice>
    <type>eighth</type>
   </note>
   <note default-x="230.62" default-y="-70.00" dynamics="88.89">
    <pitch>
     <step>F</step>
     <octave>3</octave>
    </pitch>
    <duration>12</duration>
    <voice>1</voice>
    <type>quarter</type>
   </note>
   <note default-x="230.62" default-y="-60.00" dynamics="88.89">
    <chord/>
    <pitch>
     <step>A</step>
     <alter>-1</alter>
     <octave>3</octave>
    </pitch>
    <duration>12</duration>
    <voice>1</voice>
    <type>quarter</type>
   </note>
   <note default-x="281.17" default-y="-70.00" dynamics="88.89">
    <pitch>
     <step>F</step>
     <octave>3</octave>
    </pitch>
    <duration>3</duration>
    <voice>1</voice>
    <type>16th</type>
    <beam number="1">begin</beam>
    <beam number="2">begin</beam>
   </note>
   <note default-x="304.44" default-y="-60.00" dynamics="88.89">
    <pitch>
     <step>A</step>
     <alter>-1</alter>
     <octave>3</octave>
    </pitch>
    <duration>3</duration>
    <voice>1</voice>
    <type>16th</type>
    <beam number="1">continue</beam>
    <beam number="2">continue</beam>
   </note>
   <note default-x="335.21" default-y="-45.00" dynamics="88.89">
    <pitch>
     <step>D</step>
     <alter>-1</alter>
     <octave>4</octave>
    </pitch>
    <duration>3</duration>
    <voice>1</voice>
    <type>16th</type>
    <accidental>flat</accidental>
    <beam number="1">continue</beam>
    <beam number="2">continue</beam>
   </note>
   <note default-x="358.19" default-y="-35.00" dynamics="88.89">
    <pitch>
     <step>F</step>
     <octave>4</octave>
    </pitch>
    <duration>3</duration>
    <voice>1</voice>
    <type>16th</type>
    <beam number="1">end</beam>
    <beam number="2">end</beam>
   </note>
   <backup>
    <duration>48</duration>
   </backup>
   <forward>
    <duration>48</duration>
    <voice>2</voice>
   </forward>
  </measure>
  <measure number="2" width="260.37">
   <note default-x="10.94" default-y="-25.00" dynamics="88.89">
    <pitch>
     <step>A</step>
     <alter>-1</alter>
     <octave>4</octave>
    </pitch>
    <duration>3</duration>
    <voice>1</voice>
    <type>16th</type>
    <beam number="1">begin</beam>
    <beam number="2">forward hook</beam>
   </note>
   <note default-x="39.87" default-y="-10.00" dynamics="88.89">
    <pitch>
     <step>D</step>
     <alter>-1</alter>
     <octave>5</octave>
    </pitch>
    <duration>6</duration>
    <voice>1</voice>
    <type>eighth</type>
    <accidental>flat</accidental>
    <beam number="1">continue</beam>
   </note>
   <note default-x="84.89" default-y="10.00" dynamics="88.89">
    <pitch>
     <step>A</step>
     <alter>-1</alter>
     <octave>5</octave>
    </pitch>
    <duration>3</duration>
    <voice>1</voice>
    <type>16th</type>
    <beam number="1">end</beam>
    <beam number="2">backward hook</beam>
   </note>
   <note default-x="115.82" default-y="25.00" dynamics="88.89">
    <pitch>
     <step>D</step>
     <alter>-1</alter>
     <octave>6</octave>
    </pitch>
    <duration>12</duration>
    <voice>1</voice>
    <type>quarter</type>
    <accidental>flat</accidental>
   </note>
   <note default-x="165.34" default-y="-35.00" dynamics="88.89">
    <pitch>
     <step>F</step>
     <octave>4</octave>
    </pitch>
    <duration>18</duration>
    <voice>1</voice>
    <type>quarter</type>
    <dot/>
   </note>
   <note default-x="165.34" default-y="-25.00" dynamics="88.89">
    <chord/>
    <pitch>
     <step>A</step>
     <alter>-1</alter>
     <octave>4</octave>
    </pitch>
    <duration>18</duration>
    <voice>1</voice>
    <type>quarter</type>
    <dot/>
   </note>
   <note default-x="222.76" default-y="-30.00" dynamics="88.89">
    <pitch>
     <step>G</step>
     <alter>-1</alter>
     <octave>4</octave>
    </pitch>
    <duration>6</duration>
    <voice>1</voice>
    <type>eighth</type>
    <accidental>flat</accidental>
   </note>
   <note default-x="222.76" default-y="-20.00" dynamics="88.89">
    <chord/>
    <pitch>
     <step>B</step>
     <alter>-1</alter>
     <octave>4</octave>
    </pitch>
    <duration>6</duration>
    <voice>1</voice>
    <type>eighth</type>
   </note>
   <backup>
    <duration>48</duration>
   </backup>
   <forward>
    <duration>6</duration>
    <voice>2</voice>
   </forward>
   <note default-x="62.38" default-y="-105.00" dynamics="88.89">
    <pitch>
     <step>F</step>
     <octave>5</octave>
    </pitch>
    <duration>18</duration>
    <voice>2</voice>
    <type>quarter</type>
    <dot/>
   </note>
   <forward>
    <duration>24</duration>
    <voice>2</voice>
   </forward>
  </measure>
  <measure number="3" width="305.09">
   <note default-x="18.27" default-y="-35.00" dynamics="88.89">
    <pitch>
     <step>F</step>
     <octave>4</octave>
    </pitch>
    <duration>12</duration>
    <voice>1</voice>
    <type>quarter</type>
   </note>
   <note default-x="18.27" default-y="-25.00" dynamics="88.89">
    <chord/>
    <pitch>
     <step>A</step>
     <alter>-1</alter>
     <octave>4</octave>
    </pitch>
    <duration>12</duration>
    <voice>1</voice>
    <type>quarter</type>
   </note>
   <direction placement="above">
    <direction-type>
     <metronome parentheses="no" relative-y="20.00">
      <beat-unit>quarter</beat-unit>
      <per-minute>98</per-minute>
     </metronome>
    </direction-type>
    <sound tempo="97.9998"/>
   </direction>
   <note default-x="66.90" default-y="-35.00" dynamics="88.89">
    <pitch>
     <step>F</step>
     <octave>4</octave>
    </pitch>
    <duration>6</duration>
    <voice>1</voice>
    <type>eighth</type>
    <beam number="1">begin</beam>
   </note>
   <note default-x="66.90" default-y="-25.00" dynamics="88.89">
    <chord/>
    <pitch>
     <step>A</step>
     <alter>-1</alter>
     <octave>4</octave>
    </pitch>
    <duration>6</duration>
    <voice>1</voice>
    <type>eighth</type>
   </note>
   <note default-x="102.26" default-y="-10.00" dynamics="88.89">
    <pitch>
     <step>D</step>
     <alter>-1</alter>
     <octave>5</octave>
    </pitch>
    <duration>3</duration>
    <voice>1</voice>
    <type>16th</type>
    <accidental>flat</accidental>
    <beam number="1">continue</beam>
    <beam number="2">begin</beam>
   </note>
   <direction placement="above">
    <direction-type>
     <metronome parentheses="no" default-y="28.91" relative-y="20.00">
      <beat-unit>quarter</beat-unit>
      <per-minute>101</per-minute>
     </metronome>
    </direction-type>
    <sound tempo="101"/>
   </direction>
   <note default-x="124.36" default-y="0.00" dynamics="88.89">
    <pitch>
     <step>F</step>
     <octave>5</octave>
    </pitch>
    <duration>3</duration>
    <voice>1</voice>
    <type>16th</type>
    <beam number="1">end</beam>
    <beam number="2">end</beam>
   </note>
   <note default-x="146.47" default-y="10.00" dynamics="88.89">
    <pitch>
     <step>A</step>
     <alter>-1</alter>
     <octave>5</octave>
    </pitch>
    <duration>3</duration>
    <voice>1</voice>
    <type>16th</type>
    <beam number="1">begin</beam>
    <beam number="2">begin</beam>
   </note>
   <note default-x="177.40" default-y="25.00" dynamics="88.89">
    <pitch>
     <step>D</step>
     <alter>-1</alter>
     <octave>6</octave>
    </pitch>
    <duration>3</duration>
    <voice>1</voice>
    <type>16th</type>
    <accidental>flat</accidental>
    <beam number="1">continue</beam>
    <beam number="2">continue</beam>
   </note>
   <note default-x="200.67" default-y="35.00" dynamics="88.89">
    <pitch>
     <step>F</step>
     <octave>6</octave>
    </pitch>
    <duration>3</duration>
    <voice>1</voice>
    <type>16th</type>
    <beam number="1">continue</beam>
    <beam number="2">continue</beam>
   </note>
   <note default-x="223.93" default-y="45.00" dynamics="88.89">
    <pitch>
     <step>A</step>
     <alter>-1</alter>
     <octave>6</octave>
    </pitch>
    <duration>3</duration>
    <voice>1</voice>
    <type>16th</type>
    <beam number="1">end</beam>
    <beam number="2">end</beam>
   </note>
   <note default-x="254.87" default-y="60.00" dynamics="88.89">
    <pitch>
     <step>D</step>
     <alter>-1</alter>
     <octave>7</octave>
    </pitch>
    <duration>12</duration>
    <voice>1</voice>
    <type>quarter</type>
    <accidental>flat</accidental>
   </note>
   <backup>
    <duration>48</duration>
   </backup>
   <forward>
    <duration>48</duration>
    <voice>2</voice>
   </forward>
  </measure>
  <measure number="4" width="359.17">
   <direction placement="above">
    <direction-type>
     <metronome parentheses="no" relative-y="20.00">
      <beat-unit>quarter</beat-unit>
      <per-minute>98</per-minute>
     </metronome>
    </direction-type>
    <sound tempo="97.9998"/>
   </direction>
   <note default-x="111.78" default-y="-40.00" dynamics="88.89">
    <pitch>
     <step>E</step>
     <alter>-1</alter>
     <octave>4</octave>
    </pitch>
    <duration>24</duration>
    <voice>1</voice>
    <type>half</type>
   </note>
   <direction placement="above">
    <direction-type>
     <metronome parentheses="no" relative-y="20.00">
      <beat-unit>quarter</beat-unit>
      <per-minute>105</per-minute>
     </metronome>
    </direction-type>
    <sound tempo="105"/>
   </direction>
   <note default-x="180.82" default-y="-40.00" dynamics="88.89">
    <pitch>
     <step>E</step>
     <alter>-1</alter>
     <octave>4</octave>
    </pitch>
    <duration>9</duration>
    <voice>1</voice>
    <type>eighth</type>
    <dot/>
    <beam number="1">begin</beam>
   </note>
   <direction placement="above">
    <direction-type>
     <metronome parentheses="no" default-y="21.82" relative-y="20.00">
      <beat-unit>quarter</beat-unit>
      <per-minute>101</per-minute>
     </metronome>
    </direction-type>
    <sound tempo="101"/>
   </direction>
   <note default-x="228.68" default-y="-50.00" dynamics="88.89">
    <pitch>
     <step>C</step>
     <octave>4</octave>
    </pitch>
    <duration>3</duration>
    <voice>1</voice>
    <type>16th</type>
    <beam number="1">end</beam>
    <beam number="2">backward hook</beam>
   </note>
   <direction placement="above">
    <direction-type>
     <metronome parentheses="no" default-y="43.64" relative-y="20.00">
      <beat-unit>quarter</beat-unit>
      <per-minute>105</per-minute>
     </metronome>
    </direction-type>
    <sound tempo="105"/>
   </direction>
   <note>
    <rest/>
    <duration>3</duration>
    <voice>1</voice>
    <type>16th</type>
   </note>
   <note default-x="277.74" default-y="10.00" dynamics="88.89">
    <pitch>
     <step>A</step>
     <alter>-1</alter>
     <octave>5</octave>
    </pitch>
    <duration>3</duration>
    <voice>1</voice>
    <type>16th</type>
    <beam number="1">begin</beam>
    <beam number="2">begin</beam>
   </note>
   <note default-x="308.51" default-y="5.00" dynamics="88.89">
    <pitch>
     <step>G</step>
     <alter>-1</alter>
     <octave>5</octave>
    </pitch>
    <duration>3</duration>
    <voice>1</voice>
    <type>16th</type>
    <accidental>flat</accidental>
    <beam number="1">continue</beam>
    <beam number="2">continue</beam>
   </note>
   <note default-x="333.04" default-y="-5.00" dynamics="88.89">
    <pitch>
     <step>E</step>
     <alter>-1</alter>
     <octave>5</octave>
    </pitch>
    <duration>3</duration>
    <voice>1</voice>
    <type>16th</type>
    <beam number="1">end</beam>
    <beam number="2">end</beam>
   </note>
   <backup>
    <duration>48</duration>
   </backup>
   <forward>
    <duration>24</duration>
    <voice>2</voice>
   </forward>
   <forward>
    <duration>12</duration>
    <voice>2</voice>
   </forward>
   <note default-x="253.21" default-y="-155.00" dynamics="88.89">
    <pitch>
     <step>C</step>
     <octave>4</octave>
    </pitch>
    <duration>12</duration>
    <tie type="start"/>
    <voice>2</voice>
    <type>quarter</type>
    <notations>
     <tied type="start"/>
    </notations>
   </note>
  </measure>
  <measure number="5" width="341.59">
   <note default-x="13.80" default-y="-15.00" dynamics="88.89">
    <pitch>
     <step>C</step>
     <octave>5</octave>
    </pitch>
    <duration>3</duration>
    <voice>1</voice>
    <type>16th</type>
    <beam number="1">begin</beam>
    <beam number="2">begin</beam>
   </note>
   <note default-x="43.61" default-y="-25.00" dynamics="88.89">
    <pitch>
     <step>A</step>
     <alter>-1</alter>
     <octave>4</octave>
    </pitch>
    <duration>3</duration>
    <voice>1</voice>
    <type>16th</type>
    <beam number="1">continue</beam>
    <beam number="2">continue</beam>
   </note>
   <note default-x="73.41" default-y="-30.00" dynamics="88.89">
    <pitch>
     <step>G</step>
     <alter>-1</alter>
     <octave>4</octave>
    </pitch>
    <duration>3</duration>
    <voice>1</voice>
    <type>16th</type>
    <accidental>flat</accidental>
    <beam number="1">continue</beam>
    <beam number="2">continue</beam>
   </note>
   <note default-x="103.22" default-y="-40.00" dynamics="88.89">
    <pitch>
     <step>E</step>
     <alter>-1</alter>
     <octave>4</octave>
    </pitch>
    <duration>3</duration>
    <voice>1</voice>
    <type>16th</type>
    <beam number="1">end</beam>
    <beam number="2">end</beam>
   </note>
   <note default-x="133.02" default-y="-50.00" dynamics="88.89">
    <pitch>
     <step>C</step>
     <octave>4</octave>
    </pitch>
    <duration>3</duration>
    <voice>1</voice>
    <type>16th</type>
    <beam number="1">begin</beam>
    <beam number="2">begin</beam>
   </note>
   <note default-x="162.83" default-y="-60.00" dynamics="88.89">
    <pitch>
     <step>A</step>
     <alter>-1</alter>
     <octave>3</octave>
    </pitch>
    <duration>3</duration>
    <voice>1</voice>
    <type>16th</type>
    <beam number="1">continue</beam>
    <beam number="2">continue</beam>
   </note>
   <note default-x="192.63" default-y="-65.00" dynamics="88.89">
    <pitch>
     <step>G</step>
     <octave>3</octave>
    </pitch>
    <duration>3</duration>
    <voice>1</voice>
    <type>16th</type>
    <beam number="1">continue</beam>
    <beam number="2">continue</beam>
   </note>
   <note default-x="225.40" default-y="-65.00" dynamics="88.89">
    <pitch>
     <step>G</step>
     <alter>-1</alter>
     <octave>3</octave>
    </pitch>
    <duration>3</duration>
    <voice>1</voice>
    <type>16th</type>
    <accidental>flat</accidental>
    <beam number="1">end</beam>
    <beam number="2">end</beam>
   </note>
   <note default-x="256.17" default-y="-70.00" dynamics="88.89">
    <pitch>
     <step>F</step>
     <octave>3</octave>
    </pitch>
    <duration>24</duration>
    <voice>1</voice>
    <type>half</type>
   </note>
   <note default-x="256.17" default-y="-45.00" dynamics="88.89">
    <chord/>
    <pitch>
     <step>D</step>
     <alter>-1</alter>
     <octave>4</octave>
    </pitch>
    <duration>24</duration>
    <voice>1</voice>
    <type>half</type>
    <accidental>flat</accidental>
   </note>
   <backup>
    <duration>48</duration>
   </backup>
   <note default-x="13.80" default-y="-155.00" dynamics="88.89">
    <pitch>
     <step>C</step>
     <octave>4</octave>
    </pitch>
    <duration>12</duration>
    <tie type="stop"/>
    <voice>2</voice>
    <type>quarter</type>
    <notations>
     <tied type="stop"/>
    </notations>
   </note>
   <forward>
    <duration>12</duration>
    <voice>2</voice>
   </forward>
   <forward>
    <duration>24</duration>
    <voice>2</voice>
   </forward>
  </measure>
  <measure number="6" width="376.40">
   <note default-x="18.27" default-y="-70.00" dynamics="88.89">
    <pitch>
     <step>F</step>
     <octave>3</octave>
    </pitch>
    <duration>12</duration>
    <tie type="start"/>
    <voice>1</voice>
    <type>quarter</type>
    <notations>
     <tied type="start"/>
    </notations>
   </note>
   <note default-x="18.27" default-y="-45.00" dynamics="88.89">
    <chord/>
    <pitch>
     <step>D</step>
     <alter>-1</alter>
     <octave>4</octave>
    </pitch>
    <duration>12</duration>
    <tie type="start"/>
    <voice>1</voice>
    <type>quarter</type>
    <accidental>flat</accidental>
    <notations>
     <tied type="start"/>
    </notations>
   </note>
   <note default-x="18.27" default-y="-10.00" dynamics="88.89">
    <chord/>
    <pitch>
     <step>D</step>
     <alter>-1</alter>
     <octave>5</octave>
    </pitch>
    <duration>12</duration>
    <tie type="start"/>
    <voice>1</voice>
    <type>quarter</type>
    <accidental>flat</accidental>
    <notations>
     <tied type="start"/>
    </notations>
   </note>
   <note default-x="67.01" default-y="-70.00" dynamics="88.89">
    <pitch>
     <step>F</step>
     <octave>3</octave>
    </pitch>
    <duration>3</duration>
    <tie type="stop"/>
    <voice>1</voice>
    <type>16th</type>
    <beam number="1">begin</beam>
    <beam number="2">begin</beam>
    <notations>
     <tied type="stop"/>
    </notations>
   </note>
   <note default-x="67.01" default-y="-45.00" dynamics="88.89">
    <chord/>
    <pitch>
     <step>D</step>
     <alter>-1</alter>
     <octave>4</octave>
    </pitch>
    <duration>3</duration>
    <tie type="stop"/>
    <voice>1</voice>
    <type>16th</type>
    <notations>
     <tied type="stop"/>
    </notations>
   </note>
   <note default-x="67.01" default-y="-10.00" dynamics="88.89">
    <chord/>
    <pitch>
     <step>D</step>
     <alter>-1</alter>
     <octave>5</octave>
    </pitch>
    <duration>3</duration>
    <tie type="stop"/>
    <voice>1</voice>
    <type>16th</type>
    <notations>
     <tied type="stop"/>
    </notations>
   </note>
   <note default-x="92.82" default-y="0.00" dynamics="88.89">
    <pitch>
     <step>F</step>
     <octave>5</octave>
    </pitch>
    <duration>3</duration>
    <voice>1</voice>
    <type>16th</type>
    <beam number="1">continue</beam>
    <beam number="2">continue</beam>
   </note>
   <note default-x="118.63" default-y="-10.00" dynamics="88.89">
    <pitch>
     <step>D</step>
     <alter>-1</alter>
     <octave>5</octave>
    </pitch>
    <duration>3</duration>
    <voice>1</voice>
    <type>16th</type>
    <beam number="1">continue</beam>
    <beam number="2">continue</beam>
   </note>
   <note default-x="144.44" default-y="-25.00" dynamics="88.89">
    <pitch>
     <step>A</step>
     <alter>-1</alter>
     <octave>4</octave>
    </pitch>
    <duration>3</duration>
    <voice>1</voice>
    <type>16th</type>
    <beam number="1">end</beam>
    <beam number="2">end</beam>
   </note>
   <note default-x="170.26" default-y="-35.00" dynamics="88.89">
    <pitch>
     <step>F</step>
     <octave>4</octave>
    </pitch>
    <duration>3</duration>
    <voice>1</voice>
    <type>16th</type>
    <beam number="1">begin</beam>
    <beam number="2">begin</beam>
   </note>
   <note default-x="196.07" default-y="-45.00" dynamics="88.89">
    <pitch>
     <step>D</step>
     <alter>-1</alter>
     <octave>4</octave>
    </pitch>
    <duration>3</duration>
    <voice>1</voice>
    <type>16th</type>
    <beam number="1">continue</beam>
    <beam number="2">continue</beam>
   </note>
   <note default-x="221.88" default-y="-60.00" dynamics="88.89">
    <pitch>
     <step>A</step>
     <alter>-1</alter>
     <octave>3</octave>
    </pitch>
    <duration>3</duration>
    <voice>1</voice>
    <type>16th</type>
    <beam number="1">continue</beam>
    <beam number="2">continue</beam>
   </note>
   <note default-x="247.69" default-y="-70.00" dynamics="88.89">
    <pitch>
     <step>F</step>
     <octave>3</octave>
    </pitch>
    <duration>3</duration>
    <voice>1</voice>
    <type>16th</type>
    <beam number="1">end</beam>
    <beam number="2">end</beam>
   </note>
   <note>
    <rest/>
    <duration>12</duration>
    <voice>1</voice>
    <type>quarter</type>
   </note>
   <backup>
    <duration>48</duration>
   </backup>
   <forward>
    <duration>12</duration>
    <voice>2</voice>
   </forward>
   <note default-x="66.65" default-y="-175.00" dynamics="88.89">
    <pitch>
     <step>F</step>
     <octave>3</octave>
    </pitch>
    <duration>24</duration>
    <voice>2</voice>
    <type>half</type>
   </note>
   <note default-x="66.65" default-y="-165.00" dynamics="88.89">
    <chord/>
    <pitch>
     <step>A</step>
     <alter>-1</alter>
     <octave>3</octave>
    </pitch>
    <duration>24</duration>
    <voice>2</voice>
    <type>half</type>
   </note>
   <forward>
    <duration>12</duration>
    <voice>2</voice>
   </forward>
  </measure>
  <measure number="7" width="424.76">
   <note default-x="104.27" default-y="-80.00" dynamics="88.89">
    <pitch>
     <step>D</step>
     <octave>3</octave>
    </pitch>
    <duration>18</duration>
    <voice>1</voice>
    <type>quarter</type>
    <dot/>
   </note>
   <note default-x="104.27" default-y="-60.00" dynamics="88.89">
    <chord/>
    <pitch>
     <step>A</step>
     <alter>-1</alter>
     <octave>3</octave>
    </pitch>
    <duration>18</duration>
    <voice>1</voice>
    <type>quarter</type>
    <dot/>
   </note>
   <note default-x="116.14" default-y="-55.00" dynamics="88.89">
    <chord/>
    <pitch>
     <step>B</step>
     <alter>-1</alter>
     <octave>3</octave>
    </pitch>
    <duration>18</duration>
    <voice>1</voice>
    <type>quarter</type>
    <dot/>
   </note>
   <direction placement="above">
    <direction-type>
     <metronome parentheses="no" relative-y="20.00">
      <beat-unit>quarter</beat-unit>
      <per-minute>108</per-minute>
     </metronome>
    </direction-type>
    <sound tempo="108"/>
   </direction>
   <note default-x="189.59" default-y="-55.00" dynamics="88.89">
    <pitch>
     <step>B</step>
     <octave>3</octave>
    </pitch>
    <duration>6</duration>
    <voice>1</voice>
    <type>eighth</type>
    <accidental>natural</accidental>
   </note>
   <note default-x="239.66" default-y="-60.00" dynamics="88.89">
    <pitch>
     <step>A</step>
     <alter>-1</alter>
     <octave>3</octave>
    </pitch>
    <duration>12</duration>
    <voice>1</voice>
    <type>quarter</type>
   </note>
   <note default-x="251.53" default-y="-55.00" dynamics="88.89">
    <chord/>
    <pitch>
     <step>B</step>
     <alter>-1</alter>
     <octave>3</octave>
    </pitch>
    <duration>12</duration>
    <voice>1</voice>
    <type>quarter</type>
    <accidental>flat</accidental>
   </note>
   <direction placement="above">
    <direction-type>
     <metronome parentheses="no" default-y="4.63" relative-y="20.00">
      <beat-unit>quarter</beat-unit>
      <per-minute>105</per-minute>
     </metronome>
    </direction-type>
    <sound tempo="105"/>
   </direction>
   <note default-x="311.97" default-y="-65.00" dynamics="88.89">
    <pitch>
     <step>G</step>
     <alter>-1</alter>
     <octave>3</octave>
    </pitch>
    <duration>4</duration>
    <voice>1</voice>
    <type>eighth</type>
    <accidental>flat</accidental>
    <time-modification>
     <actual-notes>3</actual-notes>
     <normal-notes>2</normal-notes>
    </time-modification>
    <beam number="1">begin</beam>
    <notations>
     <tuplet type="start" bracket="no"/>
    </notations>
   </note>
   <note default-x="349.04" default-y="-65.00" dynamics="88.89">
    <pitch>
     <step>G</step>
     <alter>-1</alter>
     <octave>3</octave>
    </pitch>
    <duration>4</duration>
    <voice>1</voice>
    <type>eighth</type>
    <time-modification>
     <actual-notes>3</actual-notes>
     <normal-notes>2</normal-notes>
    </time-modification>
    <beam number="1">continue</beam>
   </note>
   <direction placement="above">
    <direction-type>
     <metronome parentheses="no" relative-y="20.00">
      <beat-unit>quarter</beat-unit>
      <per-minute>108</per-minute>
     </metronome>
    </direction-type>
    <sound tempo="108"/>
   </direction>
   <note default-x="386.10" default-y="-55.00" dynamics="88.89">
    <pitch>
     <step>B</step>
     <alter>-1</alter>
     <octave>3</octave>
    </pitch>
    <duration>4</duration>
    <voice>1</voice>
    <type>eighth</type>
    <time-modification>
     <actual-notes>3</actual-notes>
     <normal-notes>2</normal-notes>
    </time-modification>
    <beam number="1">end</beam>
    <notations>
     <tuplet type="stop"/>
    </notations>
   </note>
   <backup>
    <duration>48</duration>
   </backup>
   <forward>
    <duration>48</duration>
    <voice>2</voice>
   </forward>
  </measure>
  <measure number="8" width="281.76">
   <note default-x="10.94" default-y="-40.00" dynamics="88.89">
    <pitch>
     <step>E</step>
     <alter>-1</alter>
     <octave>4</octave>
    </pitch>
    <duration>3</duration>
    <voice>1</voice>
    <type>16th</type>
    <beam number="1">begin</beam>
    <beam number="2">begin</beam>
   </note>
   <note default-x="39.87" default-y="-30.00" dynamics="88.89">
    <pitch>
     <step>G</step>
     <alter>-1</alter>
     <octave>4</octave>
    </pitch>
    <duration>3</duration>
    <voice>1</voice>
    <type>16th</type>
    <accidental>flat</accidental>
    <beam number="1">continue</beam>
    <beam number="2">continue</beam>
   </note>
   <note default-x="65.57" default-y="-20.00" dynamics="88.89">
    <pitch>
     <step>B</step>
     <alter>-1</alter>
     <octave>4</octave>
    </pitch>
    <duration>3</duration>
    <voice>1</voice>
    <type>16th</type>
    <beam number="1">continue</beam>
    <beam number="2">continue</beam>
   </note>
   <note default-x="91.26" default-y="-30.00" dynamics="88.89">
    <pitch>
     <step>G</step>
     <alter>-1</alter>
     <octave>4</octave>
    </pitch>
    <duration>3</duration>
    <voice>1</voice>
    <type>16th</type>
    <beam number="1">end</beam>
    <beam number="2">end</beam>
   </note>
   <note default-x="116.96" default-y="-40.00" dynamics="88.89">
    <pitch>
     <step>E</step>
     <alter>-1</alter>
     <octave>4</octave>
    </pitch>
    <duration>12</duration>
    <voice>1</voice>
    <type>quarter</type>
   </note>
   <note default-x="116.96" default-y="-5.00" dynamics="88.89">
    <chord/>
    <pitch>
     <step>E</step>
     <alter>-1</alter>
     <octave>5</octave>
    </pitch>
    <duration>12</duration>
    <voice>1</voice>
    <type>quarter</type>
   </note>
   <direction placement="above">
    <direction-type>
     <metronome parentheses="no" relative-y="20.00">
      <beat-unit>quarter</beat-unit>
      <per-minute>105</per-minute>
     </metronome>
    </direction-type>
    <sound tempo="105"/>
   </direction>
   <note default-x="173.49" default-y="-45.00" dynamics="88.89">
    <pitch>
     <step>D</step>
     <octave>4</octave>
    </pitch>
    <duration>18</duration>
    <voice>1</voice>
    <type>quarter</type>
    <dot/>
   </note>
   <note default-x="173.49" default-y="-25.00" dynamics="88.89">
    <chord/>
    <pitch>
     <step>A</step>
     <alter>-1</alter>
     <octave>4</octave>
    </pitch>
    <duration>18</duration>
    <voice>1</voice>
    <type>quarter</type>
    <dot/>
   </note>
   <note default-x="185.36" default-y="-20.00" dynamics="88.89">
    <chord/>
    <pitch>
     <step>B</step>
     <alter>-1</alter>
     <octave>4</octave>
    </pitch>
    <duration>18</duration>
    <voice>1</voice>
    <type>quarter</type>
    <dot/>
   </note>
   <direction placement="above">
    <direction-type>
     <metronome parentheses="no" default-y="21.51" relative-y="20.00">
      <beat-unit>quarter</beat-unit>
      <per-minute>112</per-minute>
     </metronome>
    </direction-type>
    <sound tempo="112"/>
   </direction>
   <note default-x="239.04" default-y="-20.00" dynamics="88.89">
    <pitch>
     <step>B</step>
     <octave>4</octave>
    </pitch>
    <duration>6</duration>
    <voice>1</voice>
    <type>eighth</type>
    <accidental>natural</accidental>
   </note>
   <backup>
    <duration>48</duration>
   </backup>
   <forward>
    <duration>48</duration>
    <voice>2</voice>
   </forward>
  </measure>
  <measure number="9" width="370.65">
   <note default-x="10.00" default-y="-45.00" dynamics="88.89">
    <pitch>
     <step>D</step>
     <octave>4</octave>
    </pitch>
    <duration>12</duration>
    <voice>1</voice>
    <type>quarter</type>
   </note>
   <note default-x="10.00" default-y="-25.00" dynamics="88.89">
    <chord/>
    <pitch>
     <step>A</step>
     <alter>-1</alter>
     <octave>4</octave>
    </pitch>
    <duration>12</duration>
    <voice>1</voice>
    <type>quarter</type>
   </note>
   <note default-x="21.87" default-y="-20.00" dynamics="88.89">
    <chord/>
    <pitch>
     <step>B</step>
     <alter>-1</alter>
     <octave>4</octave>
    </pitch>
    <duration>12</duration>
    <voice>1</voice>
    <type>quarter</type>
   </note>
   <note default-x="71.80" default-y="-55.00" dynamics="88.89">
    <pitch>
     <step>B</step>
     <alter>-1</alter>
     <octave>3</octave>
    </pitch>
    <duration>6</duration>
    <voice>1</voice>
    <type>eighth</type>
    <beam number="1">begin</beam>
   </note>
   <note default-x="71.80" default-y="-40.00" dynamics="88.89">
    <chord/>
    <pitch>
     <step>E</step>
     <alter>-1</alter>
     <octave>4</octave>
    </pitch>
    <duration>6</duration>
    <voice>1</voice>
    <type>eighth</type>
   </note>
   <note default-x="71.80" default-y="-30.00" dynamics="88.89">
    <chord/>
    <pitch>
     <step>G</step>
     <alter>-1</alter>
     <octave>4</octave>
    </pitch>
    <duration>6</duration>
    <voice>1</voice>
    <type>eighth</type>
    <accidental>flat</accidental>
   </note>
   <note default-x="116.75" default-y="-30.00" dynamics="88.89">
    <pitch>
     <step>G</step>
     <alter>-1</alter>
     <octave>4</octave>
    </pitch>
    <duration>3</duration>
    <voice>1</voice>
    <type>16th</type>
    <beam number="1">continue</beam>
    <beam number="2">begin</beam>
   </note>
   <note default-x="144.84" default-y="-20.00" dynamics="88.89">
    <pitch>
     <step>B</step>
     <alter>-1</alter>
     <octave>4</octave>
    </pitch>
    <duration>3</duration>
    <voice>1</voice>
    <type>16th</type>
    <beam number="1">end</beam>
    <beam number="2">end</beam>
   </note>
   <note default-x="172.94" default-y="-5.00" dynamics="88.89">
    <pitch>
     <step>E</step>
     <alter>-1</alter>
     <octave>5</octave>
    </pitch>
    <duration>3</duration>
    <voice>1</voice>
    <type>16th</type>
    <beam number="1">begin</beam>
    <beam number="2">begin</beam>
   </note>
   <note default-x="201.87" default-y="5.00" dynamics="88.89">
    <pitch>
     <step>G</step>
     <alter>-1</alter>
     <octave>5</octave>
    </pitch>
    <duration>3</duration>
    <voice>1</voice>
    <type>16th</type>
    <accidental>flat</accidental>
    <beam number="1">continue</beam>
    <beam number="2">continue</beam>
   </note>
   <note default-x="229.96" default-y="15.00" dynamics="88.89">
    <pitch>
     <step>B</step>
     <alter>-1</alter>
     <octave>5</octave>
    </pitch>
    <duration>3</duration>
    <voice>1</voice>
    <type>16th</type>
    <beam number="1">continue</beam>
    <beam number="2">continue</beam>
   </note>
   <note default-x="258.05" default-y="5.00" dynamics="88.89">
    <pitch>
     <step>G</step>
     <alter>-1</alter>
     <octave>5</octave>
    </pitch>
    <duration>3</duration>
    <voice>1</voice>
    <type>16th</type>
    <beam number="1">end</beam>
    <beam number="2">end</beam>
   </note>
   <note default-x="286.15" default-y="30.00" dynamics="88.89">
    <pitch>
     <step>E</step>
     <alter>-1</alter>
     <octave>6</octave>
    </pitch>
    <duration>9</duration>
    <voice>1</voice>
    <type>eighth</type>
    <dot/>
    <beam number="1">begin</beam>
   </note>
   <note default-x="340.95" default-y="25.00" dynamics="88.89">
    <pitch>
     <step>D</step>
     <alter>-1</alter>
     <octave>6</octave>
    </pitch>
    <duration>3</duration>
    <voice>1</voice>
    <type>16th</type>
    <accidental>flat</accidental>
    <beam number="1">end</beam>
    <beam number="2">backward hook</beam>
   </note>
   <backup>
    <duration>48</duration>
   </backup>
   <forward>
    <duration>48</duration>
    <voice>2</voice>
   </forward>
  </measure>
  <measure number="10" width="622.82">
   <note default-x="104.27" default-y="20.00" dynamics="88.89">
    <pitch>
     <step>C</step>
     <octave>6</octave>
    </pitch>
    <duration>3</duration>
    <voice>1</voice>
    <type>16th</type>
    <beam number="1">begin</beam>
    <beam number="2">begin</beam>
   </note>
   <note default-x="136.55" default-y="45.00" dynamics="88.89">
    <pitch>
     <step>A</step>
     <alter>-1</alter>
     <octave>6</octave>
    </pitch>
    <duration>3</duration>
    <voice>1</voice>
    <type>16th</type>
    <beam number="1">continue</beam>
    <beam number="2">continue</beam>
   </note>
   <note default-x="169.32" default-y="40.00" dynamics="88.89">
    <pitch>
     <step>G</step>
     <alter>-1</alter>
     <octave>6</octave>
    </pitch>
    <duration>3</duration>
    <voice>1</voice>
    <type>16th</type>
    <accidental>flat</accidental>
    <beam number="1">continue</beam>
    <beam number="2">continue</beam>
   </note>
   <note default-x="201.60" default-y="30.00" dynamics="88.89">
    <pitch>
     <step>E</step>
     <alter>-1</alter>
     <octave>6</octave>
    </pitch>
    <duration>3</duration>
    <voice>1</voice>
    <type>16th</type>
    <beam number="1">end</beam>
    <beam number="2">end</beam>
   </note>
   <note default-x="233.88" default-y="20.00" dynamics="88.89">
    <pitch>
     <step>C</step>
     <octave>6</octave>
    </pitch>
    <duration>3</duration>
    <voice>1</voice>
    <type>16th</type>
    <beam number="1">begin</beam>
    <beam number="2">begin</beam>
   </note>
   <note default-x="266.16" default-y="10.00" dynamics="88.89">
    <pitch>
     <step>A</step>
     <alter>-1</alter>
     <octave>5</octave>
    </pitch>
    <duration>3</duration>
    <voice>1</voice>
    <type>16th</type>
    <beam number="1">continue</beam>
    <beam number="2">continue</beam>
   </note>
   <note default-x="298.44" default-y="5.00" dynamics="88.89">
    <pitch>
     <step>G</step>
     <alter>-1</alter>
     <octave>5</octave>
    </pitch>
    <duration>3</duration>
    <voice>1</voice>
    <type>16th</type>
    <accidental>flat</accidental>
    <beam number="1">continue</beam>
    <beam number="2">continue</beam>
   </note>
   <note default-x="330.71" default-y="-5.00" dynamics="88.89">
    <pitch>
     <step>E</step>
     <alter>-1</alter>
     <octave>5</octave>
    </pitch>
    <duration>3</duration>
    <voice>1</voice>
    <type>16th</type>
    <beam number="1">end</beam>
    <beam number="2">end</beam>
   </note>
   <note default-x="362.99" default-y="-30.00" dynamics="88.89">
    <pitch>
     <step>G</step>
     <alter>-1</alter>
     <octave>4</octave>
    </pitch>
    <duration>3</duration>
    <voice>1</voice>
    <type>16th</type>
    <accidental>flat</accidental>
    <beam number="1">begin</beam>
    <beam number="2">begin</beam>
   </note>
   <note default-x="362.99" default-y="-15.00" dynamics="88.89">
    <chord/>
    <pitch>
     <step>C</step>
     <octave>5</octave>
    </pitch>
    <duration>3</duration>
    <voice>1</voice>
    <type>16th</type>
   </note>
   <note default-x="395.27" default-y="-25.00" dynamics="88.89">
    <pitch>
     <step>A</step>
     <alter>-1</alter>
     <octave>4</octave>
    </pitch>
    <duration>3</duration>
    <voice>1</voice>
    <type>16th</type>
    <beam number="1">continue</beam>
    <beam number="2">continue</beam>
   </note>
   <note default-x="427.55" default-y="-30.00" dynamics="88.89">
    <pitch>
     <step>G</step>
     <alter>-1</alter>
     <octave>4</octave>
    </pitch>
    <duration>3</duration>
    <voice>1</voice>
    <type>16th</type>
    <beam number="1">continue</beam>
    <beam number="2">continue</beam>
   </note>
   <note default-x="459.83" default-y="-40.00" dynamics="88.89">
    <pitch>
     <step>E</step>
     <alter>-1</alter>
     <octave>4</octave>
    </pitch>
    <duration>3</duration>
    <voice>1</voice>
    <type>16th</type>
    <beam number="1">end</beam>
    <beam number="2">end</beam>
   </note>
   <note default-x="492.11" default-y="-50.00" dynamics="88.89">
    <pitch>
     <step>C</step>
     <octave>4</octave>
    </pitch>
    <duration>3</duration>
    <voice>1</voice>
    <type>16th</type>
    <beam number="1">begin</beam>
    <beam number="2">begin</beam>
   </note>
   <note default-x="524.39" default-y="-60.00" dynamics="88.89">
    <pitch>
     <step>A</step>
     <alter>-1</alter>
     <octave>3</octave>
    </pitch>
    <duration>3</duration>
    <voice>1</voice>
    <type>16th</type>
    <beam number="1">continue</beam>
    <beam number="2">continue</beam>
   </note>
   <note default-x="556.66" default-y="-65.00" dynamics="88.89">
    <pitch>
     <step>G</step>
     <octave>3</octave>
    </pitch>
    <duration>3</duration>
    <voice>1</voice>
    <type>16th</type>
    <beam number="1">continue</beam>
    <beam number="2">continue</beam>
   </note>
   <note default-x="588.94" default-y="-60.00" dynamics="88.89">
    <pitch>
     <step>A</step>
     <alter>-1</alter>
     <octave>3</octave>
    </pitch>
    <duration>3</duration>
    <voice>1</voice>
    <type>16th</type>
    <beam number="1">end</beam>
    <beam number="2">end</beam>
   </note>
   <backup>
    <duration>48</duration>
   </backup>
   <forward>
    <duration>48</duration>
    <voice>2</voice>
   </forward>
  </measure>
  <measure number="11" width="454.34">
   <direction placement="above">
    <direction-type>
     <metronome parentheses="no" relative-y="20.00">
      <beat-unit>quarter</beat-unit>
      <per-minute>108</per-minute>
     </metronome>
    </direction-type>
    <sound tempo="108"/>
   </direction>
   <note default-x="13.80" default-y="-55.00" dynamics="88.89">
    <pitch>
     <step>B</step>
     <alter>-1</alter>
     <octave>3</octave>
    </pitch>
    <duration>3</duration>
    <voice>1</voice>
    <type>16th</type>
    <beam number="1">begin</beam>
    <beam number="2">begin</beam>
   </note>
   <note default-x="43.06" default-y="-60.00" dynamics="88.89">
    <pitch>
     <step>A</step>
     <alter>-1</alter>
     <octave>3</octave>
    </pitch>
    <duration>3</duration>
    <voice>1</voice>
    <type>16th</type>
    <beam number="1">continue</beam>
    <beam number="2">continue</beam>
   </note>
   <note default-x="72.32" default-y="-65.00" dynamics="88.89">
    <pitch>
     <step>G</step>
     <octave>3</octave>
    </pitch>
    <duration>3</duration>
    <voice>1</voice>
    <type>16th</type>
    <beam number="1">continue</beam>
    <beam number="2">continue</beam>
   </note>
   <note default-x="101.57" default-y="-60.00" dynamics="88.89">
    <pitch>
     <step>A</step>
     <alter>-1</alter>
     <octave>3</octave>
    </pitch>
    <duration>3</duration>
    <voice>1</voice>
    <type>16th</type>
    <beam number="1">end</beam>
    <beam number="2">end</beam>
   </note>
   <note default-x="130.83" default-y="-35.00" dynamics="88.89">
    <pitch>
     <step>F</step>
     <octave>4</octave>
    </pitch>
    <duration>9</duration>
    <voice>1</voice>
    <type>eighth</type>
    <dot/>
    <beam number="1">begin</beam>
   </note>
   <direction placement="above">
    <direction-type>
     <metronome parentheses="no" relative-y="20.00">
      <beat-unit>quarter</beat-unit>
      <per-minute>105</per-minute>
     </metronome>
    </direction-type>
    <sound tempo="105"/>
   </direction>
   <note default-x="187.91" default-y="-65.00" dynamics="88.89">
    <pitch>
     <step>G</step>
     <alter>-1</alter>
     <octave>3</octave>
    </pitch>
    <duration>3</duration>
    <voice>1</voice>
    <type>16th</type>
    <accidental>flat</accidental>
    <beam number="1">end</beam>
    <beam number="2">backward hook</beam>
   </note>
   <note default-x="187.91" default-y="-40.00" dynamics="88.89">
    <chord/>
    <pitch>
     <step>E</step>
     <alter>-1</alter>
     <octave>4</octave>
    </pitch>
    <duration>3</duration>
    <voice>1</voice>
    <type>16th</type>
   </note>
   <note default-x="218.68" default-y="-45.00" dynamics="88.89">
    <pitch>
     <step>D</step>
     <alter>-1</alter>
     <octave>4</octave>
    </pitch>
    <duration>6</duration>
    <voice>1</voice>
    <type>eighth</type>
    <accidental>flat</accidental>
    <beam number="1">begin</beam>
   </note>
   <note default-x="277.20" default-y="-60.00" dynamics="88.89">
    <pitch>
     <step>A</step>
     <alter>-1</alter>
     <octave>3</octave>
    </pitch>
    <duration>3</duration>
    <voice>1</voice>
    <type>16th</type>
    <beam number="1">continue</beam>
    <beam number="2">begin</beam>
   </note>
   <note default-x="306.45" default-y="-45.00" dynamics="88.89">
    <pitch>
     <step>D</step>
     <alter>-1</alter>
     <octave>4</octave>
    </pitch>
    <duration>3</duration>
    <voice>1</voice>
    <type>16th</type>
    <beam number="1">end</beam>
    <beam number="2">end</beam>
   </note>
   <note default-x="335.71" default-y="-35.00" dynamics="88.89">
    <pitch>
     <step>F</step>
     <octave>4</octave>
    </pitch>
    <duration>3</duration>
    <voice>1</voice>
    <type>16th</type>
    <beam number="1">begin</beam>
    <beam number="2">forward hook</beam>
   </note>
   <note default-x="364.97" default-y="-25.00" dynamics="88.89">
    <pitch>
     <step>A</step>
     <alter>-1</alter>
     <octave>4</octave>
    </pitch>
    <duration>6</duration>
    <voice>1</voice>
    <type>eighth</type>
    <beam number="1">continue</beam>
   </note>
   <note default-x="423.49" default-y="0.00" dynamics="88.89">
    <pitch>
     <step>F</step>
     <octave>5</octave>
    </pitch>
    <duration>3</duration>
    <voice>1</voice>
    <type>16th</type>
    <beam number="1">end</beam>
    <beam number="2">backward hook</beam>
   </note>
   <backup>
    <duration>48</duration>
   </backup>
   <forward>
    <duration>24</duration>
    <voice>2</voice>
   </forward>
   <forward>
    <duration>12</duration>
    <voice>2</voice>
   </forward>
   <forward>
    <duration>6</duration>
    <voice>2</voice>
   </forward>
   <note default-x="394.23" default-y="-115.00" dynamics="88.89">
    <pitch>
     <step>D</step>
     <alter>-1</alter>
     <octave>5</octave>
    </pitch>
    <duration>6</duration>
    <tie type="start"/>
    <voice>2</voice>
    <type>eighth</type>
    <accidental>flat</accidental>
    <notations>
     <tied type="start"/>
    </notations>
   </note>
  </measure>
  <measure number="12" width="432.53">
   <note default-x="113.78" default-y="10.00" dynamics="88.89">
    <pitch>
     <step>A</step>
     <alter>-1</alter>
     <octave>5</octave>
    </pitch>
    <duration>3</duration>
    <voice>1</voice>
    <type>16th</type>
    <beam number="1">begin</beam>
    <beam number="2">begin</beam>
   </note>
   <note default-x="144.71" default-y="25.00" dynamics="88.89">
    <pitch>
     <step>D</step>
     <alter>-1</alter>
     <octave>6</octave>
    </pitch>
    <duration>3</duration>
    <voice>1</voice>
    <type>16th</type>
    <accidental>flat</accidental>
    <beam number="1">continue</beam>
    <beam number="2">continue</beam>
   </note>
   <direction placement="above">
    <direction-type>
     <metronome parentheses="no" default-y="63.91" relative-y="20.00">
      <beat-unit>quarter</beat-unit>
      <per-minute>101</per-minute>
     </metronome>
    </direction-type>
    <sound tempo="101"/>
   </direction>
   <note default-x="169.35" default-y="35.00" dynamics="88.89">
    <pitch>
     <step>F</step>
     <octave>6</octave>
    </pitch>
    <duration>3</duration>
    <voice>1</voice>
    <type>16th</type>
    <beam number="1">continue</beam>
    <beam number="2">continue</beam>
   </note>
   <direction placement="above">
    <direction-type>
     <metronome parentheses="no" default-y="85.72" relative-y="20.00">
      <beat-unit>quarter</beat-unit>
      <per-minute>98</per-minute>
     </metronome>
    </direction-type>
    <sound tempo="97.9998"/>
   </direction>
   <note default-x="193.99" default-y="45.00" dynamics="88.89">
    <pitch>
     <step>A</step>
     <alter>-1</alter>
     <octave>6</octave>
    </pitch>
    <duration>3</duration>
    <voice>1</voice>
    <type>16th</type>
    <beam number="1">end</beam>
    <beam number="2">end</beam>
   </note>
   <direction placement="above">
    <direction-type>
     <metronome parentheses="no" default-y="107.54" relative-y="20.00">
      <beat-unit>quarter</beat-unit>
      <per-minute>95</per-minute>
     </metronome>
    </direction-type>
    <sound tempo="94.9998"/>
   </direction>
   <note default-x="225.29" default-y="60.00" dynamics="88.89">
    <pitch>
     <step>D</step>
     <alter>-1</alter>
     <octave>7</octave>
    </pitch>
    <duration>24</duration>
    <voice>1</voice>
    <type>half</type>
    <accidental>flat</accidental>
   </note>
   <direction placement="above">
    <direction-type>
     <metronome parentheses="no" relative-y="20.00">
      <beat-unit>quarter</beat-unit>
      <per-minute>92</per-minute>
     </metronome>
    </direction-type>
    <sound tempo="91.9998"/>
   </direction>
   <note>
    <rest/>
    <duration>6</duration>
    <voice>1</voice>
    <type>eighth</type>
   </note>
   <note>
    <rest/>
    <duration>3</duration>
    <voice>1</voice>
    <type>16th</type>
   </note>
   <direction placement="above">
    <direction-type>
     <metronome parentheses="no" relative-y="20.00">
      <beat-unit>quarter</beat-unit>
      <per-minute>95</per-minute>
     </metronome>
    </direction-type>
    <sound tempo="94.9998"/>
   </direction>
   <note default-x="398.13" default-y="-35.00" dynamics="88.89">
    <pitch>
     <step>F</step>
     <octave>4</octave>
    </pitch>
    <duration>3</duration>
    <tie type="start"/>
    <voice>1</voice>
    <type>16th</type>
    <notations>
     <tied type="start"/>
    </notations>
   </note>
   <backup>
    <duration>48</duration>
   </backup>
   <note default-x="110.46" default-y="-115.00" dynamics="88.89">
    <pitch>
     <step>D</step>
     <alter>-1</alter>
     <octave>5</octave>
    </pitch>
    <duration>48</duration>
    <tie type="stop"/>
    <voice>2</voice>
    <type>whole</type>
    <notations>
     <tied type="stop"/>
    </notations>
   </note>
  </measure>
  <measure number="13" width="325.20">
   <direction placement="above">
    <direction-type>
     <metronome parentheses="no" default-y="21.82" relative-y="20.00">
      <beat-unit>quarter</beat-unit>
      <per-minute>98</per-minute>
     </metronome>
    </direction-type>
    <sound tempo="97.9998"/>
   </direction>
   <note default-x="13.80" default-y="-35.00" dynamics="88.89">
    <pitch>
     <step>F</step>
     <octave>4</octave>
    </pitch>
    <duration>12</duration>
    <tie type="stop"/>
    <voice>1</voice>
    <type>quarter</type>
    <notations>
     <tied type="stop"/>
    </notations>
   </note>
   <direction placement="above">
    <direction-type>
     <metronome parentheses="no" default-y="65.46" relative-y="20.00">
      <beat-unit>quarter</beat-unit>
      <per-minute>105</per-minute>
     </metronome>
    </direction-type>
    <sound tempo="105"/>
   </direction>
   <note default-x="84.97" default-y="-45.00" dynamics="88.89">
    <pitch>
     <step>D</step>
     <alter>-1</alter>
     <octave>4</octave>
    </pitch>
    <duration>6</duration>
    <voice>1</voice>
    <type>eighth</type>
    <accidental>flat</accidental>
    <beam number="1">begin</beam>
   </note>
   <note default-x="120.56" default-y="-40.00" dynamics="88.89">
    <pitch>
     <step>E</step>
     <alter>-1</alter>
     <octave>4</octave>
    </pitch>
    <duration>3</duration>
    <voice>1</voice>
    <type>16th</type>
    <beam number="1">continue</beam>
    <beam number="2">begin</beam>
   </note>
   <note default-x="142.80" default-y="-35.00" dynamics="88.89">
    <pitch>
     <step>F</step>
     <octave>4</octave>
    </pitch>
    <duration>3</duration>
    <voice>1</voice>
    <type>16th</type>
    <beam number="1">end</beam>
    <beam number="2">end</beam>
   </note>
   <note default-x="165.05" default-y="-45.00" dynamics="88.89">
    <pitch>
     <step>D</step>
     <alter>-1</alter>
     <octave>4</octave>
    </pitch>
    <duration>3</duration>
    <voice>1</voice>
    <type>16th</type>
    <beam number="1">begin</beam>
    <beam number="2">begin</beam>
   </note>
   <note default-x="165.05" default-y="-30.00" dynamics="88.89">
    <chord/>
    <pitch>
     <step>G</step>
     <octave>4</octave>
    </pitch>
    <duration>3</duration>
    <voice>1</voice>
    <type>16th</type>
   </note>
   <note default-x="187.29" default-y="-25.00" dynamics="88.89">
    <pitch>
     <step>A</step>
     <alter>-1</alter>
     <octave>4</octave>
    </pitch>
    <duration>3</duration>
    <voice>1</voice>
    <type>16th</type>
    <beam number="1">continue</beam>
    <beam number="2">continue</beam>
   </note>
   <note default-x="209.53" default-y="-20.00" dynamics="88.89">
    <pitch>
     <step>B</step>
     <alter>-1</alter>
     <octave>4</octave>
    </pitch>
    <duration>3</duration>
    <voice>1</voice>
    <type>16th</type>
    <beam number="1">continue</beam>
    <beam number="2">continue</beam>
   </note>
   <note default-x="231.77" default-y="-15.00" dynamics="88.89">
    <pitch>
     <step>C</step>
     <octave>5</octave>
    </pitch>
    <duration>3</duration>
    <tie type="start"/>
    <voice>1</voice>
    <type>16th</type>
    <beam number="1">end</beam>
    <beam number="2">end</beam>
    <notations>
     <tied type="start"/>
    </notations>
   </note>
   <note default-x="257.04" default-y="-15.00" dynamics="88.89">
    <pitch>
     <step>C</step>
     <octave>5</octave>
    </pitch>
    <duration>9</duration>
    <tie type="stop"/>
    <voice>1</voice>
    <type>eighth</type>
    <dot/>
    <notations>
     <tied type="stop"/>
    </notations>
   </note>
   <note>
    <rest/>
    <duration>3</duration>
    <voice>1</voice>
    <type>16th</type>
   </note>
   <backup>
    <duration>48</duration>
   </backup>
   <forward>
    <duration>48</duration>
    <voice>2</voice>
   </forward>
   <backup>
    <duration>42</duration>
   </backup>
   <direction placement="above">
    <direction-type>
     <metronome parentheses="no" default-y="43.64" relative-y="20.00">
      <beat-unit>quarter</beat-unit>
      <per-minute>101</per-minute>
     </metronome>
    </direction-type>
    <sound tempo="101"/>
   </direction>
   <forward>
    <duration>42</duration>
   </forward>
  </measure>
 </part>
 <part id="P3">
  <measure number="1" width="382.95">
   <attributes>
    <divisions>12</divisions>
    <key>
     <fifths>-3</fifths>
    </key>
    <time>
     <beats>4</beats>
     <beat-type>4</beat-type>
    </time>
    <clef>
     <sign>F</sign>
     <line>4</line>
    </clef>
   </attributes>
   <note default-x="134.87" default-y="-254.58" dynamics="88.89">
    <pitch>
     <step>A</step>
     <alter>-1</alter>
     <octave>2</octave>
    </pitch>
    <duration>24</duration>
    <voice>1</voice>
    <type>half</type>
   </note>
   <note default-x="134.87" default-y="-239.58" dynamics="88.89">
    <chord/>
    <pitch>
     <step>D</step>
     <alter>-1</alter>
     <octave>3</octave>
    </pitch>
    <duration>24</duration>
    <voice>1</voice>
    <type>half</type>
    <accidental>flat</accidental>
   </note>
   <note default-x="230.62" default-y="-274.58" dynamics="88.89">
    <pitch>
     <step>D</step>
     <alter>-1</alter>
     <octave>2</octave>
    </pitch>
    <duration>12</duration>
    <voice>1</voice>
    <type>quarter</type>
    <accidental>flat</accidental>
   </note>
   <note default-x="230.62" default-y="-254.58" dynamics="88.89">
    <chord/>
    <pitch>
     <step>A</step>
     <alter>-1</alter>
     <octave>2</octave>
    </pitch>
    <duration>12</duration>
    <voice>1</voice>
    <type>quarter</type>
   </note>
   <note default-x="230.62" default-y="-239.58" dynamics="88.89">
    <chord/>
    <pitch>
     <step>D</step>
     <alter>-1</alter>
     <octave>3</octave>
    </pitch>
    <duration>12</duration>
    <voice>1</voice>
    <type>quarter</type>
   </note>
   <note>
    <rest/>
    <duration>12</duration>
    <voice>1</voice>
    <type>quarter</type>
   </note>
   <backup>
    <duration>48</duration>
   </backup>
   <note default-x="134.87" default-y="-379.58" dynamics="88.89">
    <pitch>
     <step>D</step>
     <alter>-1</alter>
     <octave>2</octave>
    </pitch>
    <duration>24</duration>
    <voice>2</voice>
    <type>half</type>
    <accidental>flat</accidental>
   </note>
   <forward>
    <duration>12</duration>
    <voice>2</voice>
   </forward>
   <note default-x="281.17" default-y="-359.58" dynamics="88.89">
    <pitch>
     <step>A</step>
     <alter>-1</alter>
     <octave>2</octave>
    </pitch>
    <duration>12</duration>
    <tie type="start"/>
    <voice>2</voice>
    <type>quarter</type>
    <notations>
     <tied type="start"/>
    </notations>
   </note>
   <note default-x="281.17" default-y="-344.58" dynamics="88.89">
    <chord/>
    <pitch>
     <step>D</step>
     <alter>-1</alter>
     <octave>3</octave>
    </pitch>
    <duration>12</duration>
    <tie type="start"/>
    <voice>2</voice>
    <type>quarter</type>
    <accidental>flat</accidental>
    <notations>
     <tied type="start"/>
    </notations>
   </note>
  </measure>
  <measure number="2" width="260.37">
   <note>
    <rest/>
    <duration>12</duration>
    <voice>1</voice>
    <type>quarter</type>
   </note>
   <note default-x="115.82" default-y="-219.58" dynamics="88.89">
    <pitch>
     <step>A</step>
     <alter>-1</alter>
     <octave>3</octave>
    </pitch>
    <duration>12</duration>
    <voice>1</voice>
    <type>quarter</type>
   </note>
   <note default-x="115.82" default-y="-204.58" dynamics="88.89">
    <chord/>
    <pitch>
     <step>D</step>
     <alter>-1</alter>
     <octave>4</octave>
    </pitch>
    <duration>12</duration>
    <voice>1</voice>
    <type>quarter</type>
    <accidental>flat</accidental>
   </note>
   <note default-x="115.82" default-y="-194.58" dynamics="88.89">
    <chord/>
    <pitch>
     <step>F</step>
     <octave>4</octave>
    </pitch>
    <duration>12</duration>
    <voice>1</voice>
    <type>quarter</type>
   </note>
   <note default-x="164.98" default-y="-219.58" dynamics="88.89">
    <pitch>
     <step>A</step>
     <alter>-1</alter>
     <octave>3</octave>
    </pitch>
    <duration>24</duration>
    <voice>1</voice>
    <type>half</type>
   </note>
   <note default-x="164.98" default-y="-204.58" dynamics="88.89">
    <chord/>
    <pitch>
     <step>D</step>
     <alter>-1</alter>
     <octave>4</octave>
    </pitch>
    <duration>24</duration>
    <voice>1</voice>
    <type>half</type>
   </note>
   <backup>
    <duration>48</duration>
   </backup>
   <note default-x="10.58" default-y="-359.58" dynamics="88.89">
    <pitch>
     <step>A</step>
     <alter>-1</alter>
     <octave>2</octave>
    </pitch>
    <duration>24</duration>
    <tie type="stop"/>
    <voice>2</voice>
    <type>half</type>
    <notations>
     <tied type="stop"/>
    </notations>
   </note>
   <note default-x="10.58" default-y="-344.58" dynamics="88.89">
    <chord/>
    <pitch>
     <step>D</step>
     <alter>-1</alter>
     <octave>3</octave>
    </pitch>
    <duration>24</duration>
    <tie type="stop"/>
    <voice>2</voice>
    <type>half</type>
    <notations>
     <tied type="stop"/>
    </notations>
   </note>
   <note default-x="164.98" default-y="-344.58" dynamics="88.89">
    <pitch>
     <step>D</step>
     <alter>-1</alter>
     <octave>3</octave>
    </pitch>
    <duration>24</duration>
    <voice>2</voice>
    <type>half</type>
    <accidental>flat</accidental>
   </note>
  </measure>
  <measure number="3" width="305.09">
   <note default-x="18.27" default-y="-239.58" dynamics="88.89">
    <pitch>
     <step>D</step>
     <alter>-1</alter>
     <octave>3</octave>
    </pitch>
    <duration>12</duration>
    <voice>1</voice>
    <type>quarter</type>
    <accidental>flat</accidental>
   </note>
   <note default-x="18.27" default-y="-219.58" dynamics="88.89">
    <chord/>
    <pitch>
     <step>A</step>
     <alter>-1</alter>
     <octave>3</octave>
    </pitch>
    <duration>12</duration>
    <voice>1</voice>
    <type>quarter</type>
   </note>
   <note default-x="18.27" default-y="-204.58" dynamics="88.89">
    <chord/>
    <pitch>
     <step>D</step>
     <alter>-1</alter>
     <octave>4</octave>
    </pitch>
    <duration>12</duration>
    <voice>1</voice>
    <type>quarter</type>
    <accidental>flat</accidental>
   </note>
   <note default-x="66.90" default-y="-204.58" dynamics="88.89">
    <pitch>
     <step>D</step>
     <alter>-1</alter>
     <octave>4</octave>
    </pitch>
    <duration>12</duration>
    <voice>1</voice>
    <type>quarter</type>
   </note>
   <note>
    <rest/>
    <duration>12</duration>
    <voice>1</voice>
    <type>quarter</type>
   </note>
   <note default-x="254.87" default-y="-184.58" dynamics="88.89">
    <pitch>
     <step>A</step>
     <alter>-1</alter>
     <octave>4</octave>
    </pitch>
    <duration>12</duration>
    <tie type="start"/>
    <voice>1</voice>
    <type>quarter</type>
    <notations>
     <tied type="start"/>
    </notations>
   </note>
   <note default-x="254.87" default-y="-169.58" dynamics="88.89">
    <chord/>
    <pitch>
     <step>D</step>
     <alter>-1</alter>
     <octave>5</octave>
    </pitch>
    <duration>12</duration>
    <tie type="start"/>
    <voice>1</voice>
    <type>quarter</type>
    <accidental>flat</accidental>
    <notations>
     <tied type="start"/>
    </notations>
   </note>
   <note default-x="254.87" default-y="-159.58" dynamics="88.89">
    <chord/>
    <pitch>
     <step>F</step>
     <octave>5</octave>
    </pitch>
    <duration>12</duration>
    <tie type="start"/>
    <voice>1</voice>
    <type>quarter</type>
    <notations>
     <tied type="start"/>
    </notations>
   </note>
   <backup>
    <duration>48</duration>
   </backup>
   <forward>
    <duration>12</duration>
    <voice>2</voice>
   </forward>
   <note default-x="66.53" default-y="-344.58" dynamics="88.89">
    <pitch>
     <step>D</step>
     <alter>-1</alter>
     <octave>3</octave>
    </pitch>
    <duration>36</duration>
    <voice>2</voice>
    <type>half</type>
    <dot/>
    <accidental>flat</accidental>
   </note>
   <note default-x="66.53" default-y="-324.58" dynamics="88.89">
    <chord/>
    <pitch>
     <step>A</step>
     <alter>-1</alter>
     <octave>3</octave>
    </pitch>
    <duration>36</duration>
    <voice>2</voice>
    <type>half</type>
    <dot/>
   </note>
  </measure>
  <measure number="4" width="359.17">
   <note default-x="111.78" default-y="-184.48" dynamics="88.89">
    <pitch>
     <step>A</step>
     <alter>-1</alter>
     <octave>4</octave>
    </pitch>
    <duration>36</duration>
    <tie type="stop"/>
    <voice>1</voice>
    <type>half</type>
    <dot/>
    <notations>
     <tied type="stop"/>
    </notations>
   </note>
   <note default-x="111.78" default-y="-169.48" dynamics="88.89">
    <chord/>
    <pitch>
     <step>D</step>
     <alter>-1</alter>
     <octave>5</octave>
    </pitch>
    <duration>36</duration>
    <tie type="stop"/>
    <voice>1</voice>
    <type>half</type>
    <dot/>
    <notations>
     <tied type="stop"/>
    </notations>
   </note>
   <note default-x="111.78" default-y="-159.48" dynamics="88.89">
    <chord/>
    <pitch>
     <step>F</step>
     <octave>5</octave>
    </pitch>
    <duration>36</duration>
    <tie type="stop"/>
    <voice>1</voice>
    <type>half</type>
    <dot/>
    <notations>
     <tied type="stop"/>
    </notations>
   </note>
   <note default-x="253.21" default-y="-234.48" dynamics="88.89">
    <pitch>
     <step>E</step>
     <alter>-1</alter>
     <octave>3</octave>
    </pitch>
    <duration>12</duration>
    <tie type="start"/>
    <voice>1</voice>
    <type>quarter</type>
    <notations>
     <tied type="start"/>
    </notations>
   </note>
   <note default-x="253.21" default-y="-224.48" dynamics="88.89">
    <chord/>
    <pitch>
     <step>G</step>
     <alter>-1</alter>
     <octave>3</octave>
    </pitch>
    <duration>12</duration>
    <tie type="start"/>
    <voice>1</voice>
    <type>quarter</type>
    <accidental>flat</accidental>
    <notations>
     <tied type="start"/>
    </notations>
   </note>
   <backup>
    <duration>48</duration>
   </backup>
   <note default-x="111.78" default-y="-359.48" dynamics="88.89">
    <pitch>
     <step>A</step>
     <alter>-1</alter>
     <octave>2</octave>
    </pitch>
    <duration>24</duration>
    <voice>2</voice>
    <type>half</type>
   </note>
   <note default-x="111.78" default-y="-349.48" dynamics="88.89">
    <chord/>
    <pitch>
     <step>C</step>
     <octave>3</octave>
    </pitch>
    <duration>24</duration>
    <voice>2</voice>
    <type>half</type>
   </note>
   <note default-x="111.78" default-y="-329.48" dynamics="88.89">
    <chord/>
    <pitch>
     <step>G</step>
     <alter>-1</alter>
     <octave>3</octave>
    </pitch>
    <duration>24</duration>
    <voice>2</voice>
    <type>half</type>
    <accidental>flat</accidental>
   </note>
   <note default-x="180.82" default-y="-359.48" dynamics="88.89">
    <pitch>
     <step>A</step>
     <alter>-1</alter>
     <octave>2</octave>
    </pitch>
    <duration>9</duration>
    <voice>2</voice>
    <type>eighth</type>
    <dot/>
    <beam number="1">begin</beam>
   </note>
   <note default-x="180.82" default-y="-329.48" dynamics="88.89">
    <chord/>
    <pitch>
     <step>G</step>
     <alter>-1</alter>
     <octave>3</octave>
    </pitch>
    <duration>9</duration>
    <voice>2</voice>
    <type>eighth</type>
    <dot/>
   </note>
   <note default-x="228.68" default-y="-339.48" dynamics="88.89">
    <pitch>
     <step>E</step>
     <alter>-1</alter>
     <octave>3</octave>
    </pitch>
    <duration>3</duration>
    <voice>2</voice>
    <type>16th</type>
    <beam number="1">end</beam>
    <beam number="2">backward hook</beam>
   </note>
   <note default-x="253.21" default-y="-359.48" dynamics="88.89">
    <pitch>
     <step>A</step>
     <alter>-1</alter>
     <octave>2</octave>
    </pitch>
    <duration>12</duration>
    <tie type="start"/>
    <voice>2</voice>
    <type>quarter</type>
    <notations>
     <tied type="start"/>
    </notations>
   </note>
  </measure>
  <measure number="5" width="341.59">
   <note default-x="13.44" default-y="-234.48" dynamics="88.89">
    <pitch>
     <step>E</step>
     <alter>-1</alter>
     <octave>3</octave>
    </pitch>
    <duration>24</duration>
    <tie type="stop"/>
    <voice>1</voice>
    <type>half</type>
    <notations>
     <tied type="stop"/>
    </notations>
   </note>
   <note default-x="13.44" default-y="-224.48" dynamics="88.89">
    <chord/>
    <pitch>
     <step>G</step>
     <alter>-1</alter>
     <octave>3</octave>
    </pitch>
    <duration>24</duration>
    <tie type="stop"/>
    <voice>1</voice>
    <type>half</type>
    <notations>
     <tied type="stop"/>
    </notations>
   </note>
   <note default-x="256.17" default-y="-274.48" dynamics="88.89">
    <pitch>
     <step>D</step>
     <alter>-1</alter>
     <octave>2</octave>
    </pitch>
    <duration>24</duration>
    <voice>1</voice>
    <type>half</type>
    <accidental>flat</accidental>
   </note>
   <note default-x="256.17" default-y="-254.48" dynamics="88.89">
    <chord/>
    <pitch>
     <step>A</step>
     <alter>-1</alter>
     <octave>2</octave>
    </pitch>
    <duration>24</duration>
    <voice>1</voice>
    <type>half</type>
   </note>
   <note default-x="256.17" default-y="-239.48" dynamics="88.89">
    <chord/>
    <pitch>
     <step>D</step>
     <alter>-1</alter>
     <octave>3</octave>
    </pitch>
    <duration>24</duration>
    <voice>1</voice>
    <type>half</type>
    <accidental>flat</accidental>
   </note>
   <backup>
    <duration>48</duration>
   </backup>
   <note default-x="13.80" default-y="-359.48" dynamics="88.89">
    <pitch>
     <step>A</step>
     <alter>-1</alter>
     <octave>2</octave>
    </pitch>
    <duration>12</duration>
    <tie type="stop"/>
    <voice>2</voice>
    <type>quarter</type>
    <notations>
     <tied type="stop"/>
    </notations>
   </note>
   <note default-x="133.02" default-y="-359.48" dynamics="88.89">
    <pitch>
     <step>A</step>
     <alter>-1</alter>
     <octave>2</octave>
    </pitch>
    <duration>12</duration>
    <voice>2</voice>
    <type>quarter</type>
   </note>
   <forward>
    <duration>24</duration>
    <voice>2</voice>
   </forward>
  </measure>
  <measure number="6" width="376.40">
   <note default-x="18.27" default-y="-274.48" dynamics="88.89">
    <pitch>
     <step>D</step>
     <alter>-1</alter>
     <octave>2</octave>
    </pitch>
    <duration>12</duration>
    <voice>1</voice>
    <type>quarter</type>
    <accidental>flat</accidental>
   </note>
   <note default-x="18.27" default-y="-254.48" dynamics="88.89">
    <chord/>
    <pitch>
     <step>A</step>
     <alter>-1</alter>
     <octave>2</octave>
    </pitch>
    <duration>12</duration>
    <voice>1</voice>
    <type>quarter</type>
   </note>
   <note default-x="18.27" default-y="-239.48" dynamics="88.89">
    <chord/>
    <pitch>
     <step>D</step>
     <alter>-1</alter>
     <octave>3</octave>
    </pitch>
    <duration>12</duration>
    <voice>1</voice>
    <type>quarter</type>
    <accidental>flat</accidental>
   </note>
   <note default-x="66.65" default-y="-254.48" dynamics="88.89">
    <pitch>
     <step>A</step>
     <alter>-1</alter>
     <octave>2</octave>
    </pitch>
    <duration>24</duration>
    <voice>1</voice>
    <type>half</type>
   </note>
   <note default-x="66.65" default-y="-239.48" dynamics="88.89">
    <chord/>
    <pitch>
     <step>D</step>
     <alter>-1</alter>
     <octave>3</octave>
    </pitch>
    <duration>24</duration>
    <voice>1</voice>
    <type>half</type>
   </note>
   <note default-x="273.50" default-y="-239.48" dynamics="88.89">
    <pitch>
     <step>D</step>
     <alter>-1</alter>
     <octave>3</octave>
    </pitch>
    <duration>3</duration>
    <voice>1</voice>
    <type>16th</type>
    <beam number="1">begin</beam>
    <beam number="2">forward hook</beam>
   </note>
   <note default-x="299.32" default-y="-254.48" dynamics="88.89">
    <pitch>
     <step>A</step>
     <alter>-1</alter>
     <octave>2</octave>
    </pitch>
    <duration>9</duration>
    <voice>1</voice>
    <type>eighth</type>
    <dot/>
    <beam number="1">end</beam>
   </note>
   <backup>
    <duration>48</duration>
   </backup>
   <forward>
    <duration>12</duration>
    <voice>2</voice>
   </forward>
   <note default-x="66.65" default-y="-379.48" dynamics="88.89">
    <pitch>
     <step>D</step>
     <alter>-1</alter>
     <octave>2</octave>
    </pitch>
    <duration>24</duration>
    <tie type="start"/>
    <voice>2</voice>
    <type>half</type>
    <accidental>flat</accidental>
    <notations>
     <tied type="start"/>
    </notations>
   </note>
   <note default-x="273.50" default-y="-379.48" dynamics="88.89">
    <pitch>
     <step>D</step>
     <alter>-1</alter>
     <octave>2</octave>
    </pitch>
    <duration>6</duration>
    <tie type="stop"/>
    <voice>2</voice>
    <type>eighth</type>
    <beam number="1">begin</beam>
    <notations>
     <tied type="stop"/>
    </notations>
   </note>
   <note default-x="325.13" default-y="-369.48" dynamics="88.89">
    <pitch>
     <step>F</step>
     <octave>2</octave>
    </pitch>
    <duration>2</duration>
    <voice>2</voice>
    <type>16th</type>
    <time-modification>
     <actual-notes>3</actual-notes>
     <normal-notes>2</normal-notes>
     <normal-type>16th</normal-type>
    </time-modification>
    <beam number="1">continue</beam>
    <beam number="2">forward hook</beam>
    <notations>
     <tuplet type="start" bracket="no"/>
    </notations>
   </note>
   <note default-x="344.23" default-y="-359.48" dynamics="88.89">
    <pitch>
     <step>A</step>
     <alter>-1</alter>
     <octave>2</octave>
    </pitch>
    <duration>4</duration>
    <voice>2</voice>
    <type>eighth</type>
    <time-modification>
     <actual-notes>3</actual-notes>
     <normal-notes>2</normal-notes>
     <normal-type>16th</normal-type>
    </time-modification>
    <beam number="1">end</beam>
    <notations>
     <tuplet type="stop"/>
    </notations>
   </note>
  </measure>
  <measure number="7" width="424.76">
   <note default-x="103.91" default-y="-255.00" dynamics="88.89">
    <pitch>
     <step>F</step>
     <octave>2</octave>
    </pitch>
    <duration>24</duration>
    <voice>1</voice>
    <type>half</type>
   </note>
   <note default-x="103.91" default-y="-245.00" dynamics="88.89">
    <chord/>
    <pitch>
     <step>A</step>
     <alter>-1</alter>
     <octave>2</octave>
    </pitch>
    <duration>24</duration>
    <voice>1</voice>
    <type>half</type>
   </note>
   <note default-x="239.66" default-y="-255.00" dynamics="88.89">
    <pitch>
     <step>F</step>
     <octave>2</octave>
    </pitch>
    <duration>12</duration>
    <voice>1</voice>
    <type>quarter</type>
   </note>
   <note default-x="239.66" default-y="-240.00" dynamics="88.89">
    <chord/>
    <pitch>
     <step>B</step>
     <alter>-1</alter>
     <octave>2</octave>
    </pitch>
    <duration>12</duration>
    <voice>1</voice>
    <type>quarter</type>
   </note>
   <note default-x="239.66" default-y="-230.00" dynamics="88.89">
    <chord/>
    <pitch>
     <step>D</step>
     <octave>3</octave>
    </pitch>
    <duration>12</duration>
    <voice>1</voice>
    <type>quarter</type>
   </note>
   <note default-x="311.97" default-y="-225.00" dynamics="88.89">
    <pitch>
     <step>E</step>
     <alter>-1</alter>
     <octave>3</octave>
    </pitch>
    <duration>12</duration>
    <voice>1</voice>
    <type>quarter</type>
   </note>
   <backup>
    <duration>48</duration>
   </backup>
   <forward>
    <duration>24</duration>
    <voice>2</voice>
   </forward>
   <forward>
    <duration>12</duration>
    <voice>2</voice>
   </forward>
   <note default-x="311.97" default-y="-345.00" dynamics="88.89">
    <pitch>
     <step>B</step>
     <alter>-1</alter>
     <octave>2</octave>
    </pitch>
    <duration>12</duration>
    <tie type="start"/>
    <voice>2</voice>
    <type>quarter</type>
    <notations>
     <tied type="start"/>
    </notations>
   </note>
  </measure>
  <measure number="8" width="281.76">
   <note>
    <rest/>
    <duration>12</duration>
    <voice>1</voice>
    <type>quarter</type>
   </note>
   <note default-x="116.96" default-y="-215.00" dynamics="88.89">
    <pitch>
     <step>G</step>
     <alter>-1</alter>
     <octave>3</octave>
    </pitch>
    <duration>12</duration>
    <voice>1</voice>
    <type>quarter</type>
    <accidental>flat</accidental>
   </note>
   <note default-x="116.96" default-y="-205.00" dynamics="88.89">
    <chord/>
    <pitch>
     <step>B</step>
     <alter>-1</alter>
     <octave>3</octave>
    </pitch>
    <duration>12</duration>
    <voice>1</voice>
    <type>quarter</type>
   </note>
   <note default-x="173.13" default-y="-240.00" dynamics="88.89">
    <pitch>
     <step>B</step>
     <alter>-1</alter>
     <octave>2</octave>
    </pitch>
    <duration>24</duration>
    <voice>1</voice>
    <type>half</type>
   </note>
   <note default-x="173.13" default-y="-220.00" dynamics="88.89">
    <chord/>
    <pitch>
     <step>F</step>
     <octave>3</octave>
    </pitch>
    <duration>24</duration>
    <voice>1</voice>
    <type>half</type>
   </note>
   <note default-x="173.13" default-y="-205.00" dynamics="88.89">
    <chord/>
    <pitch>
     <step>B</step>
     <alter>-1</alter>
     <octave>3</octave>
    </pitch>
    <duration>24</duration>
    <voice>1</voice>
    <type>half</type>
   </note>
   <backup>
    <duration>48</duration>
   </backup>
   <note default-x="10.58" default-y="-345.00" dynamics="88.89">
    <pitch>
     <step>B</step>
     <alter>-1</alter>
     <octave>2</octave>
    </pitch>
    <duration>24</duration>
    <tie type="stop"/>
    <voice>2</voice>
    <type>half</type>
    <notations>
     <tied type="stop"/>
    </notations>
   </note>
   <forward>
    <duration>24</duration>
    <voice>2</voice>
   </forward>
  </measure>
  <measure number="9" width="370.65">
   <note default-x="10.00" default-y="-240.00" dynamics="88.89">
    <pitch>
     <step>B</step>
     <alter>-1</alter>
     <octave>2</octave>
    </pitch>
    <duration>12</duration>
    <voice>1</voice>
    <type>quarter</type>
   </note>
   <note default-x="10.00" default-y="-220.00" dynamics="88.89">
    <chord/>
    <pitch>
     <step>F</step>
     <octave>3</octave>
    </pitch>
    <duration>12</duration>
    <voice>1</voice>
    <type>quarter</type>
   </note>
   <note default-x="10.00" default-y="-205.00" dynamics="88.89">
    <chord/>
    <pitch>
     <step>B</step>
     <alter>-1</alter>
     <octave>3</octave>
    </pitch>
    <duration>12</duration>
    <voice>1</voice>
    <type>quarter</type>
   </note>
   <note default-x="71.44" default-y="-225.00" dynamics="88.89">
    <pitch>
     <step>E</step>
     <alter>-1</alter>
     <octave>3</octave>
    </pitch>
    <duration>24</duration>
    <voice>1</voice>
    <type>half</type>
   </note>
   <note default-x="286.15" default-y="-215.00" dynamics="88.89">
    <pitch>
     <step>G</step>
     <alter>-1</alter>
     <octave>3</octave>
    </pitch>
    <duration>12</duration>
    <voice>1</voice>
    <type>quarter</type>
    <accidental>flat</accidental>
   </note>
   <note default-x="286.15" default-y="-205.00" dynamics="88.89">
    <chord/>
    <pitch>
     <step>B</step>
     <alter>-1</alter>
     <octave>3</octave>
    </pitch>
    <duration>12</duration>
    <voice>1</voice>
    <type>quarter</type>
   </note>
   <note default-x="286.15" default-y="-190.00" dynamics="88.89">
    <chord/>
    <pitch>
     <step>E</step>
     <alter>-1</alter>
     <octave>4</octave>
    </pitch>
    <duration>12</duration>
    <voice>1</voice>
    <type>quarter</type>
   </note>
   <backup>
    <duration>48</duration>
   </backup>
   <forward>
    <duration>48</duration>
    <voice>2</voice>
   </forward>
  </measure>
  <measure number="10" width="622.82">
   <note default-x="104.27" default-y="-280.00" dynamics="88.89">
    <pitch>
     <step>A</step>
     <alter>-1</alter>
     <octave>1</octave>
    </pitch>
    <duration>12</duration>
    <voice>1</voice>
    <type>quarter</type>
   </note>
   <note default-x="104.27" default-y="-245.00" dynamics="88.89">
    <chord/>
    <pitch>
     <step>A</step>
     <alter>-1</alter>
     <octave>2</octave>
    </pitch>
    <duration>12</duration>
    <voice>1</voice>
    <type>quarter</type>
   </note>
   <note>
    <rest/>
    <duration>12</duration>
    <voice>1</voice>
    <type>quarter</type>
   </note>
   <note default-x="362.99" default-y="-210.00" dynamics="88.89">
    <pitch>
     <step>A</step>
     <alter>-1</alter>
     <octave>3</octave>
    </pitch>
    <duration>12</duration>
    <voice>1</voice>
    <type>quarter</type>
   </note>
   <note default-x="362.99" default-y="-200.00" dynamics="88.89">
    <chord/>
    <pitch>
     <step>C</step>
     <octave>4</octave>
    </pitch>
    <duration>12</duration>
    <voice>1</voice>
    <type>quarter</type>
   </note>
   <note default-x="492.11" default-y="-245.00" dynamics="88.89">
    <pitch>
     <step>A</step>
     <alter>-1</alter>
     <octave>2</octave>
    </pitch>
    <duration>3</duration>
    <voice>1</voice>
    <type>16th</type>
    <beam number="1">begin</beam>
    <beam number="2">begin</beam>
   </note>
   <note default-x="524.39" default-y="-245.00" dynamics="88.89">
    <pitch>
     <step>A</step>
     <alter>-1</alter>
     <octave>2</octave>
    </pitch>
    <duration>3</duration>
    <voice>1</voice>
    <type>16th</type>
    <beam number="1">continue</beam>
    <beam number="2">continue</beam>
   </note>
   <note default-x="556.66" default-y="-250.00" dynamics="88.89">
    <pitch>
     <step>G</step>
     <octave>2</octave>
    </pitch>
    <duration>3</duration>
    <voice>1</voice>
    <type>16th</type>
    <beam number="1">continue</beam>
    <beam number="2">continue</beam>
   </note>
   <note default-x="588.94" default-y="-245.00" dynamics="88.89">
    <pitch>
     <step>A</step>
     <alter>-1</alter>
     <octave>2</octave>
    </pitch>
    <duration>3</duration>
    <tie type="start"/>
    <voice>1</voice>
    <type>16th</type>
    <beam number="1">end</beam>
    <beam number="2">end</beam>
    <notations>
     <tied type="start"/>
    </notations>
   </note>
   <backup>
    <duration>48</duration>
   </backup>
   <forward>
    <duration>24</duration>
    <voice>2</voice>
   </forward>
   <forward>
    <duration>12</duration>
    <voice>2</voice>
   </forward>
   <note default-x="492.11" default-y="-385.00" dynamics="88.89">
    <pitch>
     <step>A</step>
     <alter>-1</alter>
     <octave>1</octave>
    </pitch>
    <duration>12</duration>
    <voice>2</voice>
    <type>quarter</type>
   </note>
  </measure>
  <measure number="11" width="454.34">
   <note default-x="13.80" default-y="-245.00" dynamics="88.89">
    <pitch>
     <step>A</step>
     <alter>-1</alter>
     <octave>2</octave>
    </pitch>
    <duration>3</duration>
    <tie type="stop"/>
    <voice>1</voice>
    <type>16th</type>
    <beam number="1">begin</beam>
    <beam number="2">begin</beam>
    <notations>
     <tied type="stop"/>
    </notations>
   </note>
   <note default-x="43.06" default-y="-245.00" dynamics="88.89">
    <pitch>
     <step>A</step>
     <alter>-1</alter>
     <octave>2</octave>
    </pitch>
    <duration>3</duration>
    <voice>1</voice>
    <type>16th</type>
    <beam number="1">continue</beam>
    <beam number="2">end</beam>
   </note>
   <note default-x="72.32" default-y="-250.00" dynamics="88.89">
    <pitch>
     <step>G</step>
     <octave>2</octave>
    </pitch>
    <duration>6</duration>
    <voice>1</voice>
    <type>eighth</type>
    <beam number="1">end</beam>
   </note>
   <note default-x="130.83" default-y="-245.00" dynamics="88.89">
    <pitch>
     <step>A</step>
     <alter>-1</alter>
     <octave>2</octave>
    </pitch>
    <duration>12</duration>
    <voice>1</voice>
    <type>quarter</type>
   </note>
   <note default-x="130.83" default-y="-235.00" dynamics="88.89">
    <chord/>
    <pitch>
     <step>C</step>
     <octave>3</octave>
    </pitch>
    <duration>12</duration>
    <voice>1</voice>
    <type>quarter</type>
   </note>
   <note default-x="218.32" default-y="-245.00" dynamics="88.89">
    <pitch>
     <step>A</step>
     <alter>-1</alter>
     <octave>2</octave>
    </pitch>
    <duration>24</duration>
    <voice>1</voice>
    <type>half</type>
   </note>
   <note default-x="218.32" default-y="-230.00" dynamics="88.89">
    <chord/>
    <pitch>
     <step>D</step>
     <alter>-1</alter>
     <octave>3</octave>
    </pitch>
    <duration>24</duration>
    <voice>1</voice>
    <type>half</type>
    <accidental>flat</accidental>
   </note>
   <backup>
    <duration>48</duration>
   </backup>
   <forward>
    <duration>24</duration>
    <voice>2</voice>
   </forward>
   <note default-x="218.68" default-y="-370.00" dynamics="88.89">
    <pitch>
     <step>D</step>
     <alter>-1</alter>
     <octave>2</octave>
    </pitch>
    <duration>3</duration>
    <voice>2</voice>
    <type>16th</type>
    <accidental>flat</accidental>
    <beam number="1">begin</beam>
    <beam number="2">forward hook</beam>
   </note>
   <note default-x="247.94" default-y="-325.00" dynamics="88.89">
    <pitch>
     <step>F</step>
     <octave>3</octave>
    </pitch>
    <duration>9</duration>
    <tie type="start"/>
    <voice>2</voice>
    <type>eighth</type>
    <dot/>
    <beam number="1">end</beam>
    <notations>
     <tied type="start"/>
    </notations>
   </note>
   <note default-x="335.71" default-y="-325.00" dynamics="88.89">
    <pitch>
     <step>F</step>
     <octave>3</octave>
    </pitch>
    <duration>12</duration>
    <tie type="stop"/>
    <tie type="start"/>
    <voice>2</voice>
    <type>quarter</type>
    <notations>
     <tied type="stop"/>
     <tied type="start"/>
    </notations>
   </note>
  </measure>
  <measure number="12" width="432.53">
   <note default-x="113.78" default-y="-210.00" dynamics="88.89">
    <pitch>
     <step>A</step>
     <alter>-1</alter>
     <octave>3</octave>
    </pitch>
    <duration>12</duration>
    <voice>1</voice>
    <type>quarter</type>
   </note>
   <note default-x="113.78" default-y="-195.00" dynamics="88.89">
    <chord/>
    <pitch>
     <step>D</step>
     <alter>-1</alter>
     <octave>4</octave>
    </pitch>
    <duration>12</duration>
    <voice>1</voice>
    <type>quarter</type>
    <accidental>flat</accidental>
   </note>
   <note default-x="113.78" default-y="-185.00" dynamics="88.89">
    <chord/>
    <pitch>
     <step>F</step>
     <octave>4</octave>
    </pitch>
    <duration>12</duration>
    <voice>1</voice>
    <type>quarter</type>
   </note>
   <note default-x="225.29" default-y="-210.00" dynamics="88.89">
    <pitch>
     <step>A</step>
     <alter>-1</alter>
     <octave>3</octave>
    </pitch>
    <duration>24</duration>
    <voice>1</voice>
    <type>half</type>
   </note>
   <note default-x="225.29" default-y="-195.00" dynamics="88.89">
    <chord/>
    <pitch>
     <step>D</step>
     <alter>-1</alter>
     <octave>4</octave>
    </pitch>
    <duration>24</duration>
    <voice>1</voice>
    <type>half</type>
   </note>
   <note default-x="225.29" default-y="-185.00" dynamics="88.89">
    <chord/>
    <pitch>
     <step>F</step>
     <octave>4</octave>
    </pitch>
    <duration>24</duration>
    <voice>1</voice>
    <type>half</type>
   </note>
   <note default-x="225.29" default-y="-175.00" dynamics="88.89">
    <chord/>
    <pitch>
     <step>A</step>
     <alter>-1</alter>
     <octave>4</octave>
    </pitch>
    <duration>24</duration>
    <voice>1</voice>
    <type>half</type>
   </note>
   <note default-x="334.07" default-y="-195.00" dynamics="88.89">
    <pitch>
     <step>D</step>
     <alter>-1</alter>
     <octave>4</octave>
    </pitch>
    <duration>12</duration>
    <voice>1</voice>
    <type>quarter</type>
   </note>
   <backup>
    <duration>48</duration>
   </backup>
   <note default-x="113.78" default-y="-325.00" dynamics="88.89">
    <pitch>
     <step>F</step>
     <octave>3</octave>
    </pitch>
    <duration>12</duration>
    <tie type="stop"/>
    <voice>2</voice>
    <type>quarter</type>
    <notations>
     <tied type="stop"/>
    </notations>
   </note>
   <forward>
    <duration>12</duration>
    <voice>2</voice>
   </forward>
   <forward>
    <duration>24</duration>
    <voice>2</voice>
   </forward>
  </measure>
  <measure number="13" width="325.20">
   <note default-x="13.80" default-y="-260.00" dynamics="88.89">
    <pitch>
     <step>E</step>
     <alter>-1</alter>
     <octave>2</octave>
    </pitch>
    <duration>6</duration>
    <voice>1</voice>
    <type>eighth</type>
    <beam number="1">begin</beam>
   </note>
   <note default-x="13.80" default-y="-225.00" dynamics="88.89">
    <chord/>
    <pitch>
     <step>E</step>
     <alter>-1</alter>
     <octave>3</octave>
    </pitch>
    <duration>6</duration>
    <voice>1</voice>
    <type>eighth</type>
   </note>
   <note default-x="49.39" default-y="-225.00" dynamics="88.89">
    <pitch>
     <step>E</step>
     <alter>-1</alter>
     <octave>3</octave>
    </pitch>
    <duration>6</duration>
    <voice>1</voice>
    <type>eighth</type>
    <beam number="1">continue</beam>
   </note>
   <note default-x="84.97" default-y="-215.00" dynamics="88.89">
    <pitch>
     <step>G</step>
     <octave>3</octave>
    </pitch>
    <duration>6</duration>
    <voice>1</voice>
    <type>eighth</type>
    <beam number="1">continue</beam>
   </note>
   <note default-x="120.56" default-y="-225.00" dynamics="88.89">
    <pitch>
     <step>E</step>
     <alter>-1</alter>
     <octave>3</octave>
    </pitch>
    <duration>6</duration>
    <voice>1</voice>
    <type>eighth</type>
    <beam number="1">end</beam>
   </note>
   <note default-x="165.05" default-y="-215.00" dynamics="88.89">
    <pitch>
     <step>G</step>
     <octave>3</octave>
    </pitch>
    <duration>6</duration>
    <voice>1</voice>
    <type>eighth</type>
    <beam number="1">begin</beam>
   </note>
   <note default-x="209.53" default-y="-225.00" dynamics="88.89">
    <pitch>
     <step>E</step>
     <alter>-1</alter>
     <octave>3</octave>
    </pitch>
    <duration>6</duration>
    <voice>1</voice>
    <type>eighth</type>
    <beam number="1">end</beam>
   </note>
   <note>
    <rest/>
    <duration>12</duration>
    <voice>1</voice>
    <type>quarter</type>
   </note>
   <backup>
    <duration>48</duration>
   </backup>
   <forward>
    <duration>48</duration>
    <voice>2</voice>
   </forward>
  </measure>
 </part>
</score-partwise>
