<?xml version="1.0" encoding="UTF-8"?>
<!DOCTYPE score-partwise PUBLIC "-//Recordare//DTD MusicXML 3.1 Partwise//EN" "http://www.musicxml.org/dtds/partwise.dtd">
<score-partwise version="3.1">
 <identification>
  <encoding>
   <software>MuseScore 3.2.3</software>
   <encoding-date>2020-08-04</encoding-date>
   <supports element="accidental" type="yes"/>
   <supports element="beam" type="yes"/>
   <supports element="print" attribute="new-page" type="yes" value="yes"/>
   <supports element="print" attribute="new-system" type="yes" value="yes"/>
   <supports element="stem" type="yes"/>
  </encoding>
 </identification>
 <defaults>
  <scaling>
   <millimeters>7.05556</millimeters>
   <tenths>40</tenths>
  </scaling>
  <page-layout>
   <page-height>1683.78</page-height>
   <page-width>1190.55</page-width>
   <page-margins type="even">
    <left-margin>56.6929</left-margin>
    <right-margin>56.6929</right-margin>
    <top-margin>56.6929</top-margin>
    <bottom-margin>113.386</bottom-margin>
   </page-margins>
   <page-margins type="odd">
    <left-margin>56.6929</left-margin>
    <right-margin>56.6929</right-margin>
    <top-margin>56.6929</top-margin>
    <bottom-margin>113.386</bottom-margin>
   </page-margins>
  </page-layout>
  <word-font font-family="FreeSerif" font-size="10"/>
  <lyric-font font-family="FreeSerif" font-size="11"/>
 </defaults>
 <part-list>
  <score-part id="P1">
   <part-name>Pf</part-name>
   <score-instrument id="P1-I1">
    <instrument-name></instrument-name>
   </score-instrument>
   <midi-device id="P1-I1" port="1"></midi-device>
   <midi-instrument id="P1-I1">
    <midi-channel>1</midi-channel>
    <midi-program>1</midi-program>
    <volume>78.7402</volume>
    <pan>0</pan>
   </midi-instrument>
  </score-part>
  <score-part id="P3">
   <part-name>Pf</part-name>
   <score-instrument id="P3-I1">
    <instrument-name></instrument-name>
   </score-instrument>
   <midi-device id="P3-I1" port="1"></midi-device>
   <midi-instrument id="P3-I1">
    <midi-channel>5</midi-channel>
    <midi-program>1</midi-program>
    <volume>78.7402</volume>
    <pan>0</pan>
   </midi-instrument>
  </score-part>
 </part-list>
 <part id="P1">
  <measure number="1" width="230.57">
   <attributes>
    <divisions>12</divisions>
    <key>
     <fifths>1</fifths>
    </key>
    <time>
     <beats>3</beats>
     <beat-type>4</beat-type>
    </time>
    <clef>
     <sign>G</sign>
     <line>2</line>
    </clef>
   </attributes>
   <direction placement="above">
    <direction-type>
     <metronome parentheses="no" default-x="-36.90" relative-y="20.00">
      <beat-unit>quarter</beat-unit>
      <per-minute>101</per-minute>
     </metronome>
    </direction-type>
    <sound tempo="101"/>
   </direction>
   <note>
    <rest/>
    <duration>12</duration>
    <voice>1</voice>
    <type>quarter</type>
   </note>
   <note>
    <rest/>
    <duration>12</duration>
    <voice>1</voice>
    <type>quarter</type>
   </note>
   <note>
    <rest/>
    <duration>6</duration>
    <voice>1</voice>
    <type>eighth</type>
   </note>
   <note default-x="205.02" default-y="-30.00" dynamics="88.89">
    <pitch>
     <step>G</step>
     <octave>4</octave>
    </pitch>
    <duration>6</duration>
    <voice>1</voice>
    <type>eighth</type>
   </note>
   <note default-x="205.02" default-y="5.00" dynamics="88.89">
    <chord/>
    <pitch>
     <step>G</step>
     <octave>5</octave>
    </pitch>
    <duration>6</duration>
    <voice>1</voice>
    <type>eighth</type>
   </note>
   <backup>
    <duration>36</duration>
   </backup>
   <forward>
    <duration>36</duration>
    <voice>2</voice>
   </forward>
  </measure>
  <measure number="2" width="178.63">
   <note>
    <rest/>
    <duration>12</duration>
    <voice>1</voice>
    <type>quarter</type>
   </note>
   <note default-x="82.06" default-y="-30.00" dynamics="88.89">
    <pitch>
     <step>G</step>
     <octave>4</octave>
    </pitch>
    <duration>18</duration>
    <voice>1</voice>
    <type>quarter</type>
    <dot/>
   </note>
   <note default-x="140.43" default-y="-30.00" dynamics="88.89">
    <pitch>
     <step>G</step>
     <octave>4</octave>
    </pitch>
    <duration>6</duration>
    <voice>1</voice>
    <type>eighth</type>
   </note>
   <backup>
    <duration>36</duration>
   </backup>
   <forward>
    <duration>36</duration>
    <voice>2</voice>
   </forward>
  </measure>
  <measure number="3" width="209.40">
   <note default-x="14.36" default-y="-35.00" dynamics="88.89">
    <pitch>
     <step>F</step>
     <octave>4</octave>
    </pitch>
    <duration>9</duration>
    <voice>1</voice>
    <type>eighth</type>
    <dot/>
    <accidental>natural</accidental>
    <beam number="1">begin</beam>
   </note>
   <note default-x="26.22" default-y="-30.00" dynamics="88.89">
    <chord/>
    <pitch>
     <step>G</step>
     <octave>4</octave>
    </pitch>
    <duration>9</duration>
    <voice>1</voice>
    <type>eighth</type>
    <dot/>
   </note>
   <note default-x="14.36" default-y="-10.00" dynamics="88.89">
    <chord/>
    <pitch>
     <step>D</step>
     <octave>5</octave>
    </pitch>
    <duration>9</duration>
    <voice>1</voice>
    <type>eighth</type>
    <dot/>
   </note>
   <note default-x="64.05" default-y="-35.00" dynamics="88.89">
    <pitch>
     <step>F</step>
     <octave>4</octave>
    </pitch>
    <duration>3</duration>
    <tie type="start"/>
    <voice>1</voice>
    <type>16th</type>
    <beam number="1">end</beam>
    <beam number="2">backward hook</beam>
    <notations>
     <tied type="start"/>
    </notations>
   </note>
   <note default-x="75.91" default-y="-30.00" dynamics="88.89">
    <chord/>
    <pitch>
     <step>G</step>
     <octave>4</octave>
    </pitch>
    <duration>3</duration>
    <tie type="start"/>
    <voice>1</voice>
    <type>16th</type>
    <notations>
     <tied type="start"/>
    </notations>
   </note>
   <note default-x="64.05" default-y="-10.00" dynamics="88.89">
    <chord/>
    <pitch>
     <step>D</step>
     <octave>5</octave>
    </pitch>
    <duration>3</duration>
    <tie type="start"/>
    <voice>1</voice>
    <type>16th</type>
    <notations>
     <tied type="start"/>
    </notations>
   </note>
   <direction placement="above">
    <direction-type>
     <metronome parentheses="no" default-y="4.71" relative-y="20.00">
      <beat-unit>quarter</beat-unit>
      <per-minute>98</per-minute>
     </metronome>
    </direction-type>
    <sound tempo="97.9998"/>
   </direction>
   <note default-x="101.71" default-y="-35.00" dynamics="88.89">
    <pitch>
     <step>F</step>
     <octave>4</octave>
    </pitch>
    <duration>24</duration>
    <tie type="stop"/>
    <voice>1</voice>
    <type>half</type>
    <notations>
     <tied type="stop"/>
    </notations>
   </note>
   <note default-x="114.30" default-y="-30.00" dynamics="88.89">
    <chord/>
    <pitch>
     <step>G</step>
     <octave>4</octave>
    </pitch>
    <duration>24</duration>
    <tie type="stop"/>
    <voice>1</voice>
    <type>half</type>
    <notations>
     <tied type="stop"/>
    </notations>
   </note>
   <note default-x="101.71" default-y="-10.00" dynamics="88.89">
    <chord/>
    <pitch>
     <step>D</step>
     <octave>5</octave>
    </pitch>
    <duration>24</duration>
    <tie type="stop"/>
    <voice>1</voice>
    <type>half</type>
    <notations>
     <tied type="stop"/>
    </notations>
   </note>
   <backup>
    <duration>36</duration>
   </backup>
   <forward>
    <duration>12</duration>
    <voice>2</voice>
   </forward>
   <note default-x="102.07" default-y="-140.00" dynamics="88.89">
    <pitch>
     <step>F</step>
     <octave>4</octave>
    </pitch>
    <duration>18</duration>
    <voice>2</voice>
    <type>quarter</type>
    <dot/>
    <accidental>natural</accidental>
   </note>
   <note default-x="167.05" default-y="-135.00" dynamics="88.89">
    <pitch>
     <step>G</step>
     <octave>4</octave>
    </pitch>
    <duration>6</duration>
    <voice>2</voice>
    <type>eighth</type>
   </note>
   <backup>
    <duration>6</duration>
   </backup>
   <direction placement="above">
    <direction-type>
     <metronome parentheses="no" relative-y="20.00">
      <beat-unit>quarter</beat-unit>
      <per-minute>95</per-minute>
     </metronome>
    </direction-type>
    <sound tempo="94.9998"/>
   </direction>
   <forward>
    <duration>6</duration>
   </forward>
  </measure>
  <measure number="4" width="231.16">
   <direction placement="above">
    <direction-type>
     <metronome parentheses="no" default-y="21.82" relative-y="20.00">
      <beat-unit>quarter</beat-unit>
      <per-minute>98</per-minute>
     </metronome>
    </direction-type>
    <sound tempo="97.9998"/>
   </direction>
   <note default-x="13.80" default-y="-40.00" dynamics="88.89">
    <pitch>
     <step>E</step>
     <octave>4</octave>
    </pitch>
    <duration>6</duration>
    <voice>1</voice>
    <type>eighth</type>
    <beam number="1">begin</beam>
   </note>
   <note default-x="13.80" default-y="-30.00" dynamics="88.89">
    <chord/>
    <pitch>
     <step>G</step>
     <octave>4</octave>
    </pitch>
    <duration>6</duration>
    <voice>1</voice>
    <type>eighth</type>
   </note>
   <note default-x="13.80" default-y="-5.00" dynamics="88.89">
    <chord/>
    <pitch>
     <step>E</step>
     <octave>5</octave>
    </pitch>
    <duration>6</duration>
    <voice>1</voice>
    <type>eighth</type>
   </note>
   <direction placement="above">
    <direction-type>
     <metronome parentheses="no" default-y="43.64" relative-y="20.00">
      <beat-unit>quarter</beat-unit>
      <per-minute>101</per-minute>
     </metronome>
    </direction-type>
    <sound tempo="101"/>
   </direction>
   <note default-x="49.76" default-y="-10.00" dynamics="88.89">
    <pitch>
     <step>D</step>
     <octave>5</octave>
    </pitch>
    <duration>6</duration>
    <voice>1</voice>
    <type>eighth</type>
    <beam number="1">end</beam>
   </note>
   <note default-x="85.72" default-y="-5.00" dynamics="88.89">
    <pitch>
     <step>E</step>
     <octave>5</octave>
    </pitch>
    <duration>6</duration>
    <voice>1</voice>
    <type>eighth</type>
    <beam number="1">begin</beam>
   </note>
   <note default-x="121.68" default-y="0.00" dynamics="88.89">
    <pitch>
     <step>F</step>
     <octave>5</octave>
    </pitch>
    <duration>6</duration>
    <voice>1</voice>
    <type>eighth</type>
    <accidental>natural</accidental>
    <beam number="1">end</beam>
   </note>
   <note default-x="157.64" default-y="-5.00" dynamics="88.89">
    <pitch>
     <step>E</step>
     <octave>5</octave>
    </pitch>
    <duration>6</duration>
    <voice>1</voice>
    <type>eighth</type>
    <beam number="1">begin</beam>
   </note>
   <note default-x="193.60" default-y="-10.00" dynamics="88.89">
    <pitch>
     <step>D</step>
     <octave>5</octave>
    </pitch>
    <duration>6</duration>
    <voice>1</voice>
    <type>eighth</type>
    <beam number="1">end</beam>
   </note>
   <backup>
    <duration>36</duration>
   </backup>
   <forward>
    <duration>36</duration>
    <voice>2</voice>
   </forward>
  </measure>
  <measure number="5" width="98.66">
   <note default-x="13.80" default-y="-5.00" dynamics="88.89">
    <pitch>
     <step>E</step>
     <octave>5</octave>
    </pitch>
    <duration>36</duration>
    <voice>1</voice>
    <type>half</type>
    <dot/>
   </note>
   <backup>
    <duration>36</duration>
   </backup>
   <forward>
    <duration>36</duration>
    <voice>2</voice>
   </forward>
  </measure>
  <measure number="6" width="373.05">
   <note default-x="95.60" default-y="-10.00" dynamics="88.89">
    <pitch>
     <step>D</step>
     <alter>1</alter>
     <octave>5</octave>
    </pitch>
    <duration>6</duration>
    <voice>1</voice>
    <type>eighth</type>
    <accidental>sharp</accidental>
    <beam number="1">begin</beam>
   </note>
   <direction placement="above">
    <direction-type>
     <metronome parentheses="no" relative-y="20.00">
      <beat-unit>quarter</beat-unit>
      <per-minute>105</per-minute>
     </metronome>
    </direction-type>
    <sound tempo="105"/>
   </direction>
   <note default-x="152.46" default-y="-10.00" dynamics="88.89">
    <pitch>
     <step>D</step>
     <octave>5</octave>
    </pitch>
    <duration>6</duration>
    <voice>1</voice>
    <type>eighth</type>
    <accidental>natural</accidental>
    <beam number="1">end</beam>
   </note>
   <direction placement="above">
    <direction-type>
     <metronome parentheses="no" default-y="21.82" relative-y="20.00">
      <beat-unit>quarter</beat-unit>
      <per-minute>108</per-minute>
     </metronome>
    </direction-type>
    <sound tempo="108"/>
   </direction>
   <note default-x="195.13" default-y="-10.00" dynamics="88.89">
    <pitch>
     <step>D</step>
     <alter>1</alter>
     <octave>5</octave>
    </pitch>
    <duration>6</duration>
    <voice>1</voice>
    <type>eighth</type>
    <accidental>sharp</accidental>
    <beam number="1">begin</beam>
   </note>
   <note default-x="243.17" default-y="0.00" dynamics="88.89">
    <pitch>
     <step>F</step>
     <octave>5</octave>
    </pitch>
    <duration>6</duration>
    <voice>1</voice>
    <type>eighth</type>
    <accidental>natural</accidental>
    <beam number="1">end</beam>
   </note>
   <note default-x="286.12" default-y="-10.00" dynamics="88.89">
    <pitch>
     <step>D</step>
     <alter>1</alter>
     <octave>5</octave>
    </pitch>
    <duration>6</duration>
    <voice>1</voice>
    <type>eighth</type>
    <beam number="1">begin</beam>
   </note>
   <note default-x="328.79" default-y="-10.00" dynamics="88.89">
    <pitch>
     <step>D</step>
     <octave>5</octave>
    </pitch>
    <duration>6</duration>
    <voice>1</voice>
    <type>eighth</type>
    <accidental>natural</accidental>
    <beam number="1">end</beam>
   </note>
   <backup>
    <duration>36</duration>
   </backup>
   <forward>
    <duration>36</duration>
    <voice>2</voice>
   </forward>
  </measure>
  <measure number="7" width="95.59">
   <direction placement="above">
    <direction-type>
     <metronome parentheses="no" default-y="4.71" relative-y="20.00">
      <beat-unit>quarter</beat-unit>
      <per-minute>105</per-minute>
     </metronome>
    </direction-type>
    <sound tempo="105"/>
   </direction>
   <note default-x="18.05" default-y="-45.00" dynamics="88.89">
    <pitch>
     <step>D</step>
     <alter>1</alter>
     <octave>4</octave>
    </pitch>
    <duration>24</duration>
    <voice>1</voice>
    <type>half</type>
    <accidental>sharp</accidental>
   </note>
   <note default-x="18.05" default-y="-30.00" dynamics="88.89">
    <chord/>
    <pitch>
     <step>G</step>
     <octave>4</octave>
    </pitch>
    <duration>24</duration>
    <voice>1</voice>
    <type>half</type>
   </note>
   <note default-x="18.05" default-y="-10.00" dynamics="88.89">
    <chord/>
    <pitch>
     <step>D</step>
     <alter>1</alter>
     <octave>5</octave>
    </pitch>
    <duration>24</duration>
    <voice>1</voice>
    <type>half</type>
    <accidental>sharp</accidental>
   </note>
   <note default-x="64.92" default-y="-50.00" dynamics="88.89">
    <pitch>
     <step>C</step>
     <octave>4</octave>
    </pitch>
    <duration>12</duration>
    <voice>1</voice>
    <type>quarter</type>
   </note>
   <note default-x="64.92" default-y="-35.00" dynamics="88.89">
    <chord/>
    <pitch>
     <step>F</step>
     <alter>1</alter>
     <octave>4</octave>
    </pitch>
    <duration>12</duration>
    <voice>1</voice>
    <type>quarter</type>
   </note>
   <note default-x="64.92" default-y="-10.00" dynamics="88.89">
    <chord/>
    <pitch>
     <step>D</step>
     <octave>5</octave>
    </pitch>
    <duration>12</duration>
    <voice>1</voice>
    <type>quarter</type>
    <accidental>natural</accidental>
   </note>
   <backup>
    <duration>36</duration>
   </backup>
   <forward>
    <duration>36</duration>
    <voice>2</voice>
   </forward>
  </measure>
  <measure number="8" width="215.76">
   <direction placement="above">
    <direction-type>
     <metronome parentheses="no" relative-y="20.00">
      <beat-unit>quarter</beat-unit>
      <per-minute>101</per-minute>
     </metronome>
    </direction-type>
    <sound tempo="101"/>
   </direction>
   <note default-x="13.80" default-y="-30.00" dynamics="88.89">
    <pitch>
     <step>G</step>
     <octave>4</octave>
    </pitch>
    <duration>6</duration>
    <voice>1</voice>
    <type>eighth</type>
    <beam number="1">begin</beam>
   </note>
   <note default-x="13.80" default-y="-20.00" dynamics="88.89">
    <chord/>
    <pitch>
     <step>B</step>
     <octave>4</octave>
    </pitch>
    <duration>6</duration>
    <voice>1</voice>
    <type>eighth</type>
   </note>
   <direction placement="above">
    <direction-type>
     <metronome parentheses="no" default-y="21.82" relative-y="20.00">
      <beat-unit>quarter</beat-unit>
      <per-minute>98</per-minute>
     </metronome>
    </direction-type>
    <sound tempo="97.9998"/>
   </direction>
   <note default-x="41.58" default-y="-30.00" dynamics="88.89">
    <pitch>
     <step>G</step>
     <octave>4</octave>
    </pitch>
    <duration>6</duration>
    <voice>1</voice>
    <type>eighth</type>
    <beam number="1">end</beam>
   </note>
   <direction placement="above">
    <direction-type>
     <metronome parentheses="no" default-y="43.64" relative-y="20.00">
      <beat-unit>quarter</beat-unit>
      <per-minute>95</per-minute>
     </metronome>
    </direction-type>
    <sound tempo="94.9998"/>
   </direction>
   <note default-x="69.35" default-y="-20.00" dynamics="88.89">
    <pitch>
     <step>B</step>
     <octave>4</octave>
    </pitch>
    <duration>18</duration>
    <voice>1</voice>
    <type>quarter</type>
    <dot/>
   </note>
   <note default-x="69.35" default-y="-5.00" dynamics="88.89">
    <chord/>
    <pitch>
     <step>E</step>
     <octave>5</octave>
    </pitch>
    <duration>18</duration>
    <voice>1</voice>
    <type>quarter</type>
    <dot/>
   </note>
   <note default-x="186.39" default-y="-10.00" dynamics="88.89">
    <pitch>
     <step>D</step>
     <octave>5</octave>
    </pitch>
    <duration>6</duration>
    <voice>1</voice>
    <type>eighth</type>
   </note>
   <backup>
    <duration>36</duration>
   </backup>
   <forward>
    <duration>12</duration>
    <voice>2</voice>
   </forward>
   <note default-x="69.35" default-y="-135.00" dynamics="88.89">
    <pitch>
     <step>G</step>
     <octave>4</octave>
    </pitch>
    <duration>12</duration>
    <voice>2</voice>
    <type>quarter</type>
   </note>
   <forward>
    <duration>12</duration>
    <voice>2</voice>
   </forward>
   <backup>
    <duration>18</duration>
   </backup>
   <direction placement="above">
    <direction-type>
     <metronome parentheses="no" default-y="65.46" relative-y="20.00">
      <beat-unit>quarter</beat-unit>
      <per-minute>92</per-minute>
     </metronome>
    </direction-type>
    <sound tempo="91.9998"/>
   </direction>
   <forward>
    <duration>18</duration>
   </forward>
  </measure>
  <measure number="9" width="201.47">
   <note default-x="13.80" default-y="-45.00" dynamics="88.89">
    <pitch>
     <step>D</step>
     <octave>4</octave>
    </pitch>
    <duration>9</duration>
    <voice>1</voice>
    <type>eighth</type>
    <dot/>
    <beam number="1">begin</beam>
   </note>
   <note default-x="13.80" default-y="-35.00" dynamics="88.89">
    <chord/>
    <pitch>
     <step>F</step>
     <alter>1</alter>
     <octave>4</octave>
    </pitch>
    <duration>9</duration>
    <voice>1</voice>
    <type>eighth</type>
    <dot/>
   </note>
   <note default-x="13.80" default-y="-15.00" dynamics="88.89">
    <chord/>
    <pitch>
     <step>C</step>
     <octave>5</octave>
    </pitch>
    <duration>9</duration>
    <voice>1</voice>
    <type>eighth</type>
    <dot/>
   </note>
   <note default-x="52.82" default-y="-20.00" dynamics="88.89">
    <pitch>
     <step>B</step>
     <octave>4</octave>
    </pitch>
    <duration>3</duration>
    <voice>1</voice>
    <type>16th</type>
    <beam number="1">end</beam>
    <beam number="2">backward hook</beam>
   </note>
   <note default-x="72.45" default-y="-35.00" dynamics="88.89">
    <pitch>
     <step>F</step>
     <alter>1</alter>
     <octave>4</octave>
    </pitch>
    <duration>24</duration>
    <voice>1</voice>
    <type>half</type>
   </note>
   <note default-x="72.45" default-y="-25.00" dynamics="88.89">
    <chord/>
    <pitch>
     <step>A</step>
     <octave>4</octave>
    </pitch>
    <duration>24</duration>
    <voice>1</voice>
    <type>half</type>
   </note>
   <backup>
    <duration>36</duration>
   </backup>
   <forward>
    <duration>12</duration>
    <voice>2</voice>
   </forward>
   <forward>
    <duration>12</duration>
    <voice>2</voice>
   </forward>
   <forward>
    <duration>6</duration>
    <voice>2</voice>
   </forward>
   <note default-x="167.09" default-y="-150.00" dynamics="88.89">
    <pitch>
     <step>D</step>
     <octave>4</octave>
    </pitch>
    <duration>6</duration>
    <voice>2</voice>
    <type>eighth</type>
   </note>
   <backup>
    <duration>15</duration>
   </backup>
   <direction placement="above">
    <direction-type>
     <metronome parentheses="no" relative-y="20.00">
      <beat-unit>quarter</beat-unit>
      <per-minute>89</per-minute>
     </metronome>
    </direction-type>
    <sound tempo="88.9998"/>
   </direction>
   <forward>
    <duration>15</duration>
   </forward>
  </measure>
  <measure number="10" width="191.30">
   <direction placement="above">
    <direction-type>
     <metronome parentheses="no" relative-y="20.00">
      <beat-unit>quarter</beat-unit>
      <per-minute>92</per-minute>
     </metronome>
    </direction-type>
    <sound tempo="91.9998"/>
   </direction>
   <note default-x="13.80" default-y="-55.00" dynamics="88.89">
    <pitch>
     <step>B</step>
     <octave>3</octave>
    </pitch>
    <duration>9</duration>
    <voice>1</voice>
    <type>eighth</type>
    <dot/>
    <beam number="1">begin</beam>
   </note>
   <note default-x="13.80" default-y="-30.00" dynamics="88.89">
    <chord/>
    <pitch>
     <step>G</step>
     <octave>4</octave>
    </pitch>
    <duration>9</duration>
    <voice>1</voice>
    <type>eighth</type>
    <dot/>
   </note>
   <direction placement="above">
    <direction-type>
     <metronome parentheses="no" default-y="21.82" relative-y="20.00">
      <beat-unit>quarter</beat-unit>
      <per-minute>98</per-minute>
     </metronome>
    </direction-type>
    <sound tempo="97.9998"/>
   </direction>
   <note default-x="49.35" default-y="-30.00" dynamics="88.89">
    <pitch>
     <step>G</step>
     <octave>4</octave>
    </pitch>
    <duration>3</duration>
    <voice>1</voice>
    <type>16th</type>
    <beam number="1">end</beam>
    <beam number="2">backward hook</beam>
   </note>
   <note default-x="67.56" default-y="-55.00" dynamics="88.89">
    <pitch>
     <step>B</step>
     <octave>3</octave>
    </pitch>
    <duration>6</duration>
    <voice>1</voice>
    <type>eighth</type>
    <beam number="1">begin</beam>
   </note>
   <note default-x="67.56" default-y="-30.00" dynamics="88.89">
    <chord/>
    <pitch>
     <step>G</step>
     <octave>4</octave>
    </pitch>
    <duration>6</duration>
    <voice>1</voice>
    <type>eighth</type>
   </note>
   <note default-x="96.71" default-y="-25.00" dynamics="88.89">
    <pitch>
     <step>A</step>
     <octave>4</octave>
    </pitch>
    <duration>6</duration>
    <voice>1</voice>
    <type>eighth</type>
    <beam number="1">end</beam>
   </note>
   <note default-x="125.87" default-y="-20.00" dynamics="88.89">
    <pitch>
     <step>B</step>
     <octave>4</octave>
    </pitch>
    <duration>6</duration>
    <voice>1</voice>
    <type>eighth</type>
    <beam number="1">begin</beam>
   </note>
   <note default-x="160.55" default-y="-5.00" dynamics="88.89">
    <pitch>
     <step>E</step>
     <octave>5</octave>
    </pitch>
    <duration>6</duration>
    <voice>1</voice>
    <type>eighth</type>
    <beam number="1">end</beam>
   </note>
   <backup>
    <duration>36</duration>
   </backup>
   <forward>
    <duration>12</duration>
    <voice>2</voice>
   </forward>
   <forward>
    <duration>12</duration>
    <voice>2</voice>
   </forward>
   <note default-x="125.87" default-y="-135.00" dynamics="88.89">
    <pitch>
     <step>G</step>
     <octave>4</octave>
    </pitch>
    <duration>12</duration>
    <voice>2</voice>
    <type>quarter</type>
   </note>
  </measure>
  <measure number="11" width="247.91">
   <note default-x="82.39" default-y="-15.00" dynamics="88.89">
    <pitch>
     <step>C</step>
     <octave>5</octave>
    </pitch>
    <duration>9</duration>
    <voice>1</voice>
    <type>eighth</type>
    <dot/>
    <beam number="1">begin</beam>
   </note>
   <note default-x="94.25" default-y="-10.00" dynamics="88.89">
    <chord/>
    <pitch>
     <step>D</step>
     <octave>5</octave>
    </pitch>
    <duration>9</duration>
    <voice>1</voice>
    <type>eighth</type>
    <dot/>
   </note>
   <note default-x="126.85" default-y="-5.00" dynamics="88.89">
    <pitch>
     <step>E</step>
     <octave>5</octave>
    </pitch>
    <duration>3</duration>
    <voice>1</voice>
    <type>16th</type>
    <beam number="1">end</beam>
    <beam number="2">backward hook</beam>
   </note>
   <note default-x="143.55" default-y="-15.00" dynamics="88.89">
    <pitch>
     <step>C</step>
     <octave>5</octave>
    </pitch>
    <duration>12</duration>
    <voice>1</voice>
    <type>quarter</type>
   </note>
   <note default-x="143.55" default-y="0.00" dynamics="88.89">
    <chord/>
    <pitch>
     <step>F</step>
     <alter>1</alter>
     <octave>5</octave>
    </pitch>
    <duration>12</duration>
    <voice>1</voice>
    <type>quarter</type>
   </note>
   <note>
    <rest/>
    <duration>6</duration>
    <voice>1</voice>
    <type>eighth</type>
   </note>
   <note default-x="219.58" default-y="-10.00" dynamics="88.89">
    <pitch>
     <step>D</step>
     <octave>5</octave>
    </pitch>
    <duration>6</duration>
    <voice>1</voice>
    <type>eighth</type>
   </note>
   <backup>
    <duration>36</duration>
   </backup>
   <forward>
    <duration>36</duration>
    <voice>2</voice>
   </forward>
  </measure>
  <measure number="12" width="171.83">
   <direction placement="above">
    <direction-type>
     <metronome parentheses="no" default-y="15.73" relative-y="20.00">
      <beat-unit>quarter</beat-unit>
      <per-minute>95</per-minute>
     </metronome>
    </direction-type>
    <sound tempo="94.9998"/>
   </direction>
   <note default-x="13.80" default-y="5.00" dynamics="88.89">
    <pitch>
     <step>G</step>
     <octave>5</octave>
    </pitch>
    <duration>9</duration>
    <voice>1</voice>
    <type>eighth</type>
    <dot/>
    <beam number="1">begin</beam>
   </note>
   <note default-x="13.80" default-y="25.00" dynamics="88.89">
    <chord/>
    <pitch>
     <step>D</step>
     <octave>6</octave>
    </pitch>
    <duration>9</duration>
    <voice>1</voice>
    <type>eighth</type>
    <dot/>
   </note>
   <note default-x="46.78" default-y="15.00" dynamics="88.89">
    <pitch>
     <step>B</step>
     <octave>5</octave>
    </pitch>
    <duration>3</duration>
    <voice>1</voice>
    <type>16th</type>
    <beam number="1">end</beam>
    <beam number="2">backward hook</beam>
   </note>
   <note default-x="66.25" default-y="5.00" dynamics="88.89">
    <pitch>
     <step>G</step>
     <octave>5</octave>
    </pitch>
    <duration>12</duration>
    <voice>1</voice>
    <type>quarter</type>
   </note>
   <note>
    <rest/>
    <duration>6</duration>
    <voice>1</voice>
    <type>eighth</type>
   </note>
   <note default-x="143.18" default-y="-10.00" dynamics="88.89">
    <pitch>
     <step>D</step>
     <octave>5</octave>
    </pitch>
    <duration>6</duration>
    <voice>1</voice>
    <type>eighth</type>
   </note>
   <backup>
    <duration>36</duration>
   </backup>
   <forward>
    <duration>36</duration>
    <voice>2</voice>
   </forward>
  </measure>
  <measure number="13" width="190.52">
   <note default-x="18.42" default-y="-10.00" dynamics="88.89">
    <pitch>
     <step>D</step>
     <alter>1</alter>
     <octave>5</octave>
    </pitch>
    <duration>9</duration>
    <voice>1</voice>
    <type>eighth</type>
    <dot/>
    <accidental>sharp</accidental>
    <beam number="1">begin</beam>
   </note>
   <note default-x="18.42" default-y="5.00" dynamics="88.89">
    <chord/>
    <pitch>
     <step>G</step>
     <octave>5</octave>
    </pitch>
    <duration>9</duration>
    <voice>1</voice>
    <type>eighth</type>
    <dot/>
   </note>
   <direction placement="above">
    <direction-type>
     <metronome parentheses="no" relative-y="20.00">
      <beat-unit>quarter</beat-unit>
      <per-minute>98</per-minute>
     </metronome>
    </direction-type>
    <sound tempo="97.9998"/>
   </direction>
   <note default-x="52.06" default-y="-10.00" dynamics="88.89">
    <pitch>
     <step>D</step>
     <alter>1</alter>
     <octave>5</octave>
    </pitch>
    <duration>3</duration>
    <voice>1</voice>
    <type>16th</type>
    <beam number="1">end</beam>
    <beam number="2">backward hook</beam>
   </note>
   <note>
    <rest/>
    <duration>12</duration>
    <voice>1</voice>
    <type>quarter</type>
   </note>
   <direction placement="above">
    <direction-type>
     <metronome parentheses="no" relative-y="20.00">
      <beat-unit>quarter</beat-unit>
      <per-minute>95</per-minute>
     </metronome>
    </direction-type>
    <sound tempo="94.9998"/>
   </direction>
   <note>
    <rest/>
    <duration>6</duration>
    <voice>1</voice>
    <type>eighth</type>
   </note>
   <note default-x="161.33" default-y="-15.00" dynamics="88.89">
    <pitch>
     <step>C</step>
     <octave>5</octave>
    </pitch>
    <duration>6</duration>
    <voice>1</voice>
    <type>eighth</type>
   </note>
   <backup>
    <duration>36</duration>
   </backup>
   <forward>
    <duration>36</duration>
    <voice>2</voice>
   </forward>
  </measure>
  <measure number="14" width="172.23">
   <direction placement="above">
    <direction-type>
     <metronome parentheses="no" relative-y="20.00">
      <beat-unit>quarter</beat-unit>
      <per-minute>98</per-minute>
     </metronome>
    </direction-type>
    <sound tempo="97.9998"/>
   </direction>
   <note default-x="14.16" default-y="-30.00" dynamics="88.89">
    <pitch>
     <step>G</step>
     <octave>4</octave>
    </pitch>
    <duration>9</duration>
    <voice>1</voice>
    <type>eighth</type>
    <dot/>
    <beam number="1">begin</beam>
   </note>
   <note default-x="14.16" default-y="-10.00" dynamics="88.89">
    <chord/>
    <pitch>
     <step>D</step>
     <octave>5</octave>
    </pitch>
    <duration>9</duration>
    <voice>1</voice>
    <type>eighth</type>
    <dot/>
   </note>
   <note default-x="44.73" default-y="-10.00" dynamics="88.89">
    <pitch>
     <step>D</step>
     <octave>5</octave>
    </pitch>
    <duration>3</duration>
    <voice>1</voice>
    <type>16th</type>
    <beam number="1">end</beam>
    <beam number="2">backward hook</beam>
   </note>
   <note default-x="60.40" default-y="-10.00" dynamics="88.89">
    <pitch>
     <step>D</step>
     <octave>5</octave>
    </pitch>
    <duration>6</duration>
    <voice>1</voice>
    <type>eighth</type>
    <beam number="1">begin</beam>
   </note>
   <note default-x="85.46" default-y="-45.00" dynamics="88.89">
    <pitch>
     <step>D</step>
     <octave>4</octave>
    </pitch>
    <duration>6</duration>
    <voice>1</voice>
    <type>eighth</type>
    <beam number="1">end</beam>
   </note>
   <note default-x="85.46" default-y="-30.00" dynamics="88.89">
    <chord/>
    <pitch>
     <step>G</step>
     <octave>4</octave>
    </pitch>
    <duration>6</duration>
    <voice>1</voice>
    <type>eighth</type>
   </note>
   <note default-x="85.46" default-y="-20.00" dynamics="88.89">
    <chord/>
    <pitch>
     <step>B</step>
     <octave>4</octave>
    </pitch>
    <duration>6</duration>
    <voice>1</voice>
    <type>eighth</type>
   </note>
   <note default-x="85.46" default-y="-10.00" dynamics="88.89">
    <chord/>
    <pitch>
     <step>D</step>
     <octave>5</octave>
    </pitch>
    <duration>6</duration>
    <voice>1</voice>
    <type>eighth</type>
   </note>
   <note default-x="110.53" default-y="-15.00" dynamics="88.89">
    <pitch>
     <step>C</step>
     <octave>5</octave>
    </pitch>
    <duration>6</duration>
    <voice>1</voice>
    <type>eighth</type>
    <beam number="1">begin</beam>
   </note>
   <note default-x="110.53" default-y="-5.00" dynamics="88.89">
    <chord/>
    <pitch>
     <step>E</step>
     <octave>5</octave>
    </pitch>
    <duration>6</duration>
    <voice>1</voice>
    <type>eighth</type>
   </note>
   <direction placement="above">
    <direction-type>
     <metronome parentheses="no" default-y="5.72" relative-y="20.00">
      <beat-unit>quarter</beat-unit>
      <per-minute>95</per-minute>
     </metronome>
    </direction-type>
    <sound tempo="94.9998"/>
   </direction>
   <note default-x="135.60" default-y="-15.00" dynamics="88.89">
    <pitch>
     <step>C</step>
     <octave>5</octave>
    </pitch>
    <duration>6</duration>
    <voice>1</voice>
    <type>eighth</type>
    <beam number="1">end</beam>
   </note>
   <note default-x="135.60" default-y="15.00" dynamics="88.89">
    <chord/>
    <pitch>
     <step>B</step>
     <octave>5</octave>
    </pitch>
    <duration>6</duration>
    <voice>1</voice>
    <type>eighth</type>
   </note>
   <backup>
    <duration>36</duration>
   </backup>
   <forward>
    <duration>36</duration>
    <voice>2</voice>
   </forward>
  </measure>
  <measure number="15" width="155.13">
   <direction placement="above">
    <direction-type>
     <metronome parentheses="no" default-y="27.54" relative-y="20.00">
      <beat-unit>quarter</beat-unit>
      <per-minute>92</per-minute>
     </metronome>
    </direction-type>
    <sound tempo="91.9998"/>
   </direction>
   <note default-x="13.80" default-y="-15.00" dynamics="88.89">
    <pitch>
     <step>C</step>
     <octave>5</octave>
    </pitch>
    <duration>12</duration>
    <voice>1</voice>
    <type>quarter</type>
   </note>
   <note default-x="13.80" default-y="10.00" dynamics="88.89">
    <chord/>
    <pitch>
     <step>A</step>
     <octave>5</octave>
    </pitch>
    <duration>12</duration>
    <voice>1</voice>
    <type>quarter</type>
   </note>
   <direction placement="above">
    <direction-type>
     <metronome parentheses="no" default-y="49.36" relative-y="20.00">
      <beat-unit>quarter</beat-unit>
      <per-minute>89</per-minute>
     </metronome>
    </direction-type>
    <sound tempo="88.9998"/>
   </direction>
   <note default-x="53.61" default-y="5.00" dynamics="88.89">
    <pitch>
     <step>G</step>
     <octave>5</octave>
    </pitch>
    <duration>12</duration>
    <voice>1</voice>
    <type>quarter</type>
   </note>
   <direction placement="above">
    <direction-type>
     <metronome parentheses="no" default-y="71.18" relative-y="20.00">
      <beat-unit>quarter</beat-unit>
      <per-minute>86</per-minute>
     </metronome>
    </direction-type>
    <sound tempo="85.9998"/>
   </direction>
   <note default-x="103.77" default-y="-40.00" dynamics="88.89">
    <pitch>
     <step>E</step>
     <octave>4</octave>
    </pitch>
    <duration>6</duration>
    <voice>1</voice>
    <type>eighth</type>
    <beam number="1">begin</beam>
   </note>
   <note default-x="103.77" default-y="-30.00" dynamics="88.89">
    <chord/>
    <pitch>
     <step>G</step>
     <octave>4</octave>
    </pitch>
    <duration>6</duration>
    <voice>1</voice>
    <type>eighth</type>
   </note>
   <direction placement="above">
    <direction-type>
     <metronome parentheses="no" default-y="93.02" relative-y="20.00">
      <beat-unit>quarter</beat-unit>
      <per-minute>83</per-minute>
     </metronome>
    </direction-type>
    <sound tempo="82.9998"/>
   </direction>
   <note default-x="128.65" default-y="-40.00" dynamics="88.89">
    <pitch>
     <step>E</step>
     <octave>4</octave>
    </pitch>
    <duration>6</duration>
    <voice>1</voice>
    <type>eighth</type>
    <beam number="1">end</beam>
   </note>
   <note default-x="128.65" default-y="-30.00" dynamics="88.89">
    <chord/>
    <pitch>
     <step>G</step>
     <octave>4</octave>
    </pitch>
    <duration>6</duration>
    <voice>1</voice>
    <type>eighth</type>
   </note>
   <note default-x="128.65" default-y="-15.00" dynamics="88.89">
    <chord/>
    <pitch>
     <step>C</step>
     <octave>5</octave>
    </pitch>
    <duration>6</duration>
    <voice>1</voice>
    <type>eighth</type>
   </note>
   <backup>
    <duration>36</duration>
   </backup>
   <forward>
    <duration>12</duration>
    <voice>2</voice>
   </forward>
   <note default-x="53.61" default-y="-135.00" dynamics="88.89">
    <pitch>
     <step>G</step>
     <octave>4</octave>
    </pitch>
    <duration>12</duration>
    <voice>2</voice>
    <type>quarter</type>
   </note>
   <note default-x="53.61" default-y="-125.00" dynamics="88.89">
    <chord/>
    <pitch>
     <step>B</step>
     <octave>4</octave>
    </pitch>
    <duration>12</duration>
    <voice>2</voice>
    <type>quarter</type>
   </note>
   <forward>
    <duration>12</duration>
    <voice>2</voice>
   </forward>
  </measure>
  <measure number="16" width="139.54">
   <direction placement="above">
    <direction-type>
     <metronome parentheses="no" default-y="114.84" relative-y="20.00">
      <beat-unit>quarter</beat-unit>
      <per-minute>81</per-minute>
     </metronome>
    </direction-type>
    <sound tempo="81"/>
   </direction>
   <note default-x="13.80" default-y="-50.00" dynamics="88.89">
    <pitch>
     <step>C</step>
     <octave>4</octave>
    </pitch>
    <duration>36</duration>
    <voice>1</voice>
    <type>half</type>
    <dot/>
   </note>
   <note default-x="13.80" default-y="-30.00" dynamics="88.89">
    <chord/>
    <pitch>
     <step>G</step>
     <octave>4</octave>
    </pitch>
    <duration>36</duration>
    <voice>1</voice>
    <type>half</type>
    <dot/>
   </note>
   <note default-x="26.39" default-y="-25.00" dynamics="88.89">
    <chord/>
    <pitch>
     <step>A</step>
     <octave>4</octave>
    </pitch>
    <duration>36</duration>
    <voice>1</voice>
    <type>half</type>
    <dot/>
   </note>
   <backup>
    <duration>36</duration>
   </backup>
   <forward>
    <duration>36</duration>
    <voice>2</voice>
   </forward>
  </measure>
  <measure number="17" width="372.03">
   <direction placement="above">
    <direction-type>
     <metronome parentheses="no" default-y="9.03" relative-y="20.00">
      <beat-unit>quarter</beat-unit>
      <per-minute>76</per-minute>
     </metronome>
    </direction-type>
    <sound tempo="76.0002"/>
   </direction>
   <note default-x="86.19" default-y="-55.00" dynamics="88.89">
    <pitch>
     <step>B</step>
     <octave>3</octave>
    </pitch>
    <duration>4</duration>
    <voice>1</voice>
    <type>eighth</type>
    <time-modification>
     <actual-notes>3</actual-notes>
     <normal-notes>2</normal-notes>
     <normal-type>eighth</normal-type>
    </time-modification>
    <notations>
     <tuplet type="start" bracket="yes"/>
    </notations>
   </note>
   <note default-x="86.19" default-y="-30.00" dynamics="88.89">
    <chord/>
    <pitch>
     <step>G</step>
     <octave>4</octave>
    </pitch>
    <duration>4</duration>
    <voice>1</voice>
    <type>eighth</type>
    <time-modification>
     <actual-notes>3</actual-notes>
     <normal-notes>2</normal-notes>
     <normal-type>eighth</normal-type>
    </time-modification>
   </note>
   <direction placement="above">
    <direction-type>
     <metronome parentheses="no" default-y="30.55" relative-y="20.00">
      <beat-unit>quarter</beat-unit>
      <per-minute>71</per-minute>
     </metronome>
    </direction-type>
    <sound tempo="70.9998"/>
   </direction>
   <note default-x="129.90" default-y="-30.00" dynamics="88.89">
    <pitch>
     <step>G</step>
     <octave>4</octave>
    </pitch>
    <duration>8</duration>
    <tie type="start"/>
    <voice>1</voice>
    <type>quarter</type>
    <time-modification>
     <actual-notes>3</actual-notes>
     <normal-notes>2</normal-notes>
     <normal-type>eighth</normal-type>
    </time-modification>
    <notations>
     <tied type="start"/>
     <tuplet type="stop"/>
    </notations>
   </note>
   <note default-x="199.85" default-y="-30.00" dynamics="88.89">
    <pitch>
     <step>G</step>
     <octave>4</octave>
    </pitch>
    <duration>12</duration>
    <tie type="stop"/>
    <voice>1</voice>
    <type>quarter</type>
    <notations>
     <tied type="stop"/>
    </notations>
   </note>
   <note>
    <rest/>
    <duration>12</duration>
    <voice>1</voice>
    <type>quarter</type>
   </note>
   <backup>
    <duration>36</duration>
   </backup>
   <forward>
    <duration>36</duration>
    <voice>2</voice>
   </forward>
  </measure>
 </part>
 <part id="P3">
  <measure number="1" width="230.57">
   <attributes>
    <divisions>12</divisions>
    <key>
     <fifths>1</fifths>
    </key>
    <time>
     <beats>3</beats>
     <beat-type>4</beat-type>
    </time>
    <clef>
     <sign>G</sign>
     <line>2</line>
    </clef>
   </attributes>
   <note>
    <rest/>
    <duration>36</duration>
    <voice>1</voice>
   </note>
   <backup>
    <duration>36</duration>
   </backup>
   <forward>
    <duration>36</duration>
    <voice>2</voice>
   </forward>
  </measure>
  <measure number="2" width="178.63">
   <note default-x="13.80" default-y="-260.00" dynamics="88.89">
    <pitch>
     <step>C</step>
     <octave>4</octave>
    </pitch>
    <duration>9</duration>
    <voice>1</voice>
    <type>eighth</type>
    <dot/>
    <beam number="1">begin</beam>
   </note>
   <note default-x="13.80" default-y="-250.00" dynamics="88.89">
    <chord/>
    <pitch>
     <step>E</step>
     <octave>4</octave>
    </pitch>
    <duration>9</duration>
    <voice>1</voice>
    <type>eighth</type>
    <dot/>
   </note>
   <note default-x="13.80" default-y="-240.00" dynamics="88.89">
    <chord/>
    <pitch>
     <step>G</step>
     <octave>4</octave>
    </pitch>
    <duration>9</duration>
    <voice>1</voice>
    <type>eighth</type>
    <dot/>
   </note>
   <note default-x="13.80" default-y="-225.00" dynamics="88.89">
    <chord/>
    <pitch>
     <step>C</step>
     <octave>5</octave>
    </pitch>
    <duration>9</duration>
    <voice>1</voice>
    <type>eighth</type>
    <dot/>
   </note>
   <note default-x="58.44" default-y="-260.00" dynamics="88.89">
    <pitch>
     <step>C</step>
     <octave>4</octave>
    </pitch>
    <duration>3</duration>
    <voice>1</voice>
    <type>16th</type>
    <beam number="1">end</beam>
    <beam number="2">backward hook</beam>
   </note>
   <note default-x="58.44" default-y="-250.00" dynamics="88.89">
    <chord/>
    <pitch>
     <step>E</step>
     <octave>4</octave>
    </pitch>
    <duration>3</duration>
    <voice>1</voice>
    <type>16th</type>
   </note>
   <note default-x="58.44" default-y="-240.00" dynamics="88.89">
    <chord/>
    <pitch>
     <step>G</step>
     <octave>4</octave>
    </pitch>
    <duration>3</duration>
    <voice>1</voice>
    <type>16th</type>
   </note>
   <note default-x="58.44" default-y="-225.00" dynamics="88.89">
    <chord/>
    <pitch>
     <step>C</step>
     <octave>5</octave>
    </pitch>
    <duration>3</duration>
    <voice>1</voice>
    <type>16th</type>
   </note>
   <note default-x="81.70" default-y="-260.00" dynamics="88.89">
    <pitch>
     <step>C</step>
     <octave>4</octave>
    </pitch>
    <duration>24</duration>
    <voice>1</voice>
    <type>half</type>
   </note>
   <backup>
    <duration>36</duration>
   </backup>
   <forward>
    <duration>36</duration>
    <voice>2</voice>
   </forward>
  </measure>
  <measure number="3" width="209.40">
   <note default-x="14.36" default-y="-265.00" dynamics="88.89">
    <pitch>
     <step>B</step>
     <octave>3</octave>
    </pitch>
    <duration>9</duration>
    <voice>1</voice>
    <type>eighth</type>
    <dot/>
    <beam number="1">begin</beam>
   </note>
   <note default-x="64.05" default-y="-265.00" dynamics="88.89">
    <pitch>
     <step>B</step>
     <octave>3</octave>
    </pitch>
    <duration>3</duration>
    <tie type="start"/>
    <voice>1</voice>
    <type>16th</type>
    <beam number="1">end</beam>
    <beam number="2">backward hook</beam>
    <notations>
     <tied type="start"/>
    </notations>
   </note>
   <note default-x="101.71" default-y="-265.00" dynamics="88.89">
    <pitch>
     <step>B</step>
     <octave>3</octave>
    </pitch>
    <duration>24</duration>
    <tie type="stop"/>
    <voice>1</voice>
    <type>half</type>
    <notations>
     <tied type="stop"/>
    </notations>
   </note>
   <backup>
    <duration>36</duration>
   </backup>
   <forward>
    <duration>36</duration>
    <voice>2</voice>
   </forward>
  </measure>
  <measure number="4" width="231.16">
   <note default-x="13.80" default-y="-260.00" dynamics="88.89">
    <pitch>
     <step>C</step>
     <octave>4</octave>
    </pitch>
    <duration>6</duration>
    <voice>1</voice>
    <type>eighth</type>
    <beam number="1">begin</beam>
   </note>
   <note default-x="49.76" default-y="-265.00" dynamics="88.89">
    <pitch>
     <step>B</step>
     <octave>3</octave>
    </pitch>
    <duration>6</duration>
    <voice>1</voice>
    <type>eighth</type>
    <beam number="1">end</beam>
   </note>
   <note default-x="49.76" default-y="-255.00" dynamics="88.89">
    <chord/>
    <pitch>
     <step>D</step>
     <octave>4</octave>
    </pitch>
    <duration>6</duration>
    <voice>1</voice>
    <type>eighth</type>
   </note>
   <note default-x="49.76" default-y="-240.00" dynamics="88.89">
    <chord/>
    <pitch>
     <step>G</step>
     <octave>4</octave>
    </pitch>
    <duration>6</duration>
    <voice>1</voice>
    <type>eighth</type>
   </note>
   <note default-x="85.72" default-y="-260.00" dynamics="88.89">
    <pitch>
     <step>C</step>
     <octave>4</octave>
    </pitch>
    <duration>6</duration>
    <voice>1</voice>
    <type>eighth</type>
    <beam number="1">begin</beam>
   </note>
   <note default-x="85.72" default-y="-250.00" dynamics="88.89">
    <chord/>
    <pitch>
     <step>E</step>
     <octave>4</octave>
    </pitch>
    <duration>6</duration>
    <voice>1</voice>
    <type>eighth</type>
   </note>
   <note default-x="85.72" default-y="-240.00" dynamics="88.89">
    <chord/>
    <pitch>
     <step>G</step>
     <octave>4</octave>
    </pitch>
    <duration>6</duration>
    <voice>1</voice>
    <type>eighth</type>
   </note>
   <note default-x="121.68" default-y="-255.00" dynamics="88.89">
    <pitch>
     <step>D</step>
     <octave>4</octave>
    </pitch>
    <duration>6</duration>
    <voice>1</voice>
    <type>eighth</type>
    <beam number="1">end</beam>
   </note>
   <note default-x="121.68" default-y="-245.00" dynamics="88.89">
    <chord/>
    <pitch>
     <step>F</step>
     <octave>4</octave>
    </pitch>
    <duration>6</duration>
    <voice>1</voice>
    <type>eighth</type>
    <accidental>natural</accidental>
   </note>
   <note default-x="133.55" default-y="-240.00" dynamics="88.89">
    <chord/>
    <pitch>
     <step>G</step>
     <octave>4</octave>
    </pitch>
    <duration>6</duration>
    <voice>1</voice>
    <type>eighth</type>
   </note>
   <note default-x="157.64" default-y="-260.00" dynamics="88.89">
    <pitch>
     <step>C</step>
     <octave>4</octave>
    </pitch>
    <duration>6</duration>
    <voice>1</voice>
    <type>eighth</type>
    <beam number="1">begin</beam>
   </note>
   <note default-x="157.64" default-y="-250.00" dynamics="88.89">
    <chord/>
    <pitch>
     <step>E</step>
     <octave>4</octave>
    </pitch>
    <duration>6</duration>
    <voice>1</voice>
    <type>eighth</type>
   </note>
   <note default-x="157.64" default-y="-240.00" dynamics="88.89">
    <chord/>
    <pitch>
     <step>G</step>
     <octave>4</octave>
    </pitch>
    <duration>6</duration>
    <voice>1</voice>
    <type>eighth</type>
   </note>
   <note default-x="193.60" default-y="-265.00" dynamics="88.89">
    <pitch>
     <step>B</step>
     <octave>3</octave>
    </pitch>
    <duration>6</duration>
    <voice>1</voice>
    <type>eighth</type>
    <beam number="1">end</beam>
   </note>
   <note default-x="193.60" default-y="-255.00" dynamics="88.89">
    <chord/>
    <pitch>
     <step>D</step>
     <octave>4</octave>
    </pitch>
    <duration>6</duration>
    <voice>1</voice>
    <type>eighth</type>
   </note>
   <note default-x="193.60" default-y="-240.00" dynamics="88.89">
    <chord/>
    <pitch>
     <step>G</step>
     <octave>4</octave>
    </pitch>
    <duration>6</duration>
    <voice>1</voice>
    <type>eighth</type>
   </note>
   <backup>
    <duration>36</duration>
   </backup>
   <forward>
    <duration>36</duration>
    <voice>2</voice>
   </forward>
  </measure>
  <measure number="5" width="98.66">
   <note default-x="13.80" default-y="-260.00" dynamics="88.89">
    <pitch>
     <step>C</step>
     <octave>4</octave>
    </pitch>
    <duration>36</duration>
    <voice>1</voice>
    <type>half</type>
    <dot/>
   </note>
   <note default-x="13.80" default-y="-250.00" dynamics="88.89">
    <chord/>
    <pitch>
     <step>E</step>
     <octave>4</octave>
    </pitch>
    <duration>36</duration>
    <voice>1</voice>
    <type>half</type>
    <dot/>
   </note>
   <note default-x="13.80" default-y="-240.00" dynamics="88.89">
    <chord/>
    <pitch>
     <step>G</step>
     <octave>4</octave>
    </pitch>
    <duration>36</duration>
    <voice>1</voice>
    <type>half</type>
    <dot/>
   </note>
   <backup>
    <duration>36</duration>
   </backup>
   <forward>
    <duration>36</duration>
    <voice>2</voice>
   </forward>
  </measure>
  <measure number="6" width="373.05">
   <note default-x="95.60" default-y="-255.00" dynamics="88.89">
    <pitch>
     <step>D</step>
     <alter>1</alter>
     <octave>4</octave>
    </pitch>
    <duration>4</duration>
    <voice>1</voice>
    <type>eighth</type>
    <accidental>sharp</accidental>
    <time-modification>
     <actual-notes>3</actual-notes>
     <normal-notes>2</normal-notes>
     <normal-type>eighth</normal-type>
    </time-modification>
    <notations>
     <tuplet type="start" bracket="yes"/>
    </notations>
   </note>
   <note default-x="95.60" default-y="-240.00" dynamics="88.89">
    <chord/>
    <pitch>
     <step>G</step>
     <octave>4</octave>
    </pitch>
    <duration>4</duration>
    <voice>1</voice>
    <type>eighth</type>
    <time-modification>
     <actual-notes>3</actual-notes>
     <normal-notes>2</normal-notes>
     <normal-type>eighth</normal-type>
    </time-modification>
   </note>
   <note default-x="130.59" default-y="-240.00" dynamics="88.89">
    <pitch>
     <step>G</step>
     <octave>4</octave>
    </pitch>
    <duration>8</duration>
    <voice>1</voice>
    <type>quarter</type>
    <time-modification>
     <actual-notes>3</actual-notes>
     <normal-notes>2</normal-notes>
     <normal-type>eighth</normal-type>
    </time-modification>
    <notations>
     <tuplet type="stop"/>
    </notations>
   </note>
   <note default-x="195.13" default-y="-260.00" dynamics="88.89">
    <pitch>
     <step>C</step>
     <octave>4</octave>
    </pitch>
    <duration>6</duration>
    <voice>1</voice>
    <type>eighth</type>
    <beam number="1">begin</beam>
   </note>
   <note default-x="207.00" default-y="-255.00" dynamics="88.89">
    <chord/>
    <pitch>
     <step>D</step>
     <alter>1</alter>
     <octave>4</octave>
    </pitch>
    <duration>6</duration>
    <voice>1</voice>
    <type>eighth</type>
   </note>
   <note default-x="195.13" default-y="-240.00" dynamics="88.89">
    <chord/>
    <pitch>
     <step>G</step>
     <octave>4</octave>
    </pitch>
    <duration>6</duration>
    <voice>1</voice>
    <type>eighth</type>
   </note>
   <note default-x="243.17" default-y="-255.00" dynamics="88.89">
    <pitch>
     <step>D</step>
     <octave>4</octave>
    </pitch>
    <duration>6</duration>
    <voice>1</voice>
    <type>eighth</type>
    <accidental>natural</accidental>
    <beam number="1">end</beam>
   </note>
   <note default-x="243.17" default-y="-245.00" dynamics="88.89">
    <chord/>
    <pitch>
     <step>F</step>
     <octave>4</octave>
    </pitch>
    <duration>6</duration>
    <voice>1</voice>
    <type>eighth</type>
    <accidental>natural</accidental>
   </note>
   <note default-x="255.04" default-y="-240.00" dynamics="88.89">
    <chord/>
    <pitch>
     <step>G</step>
     <octave>4</octave>
    </pitch>
    <duration>6</duration>
    <voice>1</voice>
    <type>eighth</type>
   </note>
   <note default-x="286.12" default-y="-260.00" dynamics="88.89">
    <pitch>
     <step>C</step>
     <octave>4</octave>
    </pitch>
    <duration>6</duration>
    <voice>1</voice>
    <type>eighth</type>
    <beam number="1">begin</beam>
   </note>
   <note default-x="297.99" default-y="-255.00" dynamics="88.89">
    <chord/>
    <pitch>
     <step>D</step>
     <alter>1</alter>
     <octave>4</octave>
    </pitch>
    <duration>6</duration>
    <voice>1</voice>
    <type>eighth</type>
    <accidental>sharp</accidental>
   </note>
   <note default-x="286.12" default-y="-240.00" dynamics="88.89">
    <chord/>
    <pitch>
     <step>G</step>
     <octave>4</octave>
    </pitch>
    <duration>6</duration>
    <voice>1</voice>
    <type>eighth</type>
   </note>
   <note default-x="328.79" default-y="-265.00" dynamics="88.89">
    <pitch>
     <step>B</step>
     <octave>3</octave>
    </pitch>
    <duration>6</duration>
    <voice>1</voice>
    <type>eighth</type>
    <beam number="1">end</beam>
   </note>
   <note default-x="328.79" default-y="-255.00" dynamics="88.89">
    <chord/>
    <pitch>
     <step>D</step>
     <octave>4</octave>
    </pitch>
    <duration>6</duration>
    <voice>1</voice>
    <type>eighth</type>
    <accidental>natural</accidental>
   </note>
   <note default-x="328.79" default-y="-240.00" dynamics="88.89">
    <chord/>
    <pitch>
     <step>G</step>
     <octave>4</octave>
    </pitch>
    <duration>6</duration>
    <voice>1</voice>
    <type>eighth</type>
   </note>
   <backup>
    <duration>36</duration>
   </backup>
   <note default-x="95.60" default-y="-334.96" dynamics="88.89">
    <pitch>
     <step>C</step>
     <octave>4</octave>
    </pitch>
    <duration>6</duration>
    <voice>2</voice>
    <type>eighth</type>
    <beam number="1">begin</beam>
   </note>
   <note default-x="152.46" default-y="-339.96" dynamics="88.89">
    <pitch>
     <step>B</step>
     <octave>3</octave>
    </pitch>
    <duration>6</duration>
    <voice>2</voice>
    <type>eighth</type>
    <beam number="1">end</beam>
   </note>
   <note default-x="152.46" default-y="-329.96" dynamics="88.89">
    <chord/>
    <pitch>
     <step>D</step>
     <octave>4</octave>
    </pitch>
    <duration>6</duration>
    <voice>2</voice>
    <type>eighth</type>
   </note>
   <forward>
    <duration>12</duration>
    <voice>2</voice>
   </forward>
   <forward>
    <duration>12</duration>
    <voice>2</voice>
   </forward>
  </measure>
  <measure number="7" width="95.59">
   <note default-x="18.05" default-y="-260.00" dynamics="88.89">
    <pitch>
     <step>C</step>
     <octave>4</octave>
    </pitch>
    <duration>24</duration>
    <voice>1</voice>
    <type>half</type>
   </note>
   <note default-x="64.92" default-y="-290.00" dynamics="88.89">
    <pitch>
     <step>D</step>
     <octave>3</octave>
    </pitch>
    <duration>12</duration>
    <voice>1</voice>
    <type>quarter</type>
   </note>
   <note default-x="64.92" default-y="-270.00" dynamics="88.89">
    <chord/>
    <pitch>
     <step>A</step>
     <octave>3</octave>
    </pitch>
    <duration>12</duration>
    <voice>1</voice>
    <type>quarter</type>
   </note>
   <backup>
    <duration>36</duration>
   </backup>
   <forward>
    <duration>36</duration>
    <voice>2</voice>
   </forward>
  </measure>
  <measure number="8" width="215.76">
   <note default-x="13.80" default-y="-325.00" dynamics="88.89">
    <pitch>
     <step>D</step>
     <octave>2</octave>
    </pitch>
    <duration>12</duration>
    <tie type="start"/>
    <voice>1</voice>
    <type>quarter</type>
    <notations>
     <tied type="start"/>
    </notations>
   </note>
   <note default-x="69.35" default-y="-325.00" dynamics="88.89">
    <pitch>
     <step>D</step>
     <octave>2</octave>
    </pitch>
    <duration>3</duration>
    <tie type="stop"/>
    <voice>1</voice>
    <type>16th</type>
    <beam number="1">begin</beam>
    <beam number="2">begin</beam>
    <notations>
     <tied type="stop"/>
    </notations>
   </note>
   <note default-x="92.62" default-y="-290.00" dynamics="88.89">
    <pitch>
     <step>D</step>
     <octave>3</octave>
    </pitch>
    <duration>3</duration>
    <voice>1</voice>
    <type>16th</type>
    <beam number="1">continue</beam>
    <beam number="2">continue</beam>
   </note>
   <note default-x="115.88" default-y="-275.00" dynamics="88.89">
    <pitch>
     <step>G</step>
     <octave>3</octave>
    </pitch>
    <duration>3</duration>
    <voice>1</voice>
    <type>16th</type>
    <beam number="1">continue</beam>
    <beam number="2">continue</beam>
   </note>
   <note default-x="139.15" default-y="-265.00" dynamics="88.89">
    <pitch>
     <step>B</step>
     <octave>3</octave>
    </pitch>
    <duration>3</duration>
    <voice>1</voice>
    <type>16th</type>
    <beam number="1">end</beam>
    <beam number="2">end</beam>
   </note>
   <note default-x="158.61" default-y="-255.00" dynamics="88.89">
    <pitch>
     <step>D</step>
     <octave>4</octave>
    </pitch>
    <duration>12</duration>
    <voice>1</voice>
    <type>quarter</type>
   </note>
   <backup>
    <duration>36</duration>
   </backup>
   <forward>
    <duration>36</duration>
    <voice>2</voice>
   </forward>
  </measure>
  <measure number="9" width="201.47">
   <note default-x="13.80" default-y="-270.00" dynamics="88.89">
    <pitch>
     <step>A</step>
     <octave>3</octave>
    </pitch>
    <duration>12</duration>
    <voice>1</voice>
    <type>quarter</type>
   </note>
   <note default-x="72.81" default-y="-260.00" dynamics="88.89">
    <pitch>
     <step>C</step>
     <octave>4</octave>
    </pitch>
    <duration>9</duration>
    <voice>1</voice>
    <type>eighth</type>
    <dot/>
    <beam number="1">begin</beam>
   </note>
   <note default-x="84.68" default-y="-255.00" dynamics="88.89">
    <chord/>
    <pitch>
     <step>D</step>
     <octave>4</octave>
    </pitch>
    <duration>9</duration>
    <voice>1</voice>
    <type>eighth</type>
    <dot/>
   </note>
   <note default-x="111.83" default-y="-265.00" dynamics="88.89">
    <pitch>
     <step>B</step>
     <octave>3</octave>
    </pitch>
    <duration>3</duration>
    <voice>1</voice>
    <type>16th</type>
    <beam number="1">end</beam>
    <beam number="2">backward hook</beam>
   </note>
   <note default-x="135.09" default-y="-270.00" dynamics="88.89">
    <pitch>
     <step>A</step>
     <octave>3</octave>
    </pitch>
    <duration>12</duration>
    <voice>1</voice>
    <type>quarter</type>
   </note>
   <backup>
    <duration>36</duration>
   </backup>
   <note default-x="13.80" default-y="-364.96" dynamics="88.89">
    <pitch>
     <step>D</step>
     <octave>3</octave>
    </pitch>
    <duration>12</duration>
    <voice>2</voice>
    <type>quarter</type>
   </note>
   <forward>
    <duration>12</duration>
    <voice>2</voice>
   </forward>
   <forward>
    <duration>12</duration>
    <voice>2</voice>
   </forward>
  </measure>
  <measure number="10" width="191.30">
   <note default-x="13.80" default-y="-275.00" dynamics="88.89">
    <pitch>
     <step>G</step>
     <octave>3</octave>
    </pitch>
    <duration>12</duration>
    <voice>1</voice>
    <type>quarter</type>
   </note>
   <note>
    <rest/>
    <duration>6</duration>
    <voice>1</voice>
    <type>eighth</type>
   </note>
   <note default-x="96.71" default-y="-255.00" dynamics="88.89">
    <pitch>
     <step>D</step>
     <octave>4</octave>
    </pitch>
    <duration>6</duration>
    <voice>1</voice>
    <type>eighth</type>
   </note>
   <note default-x="125.87" default-y="-275.00" dynamics="88.89">
    <pitch>
     <step>G</step>
     <octave>3</octave>
    </pitch>
    <duration>6</duration>
    <voice>1</voice>
    <type>eighth</type>
    <beam number="1">begin</beam>
   </note>
   <note default-x="160.55" default-y="-260.00" dynamics="88.89">
    <pitch>
     <step>C</step>
     <alter>1</alter>
     <octave>4</octave>
    </pitch>
    <duration>6</duration>
    <voice>1</voice>
    <type>eighth</type>
    <accidental>sharp</accidental>
    <beam number="1">end</beam>
   </note>
   <backup>
    <duration>36</duration>
   </backup>
   <note default-x="13.80" default-y="-384.96" dynamics="88.89">
    <pitch>
     <step>G</step>
     <octave>2</octave>
    </pitch>
    <duration>12</duration>
    <voice>2</voice>
    <type>quarter</type>
   </note>
   <note default-x="13.80" default-y="-364.96" dynamics="88.89">
    <chord/>
    <pitch>
     <step>D</step>
     <octave>3</octave>
    </pitch>
    <duration>12</duration>
    <voice>2</voice>
    <type>quarter</type>
   </note>
   <forward>
    <duration>12</duration>
    <voice>2</voice>
   </forward>
   <forward>
    <duration>12</duration>
    <voice>2</voice>
   </forward>
  </measure>
  <measure number="11" width="247.91">
   <note default-x="94.25" default-y="-255.00" dynamics="88.89">
    <pitch>
     <step>D</step>
     <octave>4</octave>
    </pitch>
    <duration>12</duration>
    <voice>1</voice>
    <type>quarter</type>
   </note>
   <note default-x="94.25" default-y="-245.00" dynamics="88.89">
    <chord/>
    <pitch>
     <step>F</step>
     <alter>1</alter>
     <octave>4</octave>
    </pitch>
    <duration>12</duration>
    <voice>1</voice>
    <type>quarter</type>
   </note>
   <note default-x="143.55" default-y="-255.00" dynamics="88.89">
    <pitch>
     <step>D</step>
     <octave>4</octave>
    </pitch>
    <duration>9</duration>
    <voice>1</voice>
    <type>eighth</type>
    <dot/>
    <beam number="1">begin</beam>
   </note>
   <note default-x="143.55" default-y="-245.00" dynamics="88.89">
    <chord/>
    <pitch>
     <step>F</step>
     <alter>1</alter>
     <octave>4</octave>
    </pitch>
    <duration>9</duration>
    <voice>1</voice>
    <type>eighth</type>
    <dot/>
   </note>
   <note default-x="176.15" default-y="-240.00" dynamics="88.89">
    <pitch>
     <step>G</step>
     <octave>4</octave>
    </pitch>
    <duration>3</duration>
    <voice>1</voice>
    <type>16th</type>
    <beam number="1">end</beam>
    <beam number="2">backward hook</beam>
   </note>
   <note default-x="192.85" default-y="-235.00" dynamics="88.89">
    <pitch>
     <step>A</step>
     <octave>4</octave>
    </pitch>
    <duration>12</duration>
    <voice>1</voice>
    <type>quarter</type>
   </note>
   <backup>
    <duration>36</duration>
   </backup>
   <forward>
    <duration>36</duration>
    <voice>2</voice>
   </forward>
  </measure>
  <measure number="12" width="171.83">
   <note default-x="13.80" default-y="-230.00" dynamics="88.89">
    <pitch>
     <step>B</step>
     <octave>4</octave>
    </pitch>
    <duration>12</duration>
    <voice>1</voice>
    <type>quarter</type>
   </note>
   <note default-x="66.25" default-y="-240.00" dynamics="88.89">
    <pitch>
     <step>G</step>
     <octave>4</octave>
    </pitch>
    <duration>9</duration>
    <voice>1</voice>
    <type>eighth</type>
    <dot/>
    <beam number="1">begin</beam>
   </note>
   <note default-x="66.25" default-y="-230.00" dynamics="88.89">
    <chord/>
    <pitch>
     <step>B</step>
     <octave>4</octave>
    </pitch>
    <duration>9</duration>
    <voice>1</voice>
    <type>eighth</type>
    <dot/>
   </note>
   <note default-x="66.25" default-y="-220.00" dynamics="88.89">
    <chord/>
    <pitch>
     <step>D</step>
     <octave>5</octave>
    </pitch>
    <duration>9</duration>
    <voice>1</voice>
    <type>eighth</type>
    <dot/>
   </note>
   <note default-x="99.23" default-y="-230.00" dynamics="88.89">
    <pitch>
     <step>B</step>
     <octave>4</octave>
    </pitch>
    <duration>3</duration>
    <voice>1</voice>
    <type>16th</type>
    <beam number="1">end</beam>
    <beam number="2">backward hook</beam>
   </note>
   <note default-x="116.13" default-y="-240.00" dynamics="88.89">
    <pitch>
     <step>G</step>
     <octave>4</octave>
    </pitch>
    <duration>12</duration>
    <voice>1</voice>
    <type>quarter</type>
   </note>
   <backup>
    <duration>36</duration>
   </backup>
   <note default-x="13.80" default-y="-286.00" dynamics="88.89">
    <pitch>
     <step>G</step>
     <octave>4</octave>
    </pitch>
    <duration>12</duration>
    <voice>2</voice>
    <type>quarter</type>
   </note>
   <forward>
    <duration>12</duration>
    <voice>2</voice>
   </forward>
   <forward>
    <duration>12</duration>
    <voice>2</voice>
   </forward>
  </measure>
  <measure number="13" width="190.52">
   <note default-x="18.42" default-y="-255.00" dynamics="88.89">
    <pitch>
     <step>D</step>
     <alter>1</alter>
     <octave>4</octave>
    </pitch>
    <duration>12</duration>
    <voice>1</voice>
    <type>quarter</type>
    <accidental>sharp</accidental>
   </note>
   <note default-x="18.42" default-y="-240.00" dynamics="88.89">
    <chord/>
    <pitch>
     <step>G</step>
     <octave>4</octave>
    </pitch>
    <duration>12</duration>
    <voice>1</voice>
    <type>quarter</type>
   </note>
   <note default-x="18.42" default-y="-230.00" dynamics="88.89">
    <chord/>
    <pitch>
     <step>B</step>
     <alter>-1</alter>
     <octave>4</octave>
    </pitch>
    <duration>12</duration>
    <voice>1</voice>
    <type>quarter</type>
    <accidental>flat</accidental>
   </note>
   <note default-x="68.95" default-y="-230.00" dynamics="88.89">
    <pitch>
     <step>B</step>
     <alter>-1</alter>
     <octave>4</octave>
    </pitch>
    <duration>24</duration>
    <voice>1</voice>
    <type>half</type>
   </note>
   <backup>
    <duration>36</duration>
   </backup>
   <forward>
    <duration>12</duration>
    <voice>2</voice>
   </forward>
   <note default-x="69.31" default-y="-301.00" dynamics="88.89">
    <pitch>
     <step>D</step>
     <alter>1</alter>
     <octave>4</octave>
    </pitch>
    <duration>9</duration>
    <voice>2</voice>
    <type>eighth</type>
    <dot/>
    <accidental>sharp</accidental>
    <beam number="1">begin</beam>
   </note>
   <note default-x="69.31" default-y="-286.00" dynamics="88.89">
    <chord/>
    <pitch>
     <step>G</step>
     <octave>4</octave>
    </pitch>
    <duration>9</duration>
    <voice>2</voice>
    <type>eighth</type>
    <dot/>
   </note>
   <note default-x="102.96" default-y="-301.00" dynamics="88.89">
    <pitch>
     <step>D</step>
     <alter>1</alter>
     <octave>4</octave>
    </pitch>
    <duration>3</duration>
    <voice>2</voice>
    <type>16th</type>
    <beam number="1">end</beam>
    <beam number="2">backward hook</beam>
   </note>
   <note default-x="133.73" default-y="-311.00" dynamics="88.89">
    <pitch>
     <step>B</step>
     <alter>-1</alter>
     <octave>3</octave>
    </pitch>
    <duration>12</duration>
    <voice>2</voice>
    <type>quarter</type>
    <accidental>flat</accidental>
   </note>
  </measure>
  <measure number="14" width="172.23">
   <note default-x="13.80" default-y="-265.00" dynamics="88.89">
    <pitch>
     <step>B</step>
     <octave>3</octave>
    </pitch>
    <duration>24</duration>
    <voice>1</voice>
    <type>half</type>
   </note>
   <note default-x="110.53" default-y="-255.00" dynamics="88.89">
    <pitch>
     <step>D</step>
     <octave>4</octave>
    </pitch>
    <duration>6</duration>
    <voice>1</voice>
    <type>eighth</type>
    <beam number="1">begin</beam>
   </note>
   <note default-x="110.53" default-y="-240.00" dynamics="88.89">
    <chord/>
    <pitch>
     <step>G</step>
     <octave>4</octave>
    </pitch>
    <duration>6</duration>
    <voice>1</voice>
    <type>eighth</type>
   </note>
   <note default-x="135.60" default-y="-255.00" dynamics="88.89">
    <pitch>
     <step>D</step>
     <octave>4</octave>
    </pitch>
    <duration>6</duration>
    <voice>1</voice>
    <type>eighth</type>
    <beam number="1">end</beam>
   </note>
   <note default-x="147.46" default-y="-250.00" dynamics="88.89">
    <chord/>
    <pitch>
     <step>E</step>
     <octave>4</octave>
    </pitch>
    <duration>6</duration>
    <voice>1</voice>
    <type>eighth</type>
   </note>
   <backup>
    <duration>36</duration>
   </backup>
   <note default-x="13.80" default-y="-336.00" dynamics="88.89">
    <pitch>
     <step>D</step>
     <octave>3</octave>
    </pitch>
    <duration>36</duration>
    <tie type="start"/>
    <voice>2</voice>
    <type>half</type>
    <dot/>
    <notations>
     <tied type="start"/>
    </notations>
   </note>
   <note default-x="13.80" default-y="-321.00" dynamics="88.89">
    <chord/>
    <pitch>
     <step>G</step>
     <octave>3</octave>
    </pitch>
    <duration>36</duration>
    <tie type="start"/>
    <voice>2</voice>
    <type>half</type>
    <dot/>
    <notations>
     <tied type="start"/>
    </notations>
   </note>
  </measure>
  <measure number="15" width="155.13">
   <note default-x="13.80" default-y="-255.00" dynamics="88.89">
    <pitch>
     <step>D</step>
     <octave>4</octave>
    </pitch>
    <duration>12</duration>
    <voice>1</voice>
    <type>quarter</type>
   </note>
   <note default-x="13.80" default-y="-245.00" dynamics="88.89">
    <chord/>
    <pitch>
     <step>F</step>
     <alter>1</alter>
     <octave>4</octave>
    </pitch>
    <duration>12</duration>
    <voice>1</voice>
    <type>quarter</type>
   </note>
   <note>
    <rest/>
    <duration>6</duration>
    <voice>1</voice>
    <type>eighth</type>
   </note>
   <note default-x="78.49" default-y="-275.00" dynamics="88.89">
    <pitch>
     <step>G</step>
     <octave>3</octave>
    </pitch>
    <duration>6</duration>
    <voice>1</voice>
    <type>eighth</type>
   </note>
   <note default-x="78.49" default-y="-265.00" dynamics="88.89">
    <chord/>
    <pitch>
     <step>B</step>
     <octave>3</octave>
    </pitch>
    <duration>6</duration>
    <voice>1</voice>
    <type>eighth</type>
   </note>
   <note default-x="78.49" default-y="-255.00" dynamics="88.89">
    <chord/>
    <pitch>
     <step>D</step>
     <octave>4</octave>
    </pitch>
    <duration>6</duration>
    <voice>1</voice>
    <type>eighth</type>
   </note>
   <note default-x="103.77" default-y="-295.00" dynamics="88.89">
    <pitch>
     <step>C</step>
     <octave>3</octave>
    </pitch>
    <duration>6</duration>
    <voice>1</voice>
    <type>eighth</type>
    <beam number="1">begin</beam>
   </note>
   <note default-x="103.77" default-y="-275.00" dynamics="88.89">
    <chord/>
    <pitch>
     <step>G</step>
     <octave>3</octave>
    </pitch>
    <duration>6</duration>
    <voice>1</voice>
    <type>eighth</type>
   </note>
   <note default-x="103.77" default-y="-260.00" dynamics="88.89">
    <chord/>
    <pitch>
     <step>C</step>
     <octave>4</octave>
    </pitch>
    <duration>6</duration>
    <voice>1</voice>
    <type>eighth</type>
   </note>
   <note default-x="128.65" default-y="-305.00" dynamics="88.89">
    <pitch>
     <step>A</step>
     <octave>2</octave>
    </pitch>
    <duration>6</duration>
    <voice>1</voice>
    <type>eighth</type>
    <beam number="1">end</beam>
   </note>
   <note default-x="128.65" default-y="-275.00" dynamics="88.89">
    <chord/>
    <pitch>
     <step>G</step>
     <octave>3</octave>
    </pitch>
    <duration>6</duration>
    <voice>1</voice>
    <type>eighth</type>
   </note>
   <backup>
    <duration>36</duration>
   </backup>
   <note default-x="13.44" default-y="-336.00" dynamics="88.89">
    <pitch>
     <step>D</step>
     <octave>3</octave>
    </pitch>
    <duration>24</duration>
    <tie type="stop"/>
    <voice>2</voice>
    <type>half</type>
    <notations>
     <tied type="stop"/>
    </notations>
   </note>
   <note default-x="13.44" default-y="-321.00" dynamics="88.89">
    <chord/>
    <pitch>
     <step>G</step>
     <octave>3</octave>
    </pitch>
    <duration>24</duration>
    <tie type="stop"/>
    <voice>2</voice>
    <type>half</type>
    <notations>
     <tied type="stop"/>
    </notations>
   </note>
   <forward>
    <duration>12</duration>
    <voice>2</voice>
   </forward>
  </measure>
  <measure number="16" width="139.54">
   <note default-x="14.16" default-y="-290.00" dynamics="88.89">
    <pitch>
     <step>D</step>
     <octave>3</octave>
    </pitch>
    <duration>12</duration>
    <voice>1</voice>
    <type>quarter</type>
   </note>
   <note default-x="14.16" default-y="-275.00" dynamics="88.89">
    <chord/>
    <pitch>
     <step>G</step>
     <octave>3</octave>
    </pitch>
    <duration>12</duration>
    <voice>1</voice>
    <type>quarter</type>
   </note>
   <note default-x="52.25" default-y="-280.00" dynamics="88.89">
    <pitch>
     <step>F</step>
     <alter>1</alter>
     <octave>3</octave>
    </pitch>
    <duration>6</duration>
    <voice>1</voice>
    <type>eighth</type>
    <beam number="1">begin</beam>
   </note>
   <note default-x="76.05" default-y="-285.00" dynamics="88.89">
    <pitch>
     <step>E</step>
     <octave>3</octave>
    </pitch>
    <duration>6</duration>
    <voice>1</voice>
    <type>eighth</type>
    <beam number="1">end</beam>
   </note>
   <note default-x="99.85" default-y="-280.00" dynamics="88.89">
    <pitch>
     <step>F</step>
     <alter>1</alter>
     <octave>3</octave>
    </pitch>
    <duration>12</duration>
    <voice>1</voice>
    <type>quarter</type>
   </note>
   <backup>
    <duration>36</duration>
   </backup>
   <forward>
    <duration>36</duration>
    <voice>2</voice>
   </forward>
  </measure>
  <measure number="17" width="372.03">
   <note default-x="86.19" default-y="-310.00" dynamics="88.89">
    <pitch>
     <step>G</step>
     <octave>2</octave>
    </pitch>
    <duration>12</duration>
    <voice>1</voice>
    <type>quarter</type>
   </note>
   <note default-x="86.19" default-y="-275.00" dynamics="88.89">
    <chord/>
    <pitch>
     <step>G</step>
     <octave>3</octave>
    </pitch>
    <duration>12</duration>
    <voice>1</voice>
    <type>quarter</type>
   </note>
   <note>
    <rest/>
    <duration>12</duration>
    <voice>1</voice>
    <type>quarter</type>
   </note>
   <note>
    <rest/>
    <duration>12</duration>
    <voice>1</voice>
    <type>quarter</type>
   </note>
   <backup>
    <duration>36</duration>
   </backup>
   <forward>
    <duration>36</duration>
    <voice>2</voice>
   </forward>
  </measure>
 </part>
</score-partwise>
