<?xml version="1.0" encoding="UTF-8"?>
<!DOCTYPE score-partwise PUBLIC "-//Recordare//DTD MusicXML 3.1 Partwise//EN" "http://www.musicxml.org/dtds/partwise.dtd">
<score-partwise version="3.1">
 <identification>
  <encoding>
   <software>MuseScore 3.2.3</software>
   <encoding-date>2020-08-04</encoding-date>
   <supports element="accidental" type="yes"/>
   <supports element="beam" type="yes"/>
   <supports element="print" attribute="new-page" type="yes" value="yes"/>
   <supports element="print" attribute="new-system" type="yes" value="yes"/>
   <supports element="stem" type="yes"/>
  </encoding>
 </identification>
 <defaults>
  <scaling>
   <millimeters>7.05556</millimeters>
   <tenths>40</tenths>
  </scaling>
  <page-layout>
   <page-height>1683.78</page-height>
   <page-width>1190.55</page-width>
   <page-margins type="even">
    <left-margin>56.6929</left-margin>
    <right-margin>56.6929</right-margin>
    <top-margin>56.6929</top-margin>
    <bottom-margin>113.386</bottom-margin>
   </page-margins>
   <page-margins type="odd">
    <left-margin>56.6929</left-margin>
    <right-margin>56.6929</right-margin>
    <top-margin>56.6929</top-margin>
    <bottom-margin>113.386</bottom-margin>
   </page-margins>
  </page-layout>
  <word-font font-family="FreeSerif" font-size="10"/>
  <lyric-font font-family="FreeSerif" font-size="11"/>
 </defaults>
 <part-list>
  <score-part id="P1">
   <part-name>Pf</part-name>
   <score-instrument id="P1-I1">
    <instrument-name></instrument-name>
   </score-instrument>
   <midi-device id="P1-I1" port="1"></midi-device>
   <midi-instrument id="P1-I1">
    <midi-channel>1</midi-channel>
    <midi-program>1</midi-program>
    <volume>78.7402</volume>
    <pan>0</pan>
   </midi-instrument>
  </score-part>
  <score-part id="P3">
   <part-name>Pf</part-name>
   <score-instrument id="P3-I1">
    <instrument-name></instrument-name>
   </score-instrument>
   <midi-device id="P3-I1" port="1"></midi-device>
   <midi-instrument id="P3-I1">
    <midi-channel>5</midi-channel>
    <midi-program>1</midi-program>
    <volume>78.7402</volume>
    <pan>0</pan>
   </midi-instrument>
  </score-part>
 </part-list>
 <part id="P1">
  <measure number="1" width="314.27">
   <attributes>
    <divisions>4</divisions>
    <key>
     <fifths>0</fifths>
    </key>
    <time>
     <beats>4</beats>
     <beat-type>4</beat-type>
    </time>
    <clef>
     <sign>G</sign>
     <line>2</line>
    </clef>
   </attributes>
   <direction placement="above">
    <direction-type>
     <metronome parentheses="no" default-x="-35.96" relative-y="20.00">
      <beat-unit>quarter</beat-unit>
      <per-minute>131</per-minute>
     </metronome>
    </direction-type>
    <sound tempo="131"/>
   </direction>
   <note default-x="82.47" default-y="-25.00" dynamics="88.89">
    <pitch>
     <step>A</step>
     <octave>4</octave>
    </pitch>
    <duration>2</duration>
    <voice>1</voice>
    <type>eighth</type>
    <beam number="1">begin</beam>
   </note>
   <direction placement="above">
    <direction-type>
     <metronome parentheses="no" default-y="21.84" relative-y="20.00">
      <beat-unit>quarter</beat-unit>
      <per-minute>135</per-minute>
     </metronome>
    </direction-type>
    <sound tempo="135"/>
   </direction>
   <note default-x="108.70" default-y="-35.00" dynamics="88.89">
    <pitch>
     <step>F</step>
     <octave>4</octave>
    </pitch>
    <duration>2</duration>
    <voice>1</voice>
    <type>eighth</type>
    <beam number="1">continue</beam>
   </note>
   <direction placement="above">
    <direction-type>
     <metronome parentheses="no" default-y="43.66" relative-y="20.00">
      <beat-unit>quarter</beat-unit>
      <per-minute>140</per-minute>
     </metronome>
    </direction-type>
    <sound tempo="140"/>
   </direction>
   <note default-x="134.94" default-y="-50.00" dynamics="88.89">
    <pitch>
     <step>C</step>
     <octave>4</octave>
    </pitch>
    <duration>2</duration>
    <voice>1</voice>
    <type>eighth</type>
    <beam number="1">continue</beam>
   </note>
   <direction placement="above">
    <direction-type>
     <metronome parentheses="no" default-y="65.17" relative-y="20.00">
      <beat-unit>quarter</beat-unit>
      <per-minute>144</per-minute>
     </metronome>
    </direction-type>
    <sound tempo="144"/>
   </direction>
   <note default-x="161.18" default-y="-45.00" dynamics="88.89">
    <pitch>
     <step>D</step>
     <octave>4</octave>
    </pitch>
    <duration>2</duration>
    <voice>1</voice>
    <type>eighth</type>
    <beam number="1">end</beam>
   </note>
   <note default-x="161.18" default-y="-25.00" dynamics="88.89">
    <chord/>
    <pitch>
     <step>A</step>
     <octave>4</octave>
    </pitch>
    <duration>2</duration>
    <voice>1</voice>
    <type>eighth</type>
   </note>
   <note default-x="187.42" default-y="-55.00" dynamics="88.89">
    <pitch>
     <step>B</step>
     <octave>3</octave>
    </pitch>
    <duration>2</duration>
    <voice>1</voice>
    <type>eighth</type>
    <beam number="1">begin</beam>
   </note>
   <note default-x="213.66" default-y="-55.00" dynamics="88.89">
    <pitch>
     <step>B</step>
     <octave>3</octave>
    </pitch>
    <duration>1</duration>
    <voice>1</voice>
    <type>16th</type>
    <beam number="1">continue</beam>
    <beam number="2">begin</beam>
   </note>
   <note default-x="236.93" default-y="-50.00" dynamics="88.89">
    <pitch>
     <step>C</step>
     <octave>4</octave>
    </pitch>
    <duration>1</duration>
    <voice>1</voice>
    <type>16th</type>
    <beam number="1">end</beam>
    <beam number="2">end</beam>
   </note>
   <note default-x="260.19" default-y="-55.00" dynamics="88.89">
    <pitch>
     <step>B</step>
     <octave>3</octave>
    </pitch>
    <duration>2</duration>
    <voice>1</voice>
    <type>eighth</type>
    <beam number="1">begin</beam>
   </note>
   <note default-x="260.19" default-y="-35.00" dynamics="88.89">
    <chord/>
    <pitch>
     <step>F</step>
     <octave>4</octave>
    </pitch>
    <duration>2</duration>
    <voice>1</voice>
    <type>eighth</type>
   </note>
   <note default-x="260.19" default-y="-25.00" dynamics="88.89">
    <chord/>
    <pitch>
     <step>A</step>
     <octave>4</octave>
    </pitch>
    <duration>2</duration>
    <voice>1</voice>
    <type>eighth</type>
   </note>
   <note default-x="286.43" default-y="-60.00" dynamics="88.89">
    <pitch>
     <step>A</step>
     <octave>3</octave>
    </pitch>
    <duration>2</duration>
    <voice>1</voice>
    <type>eighth</type>
    <beam number="1">end</beam>
   </note>
   <backup>
    <duration>16</duration>
   </backup>
   <forward>
    <duration>16</duration>
    <voice>2</voice>
   </forward>
  </measure>
  <measure number="2" width="175.53">
   <note default-x="13.80" default-y="-55.00" dynamics="88.89">
    <pitch>
     <step>B</step>
     <octave>3</octave>
    </pitch>
    <duration>4</duration>
    <voice>1</voice>
    <type>quarter</type>
   </note>
   <note default-x="48.78" default-y="-50.00" dynamics="88.89">
    <pitch>
     <step>C</step>
     <octave>4</octave>
    </pitch>
    <duration>4</duration>
    <voice>1</voice>
    <type>quarter</type>
   </note>
   <note default-x="48.78" default-y="-35.00" dynamics="88.89">
    <chord/>
    <pitch>
     <step>F</step>
     <octave>4</octave>
    </pitch>
    <duration>4</duration>
    <voice>1</voice>
    <type>quarter</type>
   </note>
   <note default-x="48.78" default-y="-25.00" dynamics="88.89">
    <chord/>
    <pitch>
     <step>A</step>
     <octave>4</octave>
    </pitch>
    <duration>4</duration>
    <voice>1</voice>
    <type>quarter</type>
   </note>
   <note default-x="83.77" default-y="-55.00" dynamics="88.89">
    <pitch>
     <step>B</step>
     <octave>3</octave>
    </pitch>
    <duration>2</duration>
    <voice>1</voice>
    <type>eighth</type>
    <beam number="1">begin</beam>
   </note>
   <note default-x="107.03" default-y="-50.00" dynamics="88.89">
    <pitch>
     <step>C</step>
     <octave>4</octave>
    </pitch>
    <duration>2</duration>
    <voice>1</voice>
    <type>eighth</type>
    <beam number="1">continue</beam>
   </note>
   <direction placement="above">
    <direction-type>
     <metronome parentheses="no" relative-y="20.00">
      <beat-unit>quarter</beat-unit>
      <per-minute>149</per-minute>
     </metronome>
    </direction-type>
    <sound tempo="149"/>
   </direction>
   <note default-x="128.90" default-y="-45.00" dynamics="88.89">
    <pitch>
     <step>D</step>
     <octave>4</octave>
    </pitch>
    <duration>2</duration>
    <voice>1</voice>
    <type>eighth</type>
    <beam number="1">continue</beam>
   </note>
   <note default-x="128.90" default-y="-25.00" dynamics="88.89">
    <chord/>
    <pitch>
     <step>A</step>
     <octave>4</octave>
    </pitch>
    <duration>2</duration>
    <voice>1</voice>
    <type>eighth</type>
   </note>
   <note default-x="128.90" default-y="-15.00" dynamics="88.89">
    <chord/>
    <pitch>
     <step>C</step>
     <octave>5</octave>
    </pitch>
    <duration>2</duration>
    <voice>1</voice>
    <type>eighth</type>
   </note>
   <direction placement="above">
    <direction-type>
     <metronome parentheses="no" default-y="21.70" relative-y="20.00">
      <beat-unit>quarter</beat-unit>
      <per-minute>154</per-minute>
     </metronome>
    </direction-type>
    <sound tempo="154"/>
   </direction>
   <note default-x="150.76" default-y="-40.00" dynamics="88.89">
    <pitch>
     <step>E</step>
     <octave>4</octave>
    </pitch>
    <duration>2</duration>
    <voice>1</voice>
    <type>eighth</type>
    <beam number="1">end</beam>
   </note>
   <backup>
    <duration>16</duration>
   </backup>
   <forward>
    <duration>16</duration>
    <voice>2</voice>
   </forward>
  </measure>
  <measure number="3" width="209.18">
   <note default-x="18.42" default-y="-35.00" dynamics="88.89">
    <pitch>
     <step>F</step>
     <alter>1</alter>
     <octave>4</octave>
    </pitch>
    <duration>2</duration>
    <voice>1</voice>
    <type>eighth</type>
    <accidental>sharp</accidental>
    <beam number="1">begin</beam>
   </note>
   <note default-x="42.66" default-y="-35.00" dynamics="88.89">
    <pitch>
     <step>F</step>
     <alter>1</alter>
     <octave>4</octave>
    </pitch>
    <duration>1</duration>
    <voice>1</voice>
    <type>16th</type>
    <beam number="1">continue</beam>
    <beam number="2">begin</beam>
   </note>
   <note default-x="58.32" default-y="-30.00" dynamics="88.89">
    <pitch>
     <step>G</step>
     <octave>4</octave>
    </pitch>
    <duration>1</duration>
    <voice>1</voice>
    <type>16th</type>
    <beam number="1">end</beam>
    <beam number="2">end</beam>
   </note>
   <note default-x="73.99" default-y="-40.00" dynamics="88.89">
    <pitch>
     <step>E</step>
     <octave>4</octave>
    </pitch>
    <duration>2</duration>
    <voice>1</voice>
    <type>eighth</type>
    <beam number="1">begin</beam>
   </note>
   <note default-x="85.85" default-y="-35.00" dynamics="88.89">
    <chord/>
    <pitch>
     <step>F</step>
     <alter>1</alter>
     <octave>4</octave>
    </pitch>
    <duration>2</duration>
    <voice>1</voice>
    <type>eighth</type>
   </note>
   <note default-x="73.99" default-y="-25.00" dynamics="88.89">
    <chord/>
    <pitch>
     <step>A</step>
     <octave>4</octave>
    </pitch>
    <duration>2</duration>
    <voice>1</voice>
    <type>eighth</type>
   </note>
   <direction placement="above">
    <direction-type>
     <metronome parentheses="no" relative-y="20.00">
      <beat-unit>quarter</beat-unit>
      <per-minute>149</per-minute>
     </metronome>
    </direction-type>
    <sound tempo="149"/>
   </direction>
   <note default-x="101.52" default-y="-45.00" dynamics="88.89">
    <pitch>
     <step>D</step>
     <octave>4</octave>
    </pitch>
    <duration>2</duration>
    <voice>1</voice>
    <type>eighth</type>
    <beam number="1">end</beam>
   </note>
   <note default-x="125.76" default-y="-50.00" dynamics="88.89">
    <pitch>
     <step>C</step>
     <octave>4</octave>
    </pitch>
    <duration>2</duration>
    <voice>1</voice>
    <type>eighth</type>
    <beam number="1">begin</beam>
   </note>
   <note default-x="150.00" default-y="-45.00" dynamics="88.89">
    <pitch>
     <step>D</step>
     <octave>4</octave>
    </pitch>
    <duration>2</duration>
    <voice>1</voice>
    <type>eighth</type>
    <beam number="1">end</beam>
   </note>
   <direction placement="above">
    <direction-type>
     <metronome parentheses="no" default-y="0.65" relative-y="20.00">
      <beat-unit>quarter</beat-unit>
      <per-minute>144</per-minute>
     </metronome>
    </direction-type>
    <sound tempo="144"/>
   </direction>
   <note default-x="174.25" default-y="-40.00" dynamics="88.89">
    <pitch>
     <step>E</step>
     <octave>4</octave>
    </pitch>
    <duration>4</duration>
    <voice>1</voice>
    <type>quarter</type>
   </note>
   <note default-x="174.25" default-y="-25.00" dynamics="88.89">
    <chord/>
    <pitch>
     <step>A</step>
     <octave>4</octave>
    </pitch>
    <duration>4</duration>
    <voice>1</voice>
    <type>quarter</type>
   </note>
   <note default-x="174.25" default-y="-15.00" dynamics="88.89">
    <chord/>
    <pitch>
     <step>C</step>
     <octave>5</octave>
    </pitch>
    <duration>4</duration>
    <voice>1</voice>
    <type>quarter</type>
   </note>
   <backup>
    <duration>16</duration>
   </backup>
   <forward>
    <duration>16</duration>
    <voice>2</voice>
   </forward>
  </measure>
  <measure number="4" width="249.44">
   <note default-x="17.12" default-y="-40.00" dynamics="88.89">
    <pitch>
     <step>E</step>
     <octave>4</octave>
    </pitch>
    <duration>2</duration>
    <voice>1</voice>
    <type>eighth</type>
    <beam number="1">begin</beam>
   </note>
   <note default-x="48.20" default-y="-35.00" dynamics="88.89">
    <pitch>
     <step>F</step>
     <alter>1</alter>
     <octave>4</octave>
    </pitch>
    <duration>2</duration>
    <voice>1</voice>
    <type>eighth</type>
    <accidental>sharp</accidental>
    <beam number="1">continue</beam>
   </note>
   <note default-x="79.28" default-y="-55.00" dynamics="88.89">
    <pitch>
     <step>B</step>
     <octave>3</octave>
    </pitch>
    <duration>2</duration>
    <voice>1</voice>
    <type>eighth</type>
    <beam number="1">continue</beam>
   </note>
   <note default-x="79.28" default-y="-30.00" dynamics="88.89">
    <chord/>
    <pitch>
     <step>G</step>
     <alter>1</alter>
     <octave>4</octave>
    </pitch>
    <duration>2</duration>
    <voice>1</voice>
    <type>eighth</type>
    <accidental>sharp</accidental>
   </note>
   <note default-x="106.25" default-y="-25.00" dynamics="88.89">
    <pitch>
     <step>A</step>
     <octave>4</octave>
    </pitch>
    <duration>2</duration>
    <voice>1</voice>
    <type>eighth</type>
    <beam number="1">end</beam>
   </note>
   <note default-x="133.22" default-y="-35.00" dynamics="88.89">
    <pitch>
     <step>F</step>
     <alter>1</alter>
     <octave>4</octave>
    </pitch>
    <duration>2</duration>
    <voice>1</voice>
    <type>eighth</type>
    <beam number="1">begin</beam>
   </note>
   <note default-x="160.19" default-y="-35.00" dynamics="88.89">
    <pitch>
     <step>F</step>
     <alter>1</alter>
     <octave>4</octave>
    </pitch>
    <duration>1</duration>
    <voice>1</voice>
    <type>16th</type>
    <beam number="1">continue</beam>
    <beam number="2">begin</beam>
   </note>
   <note default-x="177.05" default-y="-30.00" dynamics="88.89">
    <pitch>
     <step>G</step>
     <alter>1</alter>
     <octave>4</octave>
    </pitch>
    <duration>1</duration>
    <voice>1</voice>
    <type>16th</type>
    <beam number="1">end</beam>
    <beam number="2">end</beam>
   </note>
   <note default-x="193.90" default-y="-60.00" dynamics="88.89">
    <pitch>
     <step>A</step>
     <octave>3</octave>
    </pitch>
    <duration>2</duration>
    <voice>1</voice>
    <type>eighth</type>
    <beam number="1">begin</beam>
   </note>
   <note default-x="193.90" default-y="-45.00" dynamics="88.89">
    <chord/>
    <pitch>
     <step>D</step>
     <octave>4</octave>
    </pitch>
    <duration>2</duration>
    <voice>1</voice>
    <type>eighth</type>
   </note>
   <note default-x="193.90" default-y="-35.00" dynamics="88.89">
    <chord/>
    <pitch>
     <step>F</step>
     <alter>1</alter>
     <octave>4</octave>
    </pitch>
    <duration>2</duration>
    <voice>1</voice>
    <type>eighth</type>
   </note>
   <note default-x="220.87" default-y="-50.00" dynamics="88.89">
    <pitch>
     <step>C</step>
     <octave>4</octave>
    </pitch>
    <duration>2</duration>
    <voice>1</voice>
    <type>eighth</type>
    <beam number="1">end</beam>
   </note>
   <note default-x="220.87" default-y="-40.00" dynamics="88.89">
    <chord/>
    <pitch>
     <step>E</step>
     <octave>4</octave>
    </pitch>
    <duration>2</duration>
    <voice>1</voice>
    <type>eighth</type>
   </note>
   <backup>
    <duration>16</duration>
   </backup>
   <forward>
    <duration>16</duration>
    <voice>2</voice>
   </forward>
  </measure>
  <measure number="5" width="262.36">
   <note default-x="73.50" default-y="-45.00" dynamics="88.89">
    <pitch>
     <step>D</step>
     <octave>4</octave>
    </pitch>
    <duration>4</duration>
    <voice>1</voice>
    <type>quarter</type>
   </note>
   <note default-x="73.50" default-y="-35.00" dynamics="88.89">
    <chord/>
    <pitch>
     <step>F</step>
     <alter>1</alter>
     <octave>4</octave>
    </pitch>
    <duration>4</duration>
    <voice>1</voice>
    <type>quarter</type>
    <accidental>sharp</accidental>
   </note>
   <note default-x="112.88" default-y="-45.00" dynamics="88.89">
    <pitch>
     <step>D</step>
     <octave>4</octave>
    </pitch>
    <duration>4</duration>
    <voice>1</voice>
    <type>quarter</type>
   </note>
   <note default-x="112.88" default-y="-35.00" dynamics="88.89">
    <chord/>
    <pitch>
     <step>F</step>
     <alter>1</alter>
     <octave>4</octave>
    </pitch>
    <duration>4</duration>
    <voice>1</voice>
    <type>quarter</type>
   </note>
   <note default-x="112.88" default-y="-25.00" dynamics="88.89">
    <chord/>
    <pitch>
     <step>A</step>
     <octave>4</octave>
    </pitch>
    <duration>4</duration>
    <voice>1</voice>
    <type>quarter</type>
   </note>
   <note default-x="152.25" default-y="-30.00" dynamics="88.89">
    <pitch>
     <step>G</step>
     <alter>1</alter>
     <octave>4</octave>
    </pitch>
    <duration>2</duration>
    <voice>1</voice>
    <type>eighth</type>
    <accidental>sharp</accidental>
    <beam number="1">begin</beam>
   </note>
   <note default-x="186.93" default-y="-25.00" dynamics="88.89">
    <pitch>
     <step>A</step>
     <octave>4</octave>
    </pitch>
    <duration>2</duration>
    <voice>1</voice>
    <type>eighth</type>
    <beam number="1">end</beam>
   </note>
   <note default-x="211.54" default-y="-30.00" dynamics="88.89">
    <pitch>
     <step>G</step>
     <alter>1</alter>
     <octave>4</octave>
    </pitch>
    <duration>4</duration>
    <tie type="start"/>
    <voice>1</voice>
    <type>quarter</type>
    <notations>
     <tied type="start"/>
    </notations>
   </note>
   <backup>
    <duration>16</duration>
   </backup>
   <forward>
    <duration>16</duration>
    <voice>2</voice>
   </forward>
  </measure>
  <measure number="6" width="231.02">
   <note default-x="10.00" default-y="-30.00" dynamics="88.89">
    <pitch>
     <step>G</step>
     <alter>1</alter>
     <octave>4</octave>
    </pitch>
    <duration>2</duration>
    <tie type="stop"/>
    <voice>1</voice>
    <type>eighth</type>
    <beam number="1">begin</beam>
    <notations>
     <tied type="stop"/>
    </notations>
   </note>
   <note default-x="41.08" default-y="-35.00" dynamics="88.89">
    <pitch>
     <step>F</step>
     <alter>1</alter>
     <octave>4</octave>
    </pitch>
    <duration>2</duration>
    <voice>1</voice>
    <type>eighth</type>
    <accidental>sharp</accidental>
    <beam number="1">end</beam>
   </note>
   <note default-x="41.08" default-y="-25.00" dynamics="88.89">
    <chord/>
    <pitch>
     <step>A</step>
     <octave>4</octave>
    </pitch>
    <duration>2</duration>
    <voice>1</voice>
    <type>eighth</type>
   </note>
   <note default-x="72.16" default-y="-30.00" dynamics="88.89">
    <pitch>
     <step>G</step>
     <alter>1</alter>
     <octave>4</octave>
    </pitch>
    <duration>4</duration>
    <tie type="start"/>
    <voice>1</voice>
    <type>quarter</type>
    <accidental>sharp</accidental>
    <notations>
     <tied type="start"/>
    </notations>
   </note>
   <note default-x="72.16" default-y="-20.00" dynamics="88.89">
    <chord/>
    <pitch>
     <step>B</step>
     <octave>4</octave>
    </pitch>
    <duration>4</duration>
    <tie type="start"/>
    <voice>1</voice>
    <type>quarter</type>
    <notations>
     <tied type="start"/>
    </notations>
   </note>
   <note default-x="124.58" default-y="-30.00" dynamics="88.89">
    <pitch>
     <step>G</step>
     <alter>1</alter>
     <octave>4</octave>
    </pitch>
    <duration>2</duration>
    <tie type="stop"/>
    <voice>1</voice>
    <type>eighth</type>
    <beam number="1">begin</beam>
    <notations>
     <tied type="stop"/>
    </notations>
   </note>
   <note default-x="124.58" default-y="-20.00" dynamics="88.89">
    <chord/>
    <pitch>
     <step>B</step>
     <octave>4</octave>
    </pitch>
    <duration>2</duration>
    <tie type="stop"/>
    <voice>1</voice>
    <type>eighth</type>
    <notations>
     <tied type="stop"/>
    </notations>
   </note>
   <direction placement="above">
    <direction-type>
     <metronome parentheses="no" default-y="0.32" relative-y="20.00">
      <beat-unit>quarter</beat-unit>
      <per-minute>149</per-minute>
     </metronome>
    </direction-type>
    <sound tempo="149"/>
   </direction>
   <note default-x="150.79" default-y="-25.00" dynamics="88.89">
    <pitch>
     <step>A</step>
     <octave>4</octave>
    </pitch>
    <duration>2</duration>
    <voice>1</voice>
    <type>eighth</type>
    <beam number="1">end</beam>
   </note>
   <note default-x="150.79" default-y="-15.00" dynamics="88.89">
    <chord/>
    <pitch>
     <step>C</step>
     <octave>5</octave>
    </pitch>
    <duration>2</duration>
    <voice>1</voice>
    <type>eighth</type>
   </note>
   <note default-x="177.00" default-y="-30.00" dynamics="88.89">
    <pitch>
     <step>G</step>
     <alter>1</alter>
     <octave>4</octave>
    </pitch>
    <duration>4</duration>
    <voice>1</voice>
    <type>quarter</type>
   </note>
   <backup>
    <duration>16</duration>
   </backup>
   <forward>
    <duration>16</duration>
    <voice>2</voice>
   </forward>
  </measure>
  <measure number="7" width="195.86">
   <note default-x="14.16" default-y="-25.00" dynamics="88.89">
    <pitch>
     <step>A</step>
     <octave>4</octave>
    </pitch>
    <duration>2</duration>
    <voice>1</voice>
    <type>eighth</type>
    <beam number="1">begin</beam>
   </note>
   <note default-x="14.16" default-y="-5.00" dynamics="88.89">
    <chord/>
    <pitch>
     <step>E</step>
     <octave>5</octave>
    </pitch>
    <duration>2</duration>
    <voice>1</voice>
    <type>eighth</type>
   </note>
   <note default-x="14.16" default-y="5.00" dynamics="88.89">
    <chord/>
    <pitch>
     <step>G</step>
     <octave>5</octave>
    </pitch>
    <duration>2</duration>
    <voice>1</voice>
    <type>eighth</type>
   </note>
   <direction placement="above">
    <direction-type>
     <metronome parentheses="no" relative-y="20.00">
      <beat-unit>quarter</beat-unit>
      <per-minute>154</per-minute>
     </metronome>
    </direction-type>
    <sound tempo="154"/>
   </direction>
   <note default-x="36.46" default-y="-10.00" dynamics="88.89">
    <pitch>
     <step>D</step>
     <octave>5</octave>
    </pitch>
    <duration>1</duration>
    <voice>1</voice>
    <type>16th</type>
    <beam number="1">continue</beam>
    <beam number="2">begin</beam>
   </note>
   <note default-x="36.46" default-y="0.00" dynamics="88.89">
    <chord/>
    <pitch>
     <step>F</step>
     <octave>5</octave>
    </pitch>
    <duration>1</duration>
    <voice>1</voice>
    <type>16th</type>
   </note>
   <note default-x="52.12" default-y="-5.00" dynamics="88.89">
    <pitch>
     <step>E</step>
     <octave>5</octave>
    </pitch>
    <duration>1</duration>
    <voice>1</voice>
    <type>16th</type>
    <beam number="1">end</beam>
    <beam number="2">end</beam>
   </note>
   <note default-x="52.12" default-y="5.00" dynamics="88.89">
    <chord/>
    <pitch>
     <step>G</step>
     <octave>5</octave>
    </pitch>
    <duration>1</duration>
    <voice>1</voice>
    <type>16th</type>
   </note>
   <note default-x="67.79" default-y="-10.00" dynamics="88.89">
    <pitch>
     <step>D</step>
     <octave>5</octave>
    </pitch>
    <duration>2</duration>
    <voice>1</voice>
    <type>eighth</type>
    <beam number="1">begin</beam>
   </note>
   <note default-x="67.79" default-y="0.00" dynamics="88.89">
    <chord/>
    <pitch>
     <step>F</step>
     <octave>5</octave>
    </pitch>
    <duration>2</duration>
    <voice>1</voice>
    <type>eighth</type>
   </note>
   <note default-x="90.08" default-y="-15.00" dynamics="88.89">
    <pitch>
     <step>C</step>
     <octave>5</octave>
    </pitch>
    <duration>2</duration>
    <voice>1</voice>
    <type>eighth</type>
    <beam number="1">end</beam>
   </note>
   <note default-x="90.08" default-y="-5.00" dynamics="88.89">
    <chord/>
    <pitch>
     <step>E</step>
     <octave>5</octave>
    </pitch>
    <duration>2</duration>
    <voice>1</voice>
    <type>eighth</type>
   </note>
   <note default-x="119.02" default-y="-35.00" dynamics="88.89">
    <pitch>
     <step>F</step>
     <octave>4</octave>
    </pitch>
    <duration>2</duration>
    <voice>1</voice>
    <type>eighth</type>
    <beam number="1">begin</beam>
   </note>
   <note default-x="119.02" default-y="-20.00" dynamics="88.89">
    <chord/>
    <pitch>
     <step>B</step>
     <alter>-1</alter>
     <octave>4</octave>
    </pitch>
    <duration>2</duration>
    <voice>1</voice>
    <type>eighth</type>
    <accidental>flat</accidental>
   </note>
   <note default-x="119.02" default-y="-10.00" dynamics="88.89">
    <chord/>
    <pitch>
     <step>D</step>
     <octave>5</octave>
    </pitch>
    <duration>2</duration>
    <voice>1</voice>
    <type>eighth</type>
   </note>
   <note default-x="141.31" default-y="-25.00" dynamics="88.89">
    <pitch>
     <step>A</step>
     <octave>4</octave>
    </pitch>
    <duration>2</duration>
    <voice>1</voice>
    <type>eighth</type>
    <beam number="1">end</beam>
   </note>
   <note default-x="141.31" default-y="-15.00" dynamics="88.89">
    <chord/>
    <pitch>
     <step>C</step>
     <octave>5</octave>
    </pitch>
    <duration>2</duration>
    <voice>1</voice>
    <type>eighth</type>
   </note>
   <direction placement="above">
    <direction-type>
     <metronome parentheses="no" relative-y="20.00">
      <beat-unit>quarter</beat-unit>
      <per-minute>149</per-minute>
     </metronome>
    </direction-type>
    <sound tempo="149"/>
   </direction>
   <note default-x="163.61" default-y="-20.00" dynamics="88.89">
    <pitch>
     <step>B</step>
     <alter>-1</alter>
     <octave>4</octave>
    </pitch>
    <duration>4</duration>
    <tie type="start"/>
    <voice>1</voice>
    <type>quarter</type>
    <notations>
     <tied type="start"/>
    </notations>
   </note>
   <note default-x="163.61" default-y="-10.00" dynamics="88.89">
    <chord/>
    <pitch>
     <step>D</step>
     <octave>5</octave>
    </pitch>
    <duration>4</duration>
    <tie type="start"/>
    <voice>1</voice>
    <type>quarter</type>
    <notations>
     <tied type="start"/>
    </notations>
   </note>
   <backup>
    <duration>16</duration>
   </backup>
   <forward>
    <duration>8</duration>
    <voice>2</voice>
   </forward>
   <note default-x="118.66" default-y="-90.00" dynamics="88.89">
    <pitch>
     <step>D</step>
     <octave>4</octave>
    </pitch>
    <duration>8</duration>
    <voice>2</voice>
    <type>half</type>
   </note>
  </measure>
  <measure number="8" width="195.50">
   <note default-x="13.80" default-y="-20.00" dynamics="88.89">
    <pitch>
     <step>B</step>
     <alter>-1</alter>
     <octave>4</octave>
    </pitch>
    <duration>2</duration>
    <tie type="stop"/>
    <voice>1</voice>
    <type>eighth</type>
    <beam number="1">begin</beam>
    <notations>
     <tied type="stop"/>
    </notations>
   </note>
   <note default-x="13.80" default-y="-10.00" dynamics="88.89">
    <chord/>
    <pitch>
     <step>D</step>
     <octave>5</octave>
    </pitch>
    <duration>2</duration>
    <tie type="stop"/>
    <voice>1</voice>
    <type>eighth</type>
    <notations>
     <tied type="stop"/>
    </notations>
   </note>
   <note default-x="35.06" default-y="-25.00" dynamics="88.89">
    <pitch>
     <step>A</step>
     <octave>4</octave>
    </pitch>
    <duration>1</duration>
    <voice>1</voice>
    <type>16th</type>
    <beam number="1">continue</beam>
    <beam number="2">begin</beam>
   </note>
   <note default-x="35.06" default-y="-15.00" dynamics="88.89">
    <chord/>
    <pitch>
     <step>C</step>
     <octave>5</octave>
    </pitch>
    <duration>1</duration>
    <voice>1</voice>
    <type>16th</type>
   </note>
   <note default-x="63.99" default-y="-20.00" dynamics="88.89">
    <pitch>
     <step>B</step>
     <alter>-1</alter>
     <octave>4</octave>
    </pitch>
    <duration>1</duration>
    <voice>1</voice>
    <type>16th</type>
    <accidental>flat</accidental>
    <beam number="1">end</beam>
    <beam number="2">end</beam>
   </note>
   <note default-x="63.99" default-y="-10.00" dynamics="88.89">
    <chord/>
    <pitch>
     <step>D</step>
     <octave>5</octave>
    </pitch>
    <duration>1</duration>
    <voice>1</voice>
    <type>16th</type>
   </note>
   <note default-x="79.66" default-y="-25.00" dynamics="88.89">
    <pitch>
     <step>A</step>
     <octave>4</octave>
    </pitch>
    <duration>2</duration>
    <voice>1</voice>
    <type>eighth</type>
    <beam number="1">begin</beam>
   </note>
   <note default-x="79.66" default-y="-15.00" dynamics="88.89">
    <chord/>
    <pitch>
     <step>C</step>
     <octave>5</octave>
    </pitch>
    <duration>2</duration>
    <voice>1</voice>
    <type>eighth</type>
   </note>
   <note default-x="100.91" default-y="-30.00" dynamics="88.89">
    <pitch>
     <step>G</step>
     <octave>4</octave>
    </pitch>
    <duration>2</duration>
    <voice>1</voice>
    <type>eighth</type>
    <beam number="1">end</beam>
   </note>
   <note default-x="100.91" default-y="-20.00" dynamics="88.89">
    <chord/>
    <pitch>
     <step>B</step>
     <alter>-1</alter>
     <octave>4</octave>
    </pitch>
    <duration>2</duration>
    <voice>1</voice>
    <type>eighth</type>
   </note>
   <note default-x="122.17" default-y="-35.00" dynamics="88.89">
    <pitch>
     <step>F</step>
     <octave>4</octave>
    </pitch>
    <duration>2</duration>
    <voice>1</voice>
    <type>eighth</type>
    <beam number="1">begin</beam>
   </note>
   <note default-x="122.17" default-y="-25.00" dynamics="88.89">
    <chord/>
    <pitch>
     <step>A</step>
     <octave>4</octave>
    </pitch>
    <duration>2</duration>
    <voice>1</voice>
    <type>eighth</type>
   </note>
   <note default-x="143.42" default-y="-40.00" dynamics="88.89">
    <pitch>
     <step>E</step>
     <octave>4</octave>
    </pitch>
    <duration>2</duration>
    <voice>1</voice>
    <type>eighth</type>
    <beam number="1">end</beam>
   </note>
   <note default-x="143.42" default-y="-30.00" dynamics="88.89">
    <chord/>
    <pitch>
     <step>G</step>
     <octave>4</octave>
    </pitch>
    <duration>2</duration>
    <voice>1</voice>
    <type>eighth</type>
   </note>
   <note default-x="164.68" default-y="-60.00" dynamics="88.89">
    <pitch>
     <step>A</step>
     <octave>3</octave>
    </pitch>
    <duration>4</duration>
    <voice>1</voice>
    <type>quarter</type>
   </note>
   <note default-x="164.68" default-y="-45.00" dynamics="88.89">
    <chord/>
    <pitch>
     <step>D</step>
     <octave>4</octave>
    </pitch>
    <duration>4</duration>
    <voice>1</voice>
    <type>quarter</type>
   </note>
   <note default-x="164.68" default-y="-35.00" dynamics="88.89">
    <chord/>
    <pitch>
     <step>F</step>
     <octave>4</octave>
    </pitch>
    <duration>4</duration>
    <voice>1</voice>
    <type>quarter</type>
   </note>
   <note default-x="164.68" default-y="-25.00" dynamics="88.89">
    <chord/>
    <pitch>
     <step>A</step>
     <octave>4</octave>
    </pitch>
    <duration>4</duration>
    <voice>1</voice>
    <type>quarter</type>
   </note>
   <backup>
    <duration>16</duration>
   </backup>
   <note default-x="13.80" default-y="-85.00" dynamics="88.89">
    <pitch>
     <step>E</step>
     <octave>4</octave>
    </pitch>
    <duration>4</duration>
    <voice>2</voice>
    <type>quarter</type>
   </note>
   <forward>
    <duration>4</duration>
    <voice>2</voice>
   </forward>
   <forward>
    <duration>8</duration>
    <voice>2</voice>
   </forward>
  </measure>
  <measure number="9" width="192.42">
   <note default-x="10.72" default-y="-25.00" dynamics="88.89">
    <pitch>
     <step>A</step>
     <octave>4</octave>
    </pitch>
    <duration>2</duration>
    <voice>1</voice>
    <type>eighth</type>
    <beam number="1">begin</beam>
   </note>
   <note default-x="10.72" default-y="-5.00" dynamics="88.89">
    <chord/>
    <pitch>
     <step>E</step>
     <octave>5</octave>
    </pitch>
    <duration>2</duration>
    <voice>1</voice>
    <type>eighth</type>
   </note>
   <note default-x="10.72" default-y="5.00" dynamics="88.89">
    <chord/>
    <pitch>
     <step>G</step>
     <octave>5</octave>
    </pitch>
    <duration>2</duration>
    <voice>1</voice>
    <type>eighth</type>
   </note>
   <note default-x="33.02" default-y="-10.00" dynamics="88.89">
    <pitch>
     <step>D</step>
     <octave>5</octave>
    </pitch>
    <duration>1</duration>
    <voice>1</voice>
    <type>16th</type>
    <beam number="1">continue</beam>
    <beam number="2">begin</beam>
   </note>
   <note default-x="33.02" default-y="0.00" dynamics="88.89">
    <chord/>
    <pitch>
     <step>F</step>
     <octave>5</octave>
    </pitch>
    <duration>1</duration>
    <voice>1</voice>
    <type>16th</type>
   </note>
   <note default-x="48.68" default-y="-5.00" dynamics="88.89">
    <pitch>
     <step>E</step>
     <octave>5</octave>
    </pitch>
    <duration>1</duration>
    <voice>1</voice>
    <type>16th</type>
    <beam number="1">end</beam>
    <beam number="2">end</beam>
   </note>
   <note default-x="48.68" default-y="5.00" dynamics="88.89">
    <chord/>
    <pitch>
     <step>G</step>
     <octave>5</octave>
    </pitch>
    <duration>1</duration>
    <voice>1</voice>
    <type>16th</type>
   </note>
   <note default-x="64.35" default-y="-10.00" dynamics="88.89">
    <pitch>
     <step>D</step>
     <octave>5</octave>
    </pitch>
    <duration>2</duration>
    <voice>1</voice>
    <type>eighth</type>
    <beam number="1">begin</beam>
   </note>
   <note default-x="64.35" default-y="0.00" dynamics="88.89">
    <chord/>
    <pitch>
     <step>F</step>
     <octave>5</octave>
    </pitch>
    <duration>2</duration>
    <voice>1</voice>
    <type>eighth</type>
   </note>
   <note default-x="86.64" default-y="-15.00" dynamics="88.89">
    <pitch>
     <step>C</step>
     <octave>5</octave>
    </pitch>
    <duration>2</duration>
    <voice>1</voice>
    <type>eighth</type>
    <beam number="1">end</beam>
   </note>
   <note default-x="86.64" default-y="-5.00" dynamics="88.89">
    <chord/>
    <pitch>
     <step>E</step>
     <octave>5</octave>
    </pitch>
    <duration>2</duration>
    <voice>1</voice>
    <type>eighth</type>
   </note>
   <note default-x="115.58" default-y="-35.00" dynamics="88.89">
    <pitch>
     <step>F</step>
     <octave>4</octave>
    </pitch>
    <duration>2</duration>
    <voice>1</voice>
    <type>eighth</type>
    <beam number="1">begin</beam>
   </note>
   <note default-x="115.58" default-y="-20.00" dynamics="88.89">
    <chord/>
    <pitch>
     <step>B</step>
     <alter>-1</alter>
     <octave>4</octave>
    </pitch>
    <duration>2</duration>
    <voice>1</voice>
    <type>eighth</type>
    <accidental>flat</accidental>
   </note>
   <note default-x="115.58" default-y="-10.00" dynamics="88.89">
    <chord/>
    <pitch>
     <step>D</step>
     <octave>5</octave>
    </pitch>
    <duration>2</duration>
    <voice>1</voice>
    <type>eighth</type>
   </note>
   <note default-x="137.87" default-y="-25.00" dynamics="88.89">
    <pitch>
     <step>A</step>
     <octave>4</octave>
    </pitch>
    <duration>2</duration>
    <voice>1</voice>
    <type>eighth</type>
    <beam number="1">end</beam>
   </note>
   <note default-x="137.87" default-y="-15.00" dynamics="88.89">
    <chord/>
    <pitch>
     <step>C</step>
     <octave>5</octave>
    </pitch>
    <duration>2</duration>
    <voice>1</voice>
    <type>eighth</type>
   </note>
   <note default-x="160.17" default-y="-20.00" dynamics="88.89">
    <pitch>
     <step>B</step>
     <alter>-1</alter>
     <octave>4</octave>
    </pitch>
    <duration>4</duration>
    <voice>1</voice>
    <type>quarter</type>
   </note>
   <note default-x="160.17" default-y="-10.00" dynamics="88.89">
    <chord/>
    <pitch>
     <step>D</step>
     <octave>5</octave>
    </pitch>
    <duration>4</duration>
    <voice>1</voice>
    <type>quarter</type>
   </note>
   <backup>
    <duration>16</duration>
   </backup>
   <note default-x="10.36" default-y="-105.00" dynamics="88.89">
    <pitch>
     <step>A</step>
     <octave>3</octave>
    </pitch>
    <duration>8</duration>
    <voice>2</voice>
    <type>half</type>
   </note>
   <note default-x="115.22" default-y="-100.00" dynamics="88.89">
    <pitch>
     <step>B</step>
     <alter>-1</alter>
     <octave>3</octave>
    </pitch>
    <duration>8</duration>
    <voice>2</voice>
    <type>half</type>
    <accidental>flat</accidental>
   </note>
  </measure>
  <measure number="10" width="268.25">
   <note default-x="64.69" default-y="-50.00" dynamics="88.89">
    <pitch>
     <step>C</step>
     <octave>4</octave>
    </pitch>
    <duration>2</duration>
    <voice>1</voice>
    <type>eighth</type>
    <beam number="1">begin</beam>
   </note>
   <note default-x="64.69" default-y="-40.00" dynamics="88.89">
    <chord/>
    <pitch>
     <step>E</step>
     <octave>4</octave>
    </pitch>
    <duration>2</duration>
    <voice>1</voice>
    <type>eighth</type>
   </note>
   <note default-x="64.69" default-y="-30.00" dynamics="88.89">
    <chord/>
    <pitch>
     <step>G</step>
     <octave>4</octave>
    </pitch>
    <duration>2</duration>
    <voice>1</voice>
    <type>eighth</type>
   </note>
   <note default-x="87.06" default-y="-25.00" dynamics="88.89">
    <pitch>
     <step>A</step>
     <octave>4</octave>
    </pitch>
    <duration>1</duration>
    <voice>1</voice>
    <type>16th</type>
    <beam number="1">continue</beam>
    <beam number="2">begin</beam>
   </note>
   <note default-x="87.06" default-y="-15.00" dynamics="88.89">
    <chord/>
    <pitch>
     <step>C</step>
     <octave>5</octave>
    </pitch>
    <duration>1</duration>
    <voice>1</voice>
    <type>16th</type>
   </note>
   <note default-x="115.99" default-y="-20.00" dynamics="88.89">
    <pitch>
     <step>B</step>
     <alter>-1</alter>
     <octave>4</octave>
    </pitch>
    <duration>1</duration>
    <voice>1</voice>
    <type>16th</type>
    <accidental>flat</accidental>
    <beam number="1">end</beam>
    <beam number="2">end</beam>
   </note>
   <note default-x="115.99" default-y="-10.00" dynamics="88.89">
    <chord/>
    <pitch>
     <step>D</step>
     <octave>5</octave>
    </pitch>
    <duration>1</duration>
    <voice>1</voice>
    <type>16th</type>
   </note>
   <note default-x="131.66" default-y="-25.00" dynamics="88.89">
    <pitch>
     <step>A</step>
     <octave>4</octave>
    </pitch>
    <duration>2</duration>
    <voice>1</voice>
    <type>eighth</type>
    <beam number="1">begin</beam>
   </note>
   <note default-x="131.66" default-y="-15.00" dynamics="88.89">
    <chord/>
    <pitch>
     <step>C</step>
     <octave>5</octave>
    </pitch>
    <duration>2</duration>
    <voice>1</voice>
    <type>eighth</type>
   </note>
   <note default-x="154.02" default-y="-30.00" dynamics="88.89">
    <pitch>
     <step>G</step>
     <octave>4</octave>
    </pitch>
    <duration>2</duration>
    <voice>1</voice>
    <type>eighth</type>
    <beam number="1">end</beam>
   </note>
   <note default-x="154.02" default-y="-20.00" dynamics="88.89">
    <chord/>
    <pitch>
     <step>B</step>
     <alter>-1</alter>
     <octave>4</octave>
    </pitch>
    <duration>2</duration>
    <voice>1</voice>
    <type>eighth</type>
   </note>
   <note default-x="176.39" default-y="-50.00" dynamics="88.89">
    <pitch>
     <step>C</step>
     <octave>4</octave>
    </pitch>
    <duration>2</duration>
    <voice>1</voice>
    <type>eighth</type>
    <beam number="1">begin</beam>
   </note>
   <note default-x="176.39" default-y="-35.00" dynamics="88.89">
    <chord/>
    <pitch>
     <step>F</step>
     <octave>4</octave>
    </pitch>
    <duration>2</duration>
    <voice>1</voice>
    <type>eighth</type>
   </note>
   <note default-x="176.39" default-y="-25.00" dynamics="88.89">
    <chord/>
    <pitch>
     <step>A</step>
     <octave>4</octave>
    </pitch>
    <duration>2</duration>
    <voice>1</voice>
    <type>eighth</type>
   </note>
   <note default-x="198.76" default-y="-40.00" dynamics="88.89">
    <pitch>
     <step>E</step>
     <octave>4</octave>
    </pitch>
    <duration>2</duration>
    <voice>1</voice>
    <type>eighth</type>
    <beam number="1">continue</beam>
   </note>
   <note default-x="198.76" default-y="-30.00" dynamics="88.89">
    <chord/>
    <pitch>
     <step>G</step>
     <octave>4</octave>
    </pitch>
    <duration>2</duration>
    <voice>1</voice>
    <type>eighth</type>
   </note>
   <direction placement="above">
    <direction-type>
     <metronome parentheses="no" relative-y="20.00">
      <beat-unit>quarter</beat-unit>
      <per-minute>144</per-minute>
     </metronome>
    </direction-type>
    <sound tempo="144"/>
   </direction>
   <note default-x="221.12" default-y="-35.00" dynamics="88.89">
    <pitch>
     <step>F</step>
     <octave>4</octave>
    </pitch>
    <duration>2</duration>
    <voice>1</voice>
    <type>eighth</type>
    <beam number="1">continue</beam>
   </note>
   <note default-x="221.12" default-y="-25.00" dynamics="88.89">
    <chord/>
    <pitch>
     <step>A</step>
     <octave>4</octave>
    </pitch>
    <duration>2</duration>
    <voice>1</voice>
    <type>eighth</type>
   </note>
   <note default-x="243.49" default-y="-40.00" dynamics="88.89">
    <pitch>
     <step>E</step>
     <octave>4</octave>
    </pitch>
    <duration>2</duration>
    <voice>1</voice>
    <type>eighth</type>
    <beam number="1">end</beam>
   </note>
   <backup>
    <duration>16</duration>
   </backup>
   <forward>
    <duration>16</duration>
    <voice>2</voice>
   </forward>
  </measure>
  <measure number="11" width="202.97">
   <note>
    <rest/>
    <duration>2</duration>
    <voice>1</voice>
    <type>eighth</type>
   </note>
   <note default-x="32.27" default-y="-30.00" dynamics="88.89">
    <pitch>
     <step>G</step>
     <octave>4</octave>
    </pitch>
    <duration>2</duration>
    <voice>1</voice>
    <type>eighth</type>
    <beam number="1">begin</beam>
   </note>
   <note default-x="54.33" default-y="-25.00" dynamics="88.89">
    <pitch>
     <step>A</step>
     <octave>4</octave>
    </pitch>
    <duration>2</duration>
    <voice>1</voice>
    <type>eighth</type>
    <beam number="1">continue</beam>
   </note>
   <note default-x="76.40" default-y="-40.00" dynamics="88.89">
    <pitch>
     <step>E</step>
     <octave>4</octave>
    </pitch>
    <duration>2</duration>
    <voice>1</voice>
    <type>eighth</type>
    <beam number="1">end</beam>
   </note>
   <note default-x="102.40" default-y="-45.00" dynamics="88.89">
    <pitch>
     <step>D</step>
     <octave>4</octave>
    </pitch>
    <duration>2</duration>
    <voice>1</voice>
    <type>eighth</type>
    <beam number="1">begin</beam>
   </note>
   <note default-x="124.46" default-y="-30.00" dynamics="88.89">
    <pitch>
     <step>G</step>
     <octave>4</octave>
    </pitch>
    <duration>2</duration>
    <voice>1</voice>
    <type>eighth</type>
    <beam number="1">end</beam>
   </note>
   <note default-x="146.53" default-y="-25.00" dynamics="88.89">
    <pitch>
     <step>A</step>
     <octave>4</octave>
    </pitch>
    <duration>4</duration>
    <tie type="start"/>
    <voice>1</voice>
    <type>quarter</type>
    <notations>
     <tied type="start"/>
    </notations>
   </note>
   <backup>
    <duration>16</duration>
   </backup>
   <forward>
    <duration>16</duration>
    <voice>2</voice>
   </forward>
  </measure>
  <measure number="12" width="191.09">
   <note default-x="10.72" default-y="-25.00" dynamics="88.89">
    <pitch>
     <step>A</step>
     <octave>4</octave>
    </pitch>
    <duration>2</duration>
    <tie type="stop"/>
    <voice>1</voice>
    <type>eighth</type>
    <beam number="1">begin</beam>
    <notations>
     <tied type="stop"/>
    </notations>
   </note>
   <note default-x="32.44" default-y="-20.00" dynamics="88.89">
    <pitch>
     <step>B</step>
     <octave>4</octave>
    </pitch>
    <duration>2</duration>
    <voice>1</voice>
    <type>eighth</type>
    <beam number="1">continue</beam>
   </note>
   <note default-x="54.17" default-y="-10.00" dynamics="88.89">
    <pitch>
     <step>D</step>
     <octave>5</octave>
    </pitch>
    <duration>2</duration>
    <voice>1</voice>
    <type>eighth</type>
    <beam number="1">continue</beam>
   </note>
   <note default-x="75.89" default-y="-20.00" dynamics="88.89">
    <pitch>
     <step>B</step>
     <octave>4</octave>
    </pitch>
    <duration>2</duration>
    <voice>1</voice>
    <type>eighth</type>
    <beam number="1">end</beam>
   </note>
   <note default-x="101.16" default-y="-25.00" dynamics="88.89">
    <pitch>
     <step>A</step>
     <octave>4</octave>
    </pitch>
    <duration>2</duration>
    <voice>1</voice>
    <type>eighth</type>
    <beam number="1">begin</beam>
   </note>
   <direction placement="above">
    <direction-type>
     <metronome parentheses="no" relative-y="20.00">
      <beat-unit>quarter</beat-unit>
      <per-minute>149</per-minute>
     </metronome>
    </direction-type>
    <sound tempo="149"/>
   </direction>
   <note default-x="122.88" default-y="-20.00" dynamics="88.89">
    <pitch>
     <step>B</step>
     <octave>4</octave>
    </pitch>
    <duration>2</duration>
    <voice>1</voice>
    <type>eighth</type>
    <beam number="1">continue</beam>
   </note>
   <note default-x="144.61" default-y="-40.00" dynamics="88.89">
    <pitch>
     <step>E</step>
     <octave>4</octave>
    </pitch>
    <duration>2</duration>
    <voice>1</voice>
    <type>eighth</type>
    <beam number="1">continue</beam>
   </note>
   <note default-x="144.61" default-y="-30.00" dynamics="88.89">
    <chord/>
    <pitch>
     <step>G</step>
     <octave>4</octave>
    </pitch>
    <duration>2</duration>
    <voice>1</voice>
    <type>eighth</type>
   </note>
   <note default-x="166.33" default-y="-30.00" dynamics="88.89">
    <pitch>
     <step>G</step>
     <octave>4</octave>
    </pitch>
    <duration>2</duration>
    <voice>1</voice>
    <type>eighth</type>
    <beam number="1">end</beam>
   </note>
   <backup>
    <duration>16</duration>
   </backup>
   <forward>
    <duration>16</duration>
    <voice>2</voice>
   </forward>
  </measure>
  <measure number="13" width="202.84">
   <note default-x="10.94" default-y="-45.00" dynamics="88.89">
    <pitch>
     <step>D</step>
     <octave>4</octave>
    </pitch>
    <duration>2</duration>
    <voice>1</voice>
    <type>eighth</type>
    <beam number="1">begin</beam>
   </note>
   <note default-x="10.94" default-y="-25.00" dynamics="88.89">
    <chord/>
    <pitch>
     <step>A</step>
     <octave>4</octave>
    </pitch>
    <duration>2</duration>
    <voice>1</voice>
    <type>eighth</type>
   </note>
   <note default-x="32.98" default-y="-30.00" dynamics="88.89">
    <pitch>
     <step>G</step>
     <octave>4</octave>
    </pitch>
    <duration>2</duration>
    <voice>1</voice>
    <type>eighth</type>
    <beam number="1">end</beam>
   </note>
   <note default-x="55.02" default-y="-25.00" dynamics="88.89">
    <pitch>
     <step>A</step>
     <octave>4</octave>
    </pitch>
    <duration>4</duration>
    <tie type="start"/>
    <voice>1</voice>
    <type>quarter</type>
    <notations>
     <tied type="start"/>
    </notations>
   </note>
   <note default-x="102.34" default-y="-25.00" dynamics="88.89">
    <pitch>
     <step>A</step>
     <octave>4</octave>
    </pitch>
    <duration>2</duration>
    <tie type="stop"/>
    <voice>1</voice>
    <type>eighth</type>
    <beam number="1">begin</beam>
    <notations>
     <tied type="stop"/>
    </notations>
   </note>
   <note default-x="124.38" default-y="-20.00" dynamics="88.89">
    <pitch>
     <step>B</step>
     <octave>4</octave>
    </pitch>
    <duration>2</duration>
    <voice>1</voice>
    <type>eighth</type>
    <beam number="1">continue</beam>
   </note>
   <note default-x="146.42" default-y="-10.00" dynamics="88.89">
    <pitch>
     <step>D</step>
     <octave>5</octave>
    </pitch>
    <duration>2</duration>
    <voice>1</voice>
    <type>eighth</type>
    <beam number="1">continue</beam>
   </note>
   <note default-x="168.46" default-y="-20.00" dynamics="88.89">
    <pitch>
     <step>B</step>
     <octave>4</octave>
    </pitch>
    <duration>2</duration>
    <voice>1</voice>
    <type>eighth</type>
    <beam number="1">end</beam>
   </note>
   <backup>
    <duration>16</duration>
   </backup>
   <forward>
    <duration>16</duration>
    <voice>2</voice>
   </forward>
  </measure>
  <measure number="14" width="212.01">
   <note default-x="10.00" default-y="-25.00" dynamics="88.89">
    <pitch>
     <step>A</step>
     <octave>4</octave>
    </pitch>
    <duration>2</duration>
    <voice>1</voice>
    <type>eighth</type>
    <beam number="1">begin</beam>
   </note>
   <note default-x="33.57" default-y="-20.00" dynamics="88.89">
    <pitch>
     <step>B</step>
     <octave>4</octave>
    </pitch>
    <duration>2</duration>
    <voice>1</voice>
    <type>eighth</type>
    <beam number="1">continue</beam>
   </note>
   <note default-x="57.15" default-y="-25.00" dynamics="88.89">
    <pitch>
     <step>A</step>
     <octave>4</octave>
    </pitch>
    <duration>2</duration>
    <voice>1</voice>
    <type>eighth</type>
    <beam number="1">continue</beam>
   </note>
   <note default-x="80.72" default-y="-35.00" dynamics="88.89">
    <pitch>
     <step>F</step>
     <octave>4</octave>
    </pitch>
    <duration>2</duration>
    <voice>1</voice>
    <type>eighth</type>
    <beam number="1">end</beam>
   </note>
   <note default-x="92.58" default-y="-30.00" dynamics="88.89">
    <chord/>
    <pitch>
     <step>G</step>
     <octave>4</octave>
    </pitch>
    <duration>2</duration>
    <voice>1</voice>
    <type>eighth</type>
   </note>
   <note default-x="108.25" default-y="-50.00" dynamics="88.89">
    <pitch>
     <step>C</step>
     <octave>4</octave>
    </pitch>
    <duration>8</duration>
    <voice>1</voice>
    <type>half</type>
   </note>
   <note default-x="108.25" default-y="-40.00" dynamics="88.89">
    <chord/>
    <pitch>
     <step>E</step>
     <octave>4</octave>
    </pitch>
    <duration>8</duration>
    <voice>1</voice>
    <type>half</type>
   </note>
   <backup>
    <duration>16</duration>
   </backup>
   <forward>
    <duration>8</duration>
    <voice>2</voice>
   </forward>
   <note default-x="108.61" default-y="-110.00" dynamics="88.89">
    <pitch>
     <step>G</step>
     <alter>1</alter>
     <octave>3</octave>
    </pitch>
    <duration>2</duration>
    <voice>2</voice>
    <type>eighth</type>
    <accidental>sharp</accidental>
    <beam number="1">begin</beam>
   </note>
   <note default-x="139.69" default-y="-115.00" dynamics="88.89">
    <pitch>
     <step>F</step>
     <alter>1</alter>
     <octave>3</octave>
    </pitch>
    <duration>2</duration>
    <voice>2</voice>
    <type>eighth</type>
    <accidental>sharp</accidental>
    <beam number="1">continue</beam>
   </note>
   <note default-x="163.26" default-y="-120.00" dynamics="88.89">
    <pitch>
     <step>E</step>
     <octave>3</octave>
    </pitch>
    <duration>2</duration>
    <voice>2</voice>
    <type>eighth</type>
    <beam number="1">continue</beam>
   </note>
   <note default-x="186.84" default-y="-115.00" dynamics="88.89">
    <pitch>
     <step>F</step>
     <alter>1</alter>
     <octave>3</octave>
    </pitch>
    <duration>2</duration>
    <voice>2</voice>
    <type>eighth</type>
    <beam number="1">end</beam>
   </note>
  </measure>
  <measure number="15" width="316.62">
   <note default-x="75.50" default-y="-65.00" dynamics="88.89">
    <pitch>
     <step>G</step>
     <alter>1</alter>
     <octave>3</octave>
    </pitch>
    <duration>2</duration>
    <voice>1</voice>
    <type>eighth</type>
    <accidental>sharp</accidental>
    <beam number="1">begin</beam>
   </note>
   <note default-x="105.06" default-y="-60.00" dynamics="88.89">
    <pitch>
     <step>A</step>
     <octave>3</octave>
    </pitch>
    <duration>2</duration>
    <voice>1</voice>
    <type>eighth</type>
    <beam number="1">continue</beam>
   </note>
   <note default-x="134.62" default-y="-55.00" dynamics="88.89">
    <pitch>
     <step>B</step>
     <octave>3</octave>
    </pitch>
    <duration>2</duration>
    <voice>1</voice>
    <type>eighth</type>
    <beam number="1">continue</beam>
   </note>
   <note default-x="164.18" default-y="-50.00" dynamics="88.89">
    <pitch>
     <step>C</step>
     <octave>4</octave>
    </pitch>
    <duration>2</duration>
    <voice>1</voice>
    <type>eighth</type>
    <beam number="1">end</beam>
   </note>
   <note default-x="193.74" default-y="-45.00" dynamics="88.89">
    <pitch>
     <step>D</step>
     <octave>4</octave>
    </pitch>
    <duration>2</duration>
    <voice>1</voice>
    <type>eighth</type>
    <beam number="1">begin</beam>
   </note>
   <note default-x="223.30" default-y="-40.00" dynamics="88.89">
    <pitch>
     <step>E</step>
     <octave>4</octave>
    </pitch>
    <duration>2</duration>
    <voice>1</voice>
    <type>eighth</type>
    <beam number="1">continue</beam>
   </note>
   <note default-x="254.38" default-y="-35.00" dynamics="88.89">
    <pitch>
     <step>F</step>
     <alter>1</alter>
     <octave>4</octave>
    </pitch>
    <duration>2</duration>
    <voice>1</voice>
    <type>eighth</type>
    <accidental>sharp</accidental>
    <beam number="1">continue</beam>
   </note>
   <note default-x="285.46" default-y="-30.00" dynamics="88.89">
    <pitch>
     <step>G</step>
     <alter>1</alter>
     <octave>4</octave>
    </pitch>
    <duration>2</duration>
    <voice>1</voice>
    <type>eighth</type>
    <accidental>sharp</accidental>
    <beam number="1">end</beam>
   </note>
   <backup>
    <duration>16</duration>
   </backup>
   <forward>
    <duration>16</duration>
    <voice>2</voice>
   </forward>
  </measure>
  <measure number="16" width="219.36">
   <note default-x="18.05" default-y="-45.00" dynamics="88.89">
    <pitch>
     <step>D</step>
     <octave>4</octave>
    </pitch>
    <duration>12</duration>
    <voice>1</voice>
    <type>half</type>
    <dot/>
   </note>
   <note default-x="30.64" default-y="-40.00" dynamics="88.89">
    <chord/>
    <pitch>
     <step>E</step>
     <octave>4</octave>
    </pitch>
    <duration>12</duration>
    <voice>1</voice>
    <type>half</type>
    <dot/>
   </note>
   <note default-x="169.68" default-y="-55.00" dynamics="88.89">
    <pitch>
     <step>B</step>
     <octave>3</octave>
    </pitch>
    <duration>2</duration>
    <voice>1</voice>
    <type>eighth</type>
    <beam number="1">begin</beam>
   </note>
   <note default-x="193.72" default-y="-50.00" dynamics="88.89">
    <pitch>
     <step>C</step>
     <octave>4</octave>
    </pitch>
    <duration>2</duration>
    <voice>1</voice>
    <type>eighth</type>
    <beam number="1">end</beam>
   </note>
   <backup>
    <duration>16</duration>
   </backup>
   <note default-x="18.42" default-y="-135.82" dynamics="88.89">
    <pitch>
     <step>G</step>
     <alter>1</alter>
     <octave>3</octave>
    </pitch>
    <duration>2</duration>
    <voice>2</voice>
    <type>eighth</type>
    <accidental>sharp</accidental>
    <beam number="1">begin</beam>
   </note>
   <note default-x="49.50" default-y="-140.82" dynamics="88.89">
    <pitch>
     <step>F</step>
     <alter>1</alter>
     <octave>3</octave>
    </pitch>
    <duration>2</duration>
    <voice>2</voice>
    <type>eighth</type>
    <accidental>sharp</accidental>
    <beam number="1">continue</beam>
   </note>
   <note default-x="73.53" default-y="-145.82" dynamics="88.89">
    <pitch>
     <step>E</step>
     <octave>3</octave>
    </pitch>
    <duration>2</duration>
    <voice>2</voice>
    <type>eighth</type>
    <beam number="1">continue</beam>
   </note>
   <note default-x="97.57" default-y="-140.82" dynamics="88.89">
    <pitch>
     <step>F</step>
     <alter>1</alter>
     <octave>3</octave>
    </pitch>
    <duration>2</duration>
    <voice>2</voice>
    <type>eighth</type>
    <beam number="1">end</beam>
   </note>
   <note default-x="121.61" default-y="-135.82" dynamics="88.89">
    <pitch>
     <step>G</step>
     <alter>1</alter>
     <octave>3</octave>
    </pitch>
    <duration>2</duration>
    <voice>2</voice>
    <type>eighth</type>
    <beam number="1">begin</beam>
   </note>
   <note default-x="145.65" default-y="-130.82" dynamics="88.89">
    <pitch>
     <step>A</step>
     <octave>3</octave>
    </pitch>
    <duration>2</duration>
    <voice>2</voice>
    <type>eighth</type>
    <beam number="1">end</beam>
   </note>
   <forward>
    <duration>4</duration>
    <voice>2</voice>
   </forward>
   <backup>
    <duration>8</duration>
   </backup>
   <direction placement="above">
    <direction-type>
     <metronome parentheses="no" relative-y="20.00">
      <beat-unit>quarter</beat-unit>
      <per-minute>144</per-minute>
     </metronome>
    </direction-type>
    <sound tempo="144"/>
   </direction>
   <forward>
    <duration>8</duration>
   </forward>
  </measure>
  <measure number="17" width="224.70">
   <note default-x="10.00" default-y="-45.00" dynamics="88.89">
    <pitch>
     <step>D</step>
     <octave>4</octave>
    </pitch>
    <duration>2</duration>
    <voice>1</voice>
    <type>eighth</type>
    <beam number="1">begin</beam>
   </note>
   <note default-x="35.16" default-y="-40.00" dynamics="88.89">
    <pitch>
     <step>E</step>
     <octave>4</octave>
    </pitch>
    <duration>2</duration>
    <voice>1</voice>
    <type>eighth</type>
    <beam number="1">continue</beam>
   </note>
   <direction placement="above">
    <direction-type>
     <metronome parentheses="no" relative-y="20.00">
      <beat-unit>quarter</beat-unit>
      <per-minute>140</per-minute>
     </metronome>
    </direction-type>
    <sound tempo="140"/>
   </direction>
   <note default-x="66.24" default-y="-35.00" dynamics="88.89">
    <pitch>
     <step>F</step>
     <alter>1</alter>
     <octave>4</octave>
    </pitch>
    <duration>2</duration>
    <voice>1</voice>
    <type>eighth</type>
    <accidental>sharp</accidental>
    <beam number="1">continue</beam>
   </note>
   <note default-x="97.32" default-y="-30.00" dynamics="88.89">
    <pitch>
     <step>G</step>
     <alter>1</alter>
     <octave>4</octave>
    </pitch>
    <duration>2</duration>
    <tie type="start"/>
    <voice>1</voice>
    <type>eighth</type>
    <accidental>sharp</accidental>
    <beam number="1">end</beam>
    <notations>
     <tied type="start"/>
    </notations>
   </note>
   <note default-x="122.47" default-y="-30.00" dynamics="88.89">
    <pitch>
     <step>G</step>
     <alter>1</alter>
     <octave>4</octave>
    </pitch>
    <duration>4</duration>
    <tie type="stop"/>
    <voice>1</voice>
    <type>quarter</type>
    <notations>
     <tied type="stop"/>
    </notations>
   </note>
   <note default-x="172.79" default-y="-50.00" dynamics="88.89">
    <pitch>
     <step>C</step>
     <octave>4</octave>
    </pitch>
    <duration>2</duration>
    <voice>1</voice>
    <type>eighth</type>
    <beam number="1">begin</beam>
   </note>
   <note default-x="172.79" default-y="-35.00" dynamics="88.89">
    <chord/>
    <pitch>
     <step>F</step>
     <octave>4</octave>
    </pitch>
    <duration>2</duration>
    <voice>1</voice>
    <type>eighth</type>
    <accidental>natural</accidental>
   </note>
   <note default-x="172.79" default-y="-25.00" dynamics="88.89">
    <chord/>
    <pitch>
     <step>A</step>
     <octave>4</octave>
    </pitch>
    <duration>2</duration>
    <voice>1</voice>
    <type>eighth</type>
   </note>
   <direction placement="above">
    <direction-type>
     <metronome parentheses="no" default-y="21.81" relative-y="20.00">
      <beat-unit>quarter</beat-unit>
      <per-minute>149</per-minute>
     </metronome>
    </direction-type>
    <sound tempo="149"/>
   </direction>
   <note default-x="197.94" default-y="-45.00" dynamics="88.89">
    <pitch>
     <step>D</step>
     <octave>4</octave>
    </pitch>
    <duration>2</duration>
    <voice>1</voice>
    <type>eighth</type>
    <beam number="1">end</beam>
   </note>
   <backup>
    <duration>16</duration>
   </backup>
   <forward>
    <duration>8</duration>
    <voice>2</voice>
   </forward>
   <note default-x="122.47" default-y="-130.82" dynamics="88.89">
    <pitch>
     <step>A</step>
     <octave>3</octave>
    </pitch>
    <duration>2</duration>
    <voice>2</voice>
    <type>eighth</type>
    <beam number="1">begin</beam>
   </note>
   <note default-x="147.63" default-y="-125.82" dynamics="88.89">
    <pitch>
     <step>B</step>
     <octave>3</octave>
    </pitch>
    <duration>2</duration>
    <voice>2</voice>
    <type>eighth</type>
    <beam number="1">end</beam>
   </note>
   <forward>
    <duration>4</duration>
    <voice>2</voice>
   </forward>
   <backup>
    <duration>6</duration>
   </backup>
   <direction placement="above">
    <direction-type>
     <metronome parentheses="no" relative-y="20.00">
      <beat-unit>quarter</beat-unit>
      <per-minute>144</per-minute>
     </metronome>
    </direction-type>
    <sound tempo="144"/>
   </direction>
   <forward>
    <duration>6</duration>
   </forward>
  </measure>
  <measure number="18" width="222.28">
   <note default-x="14.16" default-y="-55.00" dynamics="88.89">
    <pitch>
     <step>B</step>
     <octave>3</octave>
    </pitch>
    <duration>2</duration>
    <voice>1</voice>
    <type>eighth</type>
    <beam number="1">begin</beam>
   </note>
   <direction placement="above">
    <direction-type>
     <metronome parentheses="no" default-y="43.51" relative-y="20.00">
      <beat-unit>quarter</beat-unit>
      <per-minute>154</per-minute>
     </metronome>
    </direction-type>
    <sound tempo="154"/>
   </direction>
   <note default-x="41.99" default-y="-55.00" dynamics="88.89">
    <pitch>
     <step>B</step>
     <octave>3</octave>
    </pitch>
    <duration>1</duration>
    <voice>1</voice>
    <type>16th</type>
    <beam number="1">continue</beam>
    <beam number="2">begin</beam>
   </note>
   <note default-x="65.25" default-y="-50.00" dynamics="88.89">
    <pitch>
     <step>C</step>
     <octave>4</octave>
    </pitch>
    <duration>1</duration>
    <voice>1</voice>
    <type>16th</type>
    <beam number="1">end</beam>
    <beam number="2">end</beam>
   </note>
   <note default-x="88.52" default-y="-55.00" dynamics="88.89">
    <pitch>
     <step>B</step>
     <octave>3</octave>
    </pitch>
    <duration>2</duration>
    <voice>1</voice>
    <type>eighth</type>
    <beam number="1">begin</beam>
   </note>
   <note default-x="88.52" default-y="-35.00" dynamics="88.89">
    <chord/>
    <pitch>
     <step>F</step>
     <octave>4</octave>
    </pitch>
    <duration>2</duration>
    <voice>1</voice>
    <type>eighth</type>
   </note>
   <note default-x="88.52" default-y="-25.00" dynamics="88.89">
    <chord/>
    <pitch>
     <step>A</step>
     <octave>4</octave>
    </pitch>
    <duration>2</duration>
    <voice>1</voice>
    <type>eighth</type>
   </note>
   <note default-x="116.34" default-y="-60.00" dynamics="88.89">
    <pitch>
     <step>A</step>
     <octave>3</octave>
    </pitch>
    <duration>2</duration>
    <voice>1</voice>
    <type>eighth</type>
    <beam number="1">end</beam>
   </note>
   <note default-x="144.17" default-y="-55.00" dynamics="88.89">
    <pitch>
     <step>B</step>
     <octave>3</octave>
    </pitch>
    <duration>4</duration>
    <voice>1</voice>
    <type>quarter</type>
   </note>
   <note default-x="182.42" default-y="-50.00" dynamics="88.89">
    <pitch>
     <step>C</step>
     <octave>4</octave>
    </pitch>
    <duration>4</duration>
    <voice>1</voice>
    <type>quarter</type>
   </note>
   <note default-x="182.42" default-y="-35.00" dynamics="88.89">
    <chord/>
    <pitch>
     <step>F</step>
     <octave>4</octave>
    </pitch>
    <duration>4</duration>
    <voice>1</voice>
    <type>quarter</type>
   </note>
   <note default-x="182.42" default-y="-25.00" dynamics="88.89">
    <chord/>
    <pitch>
     <step>A</step>
     <octave>4</octave>
    </pitch>
    <duration>4</duration>
    <voice>1</voice>
    <type>quarter</type>
   </note>
   <backup>
    <duration>16</duration>
   </backup>
   <forward>
    <duration>16</duration>
    <voice>2</voice>
   </forward>
  </measure>
 </part>
 <part id="P3">
  <measure number="1" width="314.27">
   <attributes>
    <divisions>4</divisions>
    <key>
     <fifths>0</fifths>
    </key>
    <time>
     <beats>4</beats>
     <beat-type>4</beat-type>
    </time>
    <clef>
     <sign>F</sign>
     <line>4</line>
    </clef>
   </attributes>
   <note default-x="82.47" default-y="-230.00" dynamics="88.89">
    <pitch>
     <step>D</step>
     <octave>3</octave>
    </pitch>
    <duration>2</duration>
    <voice>1</voice>
    <type>eighth</type>
    <beam number="1">begin</beam>
   </note>
   <note default-x="82.47" default-y="-210.00" dynamics="88.89">
    <chord/>
    <pitch>
     <step>A</step>
     <octave>3</octave>
    </pitch>
    <duration>2</duration>
    <voice>1</voice>
    <type>eighth</type>
   </note>
   <note default-x="108.70" default-y="-205.00" dynamics="88.89">
    <pitch>
     <step>B</step>
     <octave>3</octave>
    </pitch>
    <duration>2</duration>
    <voice>1</voice>
    <type>eighth</type>
    <beam number="1">end</beam>
   </note>
   <note default-x="134.94" default-y="-220.00" dynamics="88.89">
    <pitch>
     <step>F</step>
     <octave>3</octave>
    </pitch>
    <duration>4</duration>
    <voice>1</voice>
    <type>quarter</type>
   </note>
   <note default-x="187.42" default-y="-230.00" dynamics="88.89">
    <pitch>
     <step>D</step>
     <octave>3</octave>
    </pitch>
    <duration>4</duration>
    <voice>1</voice>
    <type>quarter</type>
   </note>
   <note>
    <rest/>
    <duration>4</duration>
    <voice>1</voice>
    <type>quarter</type>
   </note>
   <backup>
    <duration>16</duration>
   </backup>
   <forward>
    <duration>16</duration>
    <voice>2</voice>
   </forward>
  </measure>
  <measure number="2" width="175.53">
   <note default-x="13.80" default-y="-230.00" dynamics="88.89">
    <pitch>
     <step>D</step>
     <octave>3</octave>
    </pitch>
    <duration>4</duration>
    <voice>1</voice>
    <type>quarter</type>
   </note>
   <note>
    <rest/>
    <duration>4</duration>
    <voice>1</voice>
    <type>quarter</type>
   </note>
   <note default-x="83.41" default-y="-245.00" dynamics="88.89">
    <pitch>
     <step>A</step>
     <octave>2</octave>
    </pitch>
    <duration>8</duration>
    <tie type="start"/>
    <voice>1</voice>
    <type>half</type>
    <notations>
     <tied type="start"/>
    </notations>
   </note>
   <backup>
    <duration>16</duration>
   </backup>
   <forward>
    <duration>16</duration>
    <voice>2</voice>
   </forward>
  </measure>
  <measure number="3" width="209.18">
   <note default-x="18.05" default-y="-245.00" dynamics="88.89">
    <pitch>
     <step>A</step>
     <octave>2</octave>
    </pitch>
    <duration>8</duration>
    <tie type="stop"/>
    <voice>1</voice>
    <type>half</type>
    <notations>
     <tied type="stop"/>
    </notations>
   </note>
   <note default-x="125.40" default-y="-245.00" dynamics="88.89">
    <pitch>
     <step>A</step>
     <octave>2</octave>
    </pitch>
    <duration>8</duration>
    <voice>1</voice>
    <type>half</type>
   </note>
   <backup>
    <duration>16</duration>
   </backup>
   <note default-x="15.10" default-y="-370.00" dynamics="88.89">
    <pitch>
     <step>D</step>
     <octave>2</octave>
    </pitch>
    <duration>16</duration>
    <voice>2</voice>
    <type>whole</type>
   </note>
  </measure>
  <measure number="4" width="249.44">
   <note>
    <rest/>
    <duration>8</duration>
    <voice>1</voice>
    <type>half</type>
   </note>
   <note default-x="133.22" default-y="-225.00" dynamics="88.89">
    <pitch>
     <step>E</step>
     <octave>3</octave>
    </pitch>
    <duration>4</duration>
    <voice>1</voice>
    <type>quarter</type>
   </note>
   <note>
    <rest/>
    <duration>4</duration>
    <voice>1</voice>
    <type>quarter</type>
   </note>
   <backup>
    <duration>16</duration>
   </backup>
   <note default-x="13.80" default-y="-365.00" dynamics="88.89">
    <pitch>
     <step>E</step>
     <octave>2</octave>
    </pitch>
    <duration>16</duration>
    <voice>2</voice>
    <type>whole</type>
   </note>
  </measure>
  <measure number="5" width="262.36">
   <note default-x="73.50" default-y="-260.00" dynamics="88.89">
    <pitch>
     <step>E</step>
     <octave>2</octave>
    </pitch>
    <duration>4</duration>
    <voice>1</voice>
    <type>quarter</type>
   </note>
   <note>
    <rest/>
    <duration>4</duration>
    <voice>1</voice>
    <type>quarter</type>
   </note>
   <note default-x="152.25" default-y="-205.00" dynamics="88.89">
    <pitch>
     <step>B</step>
     <octave>3</octave>
    </pitch>
    <duration>2</duration>
    <voice>1</voice>
    <type>eighth</type>
    <beam number="1">begin</beam>
   </note>
   <note default-x="152.25" default-y="-190.00" dynamics="88.89">
    <chord/>
    <pitch>
     <step>E</step>
     <octave>4</octave>
    </pitch>
    <duration>2</duration>
    <voice>1</voice>
    <type>eighth</type>
   </note>
   <note default-x="186.93" default-y="-185.00" dynamics="88.89">
    <pitch>
     <step>F</step>
     <alter>1</alter>
     <octave>4</octave>
    </pitch>
    <duration>2</duration>
    <voice>1</voice>
    <type>eighth</type>
    <accidental>sharp</accidental>
    <beam number="1">continue</beam>
   </note>
   <note default-x="211.54" default-y="-190.00" dynamics="88.89">
    <pitch>
     <step>E</step>
     <octave>4</octave>
    </pitch>
    <duration>2</duration>
    <voice>1</voice>
    <type>eighth</type>
    <beam number="1">continue</beam>
   </note>
   <note default-x="236.15" default-y="-200.00" dynamics="88.89">
    <pitch>
     <step>C</step>
     <octave>4</octave>
    </pitch>
    <duration>2</duration>
    <voice>1</voice>
    <type>eighth</type>
    <beam number="1">end</beam>
   </note>
   <backup>
    <duration>16</duration>
   </backup>
   <forward>
    <duration>8</duration>
    <voice>2</voice>
   </forward>
   <note default-x="151.89" default-y="-330.00" dynamics="88.89">
    <pitch>
     <step>E</step>
     <octave>3</octave>
    </pitch>
    <duration>8</duration>
    <tie type="start"/>
    <voice>2</voice>
    <type>half</type>
    <notations>
     <tied type="start"/>
    </notations>
   </note>
  </measure>
  <measure number="6" width="231.02">
   <note default-x="10.00" default-y="-205.00" dynamics="88.89">
    <pitch>
     <step>B</step>
     <octave>3</octave>
    </pitch>
    <duration>6</duration>
    <voice>1</voice>
    <type>quarter</type>
    <dot/>
   </note>
   <note default-x="98.37" default-y="-200.00" dynamics="88.89">
    <pitch>
     <step>C</step>
     <octave>4</octave>
    </pitch>
    <duration>2</duration>
    <voice>1</voice>
    <type>eighth</type>
   </note>
   <note default-x="124.58" default-y="-195.00" dynamics="88.89">
    <pitch>
     <step>D</step>
     <octave>4</octave>
    </pitch>
    <duration>4</duration>
    <voice>1</voice>
    <type>quarter</type>
   </note>
   <note default-x="177.00" default-y="-190.00" dynamics="88.89">
    <pitch>
     <step>E</step>
     <octave>4</octave>
    </pitch>
    <duration>2</duration>
    <voice>1</voice>
    <type>eighth</type>
    <beam number="1">begin</beam>
   </note>
   <note default-x="203.21" default-y="-190.00" dynamics="88.89">
    <pitch>
     <step>E</step>
     <octave>4</octave>
    </pitch>
    <duration>2</duration>
    <voice>1</voice>
    <type>eighth</type>
    <beam number="1">end</beam>
   </note>
   <backup>
    <duration>16</duration>
   </backup>
   <note default-x="10.00" default-y="-330.00" dynamics="88.89">
    <pitch>
     <step>E</step>
     <octave>3</octave>
    </pitch>
    <duration>4</duration>
    <tie type="stop"/>
    <voice>2</voice>
    <type>quarter</type>
    <notations>
     <tied type="stop"/>
    </notations>
   </note>
   <forward>
    <duration>4</duration>
    <voice>2</voice>
   </forward>
   <forward>
    <duration>8</duration>
    <voice>2</voice>
   </forward>
  </measure>
  <measure number="7" width="195.86">
   <note default-x="13.80" default-y="-220.00" dynamics="88.89">
    <pitch>
     <step>F</step>
     <octave>3</octave>
    </pitch>
    <duration>8</duration>
    <voice>1</voice>
    <type>half</type>
   </note>
   <note default-x="13.80" default-y="-200.00" dynamics="88.89">
    <chord/>
    <pitch>
     <step>C</step>
     <octave>4</octave>
    </pitch>
    <duration>8</duration>
    <voice>1</voice>
    <type>half</type>
   </note>
   <note default-x="118.66" default-y="-215.00" dynamics="88.89">
    <pitch>
     <step>G</step>
     <octave>3</octave>
    </pitch>
    <duration>8</duration>
    <voice>1</voice>
    <type>half</type>
   </note>
   <backup>
    <duration>16</duration>
   </backup>
   <forward>
    <duration>8</duration>
    <voice>2</voice>
   </forward>
   <note default-x="118.66" default-y="-355.00" dynamics="88.89">
    <pitch>
     <step>G</step>
     <octave>2</octave>
    </pitch>
    <duration>8</duration>
    <voice>2</voice>
    <type>half</type>
   </note>
  </measure>
  <measure number="8" width="195.50">
   <note default-x="13.44" default-y="-235.00" dynamics="88.89">
    <pitch>
     <step>C</step>
     <octave>3</octave>
    </pitch>
    <duration>8</duration>
    <voice>1</voice>
    <type>half</type>
   </note>
   <note default-x="13.44" default-y="-215.00" dynamics="88.89">
    <chord/>
    <pitch>
     <step>G</step>
     <octave>3</octave>
    </pitch>
    <duration>8</duration>
    <voice>1</voice>
    <type>half</type>
   </note>
   <note default-x="122.17" default-y="-220.00" dynamics="88.89">
    <pitch>
     <step>F</step>
     <octave>3</octave>
    </pitch>
    <duration>4</duration>
    <voice>1</voice>
    <type>quarter</type>
   </note>
   <note default-x="122.17" default-y="-210.00" dynamics="88.89">
    <chord/>
    <pitch>
     <step>A</step>
     <octave>3</octave>
    </pitch>
    <duration>4</duration>
    <voice>1</voice>
    <type>quarter</type>
   </note>
   <note default-x="122.17" default-y="-200.00" dynamics="88.89">
    <chord/>
    <pitch>
     <step>C</step>
     <octave>4</octave>
    </pitch>
    <duration>4</duration>
    <voice>1</voice>
    <type>quarter</type>
   </note>
   <note default-x="164.68" default-y="-230.00" dynamics="88.89">
    <pitch>
     <step>D</step>
     <octave>3</octave>
    </pitch>
    <duration>4</duration>
    <voice>1</voice>
    <type>quarter</type>
   </note>
   <backup>
    <duration>16</duration>
   </backup>
   <forward>
    <duration>16</duration>
    <voice>2</voice>
   </forward>
  </measure>
  <measure number="9" width="192.42">
   <note default-x="10.36" default-y="-255.00" dynamics="88.89">
    <pitch>
     <step>F</step>
     <octave>2</octave>
    </pitch>
    <duration>8</duration>
    <voice>1</voice>
    <type>half</type>
   </note>
   <note default-x="10.36" default-y="-235.00" dynamics="88.89">
    <chord/>
    <pitch>
     <step>C</step>
     <octave>3</octave>
    </pitch>
    <duration>8</duration>
    <voice>1</voice>
    <type>half</type>
   </note>
   <note default-x="115.22" default-y="-230.00" dynamics="88.89">
    <pitch>
     <step>D</step>
     <octave>3</octave>
    </pitch>
    <duration>8</duration>
    <voice>1</voice>
    <type>half</type>
   </note>
   <backup>
    <duration>16</duration>
   </backup>
   <forward>
    <duration>8</duration>
    <voice>2</voice>
   </forward>
   <note default-x="115.22" default-y="-355.00" dynamics="88.89">
    <pitch>
     <step>G</step>
     <octave>2</octave>
    </pitch>
    <duration>8</duration>
    <voice>2</voice>
    <type>half</type>
   </note>
  </measure>
  <measure number="10" width="268.25">
   <note default-x="64.69" default-y="-215.00" dynamics="88.89">
    <pitch>
     <step>G</step>
     <octave>3</octave>
    </pitch>
    <duration>4</duration>
    <voice>1</voice>
    <type>quarter</type>
   </note>
   <note>
    <rest/>
    <duration>4</duration>
    <voice>1</voice>
    <type>quarter</type>
   </note>
   <note default-x="176.39" default-y="-220.00" dynamics="88.89">
    <pitch>
     <step>F</step>
     <octave>3</octave>
    </pitch>
    <duration>6</duration>
    <voice>1</voice>
    <type>quarter</type>
    <dot/>
   </note>
   <note default-x="243.49" default-y="-225.00" dynamics="88.89">
    <pitch>
     <step>E</step>
     <octave>3</octave>
    </pitch>
    <duration>2</duration>
    <voice>1</voice>
    <type>eighth</type>
   </note>
   <backup>
    <duration>16</duration>
   </backup>
   <note default-x="61.37" default-y="-340.00" dynamics="88.89">
    <pitch>
     <step>C</step>
     <octave>3</octave>
    </pitch>
    <duration>16</duration>
    <voice>2</voice>
    <type>whole</type>
   </note>
  </measure>
  <measure number="11" width="202.97">
   <note default-x="10.20" default-y="-230.00" dynamics="88.89">
    <pitch>
     <step>D</step>
     <octave>3</octave>
    </pitch>
    <duration>6</duration>
    <voice>1</voice>
    <type>quarter</type>
    <dot/>
   </note>
   <note default-x="10.20" default-y="-220.00" dynamics="88.89">
    <chord/>
    <pitch>
     <step>F</step>
     <octave>3</octave>
    </pitch>
    <duration>6</duration>
    <voice>1</voice>
    <type>quarter</type>
    <dot/>
   </note>
   <note default-x="76.40" default-y="-235.00" dynamics="88.89">
    <pitch>
     <step>C</step>
     <octave>3</octave>
    </pitch>
    <duration>2</duration>
    <voice>1</voice>
    <type>eighth</type>
   </note>
   <note default-x="102.03" default-y="-240.00" dynamics="88.89">
    <pitch>
     <step>B</step>
     <octave>2</octave>
    </pitch>
    <duration>8</duration>
    <tie type="start"/>
    <voice>1</voice>
    <type>half</type>
    <notations>
     <tied type="start"/>
    </notations>
   </note>
   <note default-x="102.03" default-y="-220.00" dynamics="88.89">
    <chord/>
    <pitch>
     <step>F</step>
     <octave>3</octave>
    </pitch>
    <duration>8</duration>
    <tie type="start"/>
    <voice>1</voice>
    <type>half</type>
    <notations>
     <tied type="start"/>
    </notations>
   </note>
   <backup>
    <duration>16</duration>
   </backup>
   <forward>
    <duration>8</duration>
    <voice>2</voice>
   </forward>
   <forward>
    <duration>4</duration>
    <voice>2</voice>
   </forward>
   <forward>
    <duration>2</duration>
    <voice>2</voice>
   </forward>
   <note default-x="168.59" default-y="-350.00" dynamics="88.89">
    <pitch>
     <step>A</step>
     <octave>2</octave>
    </pitch>
    <duration>2</duration>
    <voice>2</voice>
    <type>eighth</type>
   </note>
  </measure>
  <measure number="12" width="191.09">
   <note default-x="10.36" default-y="-240.00" dynamics="88.89">
    <pitch>
     <step>B</step>
     <octave>2</octave>
    </pitch>
    <duration>12</duration>
    <tie type="stop"/>
    <voice>1</voice>
    <type>half</type>
    <dot/>
    <notations>
     <tied type="stop"/>
    </notations>
   </note>
   <note default-x="10.36" default-y="-220.00" dynamics="88.89">
    <chord/>
    <pitch>
     <step>F</step>
     <octave>3</octave>
    </pitch>
    <duration>12</duration>
    <tie type="stop"/>
    <voice>1</voice>
    <type>half</type>
    <dot/>
    <notations>
     <tied type="stop"/>
    </notations>
   </note>
   <note default-x="144.61" default-y="-215.00" dynamics="88.89">
    <pitch>
     <step>G</step>
     <octave>3</octave>
    </pitch>
    <duration>2</duration>
    <voice>1</voice>
    <type>eighth</type>
    <beam number="1">begin</beam>
   </note>
   <note default-x="166.33" default-y="-225.00" dynamics="88.89">
    <pitch>
     <step>E</step>
     <octave>3</octave>
    </pitch>
    <duration>2</duration>
    <voice>1</voice>
    <type>eighth</type>
    <beam number="1">end</beam>
   </note>
   <backup>
    <duration>16</duration>
   </backup>
   <note default-x="10.72" default-y="-355.00" dynamics="88.89">
    <pitch>
     <step>G</step>
     <octave>2</octave>
    </pitch>
    <duration>6</duration>
    <voice>2</voice>
    <type>quarter</type>
    <dot/>
   </note>
   <note default-x="75.89" default-y="-350.00" dynamics="88.89">
    <pitch>
     <step>A</step>
     <octave>2</octave>
    </pitch>
    <duration>2</duration>
    <voice>2</voice>
    <type>eighth</type>
   </note>
   <note default-x="100.80" default-y="-345.00" dynamics="88.89">
    <pitch>
     <step>B</step>
     <octave>2</octave>
    </pitch>
    <duration>8</duration>
    <voice>2</voice>
    <type>half</type>
   </note>
  </measure>
  <measure number="13" width="202.84">
   <note default-x="10.58" default-y="-240.00" dynamics="88.89">
    <pitch>
     <step>B</step>
     <octave>2</octave>
    </pitch>
    <duration>12</duration>
    <voice>1</voice>
    <type>half</type>
    <dot/>
   </note>
   <note default-x="10.58" default-y="-220.00" dynamics="88.89">
    <chord/>
    <pitch>
     <step>F</step>
     <octave>3</octave>
    </pitch>
    <duration>12</duration>
    <voice>1</voice>
    <type>half</type>
    <dot/>
   </note>
   <note>
    <rest/>
    <duration>2</duration>
    <voice>1</voice>
    <type>eighth</type>
   </note>
   <note default-x="168.46" default-y="-245.00" dynamics="88.89">
    <pitch>
     <step>A</step>
     <octave>2</octave>
    </pitch>
    <duration>2</duration>
    <voice>1</voice>
    <type>eighth</type>
   </note>
   <backup>
    <duration>16</duration>
   </backup>
   <forward>
    <duration>4</duration>
    <voice>2</voice>
   </forward>
   <forward>
    <duration>2</duration>
    <voice>2</voice>
   </forward>
   <note default-x="77.06" default-y="-350.00" dynamics="88.89">
    <pitch>
     <step>A</step>
     <octave>2</octave>
    </pitch>
    <duration>2</duration>
    <voice>2</voice>
    <type>eighth</type>
   </note>
   <note default-x="101.98" default-y="-355.00" dynamics="88.89">
    <pitch>
     <step>G</step>
     <octave>2</octave>
    </pitch>
    <duration>8</duration>
    <voice>2</voice>
    <type>half</type>
   </note>
  </measure>
  <measure number="14" width="212.01">
   <note default-x="10.00" default-y="-240.00" dynamics="88.89">
    <pitch>
     <step>B</step>
     <octave>2</octave>
    </pitch>
    <duration>6</duration>
    <voice>1</voice>
    <type>quarter</type>
    <dot/>
   </note>
   <note default-x="80.72" default-y="-215.00" dynamics="88.89">
    <pitch>
     <step>G</step>
     <octave>3</octave>
    </pitch>
    <duration>2</duration>
    <voice>1</voice>
    <type>eighth</type>
   </note>
   <note default-x="108.25" default-y="-235.00" dynamics="88.89">
    <pitch>
     <step>C</step>
     <octave>3</octave>
    </pitch>
    <duration>8</duration>
    <voice>1</voice>
    <type>half</type>
   </note>
   <backup>
    <duration>16</duration>
   </backup>
   <forward>
    <duration>16</duration>
    <voice>2</voice>
   </forward>
  </measure>
  <measure number="15" width="316.62">
   <note>
    <rest/>
    <duration>16</duration>
    <voice>1</voice>
   </note>
   <backup>
    <duration>16</duration>
   </backup>
   <forward>
    <duration>16</duration>
    <voice>2</voice>
   </forward>
  </measure>
  <measure number="16" width="219.36">
   <note default-x="18.05" default-y="-265.82" dynamics="88.89">
    <pitch>
     <step>B</step>
     <octave>2</octave>
    </pitch>
    <duration>8</duration>
    <voice>1</voice>
    <type>half</type>
   </note>
   <note>
    <rest/>
    <duration>8</duration>
    <voice>1</voice>
    <type>half</type>
   </note>
   <backup>
    <duration>16</duration>
   </backup>
   <forward>
    <duration>16</duration>
    <voice>2</voice>
   </forward>
  </measure>
  <measure number="17" width="224.70">
   <note>
    <rest/>
    <duration>8</duration>
    <voice>1</voice>
    <type>half</type>
   </note>
   <note default-x="122.47" default-y="-290.82" dynamics="88.89">
    <pitch>
     <step>D</step>
     <octave>2</octave>
    </pitch>
    <duration>4</duration>
    <voice>1</voice>
    <type>quarter</type>
   </note>
   <note default-x="172.79" default-y="-270.82" dynamics="88.89">
    <pitch>
     <step>A</step>
     <octave>2</octave>
    </pitch>
    <duration>4</duration>
    <voice>1</voice>
    <type>quarter</type>
   </note>
   <backup>
    <duration>16</duration>
   </backup>
   <forward>
    <duration>16</duration>
    <voice>2</voice>
   </forward>
  </measure>
  <measure number="18" width="222.28">
   <note>
    <rest/>
    <duration>4</duration>
    <voice>1</voice>
    <type>quarter</type>
   </note>
   <note default-x="88.52" default-y="-270.82" dynamics="88.89">
    <pitch>
     <step>A</step>
     <octave>2</octave>
    </pitch>
    <duration>4</duration>
    <voice>1</voice>
    <type>quarter</type>
   </note>
   <note default-x="88.52" default-y="-245.82" dynamics="88.89">
    <chord/>
    <pitch>
     <step>F</step>
     <octave>3</octave>
    </pitch>
    <duration>4</duration>
    <voice>1</voice>
    <type>quarter</type>
   </note>
   <note default-x="144.17" default-y="-290.82" dynamics="88.89">
    <pitch>
     <step>D</step>
     <octave>2</octave>
    </pitch>
    <duration>4</duration>
    <voice>1</voice>
    <type>quarter</type>
   </note>
   <note default-x="182.42" default-y="-270.82" dynamics="88.89">
    <pitch>
     <step>A</step>
     <octave>2</octave>
    </pitch>
    <duration>4</duration>
    <voice>1</voice>
    <type>quarter</type>
   </note>
   <note default-x="182.42" default-y="-245.82" dynamics="88.89">
    <chord/>
    <pitch>
     <step>F</step>
     <octave>3</octave>
    </pitch>
    <duration>4</duration>
    <voice>1</voice>
    <type>quarter</type>
   </note>
   <backup>
    <duration>16</duration>
   </backup>
   <note default-x="13.80" default-y="-395.82" dynamics="88.89">
    <pitch>
     <step>D</step>
     <octave>2</octave>
    </pitch>
    <duration>8</duration>
    <voice>2</voice>
    <type>half</type>
   </note>
   <forward>
    <duration>8</duration>
    <voice>2</voice>
   </forward>
  </measure>
 </part>
</score-partwise>
