<?xml version="1.0" encoding="UTF-8"?>
<!DOCTYPE score-partwise PUBLIC "-//Recordare//DTD MusicXML 3.1 Partwise//EN" "http://www.musicxml.org/dtds/partwise.dtd">
<score-partwise version="3.1">
 <identification>
  <encoding>
   <software>MuseScore 3.2.3</software>
   <encoding-date>2020-08-04</encoding-date>
   <supports element="accidental" type="yes"/>
   <supports element="beam" type="yes"/>
   <supports element="print" attribute="new-page" type="yes" value="yes"/>
   <supports element="print" attribute="new-system" type="yes" value="yes"/>
   <supports element="stem" type="yes"/>
  </encoding>
 </identification>
 <defaults>
  <scaling>
   <millimeters>7.05556</millimeters>
   <tenths>40</tenths>
  </scaling>
  <page-layout>
   <page-height>1683.78</page-height>
   <page-width>1190.55</page-width>
   <page-margins type="even">
    <left-margin>56.6929</left-margin>
    <right-margin>56.6929</right-margin>
    <top-margin>56.6929</top-margin>
    <bottom-margin>113.386</bottom-margin>
   </page-margins>
   <page-margins type="odd">
    <left-margin>56.6929</left-margin>
    <right-margin>56.6929</right-margin>
    <top-margin>56.6929</top-margin>
    <bottom-margin>113.386</bottom-margin>
   </page-margins>
  </page-layout>
  <word-font font-family="FreeSerif" font-size="10"/>
  <lyric-font font-family="FreeSerif" font-size="11"/>
 </defaults>
 <part-list>
  <score-part id="P1">
   <part-name>Pf</part-name>
   <score-instrument id="P1-I1">
    <instrument-name></instrument-name>
   </score-instrument>
   <midi-device id="P1-I1" port="1"></midi-device>
   <midi-instrument id="P1-I1">
    <midi-channel>1</midi-channel>
    <midi-program>1</midi-program>
    <volume>78.7402</volume>
    <pan>0</pan>
   </midi-instrument>
  </score-part>
  <score-part id="P3">
   <part-name>Pf</part-name>
   <score-instrument id="P3-I1">
    <instrument-name></instrument-name>
   </score-instrument>
   <midi-device id="P3-I1" port="1"></midi-device>
   <midi-instrument id="P3-I1">
    <midi-channel>5</midi-channel>
    <midi-program>1</midi-program>
    <volume>78.7402</volume>
    <pan>0</pan>
   </midi-instrument>
  </score-part>
 </part-list>
 <part id="P1">
  <measure number="1" width="230.14">
   <attributes>
    <divisions>12</divisions>
    <key>
     <fifths>1</fifths>
    </key>
    <time>
     <beats>3</beats>
     <beat-type>4</beat-type>
    </time>
    <clef>
     <sign>G</sign>
     <line>2</line>
    </clef>
   </attributes>
   <direction placement="above">
    <direction-type>
     <metronome parentheses="no" default-x="-36.90" relative-y="20.00">
      <beat-unit>quarter</beat-unit>
      <per-minute>83</per-minute>
     </metronome>
    </direction-type>
    <sound tempo="82.9998"/>
   </direction>
   <note>
    <rest/>
    <duration>36</duration>
    <voice>1</voice>
   </note>
   <backup>
    <duration>36</duration>
   </backup>
   <forward>
    <duration>12</duration>
    <voice>2</voice>
   </forward>
   <forward>
    <duration>12</duration>
    <voice>2</voice>
   </forward>
   <forward>
    <duration>6</duration>
    <voice>2</voice>
   </forward>
   <forward>
    <duration>3</duration>
    <voice>2</voice>
   </forward>
   <note default-x="195.74" default-y="-165.00" dynamics="88.89">
    <pitch>
     <step>A</step>
     <octave>3</octave>
    </pitch>
    <duration>3</duration>
    <tie type="start"/>
    <voice>2</voice>
    <type>16th</type>
    <notations>
     <tied type="start"/>
    </notations>
   </note>
  </measure>
  <measure number="2" width="164.83">
   <note default-x="14.16" default-y="-35.00" dynamics="88.89">
    <pitch>
     <step>F</step>
     <alter>1</alter>
     <octave>4</octave>
    </pitch>
    <duration>12</duration>
    <voice>1</voice>
    <type>quarter</type>
   </note>
   <note default-x="14.16" default-y="-10.00" dynamics="88.89">
    <chord/>
    <pitch>
     <step>D</step>
     <octave>5</octave>
    </pitch>
    <duration>12</duration>
    <voice>1</voice>
    <type>quarter</type>
   </note>
   <note default-x="44.07" default-y="-20.00" dynamics="88.89">
    <pitch>
     <step>B</step>
     <octave>4</octave>
    </pitch>
    <duration>6</duration>
    <voice>1</voice>
    <type>eighth</type>
   </note>
   <note default-x="78.49" default-y="-20.00" dynamics="88.89">
    <pitch>
     <step>B</step>
     <octave>4</octave>
    </pitch>
    <duration>12</duration>
    <tie type="start"/>
    <voice>1</voice>
    <type>quarter</type>
    <notations>
     <tied type="start"/>
    </notations>
   </note>
   <note default-x="124.23" default-y="-20.00" dynamics="88.89">
    <pitch>
     <step>B</step>
     <octave>4</octave>
    </pitch>
    <duration>3</duration>
    <tie type="stop"/>
    <voice>1</voice>
    <type>16th</type>
    <beam number="1">begin</beam>
    <beam number="2">begin</beam>
    <notations>
     <tied type="stop"/>
    </notations>
   </note>
   <direction placement="above">
    <direction-type>
     <metronome parentheses="no" relative-y="20.00">
      <beat-unit>quarter</beat-unit>
      <per-minute>78</per-minute>
     </metronome>
    </direction-type>
    <sound tempo="78"/>
   </direction>
   <note default-x="140.07" default-y="-25.00" dynamics="88.89">
    <pitch>
     <step>A</step>
     <octave>4</octave>
    </pitch>
    <duration>3</duration>
    <voice>1</voice>
    <type>16th</type>
    <beam number="1">end</beam>
    <beam number="2">end</beam>
   </note>
   <backup>
    <duration>36</duration>
   </backup>
   <note default-x="13.80" default-y="-165.00" dynamics="88.89">
    <pitch>
     <step>A</step>
     <octave>3</octave>
    </pitch>
    <duration>24</duration>
    <tie type="stop"/>
    <voice>2</voice>
    <type>half</type>
    <notations>
     <tied type="stop"/>
    </notations>
   </note>
   <forward>
    <duration>12</duration>
    <voice>2</voice>
   </forward>
   <backup>
    <duration>20</duration>
   </backup>
   <direction placement="above">
    <direction-type>
     <metronome parentheses="no" relative-y="20.00">
      <beat-unit>quarter</beat-unit>
      <per-minute>81</per-minute>
     </metronome>
    </direction-type>
    <sound tempo="81"/>
   </direction>
   <forward>
    <duration>20</duration>
   </forward>
  </measure>
  <measure number="3" width="139.78">
   <direction placement="above">
    <direction-type>
     <metronome parentheses="no" default-y="21.82" relative-y="20.00">
      <beat-unit>quarter</beat-unit>
      <per-minute>81</per-minute>
     </metronome>
    </direction-type>
    <sound tempo="81"/>
   </direction>
   <note default-x="10.00" default-y="-25.00" dynamics="88.89">
    <pitch>
     <step>A</step>
     <octave>4</octave>
    </pitch>
    <duration>12</duration>
    <voice>1</voice>
    <type>quarter</type>
   </note>
   <note default-x="10.00" default-y="-10.00" dynamics="88.89">
    <chord/>
    <pitch>
     <step>D</step>
     <octave>5</octave>
    </pitch>
    <duration>12</duration>
    <voice>1</voice>
    <type>quarter</type>
   </note>
   <direction placement="above">
    <direction-type>
     <metronome parentheses="no" default-y="43.66" relative-y="20.00">
      <beat-unit>quarter</beat-unit>
      <per-minute>83</per-minute>
     </metronome>
    </direction-type>
    <sound tempo="82.9998"/>
   </direction>
   <note default-x="43.17" default-y="-20.00" dynamics="88.89">
    <pitch>
     <step>B</step>
     <octave>4</octave>
    </pitch>
    <duration>4</duration>
    <voice>1</voice>
    <type>eighth</type>
    <time-modification>
     <actual-notes>3</actual-notes>
     <normal-notes>2</normal-notes>
     <normal-type>16th</normal-type>
    </time-modification>
    <beam number="1">begin</beam>
    <notations>
     <tuplet type="start" bracket="no"/>
    </notations>
   </note>
   <note default-x="63.97" default-y="-30.00" dynamics="88.89">
    <pitch>
     <step>G</step>
     <octave>4</octave>
    </pitch>
    <duration>2</duration>
    <voice>1</voice>
    <type>16th</type>
    <time-modification>
     <actual-notes>3</actual-notes>
     <normal-notes>2</normal-notes>
     <normal-type>16th</normal-type>
    </time-modification>
    <beam number="1">end</beam>
    <beam number="2">backward hook</beam>
    <notations>
     <tuplet type="stop"/>
    </notations>
   </note>
   <note default-x="79.64" default-y="-45.00" dynamics="88.89">
    <pitch>
     <step>D</step>
     <octave>4</octave>
    </pitch>
    <duration>18</duration>
    <voice>1</voice>
    <type>quarter</type>
    <dot/>
   </note>
   <note default-x="79.64" default-y="-30.00" dynamics="88.89">
    <chord/>
    <pitch>
     <step>G</step>
     <octave>4</octave>
    </pitch>
    <duration>18</duration>
    <voice>1</voice>
    <type>quarter</type>
    <dot/>
   </note>
   <note default-x="79.64" default-y="-20.00" dynamics="88.89">
    <chord/>
    <pitch>
     <step>B</step>
     <octave>4</octave>
    </pitch>
    <duration>18</duration>
    <voice>1</voice>
    <type>quarter</type>
    <dot/>
   </note>
   <backup>
    <duration>36</duration>
   </backup>
   <forward>
    <duration>36</duration>
    <voice>2</voice>
   </forward>
  </measure>
  <measure number="4" width="110.43">
   <direction placement="above">
    <direction-type>
     <metronome parentheses="no" relative-y="20.00">
      <beat-unit>quarter</beat-unit>
      <per-minute>86</per-minute>
     </metronome>
    </direction-type>
    <sound tempo="85.9998"/>
   </direction>
   <note default-x="13.80" default-y="-5.00" dynamics="88.89">
    <pitch>
     <step>E</step>
     <octave>5</octave>
    </pitch>
    <duration>12</duration>
    <voice>1</voice>
    <type>quarter</type>
   </note>
   <note default-x="43.04" default-y="-10.00" dynamics="88.89">
    <pitch>
     <step>D</step>
     <octave>5</octave>
    </pitch>
    <duration>6</duration>
    <voice>1</voice>
    <type>eighth</type>
   </note>
   <note default-x="61.31" default-y="-30.00" dynamics="88.89">
    <pitch>
     <step>G</step>
     <octave>4</octave>
    </pitch>
    <duration>18</duration>
    <voice>1</voice>
    <type>quarter</type>
    <dot/>
   </note>
   <note default-x="61.31" default-y="-10.00" dynamics="88.89">
    <chord/>
    <pitch>
     <step>D</step>
     <octave>5</octave>
    </pitch>
    <duration>18</duration>
    <voice>1</voice>
    <type>quarter</type>
    <dot/>
   </note>
   <backup>
    <duration>36</duration>
   </backup>
   <note default-x="13.44" default-y="-140.00" dynamics="88.89">
    <pitch>
     <step>F</step>
     <alter>1</alter>
     <octave>4</octave>
    </pitch>
    <duration>24</duration>
    <voice>2</voice>
    <type>half</type>
   </note>
   <forward>
    <duration>12</duration>
    <voice>2</voice>
   </forward>
  </measure>
  <measure number="5" width="167.55">
   <direction placement="above">
    <direction-type>
     <metronome parentheses="no" relative-y="20.00">
      <beat-unit>quarter</beat-unit>
      <per-minute>89</per-minute>
     </metronome>
    </direction-type>
    <sound tempo="88.9998"/>
   </direction>
   <note default-x="20.42" default-y="5.00" dynamics="88.89">
    <pitch>
     <step>G</step>
     <octave>5</octave>
    </pitch>
    <duration>6</duration>
    <voice>1</voice>
    <type>eighth</type>
    <beam number="1">begin</beam>
   </note>
   <note default-x="44.02" default-y="0.00" dynamics="88.89">
    <pitch>
     <step>F</step>
     <alter>1</alter>
     <octave>5</octave>
    </pitch>
    <duration>6</duration>
    <voice>1</voice>
    <type>eighth</type>
    <beam number="1">end</beam>
   </note>
   <direction placement="above">
    <direction-type>
     <metronome parentheses="no" default-y="21.82" relative-y="20.00">
      <beat-unit>quarter</beat-unit>
      <per-minute>86</per-minute>
     </metronome>
    </direction-type>
    <sound tempo="85.9998"/>
   </direction>
   <note default-x="67.26" default-y="-5.00" dynamics="88.89">
    <pitch>
     <step>E</step>
     <octave>5</octave>
    </pitch>
    <duration>24</duration>
    <voice>1</voice>
    <type>half</type>
   </note>
   <backup>
    <duration>36</duration>
   </backup>
   <note default-x="20.42" default-y="-125.00" dynamics="88.89">
    <pitch>
     <step>B</step>
     <alter>-1</alter>
     <octave>4</octave>
    </pitch>
    <duration>18</duration>
    <voice>2</voice>
    <type>quarter</type>
    <dot/>
    <accidental>flat</accidental>
   </note>
   <note default-x="91.22" default-y="-135.00" dynamics="88.89">
    <pitch>
     <step>G</step>
     <octave>4</octave>
    </pitch>
    <duration>6</duration>
    <voice>2</voice>
    <type>eighth</type>
   </note>
   <note default-x="103.08" default-y="-130.00" dynamics="88.89">
    <chord/>
    <pitch>
     <step>A</step>
     <octave>4</octave>
    </pitch>
    <duration>6</duration>
    <voice>2</voice>
    <type>eighth</type>
   </note>
   <note default-x="118.75" default-y="-140.00" dynamics="88.89">
    <pitch>
     <step>F</step>
     <alter>1</alter>
     <octave>4</octave>
    </pitch>
    <duration>6</duration>
    <voice>2</voice>
    <type>eighth</type>
    <beam number="1">begin</beam>
   </note>
   <note default-x="142.35" default-y="-145.00" dynamics="88.89">
    <pitch>
     <step>E</step>
     <octave>4</octave>
    </pitch>
    <duration>6</duration>
    <voice>2</voice>
    <type>eighth</type>
    <beam number="1">end</beam>
   </note>
   <backup>
    <duration>18</duration>
   </backup>
   <direction placement="above">
    <direction-type>
     <metronome parentheses="no" default-y="43.66" relative-y="20.00">
      <beat-unit>quarter</beat-unit>
      <per-minute>83</per-minute>
     </metronome>
    </direction-type>
    <sound tempo="82.9998"/>
   </direction>
   <forward>
    <duration>18</duration>
   </forward>
  </measure>
  <measure number="6" width="135.69">
   <note default-x="10.00" default-y="-45.00" dynamics="88.89">
    <pitch>
     <step>D</step>
     <octave>4</octave>
    </pitch>
    <duration>6</duration>
    <voice>1</voice>
    <type>eighth</type>
    <beam number="1">begin</beam>
   </note>
   <note default-x="10.00" default-y="-35.00" dynamics="88.89">
    <chord/>
    <pitch>
     <step>F</step>
     <alter>1</alter>
     <octave>4</octave>
    </pitch>
    <duration>6</duration>
    <voice>1</voice>
    <type>eighth</type>
   </note>
   <note default-x="10.00" default-y="-10.00" dynamics="88.89">
    <chord/>
    <pitch>
     <step>D</step>
     <octave>5</octave>
    </pitch>
    <duration>6</duration>
    <voice>1</voice>
    <type>eighth</type>
   </note>
   <note default-x="29.85" default-y="-25.00" dynamics="88.89">
    <pitch>
     <step>A</step>
     <octave>4</octave>
    </pitch>
    <duration>6</duration>
    <voice>1</voice>
    <type>eighth</type>
    <beam number="1">end</beam>
   </note>
   <note default-x="49.70" default-y="-15.00" dynamics="88.89">
    <pitch>
     <step>C</step>
     <octave>5</octave>
    </pitch>
    <duration>6</duration>
    <voice>1</voice>
    <type>eighth</type>
   </note>
   <note default-x="69.56" default-y="-35.00" dynamics="88.89">
    <pitch>
     <step>F</step>
     <alter>1</alter>
     <octave>4</octave>
    </pitch>
    <duration>12</duration>
    <voice>1</voice>
    <type>quarter</type>
   </note>
   <note default-x="69.56" default-y="-15.00" dynamics="88.89">
    <chord/>
    <pitch>
     <step>C</step>
     <octave>5</octave>
    </pitch>
    <duration>12</duration>
    <voice>1</voice>
    <type>quarter</type>
   </note>
   <note default-x="101.32" default-y="-30.00" dynamics="88.89">
    <pitch>
     <step>G</step>
     <octave>4</octave>
    </pitch>
    <duration>6</duration>
    <voice>1</voice>
    <type>eighth</type>
   </note>
   <note default-x="101.32" default-y="-20.00" dynamics="88.89">
    <chord/>
    <pitch>
     <step>B</step>
     <octave>4</octave>
    </pitch>
    <duration>6</duration>
    <voice>1</voice>
    <type>eighth</type>
   </note>
   <backup>
    <duration>36</duration>
   </backup>
   <forward>
    <duration>36</duration>
    <voice>2</voice>
   </forward>
  </measure>
  <measure number="7" width="291.71">
   <direction placement="above">
    <direction-type>
     <metronome parentheses="no" relative-y="20.00">
      <beat-unit>quarter</beat-unit>
      <per-minute>86</per-minute>
     </metronome>
    </direction-type>
    <sound tempo="85.9998"/>
   </direction>
   <note default-x="95.96" default-y="-40.00" dynamics="88.89">
    <pitch>
     <step>E</step>
     <octave>4</octave>
    </pitch>
    <duration>12</duration>
    <voice>1</voice>
    <type>quarter</type>
   </note>
   <note default-x="95.96" default-y="-25.00" dynamics="88.89">
    <chord/>
    <pitch>
     <step>A</step>
     <octave>4</octave>
    </pitch>
    <duration>12</duration>
    <voice>1</voice>
    <type>quarter</type>
   </note>
   <note default-x="145.14" default-y="-65.00" dynamics="88.89">
    <pitch>
     <step>G</step>
     <octave>3</octave>
    </pitch>
    <duration>6</duration>
    <voice>1</voice>
    <type>eighth</type>
   </note>
   <note default-x="145.14" default-y="-40.00" dynamics="88.89">
    <chord/>
    <pitch>
     <step>E</step>
     <octave>4</octave>
    </pitch>
    <duration>6</duration>
    <voice>1</voice>
    <type>eighth</type>
   </note>
   <note default-x="145.14" default-y="-30.00" dynamics="88.89">
    <chord/>
    <pitch>
     <step>G</step>
     <octave>4</octave>
    </pitch>
    <duration>6</duration>
    <voice>1</voice>
    <type>eighth</type>
   </note>
   <direction placement="above">
    <direction-type>
     <metronome parentheses="no" relative-y="20.00">
      <beat-unit>quarter</beat-unit>
      <per-minute>83</per-minute>
     </metronome>
    </direction-type>
    <sound tempo="82.9998"/>
   </direction>
   <note default-x="170.42" default-y="-40.00" dynamics="88.89">
    <pitch>
     <step>E</step>
     <octave>4</octave>
    </pitch>
    <duration>12</duration>
    <voice>1</voice>
    <type>quarter</type>
   </note>
   <note default-x="170.42" default-y="-25.00" dynamics="88.89">
    <chord/>
    <pitch>
     <step>A</step>
     <octave>4</octave>
    </pitch>
    <duration>12</duration>
    <voice>1</voice>
    <type>quarter</type>
   </note>
   <direction placement="above">
    <direction-type>
     <metronome parentheses="no" default-y="21.82" relative-y="20.00">
      <beat-unit>quarter</beat-unit>
      <per-minute>81</per-minute>
     </metronome>
    </direction-type>
    <sound tempo="81"/>
   </direction>
   <note default-x="218.94" default-y="-45.00" dynamics="88.89">
    <pitch>
     <step>D</step>
     <octave>4</octave>
    </pitch>
    <duration>6</duration>
    <voice>1</voice>
    <type>eighth</type>
   </note>
   <backup>
    <duration>36</duration>
   </backup>
   <forward>
    <duration>6</duration>
    <voice>2</voice>
   </forward>
   <note default-x="120.23" default-y="-165.00" dynamics="88.89">
    <pitch>
     <step>A</step>
     <octave>3</octave>
    </pitch>
    <duration>6</duration>
    <voice>2</voice>
    <type>eighth</type>
   </note>
   <forward>
    <duration>12</duration>
    <voice>2</voice>
   </forward>
   <forward>
    <duration>6</duration>
    <voice>2</voice>
   </forward>
   <forward>
    <duration>3</duration>
    <voice>2</voice>
   </forward>
   <note default-x="251.27" default-y="-150.00" dynamics="88.89">
    <pitch>
     <step>D</step>
     <octave>4</octave>
    </pitch>
    <duration>3</duration>
    <tie type="start"/>
    <voice>2</voice>
    <type>16th</type>
    <notations>
     <tied type="start"/>
    </notations>
   </note>
   <backup>
    <duration>2</duration>
   </backup>
   <direction placement="above">
    <direction-type>
     <metronome parentheses="no" default-y="43.66" relative-y="20.00">
      <beat-unit>quarter</beat-unit>
      <per-minute>83</per-minute>
     </metronome>
    </direction-type>
    <sound tempo="82.9998"/>
   </direction>
   <forward>
    <duration>2</duration>
   </forward>
  </measure>
  <measure number="8" width="111.88">
   <direction placement="above">
    <direction-type>
     <metronome parentheses="no" default-y="65.48" relative-y="20.00">
      <beat-unit>quarter</beat-unit>
      <per-minute>86</per-minute>
     </metronome>
    </direction-type>
    <sound tempo="85.9998"/>
   </direction>
   <note default-x="10.36" default-y="-35.00" dynamics="88.89">
    <pitch>
     <step>F</step>
     <alter>1</alter>
     <octave>4</octave>
    </pitch>
    <duration>12</duration>
    <voice>1</voice>
    <type>quarter</type>
   </note>
   <note default-x="10.36" default-y="-10.00" dynamics="88.89">
    <chord/>
    <pitch>
     <step>D</step>
     <octave>5</octave>
    </pitch>
    <duration>12</duration>
    <voice>1</voice>
    <type>quarter</type>
   </note>
   <note default-x="35.17" default-y="-20.00" dynamics="88.89">
    <pitch>
     <step>B</step>
     <octave>4</octave>
    </pitch>
    <duration>6</duration>
    <voice>1</voice>
    <type>eighth</type>
   </note>
   <direction placement="above">
    <direction-type>
     <metronome parentheses="no" default-y="87.30" relative-y="20.00">
      <beat-unit>quarter</beat-unit>
      <per-minute>89</per-minute>
     </metronome>
    </direction-type>
    <sound tempo="88.9998"/>
   </direction>
   <note default-x="66.50" default-y="-30.00" dynamics="88.89">
    <pitch>
     <step>G</step>
     <octave>4</octave>
    </pitch>
    <duration>18</duration>
    <voice>1</voice>
    <type>quarter</type>
    <dot/>
   </note>
   <note default-x="66.50" default-y="-20.00" dynamics="88.89">
    <chord/>
    <pitch>
     <step>B</step>
     <octave>4</octave>
    </pitch>
    <duration>18</duration>
    <voice>1</voice>
    <type>quarter</type>
    <dot/>
   </note>
   <backup>
    <duration>36</duration>
   </backup>
   <note default-x="10.00" default-y="-150.00" dynamics="88.89">
    <pitch>
     <step>D</step>
     <octave>4</octave>
    </pitch>
    <duration>24</duration>
    <tie type="stop"/>
    <voice>2</voice>
    <type>half</type>
    <notations>
     <tied type="stop"/>
    </notations>
   </note>
   <forward>
    <duration>12</duration>
    <voice>2</voice>
   </forward>
  </measure>
  <measure number="9" width="114.42">
   <note default-x="13.80" default-y="-25.00" dynamics="88.89">
    <pitch>
     <step>A</step>
     <octave>4</octave>
    </pitch>
    <duration>12</duration>
    <voice>1</voice>
    <type>quarter</type>
   </note>
   <note default-x="13.80" default-y="-10.00" dynamics="88.89">
    <chord/>
    <pitch>
     <step>D</step>
     <octave>5</octave>
    </pitch>
    <duration>12</duration>
    <voice>1</voice>
    <type>quarter</type>
   </note>
   <direction placement="above">
    <direction-type>
     <metronome parentheses="no" relative-y="20.00">
      <beat-unit>quarter</beat-unit>
      <per-minute>86</per-minute>
     </metronome>
    </direction-type>
    <sound tempo="85.9998"/>
   </direction>
   <note default-x="38.28" default-y="-20.00" dynamics="88.89">
    <pitch>
     <step>B</step>
     <octave>4</octave>
    </pitch>
    <duration>6</duration>
    <voice>1</voice>
    <type>eighth</type>
   </note>
   <note default-x="69.61" default-y="-45.00" dynamics="88.89">
    <pitch>
     <step>D</step>
     <octave>4</octave>
    </pitch>
    <duration>18</duration>
    <voice>1</voice>
    <type>quarter</type>
    <dot/>
   </note>
   <note default-x="69.61" default-y="-30.00" dynamics="88.89">
    <chord/>
    <pitch>
     <step>G</step>
     <octave>4</octave>
    </pitch>
    <duration>18</duration>
    <voice>1</voice>
    <type>quarter</type>
    <dot/>
   </note>
   <note default-x="69.61" default-y="-20.00" dynamics="88.89">
    <chord/>
    <pitch>
     <step>B</step>
     <octave>4</octave>
    </pitch>
    <duration>18</duration>
    <voice>1</voice>
    <type>quarter</type>
    <dot/>
   </note>
   <backup>
    <duration>36</duration>
   </backup>
   <forward>
    <duration>36</duration>
    <voice>2</voice>
   </forward>
   <backup>
    <duration>20</duration>
   </backup>
   <direction placement="above">
    <direction-type>
     <metronome parentheses="no" default-y="21.84" relative-y="20.00">
      <beat-unit>quarter</beat-unit>
      <per-minute>83</per-minute>
     </metronome>
    </direction-type>
    <sound tempo="82.9998"/>
   </direction>
   <forward>
    <duration>20</duration>
   </forward>
  </measure>
  <measure number="10" width="96.40">
   <note default-x="13.80" default-y="-5.00" dynamics="88.89">
    <pitch>
     <step>E</step>
     <octave>5</octave>
    </pitch>
    <duration>12</duration>
    <voice>1</voice>
    <type>quarter</type>
   </note>
   <direction placement="above">
    <direction-type>
     <metronome parentheses="no" relative-y="20.00">
      <beat-unit>quarter</beat-unit>
      <per-minute>86</per-minute>
     </metronome>
    </direction-type>
    <sound tempo="85.9998"/>
   </direction>
   <note default-x="38.63" default-y="-10.00" dynamics="88.89">
    <pitch>
     <step>D</step>
     <octave>5</octave>
    </pitch>
    <duration>6</duration>
    <voice>1</voice>
    <type>eighth</type>
   </note>
   <note default-x="54.30" default-y="-30.00" dynamics="88.89">
    <pitch>
     <step>G</step>
     <octave>4</octave>
    </pitch>
    <duration>18</duration>
    <voice>1</voice>
    <type>quarter</type>
    <dot/>
   </note>
   <note default-x="54.30" default-y="-10.00" dynamics="88.89">
    <chord/>
    <pitch>
     <step>D</step>
     <octave>5</octave>
    </pitch>
    <duration>18</duration>
    <voice>1</voice>
    <type>quarter</type>
    <dot/>
   </note>
   <backup>
    <duration>36</duration>
   </backup>
   <note default-x="13.44" default-y="-140.00" dynamics="88.89">
    <pitch>
     <step>F</step>
     <alter>1</alter>
     <octave>4</octave>
    </pitch>
    <duration>24</duration>
    <voice>2</voice>
    <type>half</type>
   </note>
   <forward>
    <duration>12</duration>
    <voice>2</voice>
   </forward>
  </measure>
  <measure number="11" width="139.05">
   <note default-x="20.42" default-y="5.00" dynamics="88.89">
    <pitch>
     <step>G</step>
     <octave>5</octave>
    </pitch>
    <duration>6</duration>
    <voice>1</voice>
    <type>eighth</type>
    <beam number="1">begin</beam>
   </note>
   <note default-x="39.19" default-y="-5.00" dynamics="88.89">
    <pitch>
     <step>E</step>
     <octave>5</octave>
    </pitch>
    <duration>6</duration>
    <voice>1</voice>
    <type>eighth</type>
    <beam number="1">end</beam>
   </note>
   <note default-x="57.96" default-y="5.00" dynamics="88.89">
    <pitch>
     <step>G</step>
     <octave>5</octave>
    </pitch>
    <duration>6</duration>
    <voice>1</voice>
    <type>eighth</type>
   </note>
   <direction placement="above">
    <direction-type>
     <metronome parentheses="no" relative-y="20.00">
      <beat-unit>quarter</beat-unit>
      <per-minute>83</per-minute>
     </metronome>
    </direction-type>
    <sound tempo="82.9998"/>
   </direction>
   <note default-x="76.73" default-y="0.00" dynamics="88.89">
    <pitch>
     <step>F</step>
     <alter>1</alter>
     <octave>5</octave>
    </pitch>
    <duration>12</duration>
    <voice>1</voice>
    <type>quarter</type>
   </note>
   <note default-x="114.28" default-y="0.00" dynamics="88.89">
    <pitch>
     <step>F</step>
     <alter>1</alter>
     <octave>5</octave>
    </pitch>
    <duration>6</duration>
    <voice>1</voice>
    <type>eighth</type>
   </note>
   <backup>
    <duration>36</duration>
   </backup>
   <note default-x="20.05" default-y="-125.00" dynamics="88.89">
    <pitch>
     <step>B</step>
     <alter>-1</alter>
     <octave>4</octave>
    </pitch>
    <duration>24</duration>
    <voice>2</voice>
    <type>half</type>
    <accidental>flat</accidental>
   </note>
   <forward>
    <duration>12</duration>
    <voice>2</voice>
   </forward>
  </measure>
  <measure number="12" width="155.25">
   <direction placement="above">
    <direction-type>
     <metronome parentheses="no" default-y="5.72" relative-y="20.00">
      <beat-unit>quarter</beat-unit>
      <per-minute>81</per-minute>
     </metronome>
    </direction-type>
    <sound tempo="81"/>
   </direction>
   <note default-x="19.14" default-y="15.00" dynamics="88.89">
    <pitch>
     <step>B</step>
     <octave>5</octave>
    </pitch>
    <duration>6</duration>
    <voice>1</voice>
    <type>eighth</type>
    <beam number="1">begin</beam>
   </note>
   <direction placement="above">
    <direction-type>
     <metronome parentheses="no" default-y="27.57" relative-y="20.00">
      <beat-unit>quarter</beat-unit>
      <per-minute>83</per-minute>
     </metronome>
    </direction-type>
    <sound tempo="82.9998"/>
   </direction>
   <note default-x="41.16" default-y="5.00" dynamics="88.89">
    <pitch>
     <step>G</step>
     <octave>5</octave>
    </pitch>
    <duration>6</duration>
    <voice>1</voice>
    <type>eighth</type>
    <beam number="1">end</beam>
   </note>
   <note default-x="63.18" default-y="15.00" dynamics="88.89">
    <pitch>
     <step>B</step>
     <octave>5</octave>
    </pitch>
    <duration>6</duration>
    <voice>1</voice>
    <type>eighth</type>
   </note>
   <note default-x="86.44" default-y="10.00" dynamics="88.89">
    <pitch>
     <step>A</step>
     <octave>5</octave>
    </pitch>
    <duration>12</duration>
    <voice>1</voice>
    <type>quarter</type>
   </note>
   <direction placement="above">
    <direction-type>
     <metronome parentheses="no" default-y="15.73" relative-y="20.00">
      <beat-unit>quarter</beat-unit>
      <per-minute>86</per-minute>
     </metronome>
    </direction-type>
    <sound tempo="85.9998"/>
   </direction>
   <note default-x="130.48" default-y="10.00" dynamics="88.89">
    <pitch>
     <step>A</step>
     <octave>5</octave>
    </pitch>
    <duration>6</duration>
    <voice>1</voice>
    <type>eighth</type>
   </note>
   <backup>
    <duration>36</duration>
   </backup>
   <note default-x="18.78" default-y="-120.00" dynamics="88.89">
    <pitch>
     <step>C</step>
     <alter>1</alter>
     <octave>5</octave>
    </pitch>
    <duration>24</duration>
    <voice>2</voice>
    <type>half</type>
    <accidental>sharp</accidental>
   </note>
   <forward>
    <duration>12</duration>
    <voice>2</voice>
   </forward>
  </measure>
  <measure number="13" width="168.47">
   <note default-x="13.80" default-y="-10.00" dynamics="88.89">
    <pitch>
     <step>D</step>
     <octave>5</octave>
    </pitch>
    <duration>6</duration>
    <voice>1</voice>
    <type>eighth</type>
    <beam number="1">begin</beam>
   </note>
   <note default-x="13.80" default-y="25.00" dynamics="88.89">
    <chord/>
    <pitch>
     <step>D</step>
     <octave>6</octave>
    </pitch>
    <duration>6</duration>
    <voice>1</voice>
    <type>eighth</type>
   </note>
   <note default-x="39.31" default-y="10.00" dynamics="88.89">
    <pitch>
     <step>A</step>
     <octave>5</octave>
    </pitch>
    <duration>6</duration>
    <voice>1</voice>
    <type>eighth</type>
    <beam number="1">end</beam>
   </note>
   <note default-x="64.82" default-y="25.00" dynamics="88.89">
    <pitch>
     <step>D</step>
     <octave>6</octave>
    </pitch>
    <duration>6</duration>
    <voice>1</voice>
    <type>eighth</type>
   </note>
   <direction placement="above">
    <direction-type>
     <metronome parentheses="no" default-y="22.65" relative-y="20.00">
      <beat-unit>quarter</beat-unit>
      <per-minute>89</per-minute>
     </metronome>
    </direction-type>
    <sound tempo="88.9998"/>
   </direction>
   <note default-x="90.33" default-y="10.00" dynamics="88.89">
    <pitch>
     <step>A</step>
     <octave>5</octave>
    </pitch>
    <duration>18</duration>
    <tie type="start"/>
    <voice>1</voice>
    <type>quarter</type>
    <dot/>
    <notations>
     <tied type="start"/>
    </notations>
   </note>
   <note default-x="90.33" default-y="25.00" dynamics="88.89">
    <chord/>
    <pitch>
     <step>D</step>
     <octave>6</octave>
    </pitch>
    <duration>18</duration>
    <tie type="start"/>
    <voice>1</voice>
    <type>quarter</type>
    <dot/>
    <notations>
     <tied type="start"/>
    </notations>
   </note>
   <backup>
    <duration>36</duration>
   </backup>
   <forward>
    <duration>12</duration>
    <voice>2</voice>
   </forward>
   <forward>
    <duration>6</duration>
    <voice>2</voice>
   </forward>
   <note default-x="90.33" default-y="-115.00" dynamics="88.89">
    <pitch>
     <step>D</step>
     <octave>5</octave>
    </pitch>
    <duration>6</duration>
    <voice>2</voice>
    <type>eighth</type>
   </note>
   <forward>
    <duration>12</duration>
    <voice>2</voice>
   </forward>
   <backup>
    <duration>12</duration>
   </backup>
   <direction placement="above">
    <direction-type>
     <metronome parentheses="no" default-y="44.47" relative-y="20.00">
      <beat-unit>quarter</beat-unit>
      <per-minute>86</per-minute>
     </metronome>
    </direction-type>
    <sound tempo="85.9998"/>
   </direction>
   <forward>
    <duration>6</duration>
   </forward>
   <direction placement="above">
    <direction-type>
     <metronome parentheses="no" default-y="66.31" relative-y="20.00">
      <beat-unit>quarter</beat-unit>
      <per-minute>83</per-minute>
     </metronome>
    </direction-type>
    <sound tempo="82.9998"/>
   </direction>
   <forward>
    <duration>6</duration>
   </forward>
  </measure>
  <measure number="14" width="339.69">
   <note default-x="86.55" default-y="10.00" dynamics="88.89">
    <pitch>
     <step>A</step>
     <octave>5</octave>
    </pitch>
    <duration>6</duration>
    <tie type="stop"/>
    <voice>1</voice>
    <type>eighth</type>
    <beam number="1">begin</beam>
    <notations>
     <tied type="stop"/>
    </notations>
   </note>
   <note default-x="86.55" default-y="25.00" dynamics="88.89">
    <chord/>
    <pitch>
     <step>D</step>
     <octave>6</octave>
    </pitch>
    <duration>6</duration>
    <tie type="stop"/>
    <voice>1</voice>
    <type>eighth</type>
    <notations>
     <tied type="stop"/>
    </notations>
   </note>
   <direction placement="above">
    <direction-type>
     <metronome parentheses="no" default-y="0.72" relative-y="20.00">
      <beat-unit>quarter</beat-unit>
      <per-minute>81</per-minute>
     </metronome>
    </direction-type>
    <sound tempo="81"/>
   </direction>
   <note default-x="128.47" default-y="10.00" dynamics="88.89">
    <pitch>
     <step>A</step>
     <octave>5</octave>
    </pitch>
    <duration>6</duration>
    <voice>1</voice>
    <type>eighth</type>
    <beam number="1">end</beam>
   </note>
   <note>
    <rest/>
    <duration>6</duration>
    <voice>1</voice>
    <type>eighth</type>
   </note>
   <note default-x="212.32" default-y="45.00" dynamics="88.89">
    <pitch>
     <step>A</step>
     <octave>6</octave>
    </pitch>
    <duration>12</duration>
    <voice>1</voice>
    <type>quarter</type>
   </note>
   <direction placement="above">
    <direction-type>
     <metronome parentheses="no" default-y="50.73" relative-y="20.00">
      <beat-unit>quarter</beat-unit>
      <per-minute>78</per-minute>
     </metronome>
    </direction-type>
    <sound tempo="78"/>
   </direction>
   <note default-x="296.17" default-y="45.00" dynamics="88.89">
    <pitch>
     <step>A</step>
     <octave>6</octave>
    </pitch>
    <duration>6</duration>
    <voice>1</voice>
    <type>eighth</type>
   </note>
   <backup>
    <duration>36</duration>
   </backup>
   <forward>
    <duration>12</duration>
    <voice>2</voice>
   </forward>
   <note default-x="170.40" default-y="-80.00" dynamics="88.89">
    <pitch>
     <step>D</step>
     <octave>6</octave>
    </pitch>
    <duration>12</duration>
    <voice>2</voice>
    <type>quarter</type>
   </note>
   <forward>
    <duration>12</duration>
    <voice>2</voice>
   </forward>
  </measure>
  <measure number="15" width="204.16">
   <note default-x="13.80" default-y="60.00" dynamics="88.89">
    <pitch>
     <step>D</step>
     <octave>7</octave>
    </pitch>
    <duration>12</duration>
    <voice>1</voice>
    <type>quarter</type>
   </note>
   <note>
    <rest/>
    <duration>12</duration>
    <voice>1</voice>
    <type>quarter</type>
   </note>
   <note>
    <rest/>
    <duration>12</duration>
    <voice>1</voice>
    <type>quarter</type>
   </note>
   <backup>
    <duration>36</duration>
   </backup>
   <forward>
    <duration>36</duration>
    <voice>2</voice>
   </forward>
  </measure>
 </part>
 <part id="P3">
  <measure number="1" width="230.14">
   <attributes>
    <divisions>12</divisions>
    <key>
     <fifths>1</fifths>
    </key>
    <time>
     <beats>3</beats>
     <beat-type>4</beat-type>
    </time>
    <clef>
     <sign>F</sign>
     <line>4</line>
    </clef>
   </attributes>
   <note>
    <rest/>
    <duration>36</duration>
    <voice>1</voice>
   </note>
   <backup>
    <duration>36</duration>
   </backup>
   <forward>
    <duration>36</duration>
    <voice>2</voice>
   </forward>
  </measure>
  <measure number="2" width="164.83">
   <note>
    <rest/>
    <duration>12</duration>
    <voice>1</voice>
    <type>quarter</type>
   </note>
   <note>
    <rest/>
    <duration>4</duration>
    <voice>1</voice>
    <type>eighth</type>
    <time-modification>
     <actual-notes>3</actual-notes>
     <normal-notes>2</normal-notes>
     <normal-type>eighth</normal-type>
    </time-modification>
    <notations>
     <tuplet type="start" bracket="yes"/>
    </notations>
   </note>
   <note default-x="62.82" default-y="-225.00" dynamics="88.89">
    <pitch>
     <step>E</step>
     <octave>3</octave>
    </pitch>
    <duration>8</duration>
    <tie type="start"/>
    <voice>1</voice>
    <type>quarter</type>
    <time-modification>
     <actual-notes>3</actual-notes>
     <normal-notes>2</normal-notes>
     <normal-type>eighth</normal-type>
    </time-modification>
    <notations>
     <tied type="start"/>
     <tuplet type="stop"/>
    </notations>
   </note>
   <note default-x="62.82" default-y="-215.00" dynamics="88.89">
    <chord/>
    <pitch>
     <step>G</step>
     <octave>3</octave>
    </pitch>
    <duration>8</duration>
    <tie type="start"/>
    <voice>1</voice>
    <type>quarter</type>
    <time-modification>
     <actual-notes>3</actual-notes>
     <normal-notes>2</normal-notes>
     <normal-type>eighth</normal-type>
    </time-modification>
    <notations>
     <tied type="start"/>
    </notations>
   </note>
   <note default-x="101.36" default-y="-225.00" dynamics="88.89">
    <pitch>
     <step>E</step>
     <octave>3</octave>
    </pitch>
    <duration>9</duration>
    <tie type="stop"/>
    <voice>1</voice>
    <type>eighth</type>
    <dot/>
    <beam number="1">begin</beam>
    <notations>
     <tied type="stop"/>
    </notations>
   </note>
   <note default-x="101.36" default-y="-215.00" dynamics="88.89">
    <chord/>
    <pitch>
     <step>G</step>
     <octave>3</octave>
    </pitch>
    <duration>9</duration>
    <tie type="stop"/>
    <voice>1</voice>
    <type>eighth</type>
    <dot/>
    <notations>
     <tied type="stop"/>
    </notations>
   </note>
   <note default-x="140.07" default-y="-220.00" dynamics="88.89">
    <pitch>
     <step>F</step>
     <alter>1</alter>
     <octave>3</octave>
    </pitch>
    <duration>3</duration>
    <tie type="start"/>
    <voice>1</voice>
    <type>16th</type>
    <beam number="1">end</beam>
    <beam number="2">backward hook</beam>
    <notations>
     <tied type="start"/>
    </notations>
   </note>
   <note default-x="140.07" default-y="-210.00" dynamics="88.89">
    <chord/>
    <pitch>
     <step>A</step>
     <octave>3</octave>
    </pitch>
    <duration>3</duration>
    <tie type="start"/>
    <voice>1</voice>
    <type>16th</type>
    <notations>
     <tied type="start"/>
    </notations>
   </note>
   <backup>
    <duration>36</duration>
   </backup>
   <forward>
    <duration>36</duration>
    <voice>2</voice>
   </forward>
  </measure>
  <measure number="3" width="139.78">
   <note default-x="10.00" default-y="-220.00" dynamics="88.89">
    <pitch>
     <step>F</step>
     <alter>1</alter>
     <octave>3</octave>
    </pitch>
    <duration>12</duration>
    <tie type="stop"/>
    <tie type="start"/>
    <voice>1</voice>
    <type>quarter</type>
    <notations>
     <tied type="stop"/>
     <tied type="start"/>
    </notations>
   </note>
   <note default-x="10.00" default-y="-210.00" dynamics="88.89">
    <chord/>
    <pitch>
     <step>A</step>
     <octave>3</octave>
    </pitch>
    <duration>12</duration>
    <tie type="stop"/>
    <tie type="start"/>
    <voice>1</voice>
    <type>quarter</type>
    <notations>
     <tied type="stop"/>
     <tied type="start"/>
    </notations>
   </note>
   <note default-x="43.17" default-y="-220.00" dynamics="88.89">
    <pitch>
     <step>F</step>
     <alter>1</alter>
     <octave>3</octave>
    </pitch>
    <duration>4</duration>
    <tie type="stop"/>
    <voice>1</voice>
    <type>eighth</type>
    <time-modification>
     <actual-notes>3</actual-notes>
     <normal-notes>2</normal-notes>
     <normal-type>eighth</normal-type>
    </time-modification>
    <notations>
     <tied type="stop"/>
     <tuplet type="start" bracket="yes"/>
    </notations>
   </note>
   <note default-x="43.17" default-y="-210.00" dynamics="88.89">
    <chord/>
    <pitch>
     <step>A</step>
     <octave>3</octave>
    </pitch>
    <duration>4</duration>
    <tie type="stop"/>
    <voice>1</voice>
    <type>eighth</type>
    <time-modification>
     <actual-notes>3</actual-notes>
     <normal-notes>2</normal-notes>
     <normal-type>eighth</normal-type>
    </time-modification>
    <notations>
     <tied type="stop"/>
    </notations>
   </note>
   <note default-x="63.97" default-y="-215.00" dynamics="88.89">
    <pitch>
     <step>G</step>
     <octave>3</octave>
    </pitch>
    <duration>8</duration>
    <tie type="start"/>
    <voice>1</voice>
    <type>quarter</type>
    <time-modification>
     <actual-notes>3</actual-notes>
     <normal-notes>2</normal-notes>
     <normal-type>eighth</normal-type>
    </time-modification>
    <notations>
     <tied type="start"/>
     <tuplet type="stop"/>
    </notations>
   </note>
   <note default-x="63.97" default-y="-205.00" dynamics="88.89">
    <chord/>
    <pitch>
     <step>B</step>
     <octave>3</octave>
    </pitch>
    <duration>8</duration>
    <tie type="start"/>
    <voice>1</voice>
    <type>quarter</type>
    <time-modification>
     <actual-notes>3</actual-notes>
     <normal-notes>2</normal-notes>
     <normal-type>eighth</normal-type>
    </time-modification>
    <notations>
     <tied type="start"/>
    </notations>
   </note>
   <note default-x="105.01" default-y="-215.00" dynamics="88.89">
    <pitch>
     <step>G</step>
     <octave>3</octave>
    </pitch>
    <duration>12</duration>
    <tie type="stop"/>
    <voice>1</voice>
    <type>quarter</type>
    <notations>
     <tied type="stop"/>
    </notations>
   </note>
   <note default-x="105.01" default-y="-205.00" dynamics="88.89">
    <chord/>
    <pitch>
     <step>B</step>
     <octave>3</octave>
    </pitch>
    <duration>12</duration>
    <tie type="stop"/>
    <voice>1</voice>
    <type>quarter</type>
    <notations>
     <tied type="stop"/>
    </notations>
   </note>
   <backup>
    <duration>36</duration>
   </backup>
   <forward>
    <duration>36</duration>
    <voice>2</voice>
   </forward>
  </measure>
  <measure number="4" width="110.43">
   <note default-x="13.80" default-y="-210.00" dynamics="88.89">
    <pitch>
     <step>A</step>
     <octave>3</octave>
    </pitch>
    <duration>18</duration>
    <voice>1</voice>
    <type>quarter</type>
    <dot/>
   </note>
   <note default-x="13.80" default-y="-200.00" dynamics="88.89">
    <chord/>
    <pitch>
     <step>C</step>
     <octave>4</octave>
    </pitch>
    <duration>18</duration>
    <voice>1</voice>
    <type>quarter</type>
    <dot/>
   </note>
   <note default-x="61.31" default-y="-205.00" dynamics="88.89">
    <pitch>
     <step>B</step>
     <octave>3</octave>
    </pitch>
    <duration>18</duration>
    <voice>1</voice>
    <type>quarter</type>
    <dot/>
   </note>
   <note default-x="61.31" default-y="-195.00" dynamics="88.89">
    <chord/>
    <pitch>
     <step>D</step>
     <octave>4</octave>
    </pitch>
    <duration>18</duration>
    <voice>1</voice>
    <type>quarter</type>
    <dot/>
   </note>
   <backup>
    <duration>36</duration>
   </backup>
   <forward>
    <duration>36</duration>
    <voice>2</voice>
   </forward>
  </measure>
  <measure number="5" width="167.55">
   <note default-x="20.42" default-y="-200.00" dynamics="88.89">
    <pitch>
     <step>C</step>
     <alter>1</alter>
     <octave>4</octave>
    </pitch>
    <duration>18</duration>
    <voice>1</voice>
    <type>quarter</type>
    <dot/>
    <accidental>sharp</accidental>
   </note>
   <note default-x="20.42" default-y="-190.00" dynamics="88.89">
    <chord/>
    <pitch>
     <step>E</step>
     <octave>4</octave>
    </pitch>
    <duration>18</duration>
    <voice>1</voice>
    <type>quarter</type>
    <dot/>
   </note>
   <note default-x="91.22" default-y="-195.00" dynamics="88.89">
    <pitch>
     <step>D</step>
     <octave>4</octave>
    </pitch>
    <duration>6</duration>
    <voice>1</voice>
    <type>eighth</type>
   </note>
   <note>
    <rest/>
    <duration>12</duration>
    <voice>1</voice>
    <type>quarter</type>
   </note>
   <backup>
    <duration>36</duration>
   </backup>
   <forward>
    <duration>36</duration>
    <voice>2</voice>
   </forward>
  </measure>
  <measure number="6" width="135.69">
   <note default-x="10.00" default-y="-230.00" dynamics="88.89">
    <pitch>
     <step>D</step>
     <octave>3</octave>
    </pitch>
    <duration>18</duration>
    <voice>1</voice>
    <type>quarter</type>
    <dot/>
   </note>
   <note default-x="10.00" default-y="-210.00" dynamics="88.89">
    <chord/>
    <pitch>
     <step>A</step>
     <octave>3</octave>
    </pitch>
    <duration>18</duration>
    <voice>1</voice>
    <type>quarter</type>
    <dot/>
   </note>
   <note default-x="69.56" default-y="-230.00" dynamics="88.89">
    <pitch>
     <step>D</step>
     <alter>1</alter>
     <octave>3</octave>
    </pitch>
    <duration>12</duration>
    <voice>1</voice>
    <type>quarter</type>
    <accidental>sharp</accidental>
   </note>
   <note default-x="69.56" default-y="-210.00" dynamics="88.89">
    <chord/>
    <pitch>
     <step>A</step>
     <octave>3</octave>
    </pitch>
    <duration>12</duration>
    <voice>1</voice>
    <type>quarter</type>
   </note>
   <note default-x="101.32" default-y="-225.00" dynamics="88.89">
    <pitch>
     <step>E</step>
     <octave>3</octave>
    </pitch>
    <duration>6</duration>
    <tie type="start"/>
    <voice>1</voice>
    <type>eighth</type>
    <notations>
     <tied type="start"/>
    </notations>
   </note>
   <note default-x="101.32" default-y="-215.00" dynamics="88.89">
    <chord/>
    <pitch>
     <step>G</step>
     <octave>3</octave>
    </pitch>
    <duration>6</duration>
    <tie type="start"/>
    <voice>1</voice>
    <type>eighth</type>
    <notations>
     <tied type="start"/>
    </notations>
   </note>
   <backup>
    <duration>36</duration>
   </backup>
   <forward>
    <duration>36</duration>
    <voice>2</voice>
   </forward>
  </measure>
  <measure number="7" width="291.71">
   <note default-x="95.96" default-y="-225.00" dynamics="88.89">
    <pitch>
     <step>E</step>
     <octave>3</octave>
    </pitch>
    <duration>6</duration>
    <tie type="stop"/>
    <voice>1</voice>
    <type>eighth</type>
    <notations>
     <tied type="stop"/>
    </notations>
   </note>
   <note default-x="95.96" default-y="-215.00" dynamics="88.89">
    <chord/>
    <pitch>
     <step>G</step>
     <octave>3</octave>
    </pitch>
    <duration>6</duration>
    <tie type="stop"/>
    <voice>1</voice>
    <type>eighth</type>
    <notations>
     <tied type="stop"/>
    </notations>
   </note>
   <note>
    <rest/>
    <duration>6</duration>
    <voice>1</voice>
    <type>eighth</type>
   </note>
   <note>
    <rest/>
    <duration>6</duration>
    <voice>1</voice>
    <type>eighth</type>
   </note>
   <note default-x="170.42" default-y="-230.00" dynamics="88.89">
    <pitch>
     <step>D</step>
     <octave>3</octave>
    </pitch>
    <duration>12</duration>
    <voice>1</voice>
    <type>quarter</type>
   </note>
   <note default-x="170.42" default-y="-215.00" dynamics="88.89">
    <chord/>
    <pitch>
     <step>G</step>
     <octave>3</octave>
    </pitch>
    <duration>12</duration>
    <voice>1</voice>
    <type>quarter</type>
   </note>
   <note default-x="218.94" default-y="-220.00" dynamics="88.89">
    <pitch>
     <step>F</step>
     <alter>1</alter>
     <octave>3</octave>
    </pitch>
    <duration>2</duration>
    <voice>1</voice>
    <type>16th</type>
    <time-modification>
     <actual-notes>3</actual-notes>
     <normal-notes>2</normal-notes>
    </time-modification>
    <notations>
     <tuplet type="start" bracket="yes"/>
    </notations>
   </note>
   <note>
    <rest/>
    <duration>2</duration>
    <voice>1</voice>
    <type>16th</type>
    <time-modification>
     <actual-notes>3</actual-notes>
     <normal-notes>2</normal-notes>
    </time-modification>
   </note>
   <note default-x="266.94" default-y="-210.00" dynamics="88.89">
    <pitch>
     <step>A</step>
     <octave>3</octave>
    </pitch>
    <duration>2</duration>
    <tie type="start"/>
    <voice>1</voice>
    <type>16th</type>
    <time-modification>
     <actual-notes>3</actual-notes>
     <normal-notes>2</normal-notes>
    </time-modification>
    <notations>
     <tied type="start"/>
     <tuplet type="stop"/>
    </notations>
   </note>
   <backup>
    <duration>36</duration>
   </backup>
   <note default-x="95.60" default-y="-340.00" dynamics="88.89">
    <pitch>
     <step>C</step>
     <alter>1</alter>
     <octave>3</octave>
    </pitch>
    <duration>24</duration>
    <voice>2</voice>
    <type>half</type>
    <accidental>sharp</accidental>
   </note>
   <forward>
    <duration>8</duration>
    <voice>2</voice>
   </forward>
   <note default-x="235.61" default-y="-335.00" dynamics="88.89">
    <pitch>
     <step>D</step>
     <octave>3</octave>
    </pitch>
    <duration>4</duration>
    <tie type="start"/>
    <voice>2</voice>
    <type>eighth</type>
    <time-modification>
     <actual-notes>3</actual-notes>
     <normal-notes>2</normal-notes>
     <normal-type>eighth</normal-type>
    </time-modification>
    <notations>
     <tied type="start"/>
     <tuplet type="stop"/>
    </notations>
   </note>
  </measure>
  <measure number="8" width="111.88">
   <note default-x="10.36" default-y="-210.00" dynamics="88.89">
    <pitch>
     <step>A</step>
     <octave>3</octave>
    </pitch>
    <duration>18</duration>
    <tie type="stop"/>
    <voice>1</voice>
    <type>quarter</type>
    <dot/>
    <notations>
     <tied type="stop"/>
    </notations>
   </note>
   <note default-x="66.50" default-y="-215.00" dynamics="88.89">
    <pitch>
     <step>G</step>
     <octave>3</octave>
    </pitch>
    <duration>18</duration>
    <voice>1</voice>
    <type>quarter</type>
    <dot/>
   </note>
   <note default-x="66.50" default-y="-195.00" dynamics="88.89">
    <chord/>
    <pitch>
     <step>D</step>
     <octave>4</octave>
    </pitch>
    <duration>18</duration>
    <voice>1</voice>
    <type>quarter</type>
    <dot/>
   </note>
   <backup>
    <duration>36</duration>
   </backup>
   <note default-x="10.36" default-y="-335.00" dynamics="88.89">
    <pitch>
     <step>D</step>
     <octave>3</octave>
    </pitch>
    <duration>12</duration>
    <tie type="stop"/>
    <tie type="start"/>
    <voice>2</voice>
    <type>quarter</type>
    <notations>
     <tied type="stop"/>
     <tied type="start"/>
    </notations>
   </note>
   <note default-x="35.17" default-y="-335.00" dynamics="88.89">
    <pitch>
     <step>D</step>
     <octave>3</octave>
    </pitch>
    <duration>4</duration>
    <tie type="stop"/>
    <voice>2</voice>
    <type>eighth</type>
    <time-modification>
     <actual-notes>3</actual-notes>
     <normal-notes>2</normal-notes>
     <normal-type>eighth</normal-type>
    </time-modification>
    <notations>
     <tied type="stop"/>
     <tuplet type="start" bracket="yes"/>
    </notations>
   </note>
   <note default-x="50.83" default-y="-330.00" dynamics="88.89">
    <pitch>
     <step>E</step>
     <octave>3</octave>
    </pitch>
    <duration>8</duration>
    <tie type="start"/>
    <voice>2</voice>
    <type>quarter</type>
    <time-modification>
     <actual-notes>3</actual-notes>
     <normal-notes>2</normal-notes>
     <normal-type>eighth</normal-type>
    </time-modification>
    <notations>
     <tied type="start"/>
     <tuplet type="stop"/>
    </notations>
   </note>
   <note default-x="85.47" default-y="-330.00" dynamics="88.89">
    <pitch>
     <step>E</step>
     <octave>3</octave>
    </pitch>
    <duration>12</duration>
    <tie type="stop"/>
    <voice>2</voice>
    <type>quarter</type>
    <notations>
     <tied type="stop"/>
    </notations>
   </note>
  </measure>
  <measure number="9" width="114.42">
   <note default-x="13.80" default-y="-210.00" dynamics="88.89">
    <pitch>
     <step>A</step>
     <octave>3</octave>
    </pitch>
    <duration>12</duration>
    <voice>1</voice>
    <type>quarter</type>
   </note>
   <note default-x="13.80" default-y="-195.00" dynamics="88.89">
    <chord/>
    <pitch>
     <step>D</step>
     <octave>4</octave>
    </pitch>
    <duration>12</duration>
    <voice>1</voice>
    <type>quarter</type>
   </note>
   <note>
    <rest/>
    <duration>4</duration>
    <voice>1</voice>
    <type>eighth</type>
    <time-modification>
     <actual-notes>3</actual-notes>
     <normal-notes>2</normal-notes>
     <normal-type>eighth</normal-type>
    </time-modification>
    <notations>
     <tuplet type="start" bracket="yes"/>
    </notations>
   </note>
   <note default-x="53.95" default-y="-215.00" dynamics="88.89">
    <pitch>
     <step>G</step>
     <octave>3</octave>
    </pitch>
    <duration>8</duration>
    <tie type="start"/>
    <voice>1</voice>
    <type>quarter</type>
    <time-modification>
     <actual-notes>3</actual-notes>
     <normal-notes>2</normal-notes>
     <normal-type>eighth</normal-type>
    </time-modification>
    <notations>
     <tied type="start"/>
     <tuplet type="stop"/>
    </notations>
   </note>
   <note default-x="53.95" default-y="-205.00" dynamics="88.89">
    <chord/>
    <pitch>
     <step>B</step>
     <octave>3</octave>
    </pitch>
    <duration>8</duration>
    <tie type="start"/>
    <voice>1</voice>
    <type>quarter</type>
    <time-modification>
     <actual-notes>3</actual-notes>
     <normal-notes>2</normal-notes>
     <normal-type>eighth</normal-type>
    </time-modification>
    <notations>
     <tied type="start"/>
    </notations>
   </note>
   <note default-x="88.33" default-y="-215.00" dynamics="88.89">
    <pitch>
     <step>G</step>
     <octave>3</octave>
    </pitch>
    <duration>12</duration>
    <tie type="stop"/>
    <voice>1</voice>
    <type>quarter</type>
    <notations>
     <tied type="stop"/>
    </notations>
   </note>
   <note default-x="88.33" default-y="-205.00" dynamics="88.89">
    <chord/>
    <pitch>
     <step>B</step>
     <octave>3</octave>
    </pitch>
    <duration>12</duration>
    <tie type="stop"/>
    <voice>1</voice>
    <type>quarter</type>
    <notations>
     <tied type="stop"/>
    </notations>
   </note>
   <backup>
    <duration>36</duration>
   </backup>
   <note default-x="13.44" default-y="-335.00" dynamics="88.89">
    <pitch>
     <step>D</step>
     <octave>3</octave>
    </pitch>
    <duration>24</duration>
    <voice>2</voice>
    <type>half</type>
   </note>
   <forward>
    <duration>12</duration>
    <voice>2</voice>
   </forward>
  </measure>
  <measure number="10" width="96.40">
   <note default-x="13.80" default-y="-210.00" dynamics="88.89">
    <pitch>
     <step>A</step>
     <octave>3</octave>
    </pitch>
    <duration>18</duration>
    <voice>1</voice>
    <type>quarter</type>
    <dot/>
   </note>
   <note default-x="13.80" default-y="-200.00" dynamics="88.89">
    <chord/>
    <pitch>
     <step>C</step>
     <octave>4</octave>
    </pitch>
    <duration>18</duration>
    <voice>1</voice>
    <type>quarter</type>
    <dot/>
   </note>
   <note default-x="54.30" default-y="-205.00" dynamics="88.89">
    <pitch>
     <step>B</step>
     <octave>3</octave>
    </pitch>
    <duration>18</duration>
    <voice>1</voice>
    <type>quarter</type>
    <dot/>
   </note>
   <note default-x="54.30" default-y="-195.00" dynamics="88.89">
    <chord/>
    <pitch>
     <step>D</step>
     <octave>4</octave>
    </pitch>
    <duration>18</duration>
    <voice>1</voice>
    <type>quarter</type>
    <dot/>
   </note>
   <backup>
    <duration>36</duration>
   </backup>
   <forward>
    <duration>36</duration>
    <voice>2</voice>
   </forward>
  </measure>
  <measure number="11" width="139.05">
   <note default-x="20.42" default-y="-200.00" dynamics="88.89">
    <pitch>
     <step>C</step>
     <alter>1</alter>
     <octave>4</octave>
    </pitch>
    <duration>18</duration>
    <voice>1</voice>
    <type>quarter</type>
    <dot/>
    <accidental>sharp</accidental>
   </note>
   <note default-x="20.42" default-y="-190.00" dynamics="88.89">
    <chord/>
    <pitch>
     <step>E</step>
     <octave>4</octave>
    </pitch>
    <duration>18</duration>
    <voice>1</voice>
    <type>quarter</type>
    <dot/>
   </note>
   <note default-x="76.73" default-y="-185.00" dynamics="88.89">
    <pitch>
     <step>F</step>
     <alter>1</alter>
     <octave>4</octave>
    </pitch>
    <duration>18</duration>
    <voice>1</voice>
    <type>quarter</type>
    <dot/>
   </note>
   <note default-x="76.73" default-y="-170.00" dynamics="88.89">
    <chord/>
    <pitch>
     <step>B</step>
     <octave>4</octave>
    </pitch>
    <duration>18</duration>
    <voice>1</voice>
    <type>quarter</type>
    <dot/>
   </note>
   <backup>
    <duration>36</duration>
   </backup>
   <forward>
    <duration>36</duration>
    <voice>2</voice>
   </forward>
  </measure>
  <measure number="12" width="155.25">
   <note default-x="19.14" default-y="-190.00" dynamics="88.89">
    <pitch>
     <step>E</step>
     <octave>4</octave>
    </pitch>
    <duration>18</duration>
    <voice>1</voice>
    <type>quarter</type>
    <dot/>
   </note>
   <note default-x="19.14" default-y="-180.00" dynamics="88.89">
    <chord/>
    <pitch>
     <step>G</step>
     <octave>4</octave>
    </pitch>
    <duration>18</duration>
    <voice>1</voice>
    <type>quarter</type>
    <dot/>
   </note>
   <note default-x="86.44" default-y="-175.00" dynamics="88.89">
    <pitch>
     <step>A</step>
     <octave>4</octave>
    </pitch>
    <duration>18</duration>
    <voice>1</voice>
    <type>quarter</type>
    <dot/>
   </note>
   <note default-x="86.44" default-y="-160.00" dynamics="88.89">
    <chord/>
    <pitch>
     <step>D</step>
     <octave>5</octave>
    </pitch>
    <duration>18</duration>
    <voice>1</voice>
    <type>quarter</type>
    <dot/>
   </note>
   <backup>
    <duration>36</duration>
   </backup>
   <forward>
    <duration>12</duration>
    <voice>2</voice>
   </forward>
   <forward>
    <duration>6</duration>
    <voice>2</voice>
   </forward>
   <note default-x="86.44" default-y="-290.00" dynamics="88.89">
    <pitch>
     <step>F</step>
     <alter>1</alter>
     <octave>4</octave>
    </pitch>
    <duration>18</duration>
    <voice>2</voice>
    <type>quarter</type>
    <dot/>
   </note>
  </measure>
  <measure number="13" width="168.47">
   <note default-x="13.80" default-y="-175.00" dynamics="88.89">
    <pitch>
     <step>A</step>
     <octave>4</octave>
    </pitch>
    <duration>12</duration>
    <voice>1</voice>
    <type>quarter</type>
   </note>
   <note>
    <rest/>
    <duration>12</duration>
    <voice>1</voice>
    <type>quarter</type>
   </note>
   <note default-x="115.85" default-y="-175.00" dynamics="88.89">
    <pitch>
     <step>A</step>
     <octave>4</octave>
    </pitch>
    <duration>6</duration>
    <voice>1</voice>
    <type>eighth</type>
    <beam number="1">begin</beam>
   </note>
   <note default-x="141.36" default-y="-160.00" dynamics="88.89">
    <pitch>
     <step>D</step>
     <octave>5</octave>
    </pitch>
    <duration>6</duration>
    <voice>1</voice>
    <type>eighth</type>
    <beam number="1">end</beam>
   </note>
   <backup>
    <duration>36</duration>
   </backup>
   <note default-x="13.80" default-y="-290.00" dynamics="88.89">
    <pitch>
     <step>F</step>
     <alter>1</alter>
     <octave>4</octave>
    </pitch>
    <duration>18</duration>
    <voice>2</voice>
    <type>quarter</type>
    <dot/>
   </note>
   <note default-x="90.33" default-y="-290.00" dynamics="88.89">
    <pitch>
     <step>F</step>
     <alter>1</alter>
     <octave>4</octave>
    </pitch>
    <duration>18</duration>
    <tie type="start"/>
    <voice>2</voice>
    <type>quarter</type>
    <dot/>
    <notations>
     <tied type="start"/>
    </notations>
   </note>
  </measure>
  <measure number="14" width="339.69">
   <note default-x="86.19" default-y="-190.82" dynamics="88.89">
    <pitch>
     <step>D</step>
     <octave>5</octave>
    </pitch>
    <duration>24</duration>
    <voice>1</voice>
    <type>half</type>
   </note>
   <note default-x="254.24" default-y="-155.82" dynamics="88.89">
    <pitch>
     <step>D</step>
     <octave>6</octave>
    </pitch>
    <duration>12</duration>
    <voice>1</voice>
    <type>quarter</type>
   </note>
   <backup>
    <duration>36</duration>
   </backup>
   <note default-x="86.55" default-y="-320.82" dynamics="88.89">
    <pitch>
     <step>F</step>
     <alter>1</alter>
     <octave>4</octave>
    </pitch>
    <duration>6</duration>
    <tie type="stop"/>
    <voice>2</voice>
    <type>eighth</type>
    <notations>
     <tied type="stop"/>
    </notations>
   </note>
   <forward>
    <duration>6</duration>
    <voice>2</voice>
   </forward>
   <forward>
    <duration>12</duration>
    <voice>2</voice>
   </forward>
   <forward>
    <duration>12</duration>
    <voice>2</voice>
   </forward>
  </measure>
  <measure number="15" width="204.16">
   <note>
    <rest/>
    <duration>36</duration>
    <voice>1</voice>
   </note>
   <backup>
    <duration>36</duration>
   </backup>
   <forward>
    <duration>36</duration>
    <voice>2</voice>
   </forward>
  </measure>
 </part>
</score-partwise>
